<?xml version="1.0" encoding="UTF-8" standalone="no"?>
<!-- Created with matplotlib (http://matplotlib.org/) -->

<svg
 xmlns:dc="http://purl.org/dc/elements/1.1/"
 xmlns:cc="http://creativecommons.org/ns#"
 xmlns:rdf="http://www.w3.org/1999/02/22-rdf-syntax-ns#"
 xmlns:svg="http://www.w3.org/2000/svg"
 xmlns="http://www.w3.org/2000/svg"
 xmlns:xlink="http://www.w3.org/1999/xlink"
 xmlns:sodipodi="http://sodipodi.sourceforge.net/DTD/sodipodi-0.dtd"
 xmlns:inkscape="http://www.inkscape.org/namespaces/inkscape"
 height="345pt"
 version="1.1"
 viewBox="0 0 460 345"
 width="460pt"
 id="svg2223"
 sodipodi:docname="carbon_products.svg"
 inkscape:version="0.92.4 (unknown)"
 inkscape:export-filename="/home/scott/Dropbox/PhD_thesis/TeX/01_Intro/fig/carbon_products.png"
 inkscape:export-xdpi="300"
 inkscape:export-ydpi="300">
<metadata
 id="metadata2227">
<rdf:RDF>
<cc:Work
 rdf:about="">
<dc:format>image/svg+xml</dc:format>
<dc:type
 rdf:resource="http://purl.org/dc/dcmitype/StillImage" />
<dc:title></dc:title>
</cc:Work>
</rdf:RDF>
</metadata>
<sodipodi:namedview
 pagecolor="#ffffff"
 bordercolor="#666666"
 borderopacity="1"
 objecttolerance="10"
 gridtolerance="10"
 guidetolerance="10"
 inkscape:pageopacity="0"
 inkscape:pageshadow="2"
 inkscape:window-width="1839"
 inkscape:window-height="1050"
 id="namedview2225"
 showgrid="false"
 inkscape:zoom="1.9673913"
 inkscape:cx="227.19379"
 inkscape:cy="230.00782"
 inkscape:window-x="81"
 inkscape:window-y="30"
 inkscape:window-maximized="1"
 inkscape:current-layer="svg2223" />
<defs
 id="defs1570">
<style
 type="text/css"
 id="style1568">
*{stroke-linecap:butt;stroke-linejoin:round;}
  </style>
</defs>
<g
 id="figure_1">
<g
 id="patch_1">
<path
 d="M 0 345.6  L 460.8 345.6  L 460.8 0  L 0 0  z "
 style="fill:#ffffff;"
 id="path1572" />
</g>
<g
 id="axes_1">
<g
 id="patch_2">
<path
 d="M 57.6 307.584  L 414.72 307.584  L 414.72 41.472  L 57.6 41.472  z "
 style="fill:#ffffff;"
 id="path1575" />
</g>
<g
 id="matplotlib.axis_1">
<g
 id="xtick_1">
<g
 id="line2d_1">
<defs
 id="defs1579">
<path
 d="M 0 0  L 0 3.5  "
 id="m105ed038a5"
 style="stroke:#000000;stroke-width:0.8;" />
</defs>
<g
 id="g1583">
<use
 style="stroke:#000000;stroke-width:0.8;"
 x="73.832727"
 xlink:href="#m105ed038a5"
 y="290.813325"
 id="use1581" />
</g>
</g>
<g
 id="text_1">
<!-- 0.0 -->
<defs
 id="defs1588">
<path
 d="M 31.78125 66.40625  Q 24.171875 66.40625 20.328125 58.90625  Q 16.5 51.421875 16.5 36.375  Q 16.5 21.390625 20.328125 13.890625  Q 24.171875 6.390625 31.78125 6.390625  Q 39.453125 6.390625 43.28125 13.890625  Q 47.125 21.390625 47.125 36.375  Q 47.125 51.421875 43.28125 58.90625  Q 39.453125 66.40625 31.78125 66.40625  M 31.78125 74.21875  Q 44.046875 74.21875 50.515625 64.515625  Q 56.984375 54.828125 56.984375 36.375  Q 56.984375 17.96875 50.515625 8.265625  Q 44.046875 -1.421875 31.78125 -1.421875  Q 19.53125 -1.421875 13.0625 8.265625  Q 6.59375 17.96875 6.59375 36.375  Q 6.59375 54.828125 13.0625 64.515625  Q 19.53125 74.21875 31.78125 74.21875  "
 id="DejaVuSans-30" />
<path
 d="M 10.6875 12.40625  L 21 12.40625  L 21 0  L 10.6875 0  z "
 id="DejaVuSans-2e" />
</defs>
<g
 transform="translate(65.881165 305.411762)scale(0.1 -0.1)"
 id="g1596">
<use
 xlink:href="#DejaVuSans-30"
 id="use1590" />
<use
 x="63.623047"
 xlink:href="#DejaVuSans-2e"
 id="use1592" />
<use
 x="95.410156"
 xlink:href="#DejaVuSans-30"
 id="use1594" />
</g>
</g>
</g>
<g
 id="xtick_2">
<g
 id="line2d_2">
<g
 id="g1602">
<use
 style="stroke:#000000;stroke-width:0.8;"
 x="114.414545"
 xlink:href="#m105ed038a5"
 y="290.813325"
 id="use1600" />
</g>
</g>
<g
 id="text_2">
<!-- 2.5 -->
<defs
 id="defs1607">
<path
 d="M 19.1875 8.296875  L 53.609375 8.296875  L 53.609375 0  L 7.328125 0  L 7.328125 8.296875  Q 12.9375 14.109375 22.625 23.890625  Q 32.328125 33.6875 34.8125 36.53125  Q 39.546875 41.84375 41.421875 45.53125  Q 43.3125 49.21875 43.3125 52.78125  Q 43.3125 58.59375 39.234375 62.25  Q 35.15625 65.921875 28.609375 65.921875  Q 23.96875 65.921875 18.8125 64.3125  Q 13.671875 62.703125 7.8125 59.421875  L 7.8125 69.390625  Q 13.765625 71.78125 18.9375 73  Q 24.125 74.21875 28.421875 74.21875  Q 39.75 74.21875 46.484375 68.546875  Q 53.21875 62.890625 53.21875 53.421875  Q 53.21875 48.921875 51.53125 44.890625  Q 49.859375 40.875 45.40625 35.40625  Q 44.1875 33.984375 37.640625 27.21875  Q 31.109375 20.453125 19.1875 8.296875  "
 id="DejaVuSans-32" />
<path
 d="M 10.796875 72.90625  L 49.515625 72.90625  L 49.515625 64.59375  L 19.828125 64.59375  L 19.828125 46.734375  Q 21.96875 47.46875 24.109375 47.828125  Q 26.265625 48.1875 28.421875 48.1875  Q 40.625 48.1875 47.75 41.5  Q 54.890625 34.8125 54.890625 23.390625  Q 54.890625 11.625 47.5625 5.09375  Q 40.234375 -1.421875 26.90625 -1.421875  Q 22.3125 -1.421875 17.546875 -0.640625  Q 12.796875 0.140625 7.71875 1.703125  L 7.71875 11.625  Q 12.109375 9.234375 16.796875 8.0625  Q 21.484375 6.890625 26.703125 6.890625  Q 35.15625 6.890625 40.078125 11.328125  Q 45.015625 15.765625 45.015625 23.390625  Q 45.015625 31 40.078125 35.4375  Q 35.15625 39.890625 26.703125 39.890625  Q 22.75 39.890625 18.8125 39.015625  Q 14.890625 38.140625 10.796875 36.28125  z "
 id="DejaVuSans-35" />
</defs>
<g
 transform="translate(106.462983 305.411762)scale(0.1 -0.1)"
 id="g1615">
<use
 xlink:href="#DejaVuSans-32"
 id="use1609" />
<use
 x="63.623047"
 xlink:href="#DejaVuSans-2e"
 id="use1611" />
<use
 x="95.410156"
 xlink:href="#DejaVuSans-35"
 id="use1613" />
</g>
</g>
</g>
<g
 id="xtick_3">
<g
 id="line2d_3">
<g
 id="g1621">
<use
 style="stroke:#000000;stroke-width:0.8;"
 x="154.996364"
 xlink:href="#m105ed038a5"
 y="290.813325"
 id="use1619" />
</g>
</g>
<g
 id="text_3">
<!-- 5.0 -->
<g
 transform="translate(147.044801 305.411762)scale(0.1 -0.1)"
 id="g1630">
<use
 xlink:href="#DejaVuSans-35"
 id="use1624" />
<use
 x="63.623047"
 xlink:href="#DejaVuSans-2e"
 id="use1626" />
<use
 x="95.410156"
 xlink:href="#DejaVuSans-30"
 id="use1628" />
</g>
</g>
</g>
<g
 id="xtick_4">
<g
 id="line2d_4">
<g
 id="g1636">
<use
 style="stroke:#000000;stroke-width:0.8;"
 x="195.578182"
 xlink:href="#m105ed038a5"
 y="290.813325"
 id="use1634" />
</g>
</g>
<g
 id="text_4">
<!-- 7.5 -->
<defs
 id="defs1640">
<path
 d="M 8.203125 72.90625  L 55.078125 72.90625  L 55.078125 68.703125  L 28.609375 0  L 18.3125 0  L 43.21875 64.59375  L 8.203125 64.59375  z "
 id="DejaVuSans-37" />
</defs>
<g
 transform="translate(187.626619 305.411762)scale(0.1 -0.1)"
 id="g1648">
<use
 xlink:href="#DejaVuSans-37"
 id="use1642" />
<use
 x="63.623047"
 xlink:href="#DejaVuSans-2e"
 id="use1644" />
<use
 x="95.410156"
 xlink:href="#DejaVuSans-35"
 id="use1646" />
</g>
</g>
</g>
<g
 id="xtick_5">
<g
 id="line2d_5">
<g
 id="g1654">
<use
 style="stroke:#000000;stroke-width:0.8;"
 x="236.16"
 xlink:href="#m105ed038a5"
 y="290.813325"
 id="use1652" />
</g>
</g>
<g
 id="text_5">
<!-- 10.0 -->
<defs
 id="defs1658">
<path
 d="M 12.40625 8.296875  L 28.515625 8.296875  L 28.515625 63.921875  L 10.984375 60.40625  L 10.984375 69.390625  L 28.421875 72.90625  L 38.28125 72.90625  L 38.28125 8.296875  L 54.390625 8.296875  L 54.390625 0  L 12.40625 0  z "
 id="DejaVuSans-31" />
</defs>
<g
 transform="translate(225.027188 305.411762)scale(0.1 -0.1)"
 id="g1668">
<use
 xlink:href="#DejaVuSans-31"
 id="use1660" />
<use
 x="63.623047"
 xlink:href="#DejaVuSans-30"
 id="use1662" />
<use
 x="127.246094"
 xlink:href="#DejaVuSans-2e"
 id="use1664" />
<use
 x="159.033203"
 xlink:href="#DejaVuSans-30"
 id="use1666" />
</g>
</g>
</g>
<g
 id="xtick_6">
<g
 id="line2d_6">
<g
 id="g1674">
<use
 style="stroke:#000000;stroke-width:0.8;"
 x="276.741818"
 xlink:href="#m105ed038a5"
 y="290.813325"
 id="use1672" />
</g>
</g>
<g
 id="text_6">
<!-- 12.5 -->
<g
 transform="translate(265.609006 305.411762)scale(0.1 -0.1)"
 id="g1685">
<use
 xlink:href="#DejaVuSans-31"
 id="use1677" />
<use
 x="63.623047"
 xlink:href="#DejaVuSans-32"
 id="use1679" />
<use
 x="127.246094"
 xlink:href="#DejaVuSans-2e"
 id="use1681" />
<use
 x="159.033203"
 xlink:href="#DejaVuSans-35"
 id="use1683" />
</g>
</g>
</g>
<g
 id="xtick_7">
<g
 id="line2d_7">
<g
 id="g1691">
<use
 style="stroke:#000000;stroke-width:0.8;"
 x="317.323636"
 xlink:href="#m105ed038a5"
 y="290.813325"
 id="use1689" />
</g>
</g>
<g
 id="text_7">
<!-- 15.0 -->
<g
 transform="translate(306.190824 305.411762)scale(0.1 -0.1)"
 id="g1702">
<use
 xlink:href="#DejaVuSans-31"
 id="use1694" />
<use
 x="63.623047"
 xlink:href="#DejaVuSans-35"
 id="use1696" />
<use
 x="127.246094"
 xlink:href="#DejaVuSans-2e"
 id="use1698" />
<use
 x="159.033203"
 xlink:href="#DejaVuSans-30"
 id="use1700" />
</g>
</g>
</g>
<g
 id="xtick_8">
<g
 id="line2d_8">
<g
 id="g1708">
<use
 style="stroke:#000000;stroke-width:0.8;"
 x="357.905455"
 xlink:href="#m105ed038a5"
 y="290.813325"
 id="use1706" />
</g>
</g>
<g
 id="text_8">
<!-- 17.5 -->
<g
 transform="translate(346.772642 305.411762)scale(0.1 -0.1)"
 id="g1719">
<use
 xlink:href="#DejaVuSans-31"
 id="use1711" />
<use
 x="63.623047"
 xlink:href="#DejaVuSans-37"
 id="use1713" />
<use
 x="127.246094"
 xlink:href="#DejaVuSans-2e"
 id="use1715" />
<use
 x="159.033203"
 xlink:href="#DejaVuSans-35"
 id="use1717" />
</g>
</g>
</g>
<g
 id="xtick_9">
<g
 id="line2d_9">
<g
 id="g1725">
<use
 style="stroke:#000000;stroke-width:0.8;"
 x="398.487273"
 xlink:href="#m105ed038a5"
 y="290.813325"
 id="use1723" />
</g>
</g>
<g
 id="text_9">
<!-- 20.0 -->
<g
 transform="translate(387.35446 305.411762)scale(0.1 -0.1)"
 id="g1736">
<use
 xlink:href="#DejaVuSans-32"
 id="use1728" />
<use
 x="63.623047"
 xlink:href="#DejaVuSans-30"
 id="use1730" />
<use
 x="127.246094"
 xlink:href="#DejaVuSans-2e"
 id="use1732" />
<use
 x="159.033203"
 xlink:href="#DejaVuSans-30"
 id="use1734" />
</g>
</g>
</g>
<g
 id="text_10">
<!-- Energy content / MWh tC$^{-1}$ -->
<defs
 id="defs1756">
<path
 d="M 9.8125 72.90625  L 55.90625 72.90625  L 55.90625 64.59375  L 19.671875 64.59375  L 19.671875 43.015625  L 54.390625 43.015625  L 54.390625 34.71875  L 19.671875 34.71875  L 19.671875 8.296875  L 56.78125 8.296875  L 56.78125 0  L 9.8125 0  z "
 id="DejaVuSans-45" />
<path
 d="M 54.890625 33.015625  L 54.890625 0  L 45.90625 0  L 45.90625 32.71875  Q 45.90625 40.484375 42.875 44.328125  Q 39.84375 48.1875 33.796875 48.1875  Q 26.515625 48.1875 22.3125 43.546875  Q 18.109375 38.921875 18.109375 30.90625  L 18.109375 0  L 9.078125 0  L 9.078125 54.6875  L 18.109375 54.6875  L 18.109375 46.1875  Q 21.34375 51.125 25.703125 53.5625  Q 30.078125 56 35.796875 56  Q 45.21875 56 50.046875 50.171875  Q 54.890625 44.34375 54.890625 33.015625  "
 id="DejaVuSans-6e" />
<path
 d="M 56.203125 29.59375  L 56.203125 25.203125  L 14.890625 25.203125  Q 15.484375 15.921875 20.484375 11.0625  Q 25.484375 6.203125 34.421875 6.203125  Q 39.59375 6.203125 44.453125 7.46875  Q 49.3125 8.734375 54.109375 11.28125  L 54.109375 2.78125  Q 49.265625 0.734375 44.1875 -0.34375  Q 39.109375 -1.421875 33.890625 -1.421875  Q 20.796875 -1.421875 13.15625 6.1875  Q 5.515625 13.8125 5.515625 26.8125  Q 5.515625 40.234375 12.765625 48.109375  Q 20.015625 56 32.328125 56  Q 43.359375 56 49.78125 48.890625  Q 56.203125 41.796875 56.203125 29.59375  M 47.21875 32.234375  Q 47.125 39.59375 43.09375 43.984375  Q 39.0625 48.390625 32.421875 48.390625  Q 24.90625 48.390625 20.390625 44.140625  Q 15.875 39.890625 15.1875 32.171875  z "
 id="DejaVuSans-65" />
<path
 d="M 41.109375 46.296875  Q 39.59375 47.171875 37.8125 47.578125  Q 36.03125 48 33.890625 48  Q 26.265625 48 22.1875 43.046875  Q 18.109375 38.09375 18.109375 28.8125  L 18.109375 0  L 9.078125 0  L 9.078125 54.6875  L 18.109375 54.6875  L 18.109375 46.1875  Q 20.953125 51.171875 25.484375 53.578125  Q 30.03125 56 36.53125 56  Q 37.453125 56 38.578125 55.875  Q 39.703125 55.765625 41.0625 55.515625  z "
 id="DejaVuSans-72" />
<path
 d="M 45.40625 27.984375  Q 45.40625 37.75 41.375 43.109375  Q 37.359375 48.484375 30.078125 48.484375  Q 22.859375 48.484375 18.828125 43.109375  Q 14.796875 37.75 14.796875 27.984375  Q 14.796875 18.265625 18.828125 12.890625  Q 22.859375 7.515625 30.078125 7.515625  Q 37.359375 7.515625 41.375 12.890625  Q 45.40625 18.265625 45.40625 27.984375  M 54.390625 6.78125  Q 54.390625 -7.171875 48.1875 -13.984375  Q 42 -20.796875 29.203125 -20.796875  Q 24.46875 -20.796875 20.265625 -20.09375  Q 16.0625 -19.390625 12.109375 -17.921875  L 12.109375 -9.1875  Q 16.0625 -11.328125 19.921875 -12.34375  Q 23.78125 -13.375 27.78125 -13.375  Q 36.625 -13.375 41.015625 -8.765625  Q 45.40625 -4.15625 45.40625 5.171875  L 45.40625 9.625  Q 42.625 4.78125 38.28125 2.390625  Q 33.9375 0 27.875 0  Q 17.828125 0 11.671875 7.65625  Q 5.515625 15.328125 5.515625 27.984375  Q 5.515625 40.671875 11.671875 48.328125  Q 17.828125 56 27.875 56  Q 33.9375 56 38.28125 53.609375  Q 42.625 51.21875 45.40625 46.390625  L 45.40625 54.6875  L 54.390625 54.6875  z "
 id="DejaVuSans-67" />
<path
 d="M 32.171875 -5.078125  Q 28.375 -14.84375 24.75 -17.8125  Q 21.140625 -20.796875 15.09375 -20.796875  L 7.90625 -20.796875  L 7.90625 -13.28125  L 13.1875 -13.28125  Q 16.890625 -13.28125 18.9375 -11.515625  Q 21 -9.765625 23.484375 -3.21875  L 25.09375 0.875  L 2.984375 54.6875  L 12.5 54.6875  L 29.59375 11.921875  L 46.6875 54.6875  L 56.203125 54.6875  z "
 id="DejaVuSans-79" />
<path
 id="DejaVuSans-20" />
<path
 d="M 48.78125 52.59375  L 48.78125 44.1875  Q 44.96875 46.296875 41.140625 47.34375  Q 37.3125 48.390625 33.40625 48.390625  Q 24.65625 48.390625 19.8125 42.84375  Q 14.984375 37.3125 14.984375 27.296875  Q 14.984375 17.28125 19.8125 11.734375  Q 24.65625 6.203125 33.40625 6.203125  Q 37.3125 6.203125 41.140625 7.25  Q 44.96875 8.296875 48.78125 10.40625  L 48.78125 2.09375  Q 45.015625 0.34375 40.984375 -0.53125  Q 36.96875 -1.421875 32.421875 -1.421875  Q 20.0625 -1.421875 12.78125 6.34375  Q 5.515625 14.109375 5.515625 27.296875  Q 5.515625 40.671875 12.859375 48.328125  Q 20.21875 56 33.015625 56  Q 37.15625 56 41.109375 55.140625  Q 45.0625 54.296875 48.78125 52.59375  "
 id="DejaVuSans-63" />
<path
 d="M 30.609375 48.390625  Q 23.390625 48.390625 19.1875 42.75  Q 14.984375 37.109375 14.984375 27.296875  Q 14.984375 17.484375 19.15625 11.84375  Q 23.34375 6.203125 30.609375 6.203125  Q 37.796875 6.203125 41.984375 11.859375  Q 46.1875 17.53125 46.1875 27.296875  Q 46.1875 37.015625 41.984375 42.703125  Q 37.796875 48.390625 30.609375 48.390625  M 30.609375 56  Q 42.328125 56 49.015625 48.375  Q 55.71875 40.765625 55.71875 27.296875  Q 55.71875 13.875 49.015625 6.21875  Q 42.328125 -1.421875 30.609375 -1.421875  Q 18.84375 -1.421875 12.171875 6.21875  Q 5.515625 13.875 5.515625 27.296875  Q 5.515625 40.765625 12.171875 48.375  Q 18.84375 56 30.609375 56  "
 id="DejaVuSans-6f" />
<path
 d="M 18.3125 70.21875  L 18.3125 54.6875  L 36.8125 54.6875  L 36.8125 47.703125  L 18.3125 47.703125  L 18.3125 18.015625  Q 18.3125 11.328125 20.140625 9.421875  Q 21.96875 7.515625 27.59375 7.515625  L 36.8125 7.515625  L 36.8125 0  L 27.59375 0  Q 17.1875 0 13.234375 3.875  Q 9.28125 7.765625 9.28125 18.015625  L 9.28125 47.703125  L 2.6875 47.703125  L 2.6875 54.6875  L 9.28125 54.6875  L 9.28125 70.21875  z "
 id="DejaVuSans-74" />
<path
 d="M 25.390625 72.90625  L 33.6875 72.90625  L 8.296875 -9.28125  L 0 -9.28125  z "
 id="DejaVuSans-2f" />
<path
 d="M 9.8125 72.90625  L 24.515625 72.90625  L 43.109375 23.296875  L 61.8125 72.90625  L 76.515625 72.90625  L 76.515625 0  L 66.890625 0  L 66.890625 64.015625  L 48.09375 14.015625  L 38.1875 14.015625  L 19.390625 64.015625  L 19.390625 0  L 9.8125 0  z "
 id="DejaVuSans-4d" />
<path
 d="M 3.328125 72.90625  L 13.28125 72.90625  L 28.609375 11.28125  L 43.890625 72.90625  L 54.984375 72.90625  L 70.3125 11.28125  L 85.59375 72.90625  L 95.609375 72.90625  L 77.296875 0  L 64.890625 0  L 49.515625 63.28125  L 33.984375 0  L 21.578125 0  z "
 id="DejaVuSans-57" />
<path
 d="M 54.890625 33.015625  L 54.890625 0  L 45.90625 0  L 45.90625 32.71875  Q 45.90625 40.484375 42.875 44.328125  Q 39.84375 48.1875 33.796875 48.1875  Q 26.515625 48.1875 22.3125 43.546875  Q 18.109375 38.921875 18.109375 30.90625  L 18.109375 0  L 9.078125 0  L 9.078125 75.984375  L 18.109375 75.984375  L 18.109375 46.1875  Q 21.34375 51.125 25.703125 53.5625  Q 30.078125 56 35.796875 56  Q 45.21875 56 50.046875 50.171875  Q 54.890625 44.34375 54.890625 33.015625  "
 id="DejaVuSans-68" />
<path
 d="M 64.40625 67.28125  L 64.40625 56.890625  Q 59.421875 61.53125 53.78125 63.8125  Q 48.140625 66.109375 41.796875 66.109375  Q 29.296875 66.109375 22.65625 58.46875  Q 16.015625 50.828125 16.015625 36.375  Q 16.015625 21.96875 22.65625 14.328125  Q 29.296875 6.6875 41.796875 6.6875  Q 48.140625 6.6875 53.78125 8.984375  Q 59.421875 11.28125 64.40625 15.921875  L 64.40625 5.609375  Q 59.234375 2.09375 53.4375 0.328125  Q 47.65625 -1.421875 41.21875 -1.421875  Q 24.65625 -1.421875 15.125 8.703125  Q 5.609375 18.84375 5.609375 36.375  Q 5.609375 53.953125 15.125 64.078125  Q 24.65625 74.21875 41.21875 74.21875  Q 47.75 74.21875 53.53125 72.484375  Q 59.328125 70.75 64.40625 67.28125  "
 id="DejaVuSans-43" />
<path
 d="M 10.59375 35.5  L 73.1875 35.5  L 73.1875 27.203125  L 10.59375 27.203125  z "
 id="DejaVuSans-2212" />
</defs>
<g
 transform="translate(168.11 320.49145)scale(0.1 -0.1)"
 id="g1808">
<use
 transform="translate(0 0.684375)"
 xlink:href="#DejaVuSans-45"
 id="use1758" />
<use
 transform="translate(63.183594 0.684375)"
 xlink:href="#DejaVuSans-6e"
 id="use1760" />
<use
 transform="translate(126.5625 0.684375)"
 xlink:href="#DejaVuSans-65"
 id="use1762" />
<use
 transform="translate(188.085938 0.684375)"
 xlink:href="#DejaVuSans-72"
 id="use1764" />
<use
 transform="translate(229.199219 0.684375)"
 xlink:href="#DejaVuSans-67"
 id="use1766" />
<use
 transform="translate(292.675781 0.684375)"
 xlink:href="#DejaVuSans-79"
 id="use1768" />
<use
 transform="translate(351.855469 0.684375)"
 xlink:href="#DejaVuSans-20"
 id="use1770" />
<use
 transform="translate(383.642578 0.684375)"
 xlink:href="#DejaVuSans-63"
 id="use1772" />
<use
 transform="translate(438.623047 0.684375)"
 xlink:href="#DejaVuSans-6f"
 id="use1774" />
<use
 transform="translate(499.804688 0.684375)"
 xlink:href="#DejaVuSans-6e"
 id="use1776" />
<use
 transform="translate(563.183594 0.684375)"
 xlink:href="#DejaVuSans-74"
 id="use1778" />
<use
 transform="translate(602.392578 0.684375)"
 xlink:href="#DejaVuSans-65"
 id="use1780" />
<use
 transform="translate(663.916016 0.684375)"
 xlink:href="#DejaVuSans-6e"
 id="use1782" />
<use
 transform="translate(727.294922 0.684375)"
 xlink:href="#DejaVuSans-74"
 id="use1784" />
<use
 transform="translate(766.503906 0.684375)"
 xlink:href="#DejaVuSans-20"
 id="use1786" />
<use
 transform="translate(798.291016 0.684375)"
 xlink:href="#DejaVuSans-2f"
 id="use1788" />
<use
 transform="translate(831.982422 0.684375)"
 xlink:href="#DejaVuSans-20"
 id="use1790" />
<use
 transform="translate(863.769531 0.684375)"
 xlink:href="#DejaVuSans-4d"
 id="use1792" />
<use
 transform="translate(950.048828 0.684375)"
 xlink:href="#DejaVuSans-57"
 id="use1794" />
<use
 transform="translate(1048.925781 0.684375)"
 xlink:href="#DejaVuSans-68"
 id="use1796" />
<use
 transform="translate(1112.304688 0.684375)"
 xlink:href="#DejaVuSans-20"
 id="use1798" />
<use
 transform="translate(1144.091797 0.684375)"
 xlink:href="#DejaVuSans-74"
 id="use1800" />
<use
 transform="translate(1183.300781 0.684375)"
 xlink:href="#DejaVuSans-43"
 id="use1802" />
<use
 transform="translate(1254.082031 38.965625)scale(0.7)"
 xlink:href="#DejaVuSans-2212"
 id="use1804" />
<use
 transform="translate(1312.734375 38.965625)scale(0.7)"
 xlink:href="#DejaVuSans-31"
 id="use1806" />
</g>
</g>
</g>
<g
 id="matplotlib.axis_2">
<g
 id="ytick_1">
<g
 id="line2d_10">
<defs
 id="defs1813">
<path
 d="M 0 0  L -3.5 0  "
 id="m1206c51160"
 style="stroke:#000000;stroke-width:0.8;" />
</defs>
<g
 id="g1817">
<use
 style="stroke:#000000;stroke-width:0.8;"
 x="73.832727"
 xlink:href="#m1206c51160"
 y="290.813325"
 id="use1815" />
</g>
</g>
<g
 id="text_11">
<!-- 0 -->
<g
 transform="translate(60.470227 294.612543)scale(0.1 -0.1)"
 id="g1822">
<use
 xlink:href="#DejaVuSans-30"
 id="use1820" />
</g>
</g>
</g>
<g
 id="ytick_2">
<g
 id="line2d_11">
<g
 id="g1828">
<use
 style="stroke:#000000;stroke-width:0.8;"
 x="73.832727"
 xlink:href="#m1206c51160"
 y="248.886637"
 id="use1826" />
</g>
</g>
<g
 id="text_12">
<!-- 500 -->
<g
 transform="translate(47.745227 252.685855)scale(0.1 -0.1)"
 id="g1837">
<use
 xlink:href="#DejaVuSans-35"
 id="use1831" />
<use
 x="63.623047"
 xlink:href="#DejaVuSans-30"
 id="use1833" />
<use
 x="127.246094"
 xlink:href="#DejaVuSans-30"
 id="use1835" />
</g>
</g>
</g>
<g
 id="ytick_3">
<g
 id="line2d_12">
<g
 id="g1843">
<use
 style="stroke:#000000;stroke-width:0.8;"
 x="73.832727"
 xlink:href="#m1206c51160"
 y="206.959948"
 id="use1841" />
</g>
</g>
<g
 id="text_13">
<!-- 1000 -->
<g
 transform="translate(41.382727 210.759167)scale(0.1 -0.1)"
 id="g1854">
<use
 xlink:href="#DejaVuSans-31"
 id="use1846" />
<use
 x="63.623047"
 xlink:href="#DejaVuSans-30"
 id="use1848" />
<use
 x="127.246094"
 xlink:href="#DejaVuSans-30"
 id="use1850" />
<use
 x="190.869141"
 xlink:href="#DejaVuSans-30"
 id="use1852" />
</g>
</g>
</g>
<g
 id="ytick_4">
<g
 id="line2d_13">
<g
 id="g1860">
<use
 style="stroke:#000000;stroke-width:0.8;"
 x="73.832727"
 xlink:href="#m1206c51160"
 y="165.03326"
 id="use1858" />
</g>
</g>
<g
 id="text_14">
<!-- 1500 -->
<g
 transform="translate(41.382727 168.832479)scale(0.1 -0.1)"
 id="g1871">
<use
 xlink:href="#DejaVuSans-31"
 id="use1863" />
<use
 x="63.623047"
 xlink:href="#DejaVuSans-35"
 id="use1865" />
<use
 x="127.246094"
 xlink:href="#DejaVuSans-30"
 id="use1867" />
<use
 x="190.869141"
 xlink:href="#DejaVuSans-30"
 id="use1869" />
</g>
</g>
</g>
<g
 id="ytick_5">
<g
 id="line2d_14">
<g
 id="g1877">
<use
 style="stroke:#000000;stroke-width:0.8;"
 x="73.832727"
 xlink:href="#m1206c51160"
 y="123.106572"
 id="use1875" />
</g>
</g>
<g
 id="text_15">
<!-- 2000 -->
<g
 transform="translate(41.382727 126.905791)scale(0.1 -0.1)"
 id="g1888">
<use
 xlink:href="#DejaVuSans-32"
 id="use1880" />
<use
 x="63.623047"
 xlink:href="#DejaVuSans-30"
 id="use1882" />
<use
 x="127.246094"
 xlink:href="#DejaVuSans-30"
 id="use1884" />
<use
 x="190.869141"
 xlink:href="#DejaVuSans-30"
 id="use1886" />
</g>
</g>
</g>
<g
 id="ytick_6">
<g
 id="line2d_15">
<g
 id="g1894">
<use
 style="stroke:#000000;stroke-width:0.8;"
 x="73.832727"
 xlink:href="#m1206c51160"
 y="81.179884"
 id="use1892" />
</g>
</g>
<g
 id="text_16">
<!-- 2500 -->
<g
 transform="translate(41.382727 84.979103)scale(0.1 -0.1)"
 id="g1905">
<use
 xlink:href="#DejaVuSans-32"
 id="use1897" />
<use
 x="63.623047"
 xlink:href="#DejaVuSans-35"
 id="use1899" />
<use
 x="127.246094"
 xlink:href="#DejaVuSans-30"
 id="use1901" />
<use
 x="190.869141"
 xlink:href="#DejaVuSans-30"
 id="use1903" />
</g>
</g>
</g>
<g
 id="text_17">
<!-- Market price / USD tC$^{-1}$ -->
<defs
 id="defs1916">
<path
 d="M 34.28125 27.484375  Q 23.390625 27.484375 19.1875 25  Q 14.984375 22.515625 14.984375 16.5  Q 14.984375 11.71875 18.140625 8.90625  Q 21.296875 6.109375 26.703125 6.109375  Q 34.1875 6.109375 38.703125 11.40625  Q 43.21875 16.703125 43.21875 25.484375  L 43.21875 27.484375  z M 52.203125 31.203125  L 52.203125 0  L 43.21875 0  L 43.21875 8.296875  Q 40.140625 3.328125 35.546875 0.953125  Q 30.953125 -1.421875 24.3125 -1.421875  Q 15.921875 -1.421875 10.953125 3.296875  Q 6 8.015625 6 15.921875  Q 6 25.140625 12.171875 29.828125  Q 18.359375 34.515625 30.609375 34.515625  L 43.21875 34.515625  L 43.21875 35.40625  Q 43.21875 41.609375 39.140625 45  Q 35.0625 48.390625 27.6875 48.390625  Q 23 48.390625 18.546875 47.265625  Q 14.109375 46.140625 10.015625 43.890625  L 10.015625 52.203125  Q 14.9375 54.109375 19.578125 55.046875  Q 24.21875 56 28.609375 56  Q 40.484375 56 46.34375 49.84375  Q 52.203125 43.703125 52.203125 31.203125  "
 id="DejaVuSans-61" />
<path
 d="M 9.078125 75.984375  L 18.109375 75.984375  L 18.109375 31.109375  L 44.921875 54.6875  L 56.390625 54.6875  L 27.390625 29.109375  L 57.625 0  L 45.90625 0  L 18.109375 26.703125  L 18.109375 0  L 9.078125 0  z "
 id="DejaVuSans-6b" />
<path
 d="M 18.109375 8.203125  L 18.109375 -20.796875  L 9.078125 -20.796875  L 9.078125 54.6875  L 18.109375 54.6875  L 18.109375 46.390625  Q 20.953125 51.265625 25.265625 53.625  Q 29.59375 56 35.59375 56  Q 45.5625 56 51.78125 48.09375  Q 58.015625 40.1875 58.015625 27.296875  Q 58.015625 14.40625 51.78125 6.484375  Q 45.5625 -1.421875 35.59375 -1.421875  Q 29.59375 -1.421875 25.265625 0.953125  Q 20.953125 3.328125 18.109375 8.203125  M 48.6875 27.296875  Q 48.6875 37.203125 44.609375 42.84375  Q 40.53125 48.484375 33.40625 48.484375  Q 26.265625 48.484375 22.1875 42.84375  Q 18.109375 37.203125 18.109375 27.296875  Q 18.109375 17.390625 22.1875 11.75  Q 26.265625 6.109375 33.40625 6.109375  Q 40.53125 6.109375 44.609375 11.75  Q 48.6875 17.390625 48.6875 27.296875  "
 id="DejaVuSans-70" />
<path
 d="M 9.421875 54.6875  L 18.40625 54.6875  L 18.40625 0  L 9.421875 0  z M 9.421875 75.984375  L 18.40625 75.984375  L 18.40625 64.59375  L 9.421875 64.59375  z "
 id="DejaVuSans-69" />
<path
 d="M 8.6875 72.90625  L 18.609375 72.90625  L 18.609375 28.609375  Q 18.609375 16.890625 22.84375 11.734375  Q 27.09375 6.59375 36.625 6.59375  Q 46.09375 6.59375 50.34375 11.734375  Q 54.59375 16.890625 54.59375 28.609375  L 54.59375 72.90625  L 64.5 72.90625  L 64.5 27.390625  Q 64.5 13.140625 57.4375 5.859375  Q 50.390625 -1.421875 36.625 -1.421875  Q 22.796875 -1.421875 15.734375 5.859375  Q 8.6875 13.140625 8.6875 27.390625  z "
 id="DejaVuSans-55" />
<path
 d="M 53.515625 70.515625  L 53.515625 60.890625  Q 47.90625 63.578125 42.921875 64.890625  Q 37.9375 66.21875 33.296875 66.21875  Q 25.25 66.21875 20.875 63.09375  Q 16.5 59.96875 16.5 54.203125  Q 16.5 49.359375 19.40625 46.890625  Q 22.3125 44.4375 30.421875 42.921875  L 36.375 41.703125  Q 47.40625 39.59375 52.65625 34.296875  Q 57.90625 29 57.90625 20.125  Q 57.90625 9.515625 50.796875 4.046875  Q 43.703125 -1.421875 29.984375 -1.421875  Q 24.8125 -1.421875 18.96875 -0.25  Q 13.140625 0.921875 6.890625 3.21875  L 6.890625 13.375  Q 12.890625 10.015625 18.65625 8.296875  Q 24.421875 6.59375 29.984375 6.59375  Q 38.421875 6.59375 43.015625 9.90625  Q 47.609375 13.234375 47.609375 19.390625  Q 47.609375 24.75 44.3125 27.78125  Q 41.015625 30.8125 33.5 32.328125  L 27.484375 33.5  Q 16.453125 35.6875 11.515625 40.375  Q 6.59375 45.0625 6.59375 53.421875  Q 6.59375 63.09375 13.40625 68.65625  Q 20.21875 74.21875 32.171875 74.21875  Q 37.3125 74.21875 42.625 73.28125  Q 47.953125 72.359375 53.515625 70.515625  "
 id="DejaVuSans-53" />
<path
 d="M 19.671875 64.796875  L 19.671875 8.109375  L 31.59375 8.109375  Q 46.6875 8.109375 53.6875 14.9375  Q 60.6875 21.78125 60.6875 36.53125  Q 60.6875 51.171875 53.6875 57.984375  Q 46.6875 64.796875 31.59375 64.796875  z M 9.8125 72.90625  L 30.078125 72.90625  Q 51.265625 72.90625 61.171875 64.09375  Q 71.09375 55.28125 71.09375 36.53125  Q 71.09375 17.671875 61.125 8.828125  Q 51.171875 0 30.078125 0  L 9.8125 0  z "
 id="DejaVuSans-44" />
</defs>
<g
 transform="translate(35.282727 233.878)rotate(-90)scale(0.1 -0.1)"
 id="g1964">
<use
 transform="translate(0 0.684375)"
 xlink:href="#DejaVuSans-4d"
 id="use1918" />
<use
 transform="translate(86.279297 0.684375)"
 xlink:href="#DejaVuSans-61"
 id="use1920" />
<use
 transform="translate(147.558594 0.684375)"
 xlink:href="#DejaVuSans-72"
 id="use1922" />
<use
 transform="translate(188.671875 0.684375)"
 xlink:href="#DejaVuSans-6b"
 id="use1924" />
<use
 transform="translate(246.582031 0.684375)"
 xlink:href="#DejaVuSans-65"
 id="use1926" />
<use
 transform="translate(308.105469 0.684375)"
 xlink:href="#DejaVuSans-74"
 id="use1928" />
<use
 transform="translate(347.314453 0.684375)"
 xlink:href="#DejaVuSans-20"
 id="use1930" />
<use
 transform="translate(379.101562 0.684375)"
 xlink:href="#DejaVuSans-70"
 id="use1932" />
<use
 transform="translate(442.578125 0.684375)"
 xlink:href="#DejaVuSans-72"
 id="use1934" />
<use
 transform="translate(483.691406 0.684375)"
 xlink:href="#DejaVuSans-69"
 id="use1936" />
<use
 transform="translate(511.474609 0.684375)"
 xlink:href="#DejaVuSans-63"
 id="use1938" />
<use
 transform="translate(566.455078 0.684375)"
 xlink:href="#DejaVuSans-65"
 id="use1940" />
<use
 transform="translate(627.978516 0.684375)"
 xlink:href="#DejaVuSans-20"
 id="use1942" />
<use
 transform="translate(659.765625 0.684375)"
 xlink:href="#DejaVuSans-2f"
 id="use1944" />
<use
 transform="translate(693.457031 0.684375)"
 xlink:href="#DejaVuSans-20"
 id="use1946" />
<use
 transform="translate(725.244141 0.684375)"
 xlink:href="#DejaVuSans-55"
 id="use1948" />
<use
 transform="translate(798.4375 0.684375)"
 xlink:href="#DejaVuSans-53"
 id="use1950" />
<use
 transform="translate(861.914062 0.684375)"
 xlink:href="#DejaVuSans-44"
 id="use1952" />
<use
 transform="translate(938.916016 0.684375)"
 xlink:href="#DejaVuSans-20"
 id="use1954" />
<use
 transform="translate(970.703125 0.684375)"
 xlink:href="#DejaVuSans-74"
 id="use1956" />
<use
 transform="translate(1009.912109 0.684375)"
 xlink:href="#DejaVuSans-43"
 id="use1958" />
<use
 transform="translate(1080.693359 38.965625)scale(0.7)"
 xlink:href="#DejaVuSans-2212"
 id="use1960" />
<use
 transform="translate(1139.345703 38.965625)scale(0.7)"
 xlink:href="#DejaVuSans-31"
 id="use1962" />
</g>
</g>
</g>
<g
 id="line2d_16">
<defs
 id="defs1969">
<path
 d="M 0 0.58421  C 0.154934 0.58421 0.303544 0.522654 0.413099 0.413099  C 0.522654 0.303544 0.58421 0.154934 0.58421 0  C 0.58421 -0.154934 0.522654 -0.303544 0.413099 -0.413099  C 0.303544 -0.522654 0.154934 -0.58421 0 -0.58421  C -0.154934 -0.58421 -0.303544 -0.522654 -0.413099 -0.413099  C -0.522654 -0.303544 -0.58421 -0.154934 -0.58421 0  C -0.58421 0.154934 -0.522654 0.303544 -0.413099 0.413099  C -0.303544 0.522654 -0.154934 0.58421 0 0.58421  z "
 id="m7ee3f2d728"
 style="stroke:#ff0000;" />
</defs>
<g
 clip-path="url(#p26e1b0bb55)"
 id="g1973">
<use
 style="fill:#ff0000;stroke:#ff0000;"
 x="171.125682"
 xlink:href="#m7ee3f2d728"
 y="53.037934"
 id="use1971" />
</g>
</g>
<g
 id="line2d_17">
<defs
 id="defs1977">
<path
 d="M 0 7.845757  C 2.080719 7.845757 4.076497 7.019078 5.547788 5.547788  C 7.019078 4.076497 7.845757 2.080719 7.845757 0  C 7.845757 -2.080719 7.019078 -4.076497 5.547788 -5.547788  C 4.076497 -7.019078 2.080719 -7.845757 0 -7.845757  C -2.080719 -7.845757 -4.076497 -7.019078 -5.547788 -5.547788  C -7.019078 -4.076497 -7.845757 -2.080719 -7.845757 0  C -7.845757 2.080719 -7.019078 4.076497 -5.547788 5.547788  C -4.076497 7.019078 -2.080719 7.845757 0 7.845757  z "
 id="med07774425"
 style="stroke:#ff0000;" />
</defs>
<g
 clip-path="url(#p26e1b0bb55)"
 id="g1981">
<use
 style="fill:#ff0000;stroke:#ff0000;"
 x="346.543636"
 xlink:href="#med07774425"
 y="182.096372"
 id="use1979" />
</g>
</g>
<g
 id="line2d_18">
<defs
 id="defs1985">
<path
 d="M 0 12.735566  C 3.377512 12.735566 6.617144 11.393667 9.005405 9.005405  C 11.393667 6.617144 12.735566 3.377512 12.735566 0  C 12.735566 -3.377512 11.393667 -6.617144 9.005405 -9.005405  C 6.617144 -11.393667 3.377512 -12.735566 0 -12.735566  C -3.377512 -12.735566 -6.617144 -11.393667 -9.005405 -9.005405  C -11.393667 -6.617144 -12.735566 -3.377512 -12.735566 0  C -12.735566 3.377512 -11.393667 6.617144 -9.005405 9.005405  C -6.617144 11.393667 -3.377512 12.735566 0 12.735566  z "
 id="m7114760e2f"
 style="stroke:#ff0000;" />
</defs>
<g
 clip-path="url(#p26e1b0bb55)"
 id="g1989">
<use
 style="fill:#ff0000;stroke:#ff0000;"
 x="380.791087"
 xlink:href="#m7114760e2f"
 y="266.081724"
 id="use1987" />
</g>
</g>
<g
 id="line2d_19">
<defs
 id="defs1993">
<path
 d="M 0 2.511013  C 0.665928 2.511013 1.304672 2.246437 1.775554 1.775554  C 2.246437 1.304672 2.511013 0.665928 2.511013 0  C 2.511013 -0.665928 2.246437 -1.304672 1.775554 -1.775554  C 1.304672 -2.246437 0.665928 -2.511013 0 -2.511013  C -0.665928 -2.511013 -1.304672 -2.246437 -1.775554 -1.775554  C -2.246437 -1.304672 -2.511013 -0.665928 -2.511013 0  C -2.511013 0.665928 -2.246437 1.304672 -1.775554 1.775554  C -1.304672 2.246437 -0.665928 2.511013 0 2.511013  z "
 id="m7ed0ed5e1e"
 style="stroke:#0000ff;" />
</defs>
<g
 clip-path="url(#p26e1b0bb55)"
 id="g1997">
<use
 style="fill:#0000ff;stroke:#0000ff;"
 x="284.737283"
 xlink:href="#m7ed0ed5e1e"
 y="137.037919"
 id="use1995" />
</g>
</g>
<g
 id="line2d_20">
<defs
 id="defs2001">
<path
 d="M 0 7.811073  C 2.071521 7.811073 4.058476 6.988049 5.523263 5.523263  C 6.988049 4.058476 7.811073 2.071521 7.811073 0  C 7.811073 -2.071521 6.988049 -4.058476 5.523263 -5.523263  C 4.058476 -6.988049 2.071521 -7.811073 0 -7.811073  C -2.071521 -7.811073 -4.058476 -6.988049 -5.523263 -5.523263  C -6.988049 -4.058476 -7.811073 -2.071521 -7.811073 0  C -7.811073 2.071521 -6.988049 4.058476 -5.523263 5.523263  C -4.058476 6.988049 -2.071521 7.811073 0 7.811073  z "
 id="m4616cffa9f"
 style="stroke:#0000ff;" />
</defs>
<g
 clip-path="url(#p26e1b0bb55)"
 id="g2005">
<use
 style="fill:#0000ff;stroke:#0000ff;"
 x="322.72212"
 xlink:href="#m4616cffa9f"
 y="130.000687"
 id="use2003" />
</g>
</g>
<g
 id="line2d_21">
<defs
 id="defs2009">
<path
 d="M 0 9.236227  C 2.449476 9.236227 4.798958 8.26304 6.530999 6.530999  C 8.26304 4.798958 9.236227 2.449476 9.236227 0  C 9.236227 -2.449476 8.26304 -4.798958 6.530999 -6.530999  C 4.798958 -8.26304 2.449476 -9.236227 0 -9.236227  C -2.449476 -9.236227 -4.798958 -8.26304 -6.530999 -6.530999  C -8.26304 -4.798958 -9.236227 -2.449476 -9.236227 0  C -9.236227 2.449476 -8.26304 4.798958 -6.530999 6.530999  C -4.798958 8.26304 -2.449476 9.236227 0 9.236227  z "
 id="m5d9d164424"
 style="stroke:#0000ff;" />
</defs>
<g
 clip-path="url(#p26e1b0bb55)"
 id="g2013">
<use
 style="fill:#0000ff;stroke:#0000ff;"
 x="323.729213"
 xlink:href="#m5d9d164424"
 y="163.50713"
 id="use2011" />
</g>
</g>
<g
 id="line2d_22">
<defs
 id="defs2017">
<path
 d="M 0 3.045785  C 0.807752 3.045785 1.582529 2.724862 2.153695 2.153695  C 2.724862 1.582529 3.045785 0.807752 3.045785 0  C 3.045785 -0.807752 2.724862 -1.582529 2.153695 -2.153695  C 1.582529 -2.724862 0.807752 -3.045785 0 -3.045785  C -0.807752 -3.045785 -1.582529 -2.724862 -2.153695 -2.153695  C -2.724862 -1.582529 -3.045785 -0.807752 -3.045785 0  C -3.045785 0.807752 -2.724862 1.582529 -2.153695 2.153695  C -1.582529 2.724862 -0.807752 3.045785 0 3.045785  z "
 id="m8f26a52681"
 style="stroke:#ff0000;" />
</defs>
<g
 clip-path="url(#p26e1b0bb55)"
 id="g2021">
<use
 style="fill:#ff0000;stroke:#ff0000;"
 x="170.395628"
 xlink:href="#m8f26a52681"
 y="173.484223"
 id="use2019" />
</g>
</g>
<g
 id="line2d_23">
<defs
 id="defs2025">
<path
 d="M 0 8.425072  C 2.234355 8.425072 4.377498 7.537353 5.957426 5.957426  C 7.537353 4.377498 8.425072 2.234355 8.425072 0  C 8.425072 -2.234355 7.537353 -4.377498 5.957426 -5.957426  C 4.377498 -7.537353 2.234355 -8.425072 0 -8.425072  C -2.234355 -8.425072 -4.377498 -7.537353 -5.957426 -5.957426  C -7.537353 -4.377498 -8.425072 -2.234355 -8.425072 0  C -8.425072 2.234355 -7.537353 4.377498 -5.957426 5.957426  C -4.377498 7.537353 -2.234355 8.425072 0 8.425072  z "
 id="mf23569e7dc"
 style="stroke:#ff0000;" />
</defs>
<g
 clip-path="url(#p26e1b0bb55)"
 id="g2029">
<use
 style="fill:#ff0000;stroke:#ff0000;"
 x="170.395628"
 xlink:href="#mf23569e7dc"
 y="279.080415"
 id="use2027" />
</g>
</g>
<g
 id="line2d_24">
<defs
 id="defs2033">
<path
 d="M 0 0.236655  C 0.062762 0.236655 0.122961 0.211719 0.16734 0.16734  C 0.211719 0.122961 0.236655 0.062762 0.236655 0  C 0.236655 -0.062762 0.211719 -0.122961 0.16734 -0.16734  C 0.122961 -0.211719 0.062762 -0.236655 0 -0.236655  C -0.062762 -0.236655 -0.122961 -0.211719 -0.16734 -0.16734  C -0.211719 -0.122961 -0.236655 -0.062762 -0.236655 0  C -0.236655 0.062762 -0.211719 0.122961 -0.16734 0.16734  C -0.122961 0.211719 -0.062762 0.236655 0 0.236655  z "
 id="m639fb28a12"
 style="stroke:#0000ff;" />
</defs>
<g
 clip-path="url(#p26e1b0bb55)"
 id="g2037">
<use
 style="fill:#0000ff;stroke:#0000ff;"
 x="318.918784"
 xlink:href="#m639fb28a12"
 y="90.826338"
 id="use2035" />
</g>
</g>
<g
 id="line2d_25">
<defs
 id="defs2041">
<path
 d="M 0 14.186765  C 3.762374 14.186765 7.371157 12.691958 10.031558 10.031558  C 12.691958 7.371157 14.186765 3.762374 14.186765 0  C 14.186765 -3.762374 12.691958 -7.371157 10.031558 -10.031558  C 7.371157 -12.691958 3.762374 -14.186765 0 -14.186765  C -3.762374 -14.186765 -7.371157 -12.691958 -10.031558 -10.031558  C -12.691958 -7.371157 -14.186765 -3.762374 -14.186765 0  C -14.186765 3.762374 -12.691958 7.371157 -10.031558 10.031558  C -7.371157 12.691958 -3.762374 14.186765 0 14.186765  z "
 id="mc35d294c6f"
 style="stroke:#ff0000;" />
</defs>
<g
 clip-path="url(#p26e1b0bb55)"
 id="g2045">
<use
 style="fill:#ff0000;stroke:#ff0000;"
 x="221.899304"
 xlink:href="#mc35d294c6f"
 y="284.356615"
 id="use2043" />
</g>
</g>
<g
 id="line2d_26">
<defs
 id="defs2049">
<path
 d="M 0 10.194685  C 2.703662 10.194685 5.296953 9.120509 7.208731 7.208731  C 9.120509 5.296953 10.194685 2.703662 10.194685 0  C 10.194685 -2.703662 9.120509 -5.296953 7.208731 -7.208731  C 5.296953 -9.120509 2.703662 -10.194685 0 -10.194685  C -2.703662 -10.194685 -5.296953 -9.120509 -7.208731 -7.208731  C -9.120509 -5.296953 -10.194685 -2.703662 -10.194685 0  C -10.194685 2.703662 -9.120509 5.296953 -7.208731 7.208731  C -5.296953 9.120509 -2.703662 10.194685 0 10.194685  z "
 id="med69bb201a"
 style="stroke:#008000;" />
</defs>
<g
 clip-path="url(#p26e1b0bb55)"
 id="g2053">
<use
 style="fill:#008000;stroke:#008000;"
 x="321.064914"
 xlink:href="#med69bb201a"
 y="225.786296"
 id="use2051" />
</g>
</g>
<g
 id="line2d_27">
<path
 clip-path="url(#p26e1b0bb55)"
 d="M 98.181818 112.481782  "
 style="fill:none;stroke:#000000;stroke-linecap:square;stroke-width:1.5;"
 id="path2056" />
<defs
 id="defs2059">
<path
 d="M 0 3  C 0.795609 3 1.55874 2.683901 2.12132 2.12132  C 2.683901 1.55874 3 0.795609 3 0  C 3 -0.795609 2.683901 -1.55874 2.12132 -2.12132  C 1.55874 -2.683901 0.795609 -3 0 -3  C -0.795609 -3 -1.55874 -2.683901 -2.12132 -2.12132  C -2.683901 -1.55874 -3 -0.795609 -3 0  C -3 0.795609 -2.683901 1.55874 -2.12132 2.12132  C -1.55874 2.683901 -0.795609 3 0 3  z "
 id="m2297c6a025"
 style="stroke:#000000;" />
</defs>
<g
 clip-path="url(#p26e1b0bb55)"
 id="g2063">
<use
 style="fill:none;stroke:#000000;"
 x="98.181818"
 xlink:href="#m2297c6a025"
 y="112.481782"
 id="use2061" />
</g>
</g>
<g
 id="line2d_28">
<path
 clip-path="url(#p26e1b0bb55)"
 d="M 98.181818 98.215258  "
 style="fill:none;stroke:#000000;stroke-linecap:square;stroke-width:1.5;"
 id="path2066" />
<defs
 id="defs2069">
<path
 d="M 0 7.431364  C 1.970821 7.431364 3.861187 6.648348 5.254768 5.254768  C 6.648348 3.861187 7.431364 1.970821 7.431364 0  C 7.431364 -1.970821 6.648348 -3.861187 5.254768 -5.254768  C 3.861187 -6.648348 1.970821 -7.431364 0 -7.431364  C -1.970821 -7.431364 -3.861187 -6.648348 -5.254768 -5.254768  C -6.648348 -3.861187 -7.431364 -1.970821 -7.431364 0  C -7.431364 1.970821 -6.648348 3.861187 -5.254768 5.254768  C -3.861187 6.648348 -1.970821 7.431364 0 7.431364  z "
 id="m36318a98a9"
 style="stroke:#000000;" />
</defs>
<g
 clip-path="url(#p26e1b0bb55)"
 id="g2073">
<use
 style="fill:none;stroke:#000000;"
 x="98.181818"
 xlink:href="#m36318a98a9"
 y="98.215258"
 id="use2071" />
</g>
</g>
<g
 id="line2d_29">
<path
 clip-path="url(#p26e1b0bb55)"
 d="M 98.181818 76.815473  "
 style="fill:none;stroke:#000000;stroke-linecap:square;stroke-width:1.5;"
 id="path2076" />
<defs
 id="defs2079">
<path
 d="M 0 12  C 3.182437 12 6.234958 10.735604 8.485281 8.485281  C 10.735604 6.234958 12 3.182437 12 0  C 12 -3.182437 10.735604 -6.234958 8.485281 -8.485281  C 6.234958 -10.735604 3.182437 -12 0 -12  C -3.182437 -12 -6.234958 -10.735604 -8.485281 -8.485281  C -10.735604 -6.234958 -12 -3.182437 -12 0  C -12 3.182437 -10.735604 6.234958 -8.485281 8.485281  C -6.234958 10.735604 -3.182437 12 0 12  z "
 id="ma37732ce56"
 style="stroke:#000000;" />
</defs>
<g
 clip-path="url(#p26e1b0bb55)"
 id="g2083">
<use
 style="fill:none;stroke:#000000;"
 x="98.181818"
 xlink:href="#ma37732ce56"
 y="76.815473"
 id="use2081" />
</g>
</g>
<g
 id="line2d_30">
<path
 clip-path="url(#p26e1b0bb55)"
 d="M 98.181818 133.881567  "
 style="fill:none;stroke:#ff0000;stroke-linecap:square;stroke-width:1.5;"
 id="path2086" />
<defs
 id="defs2089">
<path
 d="M 0 3  C 0.795609 3 1.55874 2.683901 2.12132 2.12132  C 2.683901 1.55874 3 0.795609 3 0  C 3 -0.795609 2.683901 -1.55874 2.12132 -2.12132  C 1.55874 -2.683901 0.795609 -3 0 -3  C -0.795609 -3 -1.55874 -2.683901 -2.12132 -2.12132  C -2.683901 -1.55874 -3 -0.795609 -3 0  C -3 0.795609 -2.683901 1.55874 -2.12132 2.12132  C -1.55874 2.683901 -0.795609 3 0 3  z "
 id="m53e8201adb"
 style="stroke:#ff0000;" />
</defs>
<g
 clip-path="url(#p26e1b0bb55)"
 id="g2093">
<use
 style="fill:none;stroke:#ff0000;"
 x="98.181818"
 xlink:href="#m53e8201adb"
 y="133.881567"
 id="use2091" />
</g>
</g>
<g
 id="line2d_31">
<path
 clip-path="url(#p26e1b0bb55)"
 d="M 98.181818 124.370551  "
 style="fill:none;stroke:#0000ff;stroke-linecap:square;stroke-width:1.5;"
 id="path2096" />
<defs
 id="defs2099">
<path
 d="M 0 3  C 0.795609 3 1.55874 2.683901 2.12132 2.12132  C 2.683901 1.55874 3 0.795609 3 0  C 3 -0.795609 2.683901 -1.55874 2.12132 -2.12132  C 1.55874 -2.683901 0.795609 -3 0 -3  C -0.795609 -3 -1.55874 -2.683901 -2.12132 -2.12132  C -2.683901 -1.55874 -3 -0.795609 -3 0  C -3 0.795609 -2.683901 1.55874 -2.12132 2.12132  C -1.55874 2.683901 -0.795609 3 0 3  z "
 id="m3c90095717"
 style="stroke:#0000ff;" />
</defs>
<g
 clip-path="url(#p26e1b0bb55)"
 id="g2103">
<use
 style="fill:none;stroke:#0000ff;"
 x="98.181818"
 xlink:href="#m3c90095717"
 y="124.370551"
 id="use2101" />
</g>
</g>
<g
 id="line2d_32">
<path
 clip-path="url(#p26e1b0bb55)"
 d="M 73.832727 274.042649  L 398.487273 190.189273  "
 style="fill:none;stroke:#000000;stroke-dasharray:5.6,2.4;stroke-dashoffset:0;stroke-width:1.5;"
 id="path2106" />
</g>
<g
 id="line2d_33">
<path
 clip-path="url(#p26e1b0bb55)"
 d="M 73.832727 274.042649  L 398.487273 240.501299  "
 style="fill:none;stroke:#000000;stroke-dasharray:2.2,2.2;stroke-dashoffset:0;stroke-width:1.5;"
 id="path2109" />
</g>
<g
 id="line2d_34">
<defs
 id="defs2113">
<path
 d="M -0 7.071068  L 4.242641 0  L -0 -7.071068  L -4.242641 -0  z "
 id="m9d5d66000e"
 style="stroke:#000000;stroke-linejoin:miter;" />
</defs>
<g
 clip-path="url(#p26e1b0bb55)"
 id="g2117">
<use
 style="stroke:#000000;stroke-linejoin:miter;"
 x="73.832727"
 xlink:href="#m9d5d66000e"
 y="274.042649"
 id="use2115" />
</g>
</g>
<g
 id="patch_3">
<path
 d="M 73.832727 307.584  L 73.832727 41.472  "
 style="fill:none;stroke:#000000;stroke-linecap:square;stroke-linejoin:miter;stroke-width:0.8;"
 id="path2120" />
</g>
<g
 id="patch_4">
<path
 d="M 414.72 307.584  L 414.72 41.472  "
 style="fill:none;"
 id="path2123" />
</g>
<g
 id="patch_5">
<path
 d="M 57.6 290.813325  L 414.72 290.813325  "
 style="fill:none;stroke:#000000;stroke-linecap:square;stroke-linejoin:miter;stroke-width:0.8;"
 id="path2126" />
</g>
<g
 id="patch_6">
<path
 d="M 57.6 41.472  L 414.72 41.472  "
 style="fill:none;"
 id="path2129" />
</g>
<g
 id="text_18">
<!-- 1 MtC/yr -->
<g
 transform="translate(105.973527 117.23729)scale(0.1 -0.1)"
 id="g2148">
<use
 xlink:href="#DejaVuSans-31"
 id="use2132" />
<use
 x="63.623047"
 xlink:href="#DejaVuSans-20"
 id="use2134" />
<use
 x="95.410156"
 xlink:href="#DejaVuSans-4d"
 id="use2136" />
<use
 x="181.689453"
 xlink:href="#DejaVuSans-74"
 id="use2138" />
<use
 x="220.898438"
 xlink:href="#DejaVuSans-43"
 id="use2140" />
<use
 x="290.722656"
 xlink:href="#DejaVuSans-2f"
 id="use2142" />
<use
 x="324.414062"
 xlink:href="#DejaVuSans-79"
 id="use2144" />
<use
 x="383.59375"
 xlink:href="#DejaVuSans-72"
 id="use2146" />
</g>
</g>
<g
 id="text_19">
<!-- 30 MtC/yr -->
<defs
 id="defs2152">
<path
 d="M 40.578125 39.3125  Q 47.65625 37.796875 51.625 33  Q 55.609375 28.21875 55.609375 21.1875  Q 55.609375 10.40625 48.1875 4.484375  Q 40.765625 -1.421875 27.09375 -1.421875  Q 22.515625 -1.421875 17.65625 -0.515625  Q 12.796875 0.390625 7.625 2.203125  L 7.625 11.71875  Q 11.71875 9.328125 16.59375 8.109375  Q 21.484375 6.890625 26.8125 6.890625  Q 36.078125 6.890625 40.9375 10.546875  Q 45.796875 14.203125 45.796875 21.1875  Q 45.796875 27.640625 41.28125 31.265625  Q 36.765625 34.90625 28.71875 34.90625  L 20.21875 34.90625  L 20.21875 43.015625  L 29.109375 43.015625  Q 36.375 43.015625 40.234375 45.921875  Q 44.09375 48.828125 44.09375 54.296875  Q 44.09375 59.90625 40.109375 62.90625  Q 36.140625 65.921875 28.71875 65.921875  Q 24.65625 65.921875 20.015625 65.03125  Q 15.375 64.15625 9.8125 62.3125  L 9.8125 71.09375  Q 15.4375 72.65625 20.34375 73.4375  Q 25.25 74.21875 29.59375 74.21875  Q 40.828125 74.21875 47.359375 69.109375  Q 53.90625 64.015625 53.90625 55.328125  Q 53.90625 49.265625 50.4375 45.09375  Q 46.96875 40.921875 40.578125 39.3125  "
 id="DejaVuSans-33" />
</defs>
<g
 transform="translate(110.289514 102.970766)scale(0.1 -0.1)"
 id="g2172">
<use
 xlink:href="#DejaVuSans-33"
 id="use2154" />
<use
 x="63.623047"
 xlink:href="#DejaVuSans-30"
 id="use2156" />
<use
 x="127.246094"
 xlink:href="#DejaVuSans-20"
 id="use2158" />
<use
 x="159.033203"
 xlink:href="#DejaVuSans-4d"
 id="use2160" />
<use
 x="245.3125"
 xlink:href="#DejaVuSans-74"
 id="use2162" />
<use
 x="284.521484"
 xlink:href="#DejaVuSans-43"
 id="use2164" />
<use
 x="354.345703"
 xlink:href="#DejaVuSans-2f"
 id="use2166" />
<use
 x="388.037109"
 xlink:href="#DejaVuSans-79"
 id="use2168" />
<use
 x="447.216797"
 xlink:href="#DejaVuSans-72"
 id="use2170" />
</g>
</g>
<g
 id="text_20">
<!-- 1 GtC/yr -->
<defs
 id="defs2176">
<path
 d="M 59.515625 10.40625  L 59.515625 29.984375  L 43.40625 29.984375  L 43.40625 38.09375  L 69.28125 38.09375  L 69.28125 6.78125  Q 63.578125 2.734375 56.6875 0.65625  Q 49.8125 -1.421875 42 -1.421875  Q 24.90625 -1.421875 15.25 8.5625  Q 5.609375 18.5625 5.609375 36.375  Q 5.609375 54.25 15.25 64.234375  Q 24.90625 74.21875 42 74.21875  Q 49.125 74.21875 55.546875 72.453125  Q 61.96875 70.703125 67.390625 67.28125  L 67.390625 56.78125  Q 61.921875 61.421875 55.765625 63.765625  Q 49.609375 66.109375 42.828125 66.109375  Q 29.4375 66.109375 22.71875 58.640625  Q 16.015625 51.171875 16.015625 36.375  Q 16.015625 21.625 22.71875 14.15625  Q 29.4375 6.6875 42.828125 6.6875  Q 48.046875 6.6875 52.140625 7.59375  Q 56.25 8.5 59.515625 10.40625  "
 id="DejaVuSans-47" />
</defs>
<g
 transform="translate(114.7392 81.570981)scale(0.1 -0.1)"
 id="g2194">
<use
 xlink:href="#DejaVuSans-31"
 id="use2178" />
<use
 x="63.623047"
 xlink:href="#DejaVuSans-20"
 id="use2180" />
<use
 x="95.410156"
 xlink:href="#DejaVuSans-47"
 id="use2182" />
<use
 x="172.900391"
 xlink:href="#DejaVuSans-74"
 id="use2184" />
<use
 x="212.109375"
 xlink:href="#DejaVuSans-43"
 id="use2186" />
<use
 x="281.933594"
 xlink:href="#DejaVuSans-2f"
 id="use2188" />
<use
 x="315.625"
 xlink:href="#DejaVuSans-79"
 id="use2190" />
<use
 x="374.804688"
 xlink:href="#DejaVuSans-72"
 id="use2192" />
</g>
</g>
<g
 id="text_21">
<!-- C$_1$ -->
<g
 style="fill:#ff0000;"
 transform="translate(105.973527 138.637075)scale(0.1 -0.1)"
 id="g2201">
<use
 transform="translate(0 0.78125)"
 xlink:href="#DejaVuSans-43"
 id="use2197" />
<use
 transform="translate(70.78125 -15.625)scale(0.7)"
 xlink:href="#DejaVuSans-31"
 id="use2199" />
</g>
</g>
<g
 id="text_22">
<!-- C$_{2+}$ -->
<defs
 id="defs2205">
<path
 d="M 46 62.703125  L 46 35.5  L 73.1875 35.5  L 73.1875 27.203125  L 46 27.203125  L 46 0  L 37.796875 0  L 37.796875 27.203125  L 10.59375 27.203125  L 10.59375 35.5  L 37.796875 35.5  L 37.796875 62.703125  z "
 id="DejaVuSans-2b" />
</defs>
<g
 style="fill:#0000ff;"
 transform="translate(105.973527 129.126059)scale(0.1 -0.1)"
 id="g2213">
<use
 transform="translate(0 0.78125)"
 xlink:href="#DejaVuSans-43"
 id="use2207" />
<use
 transform="translate(70.78125 -15.625)scale(0.7)"
 xlink:href="#DejaVuSans-32"
 id="use2209" />
<use
 transform="translate(128.955078 -15.625)scale(0.7)"
 xlink:href="#DejaVuSans-2b"
 id="use2211" />
</g>
</g>
</g>
</g>
<defs
 id="defs2221">
<clipPath
 id="p26e1b0bb55">
<rect
 height="266.112"
 width="357.12"
 x="57.6"
 y="41.472"
 id="rect2218" />
</clipPath>
</defs>
<flowRoot
 xml:space="preserve"
 id="flowRoot2229"
 style="font-style:normal;font-weight:normal;font-size:7.33333349px;line-height:1.25;font-family:sans-serif;letter-spacing:0px;word-spacing:0px;fill:#ff0000;fill-opacity:1;stroke:none;stroke-linecap:butt;stroke-linejoin:round;"
 transform="matrix(1.4758342,0,0,1.4758342,-189.65412,-188.17812)"><flowRegion
 id="flowRegion2231"
 style="stroke-linecap:butt;stroke-linejoin:round;fill:#ff0000;fill-opacity:1;"><rect
 id="rect2233"
 width="53.370167"
 height="35.071823"
 x="249.56906"
 y="159.6022"
 style="stroke-linecap:butt;stroke-linejoin:round;fill:#ff0000;fill-opacity:1;" /></flowRegion><flowPara
 id="flowPara2235"
 style="stroke-linecap:butt;stroke-linejoin:round;fill:#ff0000;fill-opacity:1;">formic acid</flowPara></flowRoot><flowRoot
 transform="matrix(1.4758342,0,0,1.4758342,-188.03676,-70.380379)"
 style="font-style:normal;font-weight:normal;font-size:7.33333349px;line-height:1.25;font-family:sans-serif;letter-spacing:0px;word-spacing:0px;fill:#ff0000;fill-opacity:1;stroke:none;stroke-linecap:butt;stroke-linejoin:round"
 id="flowRoot2243"
 xml:space="preserve"><flowRegion
 style="fill:#ff0000;fill-opacity:1;stroke-linecap:butt;stroke-linejoin:round"
 id="flowRegion2239"><rect
 style="fill:#ff0000;fill-opacity:1;stroke-linecap:butt;stroke-linejoin:round"
 y="159.6022"
 x="249.56906"
 height="35.071823"
 width="53.370167"
 id="rect2237" /></flowRegion><flowPara
 style="fill:#ff0000;fill-opacity:1;stroke-linecap:butt;stroke-linejoin:round"
 id="flowPara2241">CO (pure)</flowPara></flowRoot><flowRoot
 xml:space="preserve"
 id="flowRoot2251"
 style="font-style:normal;font-weight:normal;font-size:7.33333349px;line-height:1.25;font-family:sans-serif;letter-spacing:0px;word-spacing:0px;fill:#ff0000;fill-opacity:1;stroke:none;stroke-linecap:butt;stroke-linejoin:round"
 transform="matrix(1.4758342,0,0,1.4758342,-272.09478,41.887579)"><flowRegion
 id="flowRegion2247"
 style="fill:#ff0000;fill-opacity:1;stroke-linecap:butt;stroke-linejoin:round"><rect
 id="rect2245"
 width="53.370167"
 height="35.071823"
 x="249.56906"
 y="159.6022"
 style="fill:#ff0000;fill-opacity:1;stroke-linecap:butt;stroke-linejoin:round" /></flowRegion><flowPara
 id="flowPara2249"
 style="fill:#ff0000;fill-opacity:1;stroke-linecap:butt;stroke-linejoin:round">CO (syngas)</flowPara></flowRoot><flowRoot
 transform="matrix(1.4758342,0,0,1.4758342,-129.52019,38.837855)"
 style="font-style:normal;font-weight:normal;font-size:7.33333349px;line-height:1.25;font-family:sans-serif;letter-spacing:0px;word-spacing:0px;fill:#ff0000;fill-opacity:1;stroke:none;stroke-linecap:butt;stroke-linejoin:round"
 id="flowRoot2259"
 xml:space="preserve"><flowRegion
 style="fill:#ff0000;fill-opacity:1;stroke-linecap:butt;stroke-linejoin:round"
 id="flowRegion2255"><rect
 style="fill:#ff0000;fill-opacity:1;stroke-linecap:butt;stroke-linejoin:round"
 y="159.6022"
 x="249.56906"
 height="35.071823"
 width="53.370167"
 id="rect2253" /></flowRegion><flowPara
 style="fill:#ff0000;fill-opacity:1;stroke-linecap:butt;stroke-linejoin:round"
 id="flowPara2257">C (coal)</flowPara></flowRoot><flowRoot
 xml:space="preserve"
 id="flowRoot2267"
 style="font-style:normal;font-weight:normal;font-size:7.33333349px;line-height:1.25;font-family:sans-serif;letter-spacing:0px;word-spacing:0px;fill:#ff0000;fill-opacity:1;stroke:none;stroke-linecap:butt;stroke-linejoin:round"
 transform="matrix(1.4758342,0,0,1.4758342,-37.456652,27.973214)"><flowRegion
 id="flowRegion2263"
 style="fill:#ff0000;fill-opacity:1;stroke-linecap:butt;stroke-linejoin:round"><rect
 id="rect2261"
 width="53.370167"
 height="35.071823"
 x="249.56906"
 y="159.6022"
 style="fill:#ff0000;fill-opacity:1;stroke-linecap:butt;stroke-linejoin:round" /></flowRegion><flowPara
 id="flowPara2265"
 style="fill:#ff0000;fill-opacity:1;stroke-linecap:butt;stroke-linejoin:round">    CH<flowSpan
 style="font-size:64.99999762%;baseline-shift:sub;stroke-linecap:butt;stroke-linejoin:round"
 id="flowSpan2269">4</flowSpan> </flowPara><flowPara
 style="fill:#ff0000;fill-opacity:1;stroke-linecap:butt;stroke-linejoin:round"
 id="flowPara2271">(natural gas)</flowPara></flowRoot><flowRoot
 transform="matrix(1.4758342,0,0,1.4758342,-11.533999,-61.231207)"
 style="font-style:normal;font-weight:normal;font-size:7.33333349px;line-height:1.25;font-family:sans-serif;letter-spacing:0px;word-spacing:0px;fill:#ff0000;fill-opacity:1;stroke:none;stroke-linecap:butt;stroke-linejoin:round"
 id="flowRoot2283"
 xml:space="preserve"><flowRegion
 style="fill:#ff0000;fill-opacity:1;stroke-linecap:butt;stroke-linejoin:round"
 id="flowRegion2275"><rect
 style="fill:#ff0000;fill-opacity:1;stroke-linecap:butt;stroke-linejoin:round"
 y="159.6022"
 x="249.56906"
 height="35.071823"
 width="53.370167"
 id="rect2273" /></flowRegion><flowPara
 id="flowPara2281"
 style="fill:#ff0000;fill-opacity:1;stroke-linecap:butt;stroke-linejoin:round">methanol</flowPara></flowRoot><flowRoot
 xml:space="preserve"
 id="flowRoot2294"
 style="font-style:normal;font-weight:normal;font-size:7.33333349px;line-height:1.25;font-family:sans-serif;letter-spacing:0px;word-spacing:0px;fill:#0000ff;fill-opacity:1;stroke:none;stroke-linecap:butt;stroke-linejoin:round"
 transform="matrix(1.4758342,0,0,1.4758342,-34.788143,-113.45773)"><flowRegion
 id="flowRegion2290"
 style="fill:#0000ff;fill-opacity:1;stroke-linecap:butt;stroke-linejoin:round"><rect
 id="rect2288"
 width="53.370167"
 height="35.071823"
 x="249.56906"
 y="159.6022"
 style="fill:#0000ff;fill-opacity:1;stroke-linecap:butt;stroke-linejoin:round" /></flowRegion><flowPara
 style="fill:#0000ff;fill-opacity:1;stroke-linecap:butt;stroke-linejoin:round"
 id="flowPara2292">ethylene</flowPara></flowRoot><flowRoot
 xml:space="preserve"
 id="flowRoot2302"
 style="font-style:normal;font-weight:normal;font-size:7.33333349px;line-height:1.25;font-family:sans-serif;letter-spacing:0px;word-spacing:0px;fill:#008000;fill-opacity:1;stroke:none;stroke-linecap:butt;stroke-linejoin:round;"
 transform="matrix(1.4758342,0,0,1.4758342,-31.738419,-14.722919)"><flowRegion
 id="flowRegion2298"
 style="fill:#008000;fill-opacity:1;stroke-linecap:butt;stroke-linejoin:round;"><rect
 id="rect2296"
 width="72.226448"
 height="12.857586"
 x="249.56906"
 y="159.6022"
 style="fill:#008000;fill-opacity:1;stroke-linecap:butt;stroke-linejoin:round;" /></flowRegion><flowPara
 style="fill:#008000;fill-opacity:1;stroke-linecap:butt;stroke-linejoin:round;"
 id="flowPara2300">C<flowSpan
 style="font-size:65%;baseline-shift:sub;fill:#008000;fill-opacity:1;"
 id="flowSpan2308">10</flowSpan>H<flowSpan
 style="font-size:65%;baseline-shift:sub;fill:#008000;fill-opacity:1;"
 id="flowSpan2306">22</flowSpan> (jet fuel)</flowPara></flowRoot><flowRoot
 transform="matrix(1.4758342,0,0,1.4758342,-33.263281,-83.722923)"
 style="font-style:normal;font-weight:normal;font-size:7.33333349px;line-height:1.25;font-family:sans-serif;letter-spacing:0px;word-spacing:0px;fill:#0000ff;fill-opacity:1;stroke:none;stroke-linecap:butt;stroke-linejoin:round"
 id="flowRoot2316"
 xml:space="preserve"><flowRegion
 style="fill:#0000ff;fill-opacity:1;stroke-linecap:butt;stroke-linejoin:round"
 id="flowRegion2312"><rect
 style="fill:#0000ff;fill-opacity:1;stroke-linecap:butt;stroke-linejoin:round"
 y="159.6022"
 x="249.56906"
 height="35.071823"
 width="53.370167"
 id="rect2310" /></flowRegion><flowPara
 id="flowPara2314"
 style="fill:#0000ff;fill-opacity:1;stroke-linecap:butt;stroke-linejoin:round">ethanol</flowPara></flowRoot><flowRoot
 xml:space="preserve"
 id="flowRoot2324"
 style="font-style:normal;font-weight:normal;font-size:7.33333349px;line-height:1.25;font-family:sans-serif;letter-spacing:0px;word-spacing:0px;fill:#0000ff;fill-opacity:1;stroke:none;stroke-linecap:butt;stroke-linejoin:round"
 transform="matrix(1.4758342,0,0,1.4758342,-162.11411,-106.21464)"><flowRegion
 id="flowRegion2320"
 style="fill:#0000ff;fill-opacity:1;stroke-linecap:butt;stroke-linejoin:round"><rect
 id="rect2318"
 width="53.370167"
 height="35.071823"
 x="249.56906"
 y="159.6022"
 style="fill:#0000ff;fill-opacity:1;stroke-linecap:butt;stroke-linejoin:round" /></flowRegion><flowPara
 style="fill:#0000ff;fill-opacity:1;stroke-linecap:butt;stroke-linejoin:round"
 id="flowPara2322">acetaldehyde</flowPara></flowRoot><flowRoot
 transform="matrix(1.4758342,0,0,1.4758342,-100.29044,-151.57928)"
 style="font-style:normal;font-weight:normal;font-size:7.33333349px;line-height:1.25;font-family:sans-serif;letter-spacing:0px;word-spacing:0px;fill:#0000ff;fill-opacity:1;stroke:none;stroke-linecap:butt;stroke-linejoin:round"
 id="flowRoot2332"
 xml:space="preserve"><flowRegion
 style="fill:#0000ff;fill-opacity:1;stroke-linecap:butt;stroke-linejoin:round"
 id="flowRegion2328"><rect
 style="fill:#0000ff;fill-opacity:1;stroke-linecap:butt;stroke-linejoin:round"
 y="159.6022"
 x="249.56906"
 height="35.071823"
 width="53.370167"
 id="rect2326" /></flowRegion><flowPara
 id="flowPara2330"
 style="fill:#0000ff;fill-opacity:1;stroke-linecap:butt;stroke-linejoin:round">propanol</flowPara></flowRoot><flowRoot
 transform="matrix(1.4758342,0,0,1.4758342,-288.10583,-8.2422561)"
 style="font-style:normal;font-weight:normal;font-size:7.33333349px;line-height:1.25;font-family:sans-serif;letter-spacing:0px;word-spacing:0px;fill:#000000;fill-opacity:1;stroke:none;stroke-linecap:butt;stroke-linejoin:round"
 id="flowRoot2340"
 xml:space="preserve"><flowRegion
 style="fill:#000000;fill-opacity:1;stroke-linecap:butt;stroke-linejoin:round"
 id="flowRegion2336"><rect
 style="fill:#000000;fill-opacity:1;stroke-linecap:butt;stroke-linejoin:round"
 y="159.6022"
 x="249.56906"
 height="35.071823"
 width="53.370167"
 id="rect2334" /></flowRegion><flowPara
 style="fill:#000000;fill-opacity:1;stroke-linecap:butt;stroke-linejoin:round"
 id="flowPara2338">captured</flowPara><flowPara
 style="fill:#000000;fill-opacity:1;stroke-linecap:butt;stroke-linejoin:round"
 id="flowPara2344">CO<flowSpan
 style="font-size:64.99999762%;baseline-shift:sub;fill:#000000;fill-opacity:1;stroke-linecap:butt;stroke-linejoin:round"
 id="flowSpan2342">2</flowSpan></flowPara></flowRoot><path
 style="fill:none;stroke:#000000;stroke-width:0.75px;stroke-linecap:butt;stroke-linejoin:miter;stroke-opacity:1"
 d="M 77.005524,267.99448 84.43923,252.17403"
 id="path2347"
 inkscape:connector-curvature="0"
 sodipodi:nodetypes="cc" />
<flowRoot
 xml:space="preserve"
 id="flowRoot2359"
 style="font-style:normal;font-weight:normal;font-size:7.33333349px;line-height:1.25;font-family:sans-serif;letter-spacing:0px;word-spacing:0px;fill:#000000;fill-opacity:1;stroke:none;stroke-linecap:butt;stroke-linejoin:round"
 transform="matrix(1.4322158,-0.35615225,0.35615225,1.4322158,-204.40429,86.066207)"><flowRegion
 id="flowRegion2351"
 style="fill:#000000;fill-opacity:1;stroke-linecap:butt;stroke-linejoin:round"><rect
 id="rect2349"
 width="53.370167"
 height="35.071823"
 x="249.56906"
 y="159.6022"
 style="fill:#000000;fill-opacity:1;stroke-linecap:butt;stroke-linejoin:round" /></flowRegion><flowPara
 id="flowPara2357"
 style="fill:#000000;fill-opacity:1;stroke-linecap:butt;stroke-linejoin:round">$50 / MWh</flowPara></flowRoot><flowRoot
 transform="matrix(1.4667706,-0.16331103,0.16331103,1.4667706,-174.70182,54.542102)"
 style="font-style:normal;font-weight:normal;font-size:7.33333349px;line-height:1.25;font-family:sans-serif;letter-spacing:0px;word-spacing:0px;fill:#000000;fill-opacity:1;stroke:none;stroke-linecap:butt;stroke-linejoin:round"
 id="flowRoot2369"
 xml:space="preserve"><flowRegion
 style="fill:#000000;fill-opacity:1;stroke-linecap:butt;stroke-linejoin:round"
 id="flowRegion2365"><rect
 style="fill:#000000;fill-opacity:1;stroke-linecap:butt;stroke-linejoin:round"
 y="159.6022"
 x="249.56906"
 height="35.071823"
 width="53.370167"
 id="rect2363" /></flowRegion><flowPara
 style="fill:#000000;fill-opacity:1;stroke-linecap:butt;stroke-linejoin:round"
 id="flowPara2367">$20 / MWh</flowPara></flowRoot></svg>
