<?xml version="1.0" encoding="UTF-8" standalone="no"?>
<!-- Created with matplotlib (http://matplotlib.org/) -->

<svg
 xmlns:dc="http://purl.org/dc/elements/1.1/"
 xmlns:cc="http://creativecommons.org/ns#"
 xmlns:rdf="http://www.w3.org/1999/02/22-rdf-syntax-ns#"
 xmlns:svg="http://www.w3.org/2000/svg"
 xmlns="http://www.w3.org/2000/svg"
 xmlns:xlink="http://www.w3.org/1999/xlink"
 xmlns:sodipodi="http://sodipodi.sourceforge.net/DTD/sodipodi-0.dtd"
 xmlns:inkscape="http://www.inkscape.org/namespaces/inkscape"
 height="297pt"
 version="1.1"
 viewBox="0 0 396 297"
 width="396pt"
 id="svg14522"
 sodipodi:docname="NiFe_ECMS_resuls_model.svg"
 inkscape:version="0.92.4 (unknown)">
<metadata
 id="metadata14526">
<rdf:RDF>
<cc:Work
 rdf:about="">
<dc:format>image/svg+xml</dc:format>
<dc:type
 rdf:resource="http://purl.org/dc/dcmitype/StillImage" />
</cc:Work>
</rdf:RDF>
</metadata>
<sodipodi:namedview
 pagecolor="#ffffff"
 bordercolor="#666666"
 borderopacity="1"
 objecttolerance="10"
 gridtolerance="10"
 guidetolerance="10"
 inkscape:pageopacity="0"
 inkscape:pageshadow="2"
 inkscape:window-width="1598"
 inkscape:window-height="988"
 id="namedview14524"
 showgrid="false"
 inkscape:zoom="0.84281414"
 inkscape:cx="472.68565"
 inkscape:cy="152.96615"
 inkscape:window-x="65"
 inkscape:window-y="24"
 inkscape:window-maximized="0"
 inkscape:current-layer="svg14522" />
<defs
 id="defs13966">
<style
 type="text/css"
 id="style13964">
*{stroke-linecap:butt;stroke-linejoin:round;}
  </style>
</defs>
<g
 id="figure_1">
<g
 id="patch_1">
<path
 d="M 0 297.637795  L 396.850394 297.637795  L 396.850394 0  L 0 0  z "
 style="fill:#ffffff;"
 id="path13968" />
</g>
<g
 id="axes_1">
<g
 id="patch_2">
<path
 d="M 59.527559 181.785109  L 337.322835 181.785109  L 337.322835 44.645669  L 59.527559 44.645669  z "
 style="fill:#ffffff;"
 id="path13971" />
</g>
<g
 id="matplotlib.axis_1">
<g
 id="xtick_1">
<g
 id="line2d_1">
<defs
 id="defs13975">
<path
 d="M 0 0  L 0 3.5  "
 id="m3d6f2c8076"
 style="stroke:#000000;stroke-width:0.8;" />
</defs>
<g
 id="g13979">
<use
 style="stroke:#000000;stroke-width:0.8;"
 x="81.751181"
 xlink:href="#m3d6f2c8076"
 y="44.645669"
 id="use13977" />
</g>
</g>
<g
 id="text_1">
<!-- −40 -->
<defs
 id="defs13985">
<path
 d="M 10.59375 35.5  L 73.1875 35.5  L 73.1875 27.203125  L 10.59375 27.203125  z "
 id="DejaVuSans-2212" />
<path
 d="M 37.796875 64.3125  L 12.890625 25.390625  L 37.796875 25.390625  z M 35.203125 72.90625  L 47.609375 72.90625  L 47.609375 25.390625  L 58.015625 25.390625  L 58.015625 17.1875  L 47.609375 17.1875  L 47.609375 0  L 37.796875 0  L 37.796875 17.1875  L 4.890625 17.1875  L 4.890625 26.703125  z "
 id="DejaVuSans-34" />
<path
 d="M 31.78125 66.40625  Q 24.171875 66.40625 20.328125 58.90625  Q 16.5 51.421875 16.5 36.375  Q 16.5 21.390625 20.328125 13.890625  Q 24.171875 6.390625 31.78125 6.390625  Q 39.453125 6.390625 43.28125 13.890625  Q 47.125 21.390625 47.125 36.375  Q 47.125 51.421875 43.28125 58.90625  Q 39.453125 66.40625 31.78125 66.40625  z M 31.78125 74.21875  Q 44.046875 74.21875 50.515625 64.515625  Q 56.984375 54.828125 56.984375 36.375  Q 56.984375 17.96875 50.515625 8.265625  Q 44.046875 -1.421875 31.78125 -1.421875  Q 19.53125 -1.421875 13.0625 8.265625  Q 6.59375 17.96875 6.59375 36.375  Q 6.59375 54.828125 13.0625 64.515625  Q 19.53125 74.21875 31.78125 74.21875  z "
 id="DejaVuSans-30" />
</defs>
<g
 transform="translate(70.983306 37.523504)scale(0.102043 -0.102043)"
 id="g13993">
<use
 xlink:href="#DejaVuSans-2212"
 id="use13987" />
<use
 x="83.789062"
 xlink:href="#DejaVuSans-34"
 id="use13989" />
<use
 x="147.412109"
 xlink:href="#DejaVuSans-30"
 id="use13991" />
</g>
</g>
</g>
<g
 id="xtick_2">
<g
 id="line2d_2">
<g
 id="g13999">
<use
 style="stroke:#000000;stroke-width:0.8;"
 x="126.198425"
 xlink:href="#m3d6f2c8076"
 y="44.645669"
 id="use13997" />
</g>
</g>
<g
 id="text_2">
<!-- −20 -->
<defs
 id="defs14003">
<path
 d="M 19.1875 8.296875  L 53.609375 8.296875  L 53.609375 0  L 7.328125 0  L 7.328125 8.296875  Q 12.9375 14.109375 22.625 23.890625  Q 32.328125 33.6875 34.8125 36.53125  Q 39.546875 41.84375 41.421875 45.53125  Q 43.3125 49.21875 43.3125 52.78125  Q 43.3125 58.59375 39.234375 62.25  Q 35.15625 65.921875 28.609375 65.921875  Q 23.96875 65.921875 18.8125 64.3125  Q 13.671875 62.703125 7.8125 59.421875  L 7.8125 69.390625  Q 13.765625 71.78125 18.9375 73  Q 24.125 74.21875 28.421875 74.21875  Q 39.75 74.21875 46.484375 68.546875  Q 53.21875 62.890625 53.21875 53.421875  Q 53.21875 48.921875 51.53125 44.890625  Q 49.859375 40.875 45.40625 35.40625  Q 44.1875 33.984375 37.640625 27.21875  Q 31.109375 20.453125 19.1875 8.296875  z "
 id="DejaVuSans-32" />
</defs>
<g
 transform="translate(115.43055 37.523504)scale(0.102043 -0.102043)"
 id="g14011">
<use
 xlink:href="#DejaVuSans-2212"
 id="use14005" />
<use
 x="83.789062"
 xlink:href="#DejaVuSans-32"
 id="use14007" />
<use
 x="147.412109"
 xlink:href="#DejaVuSans-30"
 id="use14009" />
</g>
</g>
</g>
<g
 id="xtick_3">
<g
 id="line2d_3">
<g
 id="g14017">
<use
 style="stroke:#000000;stroke-width:0.8;"
 x="170.645669"
 xlink:href="#m3d6f2c8076"
 y="44.645669"
 id="use14015" />
</g>
</g>
<g
 id="text_3">
<!-- 0 -->
<g
 transform="translate(167.399442 37.523504)scale(0.102043 -0.102043)"
 id="g14022">
<use
 xlink:href="#DejaVuSans-30"
 id="use14020" />
</g>
</g>
</g>
<g
 id="xtick_4">
<g
 id="line2d_4">
<g
 id="g14028">
<use
 style="stroke:#000000;stroke-width:0.8;"
 x="215.092913"
 xlink:href="#m3d6f2c8076"
 y="44.645669"
 id="use14026" />
</g>
</g>
<g
 id="text_4">
<!-- 20 -->
<g
 transform="translate(208.600459 37.523504)scale(0.102043 -0.102043)"
 id="g14035">
<use
 xlink:href="#DejaVuSans-32"
 id="use14031" />
<use
 x="63.623047"
 xlink:href="#DejaVuSans-30"
 id="use14033" />
</g>
</g>
</g>
<g
 id="xtick_5">
<g
 id="line2d_5">
<g
 id="g14041">
<use
 style="stroke:#000000;stroke-width:0.8;"
 x="259.540157"
 xlink:href="#m3d6f2c8076"
 y="44.645669"
 id="use14039" />
</g>
</g>
<g
 id="text_5">
<!-- 40 -->
<g
 transform="translate(253.047703 37.523504)scale(0.102043 -0.102043)"
 id="g14048">
<use
 xlink:href="#DejaVuSans-34"
 id="use14044" />
<use
 x="63.623047"
 xlink:href="#DejaVuSans-30"
 id="use14046" />
</g>
</g>
</g>
<g
 id="xtick_6">
<g
 id="line2d_6">
<g
 id="g14054">
<use
 style="stroke:#000000;stroke-width:0.8;"
 x="303.987402"
 xlink:href="#m3d6f2c8076"
 y="44.645669"
 id="use14052" />
</g>
</g>
<g
 id="text_6">
<!-- 60 -->
<defs
 id="defs14058">
<path
 d="M 33.015625 40.375  Q 26.375 40.375 22.484375 35.828125  Q 18.609375 31.296875 18.609375 23.390625  Q 18.609375 15.53125 22.484375 10.953125  Q 26.375 6.390625 33.015625 6.390625  Q 39.65625 6.390625 43.53125 10.953125  Q 47.40625 15.53125 47.40625 23.390625  Q 47.40625 31.296875 43.53125 35.828125  Q 39.65625 40.375 33.015625 40.375  z M 52.59375 71.296875  L 52.59375 62.3125  Q 48.875 64.0625 45.09375 64.984375  Q 41.3125 65.921875 37.59375 65.921875  Q 27.828125 65.921875 22.671875 59.328125  Q 17.53125 52.734375 16.796875 39.40625  Q 19.671875 43.65625 24.015625 45.921875  Q 28.375 48.1875 33.59375 48.1875  Q 44.578125 48.1875 50.953125 41.515625  Q 57.328125 34.859375 57.328125 23.390625  Q 57.328125 12.15625 50.6875 5.359375  Q 44.046875 -1.421875 33.015625 -1.421875  Q 20.359375 -1.421875 13.671875 8.265625  Q 6.984375 17.96875 6.984375 36.375  Q 6.984375 53.65625 15.1875 63.9375  Q 23.390625 74.21875 37.203125 74.21875  Q 40.921875 74.21875 44.703125 73.484375  Q 48.484375 72.75 52.59375 71.296875  z "
 id="DejaVuSans-36" />
</defs>
<g
 transform="translate(297.494948 37.523504)scale(0.102043 -0.102043)"
 id="g14064">
<use
 xlink:href="#DejaVuSans-36"
 id="use14060" />
<use
 x="63.623047"
 xlink:href="#DejaVuSans-30"
 id="use14062" />
</g>
</g>
</g>
</g>
<g
 id="matplotlib.axis_2">
<g
 id="ytick_1">
<g
 id="line2d_7">
<defs
 id="defs14070">
<path
 d="M 0 0  L 3.5 0  "
 id="m3939861585"
 style="stroke:#000000;stroke-width:0.8;" />
</defs>
<g
 id="g14074">
<use
 style="stroke:#000000;stroke-width:0.8;"
 x="59.527559"
 xlink:href="#m3939861585"
 y="176.510515"
 id="use14072" />
</g>
</g>
<g
 id="text_7">
<!-- 0 -->
<g
 transform="translate(48.035105 180.387333)scale(0.102043 -0.102043)"
 id="g14079">
<use
 xlink:href="#DejaVuSans-30"
 id="use14077" />
</g>
</g>
</g>
<g
 id="ytick_2">
<g
 id="line2d_8">
<g
 id="g14085">
<use
 style="stroke:#000000;stroke-width:0.8;"
 x="59.527559"
 xlink:href="#m3939861585"
 y="150.137546"
 id="use14083" />
</g>
</g>
<g
 id="text_8">
<!-- 1 -->
<defs
 id="defs14089">
<path
 d="M 12.40625 8.296875  L 28.515625 8.296875  L 28.515625 63.921875  L 10.984375 60.40625  L 10.984375 69.390625  L 28.421875 72.90625  L 38.28125 72.90625  L 38.28125 8.296875  L 54.390625 8.296875  L 54.390625 0  L 12.40625 0  z "
 id="DejaVuSans-31" />
</defs>
<g
 transform="translate(48.035105 154.014364)scale(0.102043 -0.102043)"
 id="g14093">
<use
 xlink:href="#DejaVuSans-31"
 id="use14091" />
</g>
</g>
</g>
<g
 id="ytick_3">
<g
 id="line2d_9">
<g
 id="g14099">
<use
 style="stroke:#000000;stroke-width:0.8;"
 x="59.527559"
 xlink:href="#m3939861585"
 y="123.764577"
 id="use14097" />
</g>
</g>
<g
 id="text_9">
<!-- 2 -->
<g
 transform="translate(48.035105 127.641395)scale(0.102043 -0.102043)"
 id="g14104">
<use
 xlink:href="#DejaVuSans-32"
 id="use14102" />
</g>
</g>
</g>
<g
 id="ytick_4">
<g
 id="line2d_10">
<g
 id="g14110">
<use
 style="stroke:#000000;stroke-width:0.8;"
 x="59.527559"
 xlink:href="#m3939861585"
 y="97.391608"
 id="use14108" />
</g>
</g>
<g
 id="text_10">
<!-- 3 -->
<defs
 id="defs14114">
<path
 d="M 40.578125 39.3125  Q 47.65625 37.796875 51.625 33  Q 55.609375 28.21875 55.609375 21.1875  Q 55.609375 10.40625 48.1875 4.484375  Q 40.765625 -1.421875 27.09375 -1.421875  Q 22.515625 -1.421875 17.65625 -0.515625  Q 12.796875 0.390625 7.625 2.203125  L 7.625 11.71875  Q 11.71875 9.328125 16.59375 8.109375  Q 21.484375 6.890625 26.8125 6.890625  Q 36.078125 6.890625 40.9375 10.546875  Q 45.796875 14.203125 45.796875 21.1875  Q 45.796875 27.640625 41.28125 31.265625  Q 36.765625 34.90625 28.71875 34.90625  L 20.21875 34.90625  L 20.21875 43.015625  L 29.109375 43.015625  Q 36.375 43.015625 40.234375 45.921875  Q 44.09375 48.828125 44.09375 54.296875  Q 44.09375 59.90625 40.109375 62.90625  Q 36.140625 65.921875 28.71875 65.921875  Q 24.65625 65.921875 20.015625 65.03125  Q 15.375 64.15625 9.8125 62.3125  L 9.8125 71.09375  Q 15.4375 72.65625 20.34375 73.4375  Q 25.25 74.21875 29.59375 74.21875  Q 40.828125 74.21875 47.359375 69.109375  Q 53.90625 64.015625 53.90625 55.328125  Q 53.90625 49.265625 50.4375 45.09375  Q 46.96875 40.921875 40.578125 39.3125  z "
 id="DejaVuSans-33" />
</defs>
<g
 transform="translate(48.035105 101.268425)scale(0.102043 -0.102043)"
 id="g14118">
<use
 xlink:href="#DejaVuSans-33"
 id="use14116" />
</g>
</g>
</g>
<g
 id="ytick_5">
<g
 id="line2d_11">
<g
 id="g14124">
<use
 style="stroke:#000000;stroke-width:0.8;"
 x="59.527559"
 xlink:href="#m3939861585"
 y="71.018638"
 id="use14122" />
</g>
</g>
<g
 id="text_11">
<!-- 4 -->
<g
 transform="translate(48.035105 74.895456)scale(0.102043 -0.102043)"
 id="g14129">
<use
 xlink:href="#DejaVuSans-34"
 id="use14127" />
</g>
</g>
</g>
<g
 id="ytick_6">
<g
 id="line2d_12">
<g
 id="g14135">
<use
 style="stroke:#000000;stroke-width:0.8;"
 x="59.527559"
 xlink:href="#m3939861585"
 y="44.645669"
 id="use14133" />
</g>
</g>
<g
 id="text_12">
<!-- 5 -->
<defs
 id="defs14139">
<path
 d="M 10.796875 72.90625  L 49.515625 72.90625  L 49.515625 64.59375  L 19.828125 64.59375  L 19.828125 46.734375  Q 21.96875 47.46875 24.109375 47.828125  Q 26.265625 48.1875 28.421875 48.1875  Q 40.625 48.1875 47.75 41.5  Q 54.890625 34.8125 54.890625 23.390625  Q 54.890625 11.625 47.5625 5.09375  Q 40.234375 -1.421875 26.90625 -1.421875  Q 22.3125 -1.421875 17.546875 -0.640625  Q 12.796875 0.140625 7.71875 1.703125  L 7.71875 11.625  Q 12.109375 9.234375 16.796875 8.0625  Q 21.484375 6.890625 26.703125 6.890625  Q 35.15625 6.890625 40.078125 11.328125  Q 45.015625 15.765625 45.015625 23.390625  Q 45.015625 31 40.078125 35.4375  Q 35.15625 39.890625 26.703125 39.890625  Q 22.75 39.890625 18.8125 39.015625  Q 14.890625 38.140625 10.796875 36.28125  z "
 id="DejaVuSans-35" />
</defs>
<g
 transform="translate(48.035105 48.522487)scale(0.102043 -0.102043)"
 id="g14143">
<use
 xlink:href="#DejaVuSans-35"
 id="use14141" />
</g>
</g>
</g>
<g
 id="text_13">
<!-- Cal. signal (pmol/s) -->
<defs
 id="defs14162">
<path
 d="M 64.40625 67.28125  L 64.40625 56.890625  Q 59.421875 61.53125 53.78125 63.8125  Q 48.140625 66.109375 41.796875 66.109375  Q 29.296875 66.109375 22.65625 58.46875  Q 16.015625 50.828125 16.015625 36.375  Q 16.015625 21.96875 22.65625 14.328125  Q 29.296875 6.6875 41.796875 6.6875  Q 48.140625 6.6875 53.78125 8.984375  Q 59.421875 11.28125 64.40625 15.921875  L 64.40625 5.609375  Q 59.234375 2.09375 53.4375 0.328125  Q 47.65625 -1.421875 41.21875 -1.421875  Q 24.65625 -1.421875 15.125 8.703125  Q 5.609375 18.84375 5.609375 36.375  Q 5.609375 53.953125 15.125 64.078125  Q 24.65625 74.21875 41.21875 74.21875  Q 47.75 74.21875 53.53125 72.484375  Q 59.328125 70.75 64.40625 67.28125  z "
 id="DejaVuSans-43" />
<path
 d="M 34.28125 27.484375  Q 23.390625 27.484375 19.1875 25  Q 14.984375 22.515625 14.984375 16.5  Q 14.984375 11.71875 18.140625 8.90625  Q 21.296875 6.109375 26.703125 6.109375  Q 34.1875 6.109375 38.703125 11.40625  Q 43.21875 16.703125 43.21875 25.484375  L 43.21875 27.484375  z M 52.203125 31.203125  L 52.203125 0  L 43.21875 0  L 43.21875 8.296875  Q 40.140625 3.328125 35.546875 0.953125  Q 30.953125 -1.421875 24.3125 -1.421875  Q 15.921875 -1.421875 10.953125 3.296875  Q 6 8.015625 6 15.921875  Q 6 25.140625 12.171875 29.828125  Q 18.359375 34.515625 30.609375 34.515625  L 43.21875 34.515625  L 43.21875 35.40625  Q 43.21875 41.609375 39.140625 45  Q 35.0625 48.390625 27.6875 48.390625  Q 23 48.390625 18.546875 47.265625  Q 14.109375 46.140625 10.015625 43.890625  L 10.015625 52.203125  Q 14.9375 54.109375 19.578125 55.046875  Q 24.21875 56 28.609375 56  Q 40.484375 56 46.34375 49.84375  Q 52.203125 43.703125 52.203125 31.203125  z "
 id="DejaVuSans-61" />
<path
 d="M 9.421875 75.984375  L 18.40625 75.984375  L 18.40625 0  L 9.421875 0  z "
 id="DejaVuSans-6c" />
<path
 d="M 10.6875 12.40625  L 21 12.40625  L 21 0  L 10.6875 0  z "
 id="DejaVuSans-2e" />
<path
 id="DejaVuSans-20" />
<path
 d="M 44.28125 53.078125  L 44.28125 44.578125  Q 40.484375 46.53125 36.375 47.5  Q 32.28125 48.484375 27.875 48.484375  Q 21.1875 48.484375 17.84375 46.4375  Q 14.5 44.390625 14.5 40.28125  Q 14.5 37.15625 16.890625 35.375  Q 19.28125 33.59375 26.515625 31.984375  L 29.59375 31.296875  Q 39.15625 29.25 43.1875 25.515625  Q 47.21875 21.78125 47.21875 15.09375  Q 47.21875 7.46875 41.1875 3.015625  Q 35.15625 -1.421875 24.609375 -1.421875  Q 20.21875 -1.421875 15.453125 -0.5625  Q 10.6875 0.296875 5.421875 2  L 5.421875 11.28125  Q 10.40625 8.6875 15.234375 7.390625  Q 20.0625 6.109375 24.8125 6.109375  Q 31.15625 6.109375 34.5625 8.28125  Q 37.984375 10.453125 37.984375 14.40625  Q 37.984375 18.0625 35.515625 20.015625  Q 33.0625 21.96875 24.703125 23.78125  L 21.578125 24.515625  Q 13.234375 26.265625 9.515625 29.90625  Q 5.8125 33.546875 5.8125 39.890625  Q 5.8125 47.609375 11.28125 51.796875  Q 16.75 56 26.8125 56  Q 31.78125 56 36.171875 55.265625  Q 40.578125 54.546875 44.28125 53.078125  z "
 id="DejaVuSans-73" />
<path
 d="M 9.421875 54.6875  L 18.40625 54.6875  L 18.40625 0  L 9.421875 0  z M 9.421875 75.984375  L 18.40625 75.984375  L 18.40625 64.59375  L 9.421875 64.59375  z "
 id="DejaVuSans-69" />
<path
 d="M 45.40625 27.984375  Q 45.40625 37.75 41.375 43.109375  Q 37.359375 48.484375 30.078125 48.484375  Q 22.859375 48.484375 18.828125 43.109375  Q 14.796875 37.75 14.796875 27.984375  Q 14.796875 18.265625 18.828125 12.890625  Q 22.859375 7.515625 30.078125 7.515625  Q 37.359375 7.515625 41.375 12.890625  Q 45.40625 18.265625 45.40625 27.984375  z M 54.390625 6.78125  Q 54.390625 -7.171875 48.1875 -13.984375  Q 42 -20.796875 29.203125 -20.796875  Q 24.46875 -20.796875 20.265625 -20.09375  Q 16.0625 -19.390625 12.109375 -17.921875  L 12.109375 -9.1875  Q 16.0625 -11.328125 19.921875 -12.34375  Q 23.78125 -13.375 27.78125 -13.375  Q 36.625 -13.375 41.015625 -8.765625  Q 45.40625 -4.15625 45.40625 5.171875  L 45.40625 9.625  Q 42.625 4.78125 38.28125 2.390625  Q 33.9375 0 27.875 0  Q 17.828125 0 11.671875 7.65625  Q 5.515625 15.328125 5.515625 27.984375  Q 5.515625 40.671875 11.671875 48.328125  Q 17.828125 56 27.875 56  Q 33.9375 56 38.28125 53.609375  Q 42.625 51.21875 45.40625 46.390625  L 45.40625 54.6875  L 54.390625 54.6875  z "
 id="DejaVuSans-67" />
<path
 d="M 54.890625 33.015625  L 54.890625 0  L 45.90625 0  L 45.90625 32.71875  Q 45.90625 40.484375 42.875 44.328125  Q 39.84375 48.1875 33.796875 48.1875  Q 26.515625 48.1875 22.3125 43.546875  Q 18.109375 38.921875 18.109375 30.90625  L 18.109375 0  L 9.078125 0  L 9.078125 54.6875  L 18.109375 54.6875  L 18.109375 46.1875  Q 21.34375 51.125 25.703125 53.5625  Q 30.078125 56 35.796875 56  Q 45.21875 56 50.046875 50.171875  Q 54.890625 44.34375 54.890625 33.015625  z "
 id="DejaVuSans-6e" />
<path
 d="M 31 75.875  Q 24.46875 64.65625 21.28125 53.65625  Q 18.109375 42.671875 18.109375 31.390625  Q 18.109375 20.125 21.3125 9.0625  Q 24.515625 -2 31 -13.1875  L 23.1875 -13.1875  Q 15.875 -1.703125 12.234375 9.375  Q 8.59375 20.453125 8.59375 31.390625  Q 8.59375 42.28125 12.203125 53.3125  Q 15.828125 64.359375 23.1875 75.875  z "
 id="DejaVuSans-28" />
<path
 d="M 18.109375 8.203125  L 18.109375 -20.796875  L 9.078125 -20.796875  L 9.078125 54.6875  L 18.109375 54.6875  L 18.109375 46.390625  Q 20.953125 51.265625 25.265625 53.625  Q 29.59375 56 35.59375 56  Q 45.5625 56 51.78125 48.09375  Q 58.015625 40.1875 58.015625 27.296875  Q 58.015625 14.40625 51.78125 6.484375  Q 45.5625 -1.421875 35.59375 -1.421875  Q 29.59375 -1.421875 25.265625 0.953125  Q 20.953125 3.328125 18.109375 8.203125  z M 48.6875 27.296875  Q 48.6875 37.203125 44.609375 42.84375  Q 40.53125 48.484375 33.40625 48.484375  Q 26.265625 48.484375 22.1875 42.84375  Q 18.109375 37.203125 18.109375 27.296875  Q 18.109375 17.390625 22.1875 11.75  Q 26.265625 6.109375 33.40625 6.109375  Q 40.53125 6.109375 44.609375 11.75  Q 48.6875 17.390625 48.6875 27.296875  z "
 id="DejaVuSans-70" />
<path
 d="M 52 44.1875  Q 55.375 50.25 60.0625 53.125  Q 64.75 56 71.09375 56  Q 79.640625 56 84.28125 50.015625  Q 88.921875 44.046875 88.921875 33.015625  L 88.921875 0  L 79.890625 0  L 79.890625 32.71875  Q 79.890625 40.578125 77.09375 44.375  Q 74.3125 48.1875 68.609375 48.1875  Q 61.625 48.1875 57.5625 43.546875  Q 53.515625 38.921875 53.515625 30.90625  L 53.515625 0  L 44.484375 0  L 44.484375 32.71875  Q 44.484375 40.625 41.703125 44.40625  Q 38.921875 48.1875 33.109375 48.1875  Q 26.21875 48.1875 22.15625 43.53125  Q 18.109375 38.875 18.109375 30.90625  L 18.109375 0  L 9.078125 0  L 9.078125 54.6875  L 18.109375 54.6875  L 18.109375 46.1875  Q 21.1875 51.21875 25.484375 53.609375  Q 29.78125 56 35.6875 56  Q 41.65625 56 45.828125 52.96875  Q 50 49.953125 52 44.1875  z "
 id="DejaVuSans-6d" />
<path
 d="M 30.609375 48.390625  Q 23.390625 48.390625 19.1875 42.75  Q 14.984375 37.109375 14.984375 27.296875  Q 14.984375 17.484375 19.15625 11.84375  Q 23.34375 6.203125 30.609375 6.203125  Q 37.796875 6.203125 41.984375 11.859375  Q 46.1875 17.53125 46.1875 27.296875  Q 46.1875 37.015625 41.984375 42.703125  Q 37.796875 48.390625 30.609375 48.390625  z M 30.609375 56  Q 42.328125 56 49.015625 48.375  Q 55.71875 40.765625 55.71875 27.296875  Q 55.71875 13.875 49.015625 6.21875  Q 42.328125 -1.421875 30.609375 -1.421875  Q 18.84375 -1.421875 12.171875 6.21875  Q 5.515625 13.875 5.515625 27.296875  Q 5.515625 40.765625 12.171875 48.375  Q 18.84375 56 30.609375 56  z "
 id="DejaVuSans-6f" />
<path
 d="M 25.390625 72.90625  L 33.6875 72.90625  L 8.296875 -9.28125  L 0 -9.28125  z "
 id="DejaVuSans-2f" />
<path
 d="M 8.015625 75.875  L 15.828125 75.875  Q 23.140625 64.359375 26.78125 53.3125  Q 30.421875 42.28125 30.421875 31.390625  Q 30.421875 20.453125 26.78125 9.375  Q 23.140625 -1.703125 15.828125 -13.1875  L 8.015625 -13.1875  Q 14.5 -2 17.703125 9.0625  Q 20.90625 20.125 20.90625 31.390625  Q 20.90625 42.671875 17.703125 53.65625  Q 14.5 64.65625 8.015625 75.875  z "
 id="DejaVuSans-29" />
</defs>
<g
 transform="translate(41.487488 172.242206)rotate(-90)scale(0.1225 -0.1225)"
 id="g14204">
<use
 xlink:href="#DejaVuSans-43"
 id="use14164" />
<use
 x="69.824219"
 xlink:href="#DejaVuSans-61"
 id="use14166" />
<use
 x="131.103516"
 xlink:href="#DejaVuSans-6c"
 id="use14168" />
<use
 x="158.886719"
 xlink:href="#DejaVuSans-2e"
 id="use14170" />
<use
 x="190.673828"
 xlink:href="#DejaVuSans-20"
 id="use14172" />
<use
 x="222.460938"
 xlink:href="#DejaVuSans-73"
 id="use14174" />
<use
 x="274.560547"
 xlink:href="#DejaVuSans-69"
 id="use14176" />
<use
 x="302.34375"
 xlink:href="#DejaVuSans-67"
 id="use14178" />
<use
 x="365.820312"
 xlink:href="#DejaVuSans-6e"
 id="use14180" />
<use
 x="429.199219"
 xlink:href="#DejaVuSans-61"
 id="use14182" />
<use
 x="490.478516"
 xlink:href="#DejaVuSans-6c"
 id="use14184" />
<use
 x="518.261719"
 xlink:href="#DejaVuSans-20"
 id="use14186" />
<use
 x="550.048828"
 xlink:href="#DejaVuSans-28"
 id="use14188" />
<use
 x="589.0625"
 xlink:href="#DejaVuSans-70"
 id="use14190" />
<use
 x="652.539062"
 xlink:href="#DejaVuSans-6d"
 id="use14192" />
<use
 x="749.951172"
 xlink:href="#DejaVuSans-6f"
 id="use14194" />
<use
 x="811.132812"
 xlink:href="#DejaVuSans-6c"
 id="use14196" />
<use
 x="838.916016"
 xlink:href="#DejaVuSans-2f"
 id="use14198" />
<use
 x="872.607422"
 xlink:href="#DejaVuSans-73"
 id="use14200" />
<use
 x="924.707031"
 xlink:href="#DejaVuSans-29"
 id="use14202" />
</g>
</g>
</g>
<g
 id="line2d_13">
<path
 clip-path="url(#p58400b22fc)"
 d="M 60.693863 175.545931  L 63.249371 173.748445  L 65.805023 171.800581  L 68.521507 176.000996  L 71.160436 172.265377  L 73.716071 170.394669  L 76.271558 175.803414  L 78.827088 174.335253  L 81.449384 174.520068  L 84.005821 174.705296  L 86.563655 171.524326  L 89.271581 173.026579  L 91.827102 170.336354  L 94.33834 172.474138  L 97.052516 171.804929  L 99.561356 172.21348  L 102.338371 173.674947  L 104.849391 174.26148  L 107.561369 172.065104  L 110.116883 174.785212  L 112.671704 171.717836  L 115.227227 171.627568  L 117.782859 170.672028  L 120.338354 172.703465  L 122.893868 172.972405  L 125.449505 172.969506  L 128.005043 170.903356  L 130.516144 172.354817  L 133.205024 172.525552  L 135.8272 174.769684  L 138.538367 171.135513  L 141.13836 170.488594  L 143.805045 174.815163  L 146.58276 174.961675  L 149.138283 174.607713  L 151.671736 173.095315  L 154.249539 172.482075  L 156.938297 175.246971  L 159.516106 171.519426  L 162.138275 172.157718  L 164.693923 174.323521  L 167.293816 169.418426  L 169.916105 172.59208  L 172.560603 171.684641  L 175.128427 170.342082  L 177.693822 172.837969  L 180.27174 175.539098  L 182.782882 175.539513  L 185.42714 174.850566  L 188.005878 171.622323  L 190.582756 175.786368  L 193.138384 171.341652  L 195.693904 171.432195  L 198.338444 173.421811  L 200.960587 170.804324  L 203.60496 174.270934  L 206.249565 171.579467  L 208.760599 170.208475  L 211.49392 173.810279  L 214.116476 169.870385  L 216.627265 174.155201  L 219.360624 175.014814  L 221.916139 171.610039  L 224.516138 173.93036  L 227.138443 173.913797  L 229.693829 174.593358  L 232.249578 173.156598  L 234.982812 173.6775  L 237.538327 172.95736  L 240.182816 172.561024  L 242.738439 172.539148  L 245.471682 170.851874  L 248.09399 144.671418  L 250.828033 108.238474  L 253.382865 104.604993  L 255.939173 118.069231  L 258.494 137.103702  L 261.071818 146.480015  L 263.849542 157.12401  L 266.562544 160.473161  L 269.293981 161.06487  L 271.871643 164.481032  L 274.449565 167.063185  L 277.005077 164.71029  L 279.56071 168.735483  L 282.182897 170.769887  L 284.805086 171.096797  L 287.40509 168.586141  L 290.182805 170.956772  L 292.693948 171.701825  L 295.408348 171.62046  L 298.116167 171.357593  L 300.671793 171.414114  L 303.316168 170.875338  L 305.960657 173.469774  L 308.520351 170.125522  L 311.027302 176.212103  L 313.649488 171.313564  L 316.205009 169.673494  L 318.760636 173.685023  L 321.493988 171.793611  L 324.138364 170.829307  L 326.694794 171.729154  L 329.249617 171.110737  L 331.806987 171.273054  L 334.360641 175.17789  L 336.916278 172.205889  "
 style="fill:none;stroke:#ff0000;stroke-linecap:square;stroke-width:1.5;"
 id="path14208" />
</g>
<g
 id="line2d_14">
<path
 clip-path="url(#p58400b22fc)"
 d="M 60.894696 176.006927  L 63.450208 176.048685  L 66.072434 176.007794  L 68.716902 175.994943  L 71.361266 176.009222  L 73.916909 175.987226  L 76.472408 176.061158  L 79.027918 175.976692  L 81.650226 176.018094  L 84.20606 176.08161  L 86.761361 176.042381  L 89.478398 176.073987  L 92.027928 176.116511  L 94.605737 176.108445  L 97.250348 176.007247  L 99.827944 176.111503  L 102.539217 176.059808  L 105.11692 175.948896  L 107.761388 176.023145  L 110.31692 175.987632  L 112.872537 175.995565  L 115.428055 176.056837  L 117.983565 176.073069  L 120.539193 176.043799  L 123.094714 175.972993  L 125.650224 175.978505  L 128.2062 175.983164  L 130.783547 175.98088  L 133.472408 175.971655  L 136.027922 176.039316  L 138.739086 175.972065  L 141.405765 176.050944  L 144.07244 176.059909  L 146.783493 175.950623  L 149.339118 176.027192  L 151.939122 176.021691  L 154.516942 175.987722  L 157.205809 175.921795  L 159.783609 176.0146  L 162.339117 176.037186  L 164.894745 176.076987  L 167.561435 176.067781  L 170.116947 176.037827  L 172.761438 176.043011  L 175.339125 176.072274  L 177.916827 176.030811  L 180.472441 176.1238  L 183.050268 175.934124  L 185.650279 176.070691  L 188.221034 176.059467  L 190.783598 175.989118  L 193.339112 175.977714  L 195.894615 176.018169  L 198.539235 176.041068  L 201.161302 176.020623  L 203.8058 175.975296  L 206.450289 175.980876  L 209.027984 176.035812  L 211.694772 176.05048  L 214.316965 176.094162  L 216.894774 176.012722  L 219.561464 175.996335  L 222.116973 176.055347  L 224.783534 176.071835  L 227.339169 176.012467  L 229.89467 176.033621  L 232.450295 175.963478  L 235.183536 176.011398  L 237.739289 176.0205  L 240.383651 175.955477  L 242.938367 175.277934  L 245.738383 168.593303  L 248.293893 140.752141  L 251.027245 107.735611  L 253.582875 104.423971  L 256.13839 120.11046  L 258.697604 136.721906  L 261.338626 148.020661  L 264.116239 156.493243  L 266.827285 161.807769  L 269.494662 165.68755  L 272.071775 167.761454  L 274.64948 169.634464  L 277.204994 170.738188  L 279.8281 171.78694  L 282.450338 172.252404  L 285.072485 172.837779  L 287.73846 173.186683  L 290.382831 173.748575  L 293.027322 174.087323  L 295.671818 174.156128  L 298.324874 174.375186  L 300.871821 174.446171  L 303.516187 174.584576  L 306.16068 174.724539  L 308.716193 174.939697  L 311.294008 174.769632  L 313.849521 174.937247  L 316.405155 174.947371  L 318.960662 175.116712  L 321.693903 175.286309  L 324.338499 175.235136  L 326.894818 175.268702  L 329.449527 175.28264  L 332.005155 175.28609  L 334.561369 175.457255  L 337.116301 175.481946  "
 style="fill:none;stroke:#008000;stroke-dasharray:5.55,2.4;stroke-dashoffset:0;stroke-width:1.5;"
 id="path14211" />
</g>
<g
 id="line2d_15">
<path
 clip-path="url(#p58400b22fc)"
 d="M 59.527559 176.510515  L 59.972476 176.464552  L 60.194935 176.034883  L 60.417394 174.857475  L 60.751082 171.657711  L 61.418458 162.103527  L 63.754274 126.343161  L 64.977797 111.585335  L 66.201319 99.492908  L 67.424842 89.609228  L 68.648365 81.534558  L 69.871888 74.938354  L 70.984181 70.002859  L 71.317869 69.197235  L 71.429098 69.281376  L 71.651557 70.08234  L 71.985245 72.6303  L 72.541392 79.023605  L 75.210896 112.308721  L 76.434419 124.039504  L 77.657941 133.643884  L 78.881464 141.492816  L 80.104987 147.904985  L 81.32851 153.143069  L 82.552032 157.421989  L 83.775555 160.917378  L 84.999078 163.772709  L 86.222601 166.105188  L 87.557353 168.165414  L 88.892105 169.817721  L 90.338086 171.240668  L 91.784068 172.361084  L 93.452508 173.361256  L 95.232177 174.163896  L 97.234305 174.825103  L 99.681351 175.385836  L 102.573313 175.813229  L 106.355111 176.137342  L 111.694119 176.356125  L 120.814925 176.476329  L 146.620132 176.510034  L 170.645669 176.510505  L 170.645669 176.510505  "
 style="fill:none;stroke:#bf00bf;stroke-dasharray:5.55,2.4;stroke-dashoffset:0;stroke-width:1.5;"
 id="path14214" />
</g>
<g
 id="line2d_16">
<path
 clip-path="url(#p58400b22fc)"
 d="M 59.527559 176.510515  L 60.083706 176.449559  L 60.306164 176.190001  L 60.639852 175.304466  L 61.195999 172.863003  L 64.310421 157.432099  L 65.533943 152.935854  L 66.757466 149.25773  L 67.980989 146.252343  L 69.204512 143.797168  L 70.539264 141.628546  L 71.874016 139.889303  L 73.208768 138.494426  L 74.654749 137.293175  L 76.21196 136.2835  L 77.991629 135.406984  L 79.993758 134.684918  L 82.329574 134.095364  L 85.110307 133.634363  L 88.669646 133.282996  L 93.230049 133.05452  L 93.452508 133.127356  L 93.674966 133.418597  L 94.008654 134.350089  L 94.564801 136.82669  L 97.567993 151.706095  L 98.791516 156.241234  L 100.015039 159.951798  L 101.238561 162.983786  L 102.462084 165.460705  L 103.796836 167.648535  L 105.131588 169.403184  L 106.46634 170.810417  L 107.912322 172.022309  L 109.469533 173.040927  L 111.249202 173.925207  L 113.25133 174.653669  L 115.587146 175.248444  L 118.36788 175.71353  L 121.927219 176.068009  L 126.821309 176.31347  L 134.607363 176.456116  L 152.848975 176.507848  L 170.645669 176.510374  L 170.645669 176.510374  "
 style="fill:none;stroke:#00bfbf;stroke-dasharray:5.55,2.4;stroke-dashoffset:0;stroke-width:1.5;"
 id="path14217" />
</g>
<g
 id="line2d_17">
<path
 clip-path="url(#p58400b22fc)"
 d="M 59.527559 176.510515  L 60.306164 176.402383  L 60.751082 175.964783  L 61.418458 174.890347  L 63.754274 170.868838  L 65.089026 169.073996  L 66.423778 167.630196  L 67.86976 166.38622  L 69.42697 165.340557  L 71.09541 164.482041  L 72.986309 163.756384  L 75.210896 163.147882  L 77.8804 162.659411  L 81.21728 162.286059  L 85.777683 162.017497  L 92.785132 161.853762  L 107.356175 161.785558  L 160.190111 161.828082  L 160.523799 162.053947  L 161.079946 162.805322  L 162.859616 165.981784  L 164.194368 168.046426  L 165.52912 169.719762  L 166.975101 171.163215  L 168.421082 172.300065  L 169.978293 173.255642  L 170.645669 173.595627  L 170.645669 173.595627  "
 style="fill:none;stroke:#0000ff;stroke-dasharray:5.55,2.4;stroke-dashoffset:0;stroke-width:1.5;"
 id="path14220" />
</g>
<g
 id="patch_3">
<path
 d="M 59.527559 181.785109  L 59.527559 44.645669  "
 style="fill:none;stroke:#000000;stroke-linecap:square;stroke-linejoin:miter;stroke-width:0.8;"
 id="path14223" />
</g>
<g
 id="patch_4">
<path
 d="M 337.322835 181.785109  L 337.322835 44.645669  "
 style="fill:none;stroke:#000000;stroke-linecap:square;stroke-linejoin:miter;stroke-width:0.8;"
 id="path14226" />
</g>
<g
 id="patch_5">
<path
 d="M 59.527559 181.785109  L 337.322835 181.785109  "
 style="fill:none;stroke:#000000;stroke-linecap:square;stroke-linejoin:miter;stroke-width:0.8;"
 id="path14229" />
</g>
<g
 id="patch_6">
<path
 d="M 59.527559 44.645669  L 337.322835 44.645669  "
 style="fill:none;stroke:#000000;stroke-linecap:square;stroke-linejoin:miter;stroke-width:0.8;"
 id="path14232" />
</g>
</g>
<g
 id="axes_2">
<g
 id="matplotlib.axis_3">
<g
 id="ytick_7">
<g
 id="line2d_18">
<defs
 id="defs14237">
<path
 d="M 0 0  L -3.5 0  "
 id="ma3381591db"
 style="stroke:#808080;stroke-width:0.8;" />
</defs>
<g
 id="g14241">
<use
 style="fill:#808080;stroke:#808080;stroke-width:0.8;"
 x="337.322835"
 xlink:href="#ma3381591db"
 y="241.930309"
 id="use14239" />
</g>
</g>
<g
 id="text_14">
<!-- 0.0 -->
<g
 style="fill:#808080;"
 transform="translate(340.822835 245.807127)scale(0.102043 -0.102043)"
 id="g14250">
<use
 xlink:href="#DejaVuSans-30"
 id="use14244" />
<use
 x="63.623047"
 xlink:href="#DejaVuSans-2e"
 id="use14246" />
<use
 x="95.410156"
 xlink:href="#DejaVuSans-30"
 id="use14248" />
</g>
</g>
</g>
<g
 id="ytick_8">
<g
 id="line2d_19">
<g
 id="g14256">
<use
 style="fill:#808080;stroke:#808080;stroke-width:0.8;"
 x="337.322835"
 xlink:href="#ma3381591db"
 y="220.321118"
 id="use14254" />
</g>
</g>
<g
 id="text_15">
<!-- 0.2 -->
<g
 style="fill:#808080;"
 transform="translate(340.822835 224.197936)scale(0.102043 -0.102043)"
 id="g14265">
<use
 xlink:href="#DejaVuSans-30"
 id="use14259" />
<use
 x="63.623047"
 xlink:href="#DejaVuSans-2e"
 id="use14261" />
<use
 x="95.410156"
 xlink:href="#DejaVuSans-32"
 id="use14263" />
</g>
</g>
</g>
<g
 id="ytick_9">
<g
 id="line2d_20">
<g
 id="g14271">
<use
 style="fill:#808080;stroke:#808080;stroke-width:0.8;"
 x="337.322835"
 xlink:href="#ma3381591db"
 y="198.711927"
 id="use14269" />
</g>
</g>
<g
 id="text_16">
<!-- 0.4 -->
<g
 style="fill:#808080;"
 transform="translate(340.822835 202.588745)scale(0.102043 -0.102043)"
 id="g14280">
<use
 xlink:href="#DejaVuSans-30"
 id="use14274" />
<use
 x="63.623047"
 xlink:href="#DejaVuSans-2e"
 id="use14276" />
<use
 x="95.410156"
 xlink:href="#DejaVuSans-34"
 id="use14278" />
</g>
</g>
</g>
<g
 id="text_17">
<!-- j (A/mg) -->
<defs
 id="defs14286">
<path
 d="M 9.421875 54.6875  L 18.40625 54.6875  L 18.40625 -0.984375  Q 18.40625 -11.421875 14.421875 -16.109375  Q 10.453125 -20.796875 1.609375 -20.796875  L -1.8125 -20.796875  L -1.8125 -13.1875  L 0.59375 -13.1875  Q 5.71875 -13.1875 7.5625 -10.8125  Q 9.421875 -8.453125 9.421875 -0.984375  z M 9.421875 75.984375  L 18.40625 75.984375  L 18.40625 64.59375  L 9.421875 64.59375  z "
 id="DejaVuSans-6a" />
<path
 d="M 34.1875 63.1875  L 20.796875 26.90625  L 47.609375 26.90625  z M 28.609375 72.90625  L 39.796875 72.90625  L 67.578125 0  L 57.328125 0  L 50.6875 18.703125  L 17.828125 18.703125  L 11.1875 0  L 0.78125 0  z "
 id="DejaVuSans-41" />
</defs>
<g
 style="fill:#808080;"
 transform="translate(370.358867 244.561325)rotate(-90)scale(0.1225 -0.1225)"
 id="g14304">
<use
 xlink:href="#DejaVuSans-6a"
 id="use14288" />
<use
 x="27.783203"
 xlink:href="#DejaVuSans-20"
 id="use14290" />
<use
 x="59.570312"
 xlink:href="#DejaVuSans-28"
 id="use14292" />
<use
 x="98.583984"
 xlink:href="#DejaVuSans-41"
 id="use14294" />
<use
 x="166.992188"
 xlink:href="#DejaVuSans-2f"
 id="use14296" />
<use
 x="200.683594"
 xlink:href="#DejaVuSans-6d"
 id="use14298" />
<use
 x="298.095703"
 xlink:href="#DejaVuSans-67"
 id="use14300" />
<use
 x="361.572266"
 xlink:href="#DejaVuSans-29"
 id="use14302" />
</g>
</g>
</g>
<g
 id="line2d_21">
<path
 clip-path="url(#p3d6a5510a6)"
 d="M 170.645669 241.246204  L 171.81841 241.191788  L 173.152272 241.155789  L 179.5989 240.958418  L 179.821136 240.90637  L 180.154935 240.929187  L 180.377171 240.916977  L 180.932762 240.926609  L 181.377234 240.863884  L 181.711033 240.921617  L 182.266623 240.844068  L 182.711096 240.853352  L 183.711603 240.821918  L 209.27588 240.077719  L 212.721875 239.969544  L 218.279114 239.769204  L 225.504014 239.408397  L 225.837368 239.44355  L 226.059604 239.432866  L 226.504299 239.365715  L 226.837875 239.369257  L 227.393466 239.327302  L 230.61678 239.072229  L 234.284789 238.656078  L 236.3967 238.239512  L 238.063916 237.552021  L 238.953083 236.899316  L 239.620014 236.16027  L 240.286723 235.093244  L 240.842758 233.821796  L 241.509466 231.650214  L 242.176619 228.608449  L 242.954446 223.840531  L 243.843835 216.727637  L 244.843898 206.682572  L 246.311102 190.931834  L 246.644901 190.074112  L 246.756019 190.056631  L 246.978255 190.406023  L 247.311609 191.78924  L 247.756082 194.796901  L 248.423235 201.094478  L 249.645979 215.214352  L 250.868278 228.397482  L 251.535431 233.592199  L 252.091022 236.678082  L 252.535494 238.225505  L 252.980411 239.087496  L 253.64712 239.997476  L 254.425391 240.772156  L 256.092607 242.035436  L 256.537079 242.406599  L 257.426469 243.534494  L 258.204296 244.907913  L 259.093685 247.040016  L 260.093748 249.459565  L 260.427547 249.908914  L 260.649783 249.995198  L 260.872019 249.861169  L 261.094255 249.473968  L 261.42761 248.394026  L 262.761471 242.921259  L 263.094826 242.717406  L 266.540598 242.040695  L 269.096982 241.983866  L 273.098567 242.068861  L 273.543039 242.086849  L 274.543547 242.079309  L 275.54361 242.117427  L 277.099708 242.169344  L 283.101864 242.338395  L 283.546336 242.360832  L 284.546844 242.390668  L 287.103449 242.480398  L 288.992902 242.517303  L 290.215645 242.56884  L 291.993979 242.621825  L 292.994265 242.641066  L 297.4401 242.773763  L 303.664492 242.925101  L 316.113276 243.223221  L 319.781508 243.305354  L 326.117018 243.460455  L 331.563139 243.59436  L 337.23194 243.746141  L 337.23194 243.746141  "
 style="fill:none;stroke:#808080;stroke-linecap:square;stroke-width:1.5;"
 id="path14308" />
</g>
<g
 id="patch_7">
<path
 d="M 59.527559 252.992126  L 59.527559 187.059703  "
 style="fill:none;stroke:#000000;stroke-linecap:square;stroke-linejoin:miter;stroke-width:0.8;"
 id="path14311" />
</g>
<g
 id="patch_8">
<path
 d="M 337.322835 252.992126  L 337.322835 187.059703  "
 style="fill:none;stroke:#808080;stroke-linecap:square;stroke-linejoin:miter;stroke-width:0.8;"
 id="path14314" />
</g>
<g
 id="patch_9">
<path
 d="M 59.527559 252.992126  L 337.322835 252.992126  "
 style="fill:none;stroke:#000000;stroke-linecap:square;stroke-linejoin:miter;stroke-width:0.8;"
 id="path14317" />
</g>
<g
 id="patch_10">
<path
 d="M 59.527559 187.059703  L 337.322835 187.059703  "
 style="fill:none;stroke:#000000;stroke-linecap:square;stroke-linejoin:miter;stroke-width:0.8;"
 id="path14320" />
</g>
</g>
<g
 id="axes_3">
<g
 id="matplotlib.axis_4">
<g
 id="xtick_7">
<g
 id="line2d_22">
<defs
 id="defs14325">
<path
 d="M 0 0  L 0 -3.5  "
 id="m60cc4c8e80"
 style="stroke:#000000;stroke-width:0.8;" />
</defs>
<g
 id="g14329">
<use
 style="stroke:#000000;stroke-width:0.8;"
 x="81.751181"
 xlink:href="#m60cc4c8e80"
 y="252.992126"
 id="use14327" />
</g>
</g>
<g
 id="text_18">
<!-- −40 -->
<g
 transform="translate(70.983306 264.245762)scale(0.102043 -0.102043)"
 id="g14338">
<use
 xlink:href="#DejaVuSans-2212"
 id="use14332" />
<use
 x="83.789062"
 xlink:href="#DejaVuSans-34"
 id="use14334" />
<use
 x="147.412109"
 xlink:href="#DejaVuSans-30"
 id="use14336" />
</g>
</g>
</g>
<g
 id="xtick_8">
<g
 id="line2d_23">
<g
 id="g14344">
<use
 style="stroke:#000000;stroke-width:0.8;"
 x="126.198425"
 xlink:href="#m60cc4c8e80"
 y="252.992126"
 id="use14342" />
</g>
</g>
<g
 id="text_19">
<!-- −20 -->
<g
 transform="translate(115.43055 264.245762)scale(0.102043 -0.102043)"
 id="g14353">
<use
 xlink:href="#DejaVuSans-2212"
 id="use14347" />
<use
 x="83.789062"
 xlink:href="#DejaVuSans-32"
 id="use14349" />
<use
 x="147.412109"
 xlink:href="#DejaVuSans-30"
 id="use14351" />
</g>
</g>
</g>
<g
 id="xtick_9">
<g
 id="line2d_24">
<g
 id="g14359">
<use
 style="stroke:#000000;stroke-width:0.8;"
 x="170.645669"
 xlink:href="#m60cc4c8e80"
 y="252.992126"
 id="use14357" />
</g>
</g>
<g
 id="text_20">
<!-- 0 -->
<g
 transform="translate(167.399442 264.245762)scale(0.102043 -0.102043)"
 id="g14364">
<use
 xlink:href="#DejaVuSans-30"
 id="use14362" />
</g>
</g>
</g>
<g
 id="xtick_10">
<g
 id="line2d_25">
<g
 id="g14370">
<use
 style="stroke:#000000;stroke-width:0.8;"
 x="215.092913"
 xlink:href="#m60cc4c8e80"
 y="252.992126"
 id="use14368" />
</g>
</g>
<g
 id="text_21">
<!-- 20 -->
<g
 transform="translate(208.600459 264.245762)scale(0.102043 -0.102043)"
 id="g14377">
<use
 xlink:href="#DejaVuSans-32"
 id="use14373" />
<use
 x="63.623047"
 xlink:href="#DejaVuSans-30"
 id="use14375" />
</g>
</g>
</g>
<g
 id="xtick_11">
<g
 id="line2d_26">
<g
 id="g14383">
<use
 style="stroke:#000000;stroke-width:0.8;"
 x="259.540157"
 xlink:href="#m60cc4c8e80"
 y="252.992126"
 id="use14381" />
</g>
</g>
<g
 id="text_22">
<!-- 40 -->
<g
 transform="translate(253.047703 264.245762)scale(0.102043 -0.102043)"
 id="g14390">
<use
 xlink:href="#DejaVuSans-34"
 id="use14386" />
<use
 x="63.623047"
 xlink:href="#DejaVuSans-30"
 id="use14388" />
</g>
</g>
</g>
<g
 id="xtick_12">
<g
 id="line2d_27">
<g
 id="g14396">
<use
 style="stroke:#000000;stroke-width:0.8;"
 x="303.987402"
 xlink:href="#m60cc4c8e80"
 y="252.992126"
 id="use14394" />
</g>
</g>
<g
 id="text_23">
<!-- 60 -->
<g
 transform="translate(297.494948 264.245762)scale(0.102043 -0.102043)"
 id="g14403">
<use
 xlink:href="#DejaVuSans-36"
 id="use14399" />
<use
 x="63.623047"
 xlink:href="#DejaVuSans-30"
 id="use14401" />
</g>
</g>
</g>
<g
 id="text_24">
<!-- Time (s) -->
<defs
 id="defs14409">
<path
 d="M -0.296875 72.90625  L 61.375 72.90625  L 61.375 64.59375  L 35.5 64.59375  L 35.5 0  L 25.59375 0  L 25.59375 64.59375  L -0.296875 64.59375  z "
 id="DejaVuSans-54" />
<path
 d="M 56.203125 29.59375  L 56.203125 25.203125  L 14.890625 25.203125  Q 15.484375 15.921875 20.484375 11.0625  Q 25.484375 6.203125 34.421875 6.203125  Q 39.59375 6.203125 44.453125 7.46875  Q 49.3125 8.734375 54.109375 11.28125  L 54.109375 2.78125  Q 49.265625 0.734375 44.1875 -0.34375  Q 39.109375 -1.421875 33.890625 -1.421875  Q 20.796875 -1.421875 13.15625 6.1875  Q 5.515625 13.8125 5.515625 26.8125  Q 5.515625 40.234375 12.765625 48.109375  Q 20.015625 56 32.328125 56  Q 43.359375 56 49.78125 48.890625  Q 56.203125 41.796875 56.203125 29.59375  z M 47.21875 32.234375  Q 47.125 39.59375 43.09375 43.984375  Q 39.0625 48.390625 32.421875 48.390625  Q 24.90625 48.390625 20.390625 44.140625  Q 15.875 39.890625 15.1875 32.171875  z "
 id="DejaVuSans-65" />
</defs>
<g
 transform="translate(173.333752 279.676013)scale(0.1225 -0.1225)"
 id="g14427">
<use
 xlink:href="#DejaVuSans-54"
 id="use14411" />
<use
 x="61.037109"
 xlink:href="#DejaVuSans-69"
 id="use14413" />
<use
 x="88.820312"
 xlink:href="#DejaVuSans-6d"
 id="use14415" />
<use
 x="186.232422"
 xlink:href="#DejaVuSans-65"
 id="use14417" />
<use
 x="247.755859"
 xlink:href="#DejaVuSans-20"
 id="use14419" />
<use
 x="279.542969"
 xlink:href="#DejaVuSans-28"
 id="use14421" />
<use
 x="318.556641"
 xlink:href="#DejaVuSans-73"
 id="use14423" />
<use
 x="370.65625"
 xlink:href="#DejaVuSans-29"
 id="use14425" />
</g>
</g>
</g>
<g
 id="matplotlib.axis_5">
<g
 id="ytick_10">
<g
 id="line2d_28">
<g
 id="g14433">
<use
 style="stroke:#000000;stroke-width:0.8;"
 x="59.527559"
 xlink:href="#m3939861585"
 y="232.455125"
 id="use14431" />
</g>
</g>
<g
 id="text_25">
<!-- 1.0 -->
<g
 transform="translate(39.799613 236.331943)scale(0.102043 -0.102043)"
 id="g14442">
<use
 xlink:href="#DejaVuSans-31"
 id="use14436" />
<use
 x="63.623047"
 xlink:href="#DejaVuSans-2e"
 id="use14438" />
<use
 x="95.410156"
 xlink:href="#DejaVuSans-30"
 id="use14440" />
</g>
</g>
</g>
<g
 id="ytick_11">
<g
 id="line2d_29">
<g
 id="g14448">
<use
 style="stroke:#000000;stroke-width:0.8;"
 x="59.527559"
 xlink:href="#m3939861585"
 y="195.766582"
 id="use14446" />
</g>
</g>
<g
 id="text_26">
<!-- 1.5 -->
<g
 transform="translate(39.799613 199.6434)scale(0.102043 -0.102043)"
 id="g14457">
<use
 xlink:href="#DejaVuSans-31"
 id="use14451" />
<use
 x="63.623047"
 xlink:href="#DejaVuSans-2e"
 id="use14453" />
<use
 x="95.410156"
 xlink:href="#DejaVuSans-35"
 id="use14455" />
</g>
</g>
</g>
<g
 id="text_27">
<!-- U vs RHE (V) -->
<defs
 id="defs14467">
<path
 d="M 8.6875 72.90625  L 18.609375 72.90625  L 18.609375 28.609375  Q 18.609375 16.890625 22.84375 11.734375  Q 27.09375 6.59375 36.625 6.59375  Q 46.09375 6.59375 50.34375 11.734375  Q 54.59375 16.890625 54.59375 28.609375  L 54.59375 72.90625  L 64.5 72.90625  L 64.5 27.390625  Q 64.5 13.140625 57.4375 5.859375  Q 50.390625 -1.421875 36.625 -1.421875  Q 22.796875 -1.421875 15.734375 5.859375  Q 8.6875 13.140625 8.6875 27.390625  z "
 id="DejaVuSans-55" />
<path
 d="M 2.984375 54.6875  L 12.5 54.6875  L 29.59375 8.796875  L 46.6875 54.6875  L 56.203125 54.6875  L 35.6875 0  L 23.484375 0  z "
 id="DejaVuSans-76" />
<path
 d="M 44.390625 34.1875  Q 47.5625 33.109375 50.5625 29.59375  Q 53.5625 26.078125 56.59375 19.921875  L 66.609375 0  L 56 0  L 46.6875 18.703125  Q 43.0625 26.03125 39.671875 28.421875  Q 36.28125 30.8125 30.421875 30.8125  L 19.671875 30.8125  L 19.671875 0  L 9.8125 0  L 9.8125 72.90625  L 32.078125 72.90625  Q 44.578125 72.90625 50.734375 67.671875  Q 56.890625 62.453125 56.890625 51.90625  Q 56.890625 45.015625 53.6875 40.46875  Q 50.484375 35.9375 44.390625 34.1875  z M 19.671875 64.796875  L 19.671875 38.921875  L 32.078125 38.921875  Q 39.203125 38.921875 42.84375 42.21875  Q 46.484375 45.515625 46.484375 51.90625  Q 46.484375 58.296875 42.84375 61.546875  Q 39.203125 64.796875 32.078125 64.796875  z "
 id="DejaVuSans-52" />
<path
 d="M 9.8125 72.90625  L 19.671875 72.90625  L 19.671875 43.015625  L 55.515625 43.015625  L 55.515625 72.90625  L 65.375 72.90625  L 65.375 0  L 55.515625 0  L 55.515625 34.71875  L 19.671875 34.71875  L 19.671875 0  L 9.8125 0  z "
 id="DejaVuSans-48" />
<path
 d="M 9.8125 72.90625  L 55.90625 72.90625  L 55.90625 64.59375  L 19.671875 64.59375  L 19.671875 43.015625  L 54.390625 43.015625  L 54.390625 34.71875  L 19.671875 34.71875  L 19.671875 8.296875  L 56.78125 8.296875  L 56.78125 0  L 9.8125 0  z "
 id="DejaVuSans-45" />
<path
 d="M 28.609375 0  L 0.78125 72.90625  L 11.078125 72.90625  L 34.1875 11.53125  L 57.328125 72.90625  L 67.578125 72.90625  L 39.796875 0  z "
 id="DejaVuSans-56" />
</defs>
<g
 transform="translate(33.251996 258.866071)rotate(-90)scale(0.1225 -0.1225)"
 id="g14493">
<use
 xlink:href="#DejaVuSans-55"
 id="use14469" />
<use
 x="73.193359"
 xlink:href="#DejaVuSans-20"
 id="use14471" />
<use
 x="104.980469"
 xlink:href="#DejaVuSans-76"
 id="use14473" />
<use
 x="164.160156"
 xlink:href="#DejaVuSans-73"
 id="use14475" />
<use
 x="216.259766"
 xlink:href="#DejaVuSans-20"
 id="use14477" />
<use
 x="248.046875"
 xlink:href="#DejaVuSans-52"
 id="use14479" />
<use
 x="317.529297"
 xlink:href="#DejaVuSans-48"
 id="use14481" />
<use
 x="392.724609"
 xlink:href="#DejaVuSans-45"
 id="use14483" />
<use
 x="455.908203"
 xlink:href="#DejaVuSans-20"
 id="use14485" />
<use
 x="487.695312"
 xlink:href="#DejaVuSans-28"
 id="use14487" />
<use
 x="526.708984"
 xlink:href="#DejaVuSans-56"
 id="use14489" />
<use
 x="595.117188"
 xlink:href="#DejaVuSans-29"
 id="use14491" />
</g>
</g>
</g>
<g
 id="line2d_30">
<path
 clip-path="url(#p3d6a5510a6)"
 d="M 170.645669 239.355638  L 170.707006 239.167701  L 170.818347 239.097074  L 171.040583 238.898918  L 171.151701 238.98851  L 171.485055 238.501923  L 171.596174 238.676203  L 172.040646 238.237984  L 172.151764 238.229587  L 172.263327 238.008805  L 172.485563 238.09917  L 172.818917 237.746499  L 172.930035 237.805058  L 173.374508 237.326641  L 173.485626 237.452778  L 173.596744 237.337682  L 173.707862 237.004607  L 173.819425 237.20882  L 174.041661 236.780328  L 174.152779 236.94566  L 174.70837 236.456816  L 174.819488 236.680944  L 175.041724 236.217455  L 175.264182 236.304387  L 175.375523 235.971247  L 175.486641 236.10228  L 175.819995 235.75109  L 176.042231 235.692682  L 176.15335 235.769288  L 176.264468 235.354169  L 176.597822 235.399584  L 176.82028 235.126949  L 177.042739 235.037657  L 177.264975 234.740669  L 177.376093 234.939052  L 177.820566 234.441266  L 177.931684 234.502471  L 178.265038 234.08937  L 178.376378 234.165436  L 178.598837 233.913157  L 178.709955 234.043565  L 178.932191 233.716403  L 179.154427 233.640969  L 179.376664 233.49975  L 179.5989 233.333248  L 179.821136 233.294599  L 179.932476 233.025136  L 180.043817 233.152205  L 180.377171 232.691053  L 180.599407 232.773561  L 180.932762 232.428511  L 181.154998 232.453395  L 181.377234 232.096602  L 181.933269 231.915252  L 182.155505 231.508692  L 182.48886 231.421744  L 182.711096 231.215741  L 183.267131 230.997762  L 183.489367 230.640737  L 183.711603 230.746345  L 183.93384 230.406504  L 184.156076 230.283397  L 184.378312 230.212396  L 184.48943 229.844407  L 184.600771 230.073759  L 184.823229 229.714226  L 185.045465 229.818276  L 185.37882 229.371743  L 185.601056 229.463274  L 185.823292 228.961444  L 185.93441 229.14762  L 186.712681 228.492669  L 186.934918 228.591197  L 187.157154 228.185413  L 187.268272 228.256957  L 187.601626 227.958254  L 187.712967 227.803142  L 187.824307 227.914319  L 188.046543 227.604342  L 188.157661 227.724878  L 188.268779 227.677051  L 188.491016 227.347245  L 188.935488 227.082294  L 189.046606 226.914708  L 189.157724 227.005771  L 189.602641 226.714536  L 189.824877 226.479758  L 190.26935 226.164805  L 190.380468 226.052353  L 190.602704 226.137897  L 191.158739 225.542672  L 191.380975 225.598118  L 191.492093 225.533417  L 191.71433 225.235727  L 191.936566 225.316838  L 192.158802 224.975055  L 192.381261 224.847652  L 192.492601 224.647268  L 192.714837 224.744242  L 193.15931 224.379596  L 193.270428 224.428045  L 193.381546 224.138444  L 193.492664 224.170638  L 193.603782 223.969846  L 193.7149 224.062695  L 194.159817 223.747432  L 194.382053 223.481157  L 194.60429 223.46794  L 194.937644 223.058806  L 195.048762 223.177169  L 195.270998 222.918984  L 195.715915 222.585754  L 195.938151 222.537382  L 196.049269 222.505188  L 196.271506 222.227329  L 196.493742 222.204775  L 196.827096 221.81252  L 197.049555 221.835026  L 197.272013 221.662432  L 197.383131 221.635369  L 197.605367 221.372829  L 197.827604 221.275234  L 198.04984 221.131052  L 198.160958 220.942936  L 198.272076 221.074751  L 198.494312 220.877845  L 199.717056 219.997605  L 199.939292 219.85125  L 202.162543 218.417  L 202.38478 218.272276  L 202.94037 217.83554  L 203.051488 217.852259  L 203.273947 217.643934  L 204.496468 216.825507  L 204.607586 216.854982  L 204.830045 216.560245  L 205.052503 216.495156  L 205.274739 216.382706  L 205.83033 215.964398  L 205.941448 215.945502  L 206.386143 215.531735  L 206.608601 215.457749  L 208.275817 214.387137  L 208.386935 214.160836  L 208.498054 214.251591  L 208.831408 214.002349  L 209.053644 213.819363  L 209.164762 213.849459  L 209.720797 213.386904  L 210.16527 213.148861  L 210.387506 212.942468  L 210.72086 212.774025  L 210.943096 212.593996  L 211.499131 212.297004  L 211.61025 212.065494  L 211.721368 212.093801  L 211.832486 211.953744  L 211.943604 212.001415  L 212.16584 211.773559  L 212.610535 211.480911  L 212.832993 211.372673  L 213.166348 211.082137  L 213.277466 211.116431  L 213.721938 210.734131  L 213.944174 210.665075  L 214.166633 210.443173  L 214.277973 210.434574  L 214.500209 210.205085  L 214.722446 210.159669  L 215.0558 209.813219  L 215.166918 209.893474  L 215.500272 209.545314  L 215.945189 209.296538  L 216.056307 209.304238  L 216.389662 208.954677  L 216.50078 209.023578  L 216.834134 208.626813  L 217.05637 208.579531  L 217.167489 208.577353  L 217.612405 208.15687  L 217.94576 208.00958  L 218.056878 208.000481  L 218.279114 207.7185  L 218.390232 207.744007  L 219.168503 207.104455  L 219.279622 207.159513  L 219.835212 206.748828  L 219.94633 206.813686  L 220.168566 206.458681  L 220.391025 206.340205  L 220.502365 206.217061  L 220.613483 206.282229  L 223.058526 204.582874  L 223.169644 204.701935  L 223.391881 204.284795  L 223.503443 204.421742  L 223.725679 204.077858  L 223.836797 204.149092  L 224.392388 203.664996  L 224.503506 203.853813  L 224.725742 203.498731  L 224.947979 203.356729  L 225.281777 203.143027  L 225.392895 203.200496  L 225.72625 202.751006  L 225.837368 202.832116  L 226.28184 202.421431  L 226.504299 202.431242  L 226.615639 202.220949  L 226.726757 202.319402  L 227.17123 201.840205  L 227.393466 201.829939  L 227.615702 201.457749  L 227.72682 201.632568  L 228.393973 201.018912  L 228.505092 200.934691  L 228.61621 201.061217  L 228.727328 201.003203  L 228.949564 200.636067  L 229.060682 200.707613  L 229.838953 200.043565  L 229.950071 200.159359  L 230.06119 200.086103  L 230.283426 199.832739  L 230.394544 199.703103  L 230.61678 199.752562  L 230.839016 199.341644  L 231.061253 199.425632  L 231.506169 199.018758  L 231.617288 198.953122  L 231.728406 198.738876  L 231.839524 198.929482  L 231.950642 198.872556  L 232.172878 198.473925  L 232.395114 198.477036  L 232.506232 198.480536  L 232.728691 198.179586  L 232.840031 198.28293  L 233.062267 197.875356  L 233.284504 197.971475  L 233.617858 197.589642  L 233.840094 197.65761  L 234.173449 197.177635  L 234.284789 197.317403  L 234.396129 197.037266  L 234.507247 197.119388  L 234.840602 196.834218  L 234.95172 196.612117  L 235.173956 196.74782  L 235.50731 196.36132  L 235.729547 196.389549  L 235.952227 196.143963  L 236.063345 196.205787  L 236.285582 195.753575  L 236.507818 195.829397  L 236.95229 195.451763  L 237.063408 195.504178  L 237.508325 195.005149  L 237.84168 194.919374  L 238.063916 194.747975  L 238.175034 194.521209  L 238.39727 194.61865  L 238.508388 194.546561  L 238.730625 194.232929  L 238.953083 194.21208  L 239.064423 194.006473  L 239.28666 194.078328  L 239.508896 193.641046  L 239.620014 193.744166  L 239.953368 193.508921  L 240.175604 193.353933  L 240.286723 193.46545  L 240.509181 193.225028  L 240.620521 193.338612  L 240.842758 192.95048  L 241.176112 192.957868  L 241.509466 192.556826  L 241.620584 192.705592  L 241.842821 192.449665  L 241.953939 192.272978  L 242.176619 192.319405  L 242.398856 192.168927  L 242.509974 192.292341  L 242.843328 191.907709  L 243.065564 191.957558  L 243.2878 191.662123  L 243.732717 191.471749  L 243.843835 191.602553  L 244.066072 191.239774  L 244.621662 190.974122  L 244.73278 190.821077  L 244.955017 191.000485  L 245.177475 190.701164  L 245.399933 190.618106  L 245.62217 190.445387  L 245.733288 190.511955  L 245.794403 190.371116  L 245.805515 190.749061  L 245.805515 190.749061  L 245.805515 190.749061  L 245.977748 190.292032  L 246.088866 190.139143  L 246.311102 190.365055  L 246.422442 190.168595  L 246.533783 190.297397  L 246.867137 190.056631  L 247.089373 190.267845  L 247.200491 190.305875  L 247.422728 190.139297  L 247.644964 190.48396  L 247.8672 190.387295  L 248.089881 190.5118  L 248.200999 190.405106  L 248.534353 190.839819  L 248.645471 190.656211  L 249.201062 191.075995  L 249.31218 190.990998  L 249.534638 191.238021  L 249.645979 191.325861  L 249.868215 191.636381  L 250.090451 191.622461  L 250.423805 192.041001  L 250.646042 191.976531  L 250.868278 192.433644  L 250.979396 192.432868  L 251.202077 192.691206  L 252.091022 193.489636  L 252.424376 193.734678  L 252.535494 193.71096  L 252.646834 193.974394  L 252.758175 193.898844  L 252.980411 194.310383  L 253.091529 194.420577  L 253.202647 194.265434  L 253.536002 194.708548  L 253.758238 194.676274  L 253.869356 194.665778  L 254.091592 195.070396  L 254.202932 195.093231  L 254.425391 195.267922  L 254.536509 195.215507  L 254.980981 195.664921  L 255.0921 195.550604  L 255.536572 195.986407  L 255.64769 195.984775  L 255.870371 196.165971  L 255.981489 196.119543  L 256.314843 196.48699  L 256.425961 196.360853  L 256.648198 196.731179  L 256.759316 196.74121  L 256.870434 196.891532  L 256.981552 196.759873  L 257.09267 196.860114  L 257.203788 197.142329  L 257.315351 196.949546  L 257.537587 197.315515  L 257.759823 197.210141  L 257.982059 197.456817  L 258.204296 197.674175  L 258.315414 197.520274  L 258.53765 197.996672  L 258.648768 197.921238  L 258.759886 197.866024  L 258.871449 198.136419  L 259.093685 198.082526  L 259.427039 198.526962  L 259.649275 198.362019  L 259.871512 198.826752  L 260.093748 198.846893  L 260.315984 199.028012  L 260.538665 199.16558  L 260.760901 199.596408  L 260.983137 199.549903  L 261.205373 199.979096  L 261.649846 200.415677  L 261.760964 200.587697  L 261.872304 200.527489  L 262.094763 200.749218  L 262.316999 200.684516  L 262.539235 200.856691  L 262.650353 200.945034  L 262.87259 200.797978  L 263.094826 201.08307  L 263.317062 201.103833  L 263.984215 201.735531  L 264.095333 201.504176  L 264.428688 201.930258  L 264.762042 202.030188  L 264.9845 202.395209  L 265.095841 202.36645  L 265.206959 202.550679  L 265.429195 202.388847  L 265.651431 202.756527  L 265.984786 202.859723  L 266.095904 202.900862  L 266.207022 203.25991  L 266.429258 203.122419  L 266.651939 203.297705  L 266.763057 203.37446  L 266.985293 203.613203  L 267.207529 203.750928  L 267.318647 203.678294  L 267.540884 204.162935  L 267.652002 203.972251  L 268.541391 204.508296  L 268.652509 204.546324  L 268.874745 204.962686  L 268.985864 204.82154  L 269.430336 205.193653  L 269.541454 205.275152  L 269.652794 205.1919  L 269.764135 205.503241  L 269.875253 205.350663  L 270.319725 205.754661  L 270.541962 205.836005  L 270.764198 206.083691  L 270.986434 206.137272  L 271.320233 206.442039  L 271.653587 206.696336  L 271.764705 206.6342  L 272.09806 206.959265  L 272.320296 207.070471  L 272.542532 207.328189  L 272.76499 207.344349  L 272.987449 207.511174  L 273.098567 207.469646  L 273.320803 207.808009  L 273.543039 207.857002  L 273.876394 208.167912  L 273.987512 208.128252  L 274.321089 208.398502  L 274.432429 208.415521  L 274.654665 208.631712  L 274.988019 208.800155  L 275.210256 208.994571  L 275.432492 209.121641  L 275.54361 209.141549  L 275.765846 209.369484  L 275.877187 209.351062  L 276.432999 209.849226  L 276.544117 209.836005  L 276.766354 210.026455  L 276.98859 210.189143  L 277.655743 210.594151  L 278.322452 211.081358  L 280.43414 212.399735  L 280.656821 212.601306  L 280.767939 212.568099  L 281.212411 213.002659  L 281.32353 212.946201  L 281.656884 213.26932  L 281.768002 213.223748  L 282.101579 213.582689  L 282.546273 213.797589  L 282.657391 213.780092  L 282.879628 214.132452  L 283.101864 214.087735  L 283.435218 214.524241  L 283.657677 214.475818  L 283.769017 214.716479  L 283.880135 214.568957  L 284.213489 214.990916  L 284.324607 214.864469  L 284.657962 215.28293  L 284.76908 215.350742  L 284.880198 215.248556  L 285.436233 215.844638  L 285.658469 215.757617  L 285.880706 216.024045  L 285.991824 216.215583  L 286.102942 216.083537  L 286.21406 216.149483  L 286.436296 216.541037  L 286.658532 216.476725  L 287.325685 217.096058  L 287.436804 216.874966  L 287.65904 217.308826  L 288.103512 217.527273  L 288.325971 217.72398  L 288.659547 217.883911  L 288.770665 217.77426  L 288.992902 218.198243  L 289.215138 218.173124  L 289.548492 218.58241  L 289.770728 218.51514  L 289.882069 218.733289  L 289.993409 218.608539  L 290.215645 219.122733  L 290.326763 218.979097  L 290.437881 218.972409  L 290.882354 219.417233  L 290.993472 219.318626  L 291.549507 219.926762  L 291.660625 219.792535  L 292.660688 220.554181  L 292.771806 220.441497  L 292.882924 220.681407  L 292.994265 220.657121  L 293.327841 221.013548  L 293.550077 221.028867  L 293.99455 221.392269  L 294.105668 221.339623  L 294.216786 221.647035  L 294.439022 221.689494  L 294.883939 221.944492  L 295.550648 222.501065  L 295.661766 222.452384  L 295.884002 222.636225  L 297.328982 223.576111  L 297.551218 223.756218  L 297.662559 223.74935  L 297.885017 223.985553  L 297.996135 223.976375  L 298.218372 224.183392  L 300.218942 225.456195  L 300.33006 225.450364  L 300.552296 225.805522  L 300.663414 225.819286  L 300.774755 226.005529  L 300.997213 225.991075  L 301.108331 225.98812  L 301.441686 226.344366  L 301.552804 226.295454  L 301.886158 226.673396  L 302.108394 226.667253  L 302.219512 226.911909  L 302.442193 226.908873  L 302.664429 227.231607  L 302.775547 227.083461  L 303.22002 227.440407  L 303.442256 227.61865  L 303.664492 227.798292  L 303.77561 227.83072  L 303.886951 228.105374  L 304.109409 227.945424  L 304.331645 228.348333  L 304.553882 228.306497  L 304.887236 228.691286  L 305.109472 228.6517  L 305.554389 229.154771  L 305.665507 229.194511  L 305.776625 229.054064  L 306.10998 229.513512  L 306.332216 229.511644  L 306.443334 229.565068  L 306.66557 229.917899  L 306.776688 229.726901  L 307.443842 230.341409  L 307.55496 230.242183  L 307.888314 230.69354  L 308.11055 230.605897  L 308.332786 230.95857  L 308.443905 230.930104  L 308.666585 231.111922  L 309.111058 231.381382  L 309.222176 231.540807  L 309.333294 231.44391  L 309.777766 231.805678  L 310.556038 232.357978  L 310.667156 232.307972  L 310.889392 232.559547  L 311.00051 232.568804  L 311.222746 232.719204  L 315.002095 235.349736  L 315.224332 235.339935  L 315.446568 235.667175  L 315.668804 235.636925  L 316.002158 235.988741  L 316.113276 235.916806  L 316.335957 236.21831  L 316.447075 236.121412  L 316.78043 236.462732  L 316.891548 236.418014  L 318.003173 237.378669  L 318.114291 237.241716  L 318.22541 237.289236  L 318.447646 237.654347  L 318.669882 237.627209  L 318.892118 237.883291  L 319.114354 238.023115  L 319.225473 237.847053  L 319.336813 238.180882  L 319.448153 238.080121  L 319.781508 238.446085  L 320.114862 238.619744  L 320.337098 238.863693  L 320.559334 238.842309  L 320.781571 239.21512  L 320.892911 239.141663  L 321.004251 239.368555  L 321.115369 239.310386  L 321.67096 239.714379  L 321.782078 239.615384  L 322.115432 240.010984  L 322.22655 239.9686  L 322.449009 240.144802  L 323.004822 240.568413  L 323.11594 240.53575  L 323.338176 240.872635  L 323.449294 240.799847  L 323.782648 241.078407  L 324.116447 241.366689  L 324.338683 241.39772  L 325.449865 242.13362  L 325.561205 242.35356  L 325.783663 242.38963  L 326.0059 242.563516  L 326.117018 242.562038  L 326.450372 242.899392  L 326.672608 242.963081  L 328.450942 244.201129  L 328.562061 244.167137  L 328.784741 244.381619  L 329.006978 244.458144  L 329.229214 244.670369  L 329.562568 244.891539  L 329.784804 245.110215  L 329.895922 245.054613  L 330.451957 245.581555  L 330.674194 245.563588  L 331.118666 245.977704  L 331.229784 245.913465  L 331.563139 246.301212  L 331.674257 246.227796  L 331.785597 246.502407  L 331.896937 246.391186  L 332.119174 246.590426  L 332.452528 246.833599  L 332.563646 246.741757  L 332.785882 247.142568  L 332.897 247.152287  L 333.008118 247.028483  L 333.230355 247.368868  L 333.341695 247.357934  L 333.675272 247.682964  L 333.897508 247.618186  L 334.119744 247.987888  L 334.34198 247.94636  L 334.564216 248.236821  L 334.675335 248.351834  L 334.786453 248.284336  L 335.009133 248.553484  L 335.120251 248.399585  L 335.453606 248.800002  L 335.675842 248.81758  L 335.898078 249.119626  L 336.009196 249.211857  L 336.120314 249.131444  L 336.787468 249.64128  L 337.009704 249.760033  L 337.23194 249.995198  L 337.23194 249.995198  "
 style="fill:none;stroke:#000000;stroke-linecap:square;stroke-width:1.5;"
 id="path14497" />
</g>
<g
 id="patch_11">
<path
 d="M 59.527559 252.992126  L 59.527559 187.059703  "
 style="fill:none;stroke:#000000;stroke-linecap:square;stroke-linejoin:miter;stroke-width:0.8;"
 id="path14500" />
</g>
<g
 id="patch_12">
<path
 d="M 337.322835 252.992126  L 337.322835 187.059703  "
 style="fill:none;stroke:#000000;stroke-linecap:square;stroke-linejoin:miter;stroke-width:0.8;"
 id="path14503" />
</g>
<g
 id="patch_13">
<path
 d="M 59.527559 252.992126  L 337.322835 252.992126  "
 style="fill:none;stroke:#000000;stroke-linecap:square;stroke-linejoin:miter;stroke-width:0.8;"
 id="path14506" />
</g>
<g
 id="patch_14">
<path
 d="M 59.527559 187.059703  L 337.322835 187.059703  "
 style="fill:none;stroke:#000000;stroke-linecap:square;stroke-linejoin:miter;stroke-width:0.8;"
 id="path14509" />
</g>
</g>
</g>
<defs
 id="defs14520">
<clipPath
 id="p58400b22fc">
<rect
 height="137.13944"
 width="277.795276"
 x="59.527559"
 y="44.645669"
 id="rect14514" />
</clipPath>
<clipPath
 id="p3d6a5510a6">
<rect
 height="65.932423"
 width="277.795276"
 x="59.527559"
 y="187.059703"
 id="rect14517" />
</clipPath>
</defs>
<path
 style="fill:none;stroke:#008000;stroke-width:0.75px;stroke-linecap:butt;stroke-linejoin:miter;stroke-opacity:1"
 d="M 247.16303,139.49197 229.81046,121.80568"
 id="path15092"
 inkscape:connector-curvature="0" />
<path
 inkscape:connector-curvature="0"
 id="path15094"
 d="m 279.9772,117.35631 -20.3559,17.01887"
 style="fill:none;stroke:#ff0000;stroke-width:0.75px;stroke-linecap:butt;stroke-linejoin:miter;stroke-opacity:1"
 sodipodi:nodetypes="cc" />
<flowRoot
 xml:space="preserve"
 id="flowRoot15096"
 style="font-style:normal;font-weight:normal;font-size:7.33333349px;line-height:1.25;font-family:sans-serif;letter-spacing:0px;word-spacing:0px;fill:#008000;fill-opacity:1;stroke:none;stroke-linecap:butt;stroke-linejoin:round"
 transform="matrix(1.1213397,0,0,1.1213397,-115.24887,-8.5302552)"><flowRegion
 id="flowRegion15098"
 style="fill:#008000;fill-opacity:1;stroke-linecap:butt;stroke-linejoin:round"><rect
 id="rect15100"
 width="64.182205"
 height="57.260593"
 x="257.56781"
 y="90.819916"
 style="fill:#008000;fill-opacity:1;stroke-linecap:butt;stroke-linejoin:round" /></flowRegion><flowPara
 id="flowPara15102"
 style="fill:#008000;fill-opacity:1;stroke-linecap:butt;stroke-linejoin:round">expected <flowSpan
 style="font-size:64.99999762%;baseline-shift:super;stroke-linecap:butt;stroke-linejoin:round"
 id="flowSpan15106">16</flowSpan>O<flowSpan
 style="font-size:64.99999762%;baseline-shift:super;stroke-linecap:butt;stroke-linejoin:round"
 id="flowSpan15104">18</flowSpan>O from electrolyte oxidation</flowPara></flowRoot><flowRoot
 transform="matrix(1.1213397,0,0,1.1213397,-27.784887,-7.9010178)"
 style="font-style:normal;font-weight:normal;font-size:7.33333349px;line-height:1.25;font-family:sans-serif;letter-spacing:0px;word-spacing:0px;fill:#ff0000;fill-opacity:1;stroke:none;stroke-linecap:butt;stroke-linejoin:round;"
 id="flowRoot15118"
 xml:space="preserve"><flowRegion
 style="fill:#ff0000;fill-opacity:1;stroke-linecap:butt;stroke-linejoin:round;"
 id="flowRegion15110"><rect
 style="fill:#ff0000;fill-opacity:1;stroke-linecap:butt;stroke-linejoin:round;"
 y="90.819916"
 x="257.56781"
 height="57.260593"
 width="64.182205"
 id="rect15108" /></flowRegion><flowPara
 style="fill:#ff0000;fill-opacity:1;stroke-linecap:butt;stroke-linejoin:round;"
 id="flowPara15116">measured <flowSpan
 id="flowSpan15112"
 style="font-size:64.99999762%;baseline-shift:super;stroke-linecap:butt;stroke-linejoin:round;fill:#ff0000;fill-opacity:1;">16</flowSpan>O<flowSpan
 id="flowSpan15114"
 style="font-size:64.99999762%;baseline-shift:super;stroke-linecap:butt;stroke-linejoin:round;fill:#ff0000;fill-opacity:1;">18</flowSpan>O (m/z=34)</flowPara></flowRoot></svg>
