<?xml version="1.0" encoding="UTF-8" standalone="no"?>
<!-- Created with matplotlib (http://matplotlib.org/) -->

<svg
 xmlns:dc="http://purl.org/dc/elements/1.1/"
 xmlns:cc="http://creativecommons.org/ns#"
 xmlns:rdf="http://www.w3.org/1999/02/22-rdf-syntax-ns#"
 xmlns:svg="http://www.w3.org/2000/svg"
 xmlns="http://www.w3.org/2000/svg"
 xmlns:xlink="http://www.w3.org/1999/xlink"
 xmlns:sodipodi="http://sodipodi.sourceforge.net/DTD/sodipodi-0.dtd"
 xmlns:inkscape="http://www.inkscape.org/namespaces/inkscape"
 height="345pt"
 version="1.1"
 viewBox="0 0 460 345"
 width="460pt"
 id="svg3556"
 sodipodi:docname="Ru_on_GO_naive.svg"
 inkscape:version="0.92.4 (unknown)"
 inkscape:export-filename="/home/scott/Dropbox/PhD_thesis/TeX/04_Oxygen/fig/Ru_on_GO_naive.png"
 inkscape:export-xdpi="300"
 inkscape:export-ydpi="300">
<metadata
 id="metadata3560">
<rdf:RDF>
<cc:Work
 rdf:about="">
<dc:format>image/svg+xml</dc:format>
<dc:type
 rdf:resource="http://purl.org/dc/dcmitype/StillImage" />
<dc:title></dc:title>
</cc:Work>
</rdf:RDF>
</metadata>
<sodipodi:namedview
 pagecolor="#ffffff"
 bordercolor="#666666"
 borderopacity="1"
 objecttolerance="10"
 gridtolerance="10"
 guidetolerance="10"
 inkscape:pageopacity="0"
 inkscape:pageshadow="2"
 inkscape:window-width="1855"
 inkscape:window-height="1176"
 id="namedview3558"
 showgrid="false"
 inkscape:zoom="1.1144022"
 inkscape:cx="326.1623"
 inkscape:cy="158.53847"
 inkscape:window-x="65"
 inkscape:window-y="24"
 inkscape:window-maximized="1"
 inkscape:current-layer="svg3556" />
<defs
 id="defs3229">
<style
 type="text/css"
 id="style3227">
*{stroke-linecap:butt;stroke-linejoin:round;}
  </style>
</defs>
<g
 id="figure_1">
<g
 id="patch_1">
<path
 d="M 0 345.6  L 460.8 345.6  L 460.8 0  L 0 0  z "
 style="fill:#ffffff;"
 id="path3231" />
</g>
<g
 id="axes_1">
<g
 id="patch_2">
<path
 d="M 57.6 307.584  L 414.72 307.584  L 414.72 41.472  L 57.6 41.472  z "
 style="fill:#ffffff;"
 id="path3234" />
</g>
<g
 id="matplotlib.axis_1">
<g
 id="xtick_1">
<g
 id="line2d_1">
<defs
 id="defs3238">
<path
 d="M 0 0  L 0 3.5  "
 id="m1b47d417c3"
 style="stroke:#000000;stroke-width:0.8;" />
</defs>
<g
 id="g3242">
<use
 style="stroke:#000000;stroke-width:0.8;"
 x="80.032727"
 xlink:href="#m1b47d417c3"
 y="307.584"
 id="use3240" />
</g>
</g>
<g
 id="text_1">
<!-- 0.9 -->
<defs
 id="defs3248">
<path
 d="M 31.78125 66.40625  Q 24.171875 66.40625 20.328125 58.90625  Q 16.5 51.421875 16.5 36.375  Q 16.5 21.390625 20.328125 13.890625  Q 24.171875 6.390625 31.78125 6.390625  Q 39.453125 6.390625 43.28125 13.890625  Q 47.125 21.390625 47.125 36.375  Q 47.125 51.421875 43.28125 58.90625  Q 39.453125 66.40625 31.78125 66.40625  M 31.78125 74.21875  Q 44.046875 74.21875 50.515625 64.515625  Q 56.984375 54.828125 56.984375 36.375  Q 56.984375 17.96875 50.515625 8.265625  Q 44.046875 -1.421875 31.78125 -1.421875  Q 19.53125 -1.421875 13.0625 8.265625  Q 6.59375 17.96875 6.59375 36.375  Q 6.59375 54.828125 13.0625 64.515625  Q 19.53125 74.21875 31.78125 74.21875  "
 id="DejaVuSans-30" />
<path
 d="M 10.6875 12.40625  L 21 12.40625  L 21 0  L 10.6875 0  z "
 id="DejaVuSans-2e" />
<path
 d="M 10.984375 1.515625  L 10.984375 10.5  Q 14.703125 8.734375 18.5 7.8125  Q 22.3125 6.890625 25.984375 6.890625  Q 35.75 6.890625 40.890625 13.453125  Q 46.046875 20.015625 46.78125 33.40625  Q 43.953125 29.203125 39.59375 26.953125  Q 35.25 24.703125 29.984375 24.703125  Q 19.046875 24.703125 12.671875 31.3125  Q 6.296875 37.9375 6.296875 49.421875  Q 6.296875 60.640625 12.9375 67.421875  Q 19.578125 74.21875 30.609375 74.21875  Q 43.265625 74.21875 49.921875 64.515625  Q 56.59375 54.828125 56.59375 36.375  Q 56.59375 19.140625 48.40625 8.859375  Q 40.234375 -1.421875 26.421875 -1.421875  Q 22.703125 -1.421875 18.890625 -0.6875  Q 15.09375 0.046875 10.984375 1.515625  M 30.609375 32.421875  Q 37.25 32.421875 41.125 36.953125  Q 45.015625 41.5 45.015625 49.421875  Q 45.015625 57.28125 41.125 61.84375  Q 37.25 66.40625 30.609375 66.40625  Q 23.96875 66.40625 20.09375 61.84375  Q 16.21875 57.28125 16.21875 49.421875  Q 16.21875 41.5 20.09375 36.953125  Q 23.96875 32.421875 30.609375 32.421875  "
 id="DejaVuSans-39" />
</defs>
<g
 transform="translate(72.081165 322.182437)scale(0.1 -0.1)"
 id="g3256">
<use
 xlink:href="#DejaVuSans-30"
 id="use3250" />
<use
 x="63.623047"
 xlink:href="#DejaVuSans-2e"
 id="use3252" />
<use
 x="95.410156"
 xlink:href="#DejaVuSans-39"
 id="use3254" />
</g>
</g>
</g>
<g
 id="xtick_2">
<g
 id="line2d_2">
<g
 id="g3262">
<use
 style="stroke:#000000;stroke-width:0.8;"
 x="136.396364"
 xlink:href="#m1b47d417c3"
 y="307.584"
 id="use3260" />
</g>
</g>
<g
 id="text_2">
<!-- 1.0 -->
<defs
 id="defs3266">
<path
 d="M 12.40625 8.296875  L 28.515625 8.296875  L 28.515625 63.921875  L 10.984375 60.40625  L 10.984375 69.390625  L 28.421875 72.90625  L 38.28125 72.90625  L 38.28125 8.296875  L 54.390625 8.296875  L 54.390625 0  L 12.40625 0  z "
 id="DejaVuSans-31" />
</defs>
<g
 transform="translate(128.444801 322.182437)scale(0.1 -0.1)"
 id="g3274">
<use
 xlink:href="#DejaVuSans-31"
 id="use3268" />
<use
 x="63.623047"
 xlink:href="#DejaVuSans-2e"
 id="use3270" />
<use
 x="95.410156"
 xlink:href="#DejaVuSans-30"
 id="use3272" />
</g>
</g>
</g>
<g
 id="xtick_3">
<g
 id="line2d_3">
<g
 id="g3280">
<use
 style="stroke:#000000;stroke-width:0.8;"
 x="192.76"
 xlink:href="#m1b47d417c3"
 y="307.584"
 id="use3278" />
</g>
</g>
<g
 id="text_3">
<!-- 1.1 -->
<g
 transform="translate(184.808437 322.182437)scale(0.1 -0.1)"
 id="g3289">
<use
 xlink:href="#DejaVuSans-31"
 id="use3283" />
<use
 x="63.623047"
 xlink:href="#DejaVuSans-2e"
 id="use3285" />
<use
 x="95.410156"
 xlink:href="#DejaVuSans-31"
 id="use3287" />
</g>
</g>
</g>
<g
 id="xtick_4">
<g
 id="line2d_4">
<g
 id="g3295">
<use
 style="stroke:#000000;stroke-width:0.8;"
 x="249.123636"
 xlink:href="#m1b47d417c3"
 y="307.584"
 id="use3293" />
</g>
</g>
<g
 id="text_4">
<!-- 1.2 -->
<defs
 id="defs3299">
<path
 d="M 19.1875 8.296875  L 53.609375 8.296875  L 53.609375 0  L 7.328125 0  L 7.328125 8.296875  Q 12.9375 14.109375 22.625 23.890625  Q 32.328125 33.6875 34.8125 36.53125  Q 39.546875 41.84375 41.421875 45.53125  Q 43.3125 49.21875 43.3125 52.78125  Q 43.3125 58.59375 39.234375 62.25  Q 35.15625 65.921875 28.609375 65.921875  Q 23.96875 65.921875 18.8125 64.3125  Q 13.671875 62.703125 7.8125 59.421875  L 7.8125 69.390625  Q 13.765625 71.78125 18.9375 73  Q 24.125 74.21875 28.421875 74.21875  Q 39.75 74.21875 46.484375 68.546875  Q 53.21875 62.890625 53.21875 53.421875  Q 53.21875 48.921875 51.53125 44.890625  Q 49.859375 40.875 45.40625 35.40625  Q 44.1875 33.984375 37.640625 27.21875  Q 31.109375 20.453125 19.1875 8.296875  "
 id="DejaVuSans-32" />
</defs>
<g
 transform="translate(241.172074 322.182437)scale(0.1 -0.1)"
 id="g3307">
<use
 xlink:href="#DejaVuSans-31"
 id="use3301" />
<use
 x="63.623047"
 xlink:href="#DejaVuSans-2e"
 id="use3303" />
<use
 x="95.410156"
 xlink:href="#DejaVuSans-32"
 id="use3305" />
</g>
</g>
</g>
<g
 id="xtick_5">
<g
 id="line2d_5">
<g
 id="g3313">
<use
 style="stroke:#000000;stroke-width:0.8;"
 x="305.487273"
 xlink:href="#m1b47d417c3"
 y="307.584"
 id="use3311" />
</g>
</g>
<g
 id="text_5">
<!-- 1.3 -->
<defs
 id="defs3317">
<path
 d="M 40.578125 39.3125  Q 47.65625 37.796875 51.625 33  Q 55.609375 28.21875 55.609375 21.1875  Q 55.609375 10.40625 48.1875 4.484375  Q 40.765625 -1.421875 27.09375 -1.421875  Q 22.515625 -1.421875 17.65625 -0.515625  Q 12.796875 0.390625 7.625 2.203125  L 7.625 11.71875  Q 11.71875 9.328125 16.59375 8.109375  Q 21.484375 6.890625 26.8125 6.890625  Q 36.078125 6.890625 40.9375 10.546875  Q 45.796875 14.203125 45.796875 21.1875  Q 45.796875 27.640625 41.28125 31.265625  Q 36.765625 34.90625 28.71875 34.90625  L 20.21875 34.90625  L 20.21875 43.015625  L 29.109375 43.015625  Q 36.375 43.015625 40.234375 45.921875  Q 44.09375 48.828125 44.09375 54.296875  Q 44.09375 59.90625 40.109375 62.90625  Q 36.140625 65.921875 28.71875 65.921875  Q 24.65625 65.921875 20.015625 65.03125  Q 15.375 64.15625 9.8125 62.3125  L 9.8125 71.09375  Q 15.4375 72.65625 20.34375 73.4375  Q 25.25 74.21875 29.59375 74.21875  Q 40.828125 74.21875 47.359375 69.109375  Q 53.90625 64.015625 53.90625 55.328125  Q 53.90625 49.265625 50.4375 45.09375  Q 46.96875 40.921875 40.578125 39.3125  "
 id="DejaVuSans-33" />
</defs>
<g
 transform="translate(297.53571 322.182437)scale(0.1 -0.1)"
 id="g3325">
<use
 xlink:href="#DejaVuSans-31"
 id="use3319" />
<use
 x="63.623047"
 xlink:href="#DejaVuSans-2e"
 id="use3321" />
<use
 x="95.410156"
 xlink:href="#DejaVuSans-33"
 id="use3323" />
</g>
</g>
</g>
<g
 id="xtick_6">
<g
 id="line2d_6">
<g
 id="g3331">
<use
 style="stroke:#000000;stroke-width:0.8;"
 x="361.850909"
 xlink:href="#m1b47d417c3"
 y="307.584"
 id="use3329" />
</g>
</g>
<g
 id="text_6">
<!-- 1.4 -->
<defs
 id="defs3335">
<path
 d="M 37.796875 64.3125  L 12.890625 25.390625  L 37.796875 25.390625  z M 35.203125 72.90625  L 47.609375 72.90625  L 47.609375 25.390625  L 58.015625 25.390625  L 58.015625 17.1875  L 47.609375 17.1875  L 47.609375 0  L 37.796875 0  L 37.796875 17.1875  L 4.890625 17.1875  L 4.890625 26.703125  z "
 id="DejaVuSans-34" />
</defs>
<g
 transform="translate(353.899347 322.182437)scale(0.1 -0.1)"
 id="g3343">
<use
 xlink:href="#DejaVuSans-31"
 id="use3337" />
<use
 x="63.623047"
 xlink:href="#DejaVuSans-2e"
 id="use3339" />
<use
 x="95.410156"
 xlink:href="#DejaVuSans-34"
 id="use3341" />
</g>
</g>
</g>
<g
 id="text_7">
<!-- U vs RHE / [V] -->
<defs
 id="defs3358">
<path
 d="M 8.6875 72.90625  L 18.609375 72.90625  L 18.609375 28.609375  Q 18.609375 16.890625 22.84375 11.734375  Q 27.09375 6.59375 36.625 6.59375  Q 46.09375 6.59375 50.34375 11.734375  Q 54.59375 16.890625 54.59375 28.609375  L 54.59375 72.90625  L 64.5 72.90625  L 64.5 27.390625  Q 64.5 13.140625 57.4375 5.859375  Q 50.390625 -1.421875 36.625 -1.421875  Q 22.796875 -1.421875 15.734375 5.859375  Q 8.6875 13.140625 8.6875 27.390625  z "
 id="DejaVuSans-55" />
<path
 id="DejaVuSans-20" />
<path
 d="M 2.984375 54.6875  L 12.5 54.6875  L 29.59375 8.796875  L 46.6875 54.6875  L 56.203125 54.6875  L 35.6875 0  L 23.484375 0  z "
 id="DejaVuSans-76" />
<path
 d="M 44.28125 53.078125  L 44.28125 44.578125  Q 40.484375 46.53125 36.375 47.5  Q 32.28125 48.484375 27.875 48.484375  Q 21.1875 48.484375 17.84375 46.4375  Q 14.5 44.390625 14.5 40.28125  Q 14.5 37.15625 16.890625 35.375  Q 19.28125 33.59375 26.515625 31.984375  L 29.59375 31.296875  Q 39.15625 29.25 43.1875 25.515625  Q 47.21875 21.78125 47.21875 15.09375  Q 47.21875 7.46875 41.1875 3.015625  Q 35.15625 -1.421875 24.609375 -1.421875  Q 20.21875 -1.421875 15.453125 -0.5625  Q 10.6875 0.296875 5.421875 2  L 5.421875 11.28125  Q 10.40625 8.6875 15.234375 7.390625  Q 20.0625 6.109375 24.8125 6.109375  Q 31.15625 6.109375 34.5625 8.28125  Q 37.984375 10.453125 37.984375 14.40625  Q 37.984375 18.0625 35.515625 20.015625  Q 33.0625 21.96875 24.703125 23.78125  L 21.578125 24.515625  Q 13.234375 26.265625 9.515625 29.90625  Q 5.8125 33.546875 5.8125 39.890625  Q 5.8125 47.609375 11.28125 51.796875  Q 16.75 56 26.8125 56  Q 31.78125 56 36.171875 55.265625  Q 40.578125 54.546875 44.28125 53.078125  "
 id="DejaVuSans-73" />
<path
 d="M 44.390625 34.1875  Q 47.5625 33.109375 50.5625 29.59375  Q 53.5625 26.078125 56.59375 19.921875  L 66.609375 0  L 56 0  L 46.6875 18.703125  Q 43.0625 26.03125 39.671875 28.421875  Q 36.28125 30.8125 30.421875 30.8125  L 19.671875 30.8125  L 19.671875 0  L 9.8125 0  L 9.8125 72.90625  L 32.078125 72.90625  Q 44.578125 72.90625 50.734375 67.671875  Q 56.890625 62.453125 56.890625 51.90625  Q 56.890625 45.015625 53.6875 40.46875  Q 50.484375 35.9375 44.390625 34.1875  M 19.671875 64.796875  L 19.671875 38.921875  L 32.078125 38.921875  Q 39.203125 38.921875 42.84375 42.21875  Q 46.484375 45.515625 46.484375 51.90625  Q 46.484375 58.296875 42.84375 61.546875  Q 39.203125 64.796875 32.078125 64.796875  z "
 id="DejaVuSans-52" />
<path
 d="M 9.8125 72.90625  L 19.671875 72.90625  L 19.671875 43.015625  L 55.515625 43.015625  L 55.515625 72.90625  L 65.375 72.90625  L 65.375 0  L 55.515625 0  L 55.515625 34.71875  L 19.671875 34.71875  L 19.671875 0  L 9.8125 0  z "
 id="DejaVuSans-48" />
<path
 d="M 9.8125 72.90625  L 55.90625 72.90625  L 55.90625 64.59375  L 19.671875 64.59375  L 19.671875 43.015625  L 54.390625 43.015625  L 54.390625 34.71875  L 19.671875 34.71875  L 19.671875 8.296875  L 56.78125 8.296875  L 56.78125 0  L 9.8125 0  z "
 id="DejaVuSans-45" />
<path
 d="M 25.390625 72.90625  L 33.6875 72.90625  L 8.296875 -9.28125  L 0 -9.28125  z "
 id="DejaVuSans-2f" />
<path
 d="M 8.59375 75.984375  L 29.296875 75.984375  L 29.296875 69  L 17.578125 69  L 17.578125 -6.203125  L 29.296875 -6.203125  L 29.296875 -13.1875  L 8.59375 -13.1875  z "
 id="DejaVuSans-5b" />
<path
 d="M 28.609375 0  L 0.78125 72.90625  L 11.078125 72.90625  L 34.1875 11.53125  L 57.328125 72.90625  L 67.578125 72.90625  L 39.796875 0  z "
 id="DejaVuSans-56" />
<path
 d="M 30.421875 75.984375  L 30.421875 -13.1875  L 9.71875 -13.1875  L 9.71875 -6.203125  L 21.390625 -6.203125  L 21.390625 69  L 9.71875 69  L 9.71875 75.984375  z "
 id="DejaVuSans-5d" />
</defs>
<g
 transform="translate(201.180312 335.860562)scale(0.1 -0.1)"
 id="g3388">
<use
 xlink:href="#DejaVuSans-55"
 id="use3360" />
<use
 x="73.193359"
 xlink:href="#DejaVuSans-20"
 id="use3362" />
<use
 x="104.980469"
 xlink:href="#DejaVuSans-76"
 id="use3364" />
<use
 x="164.160156"
 xlink:href="#DejaVuSans-73"
 id="use3366" />
<use
 x="216.259766"
 xlink:href="#DejaVuSans-20"
 id="use3368" />
<use
 x="248.046875"
 xlink:href="#DejaVuSans-52"
 id="use3370" />
<use
 x="317.529297"
 xlink:href="#DejaVuSans-48"
 id="use3372" />
<use
 x="392.724609"
 xlink:href="#DejaVuSans-45"
 id="use3374" />
<use
 x="455.908203"
 xlink:href="#DejaVuSans-20"
 id="use3376" />
<use
 x="487.695312"
 xlink:href="#DejaVuSans-2f"
 id="use3378" />
<use
 x="521.386719"
 xlink:href="#DejaVuSans-20"
 id="use3380" />
<use
 x="553.173828"
 xlink:href="#DejaVuSans-5b"
 id="use3382" />
<use
 x="592.1875"
 xlink:href="#DejaVuSans-56"
 id="use3384" />
<use
 x="660.595703"
 xlink:href="#DejaVuSans-5d"
 id="use3386" />
</g>
</g>
</g>
<g
 id="matplotlib.axis_2">
<g
 id="ytick_1">
<g
 id="line2d_7">
<defs
 id="defs3393">
<path
 d="M 0 0  L -3.5 0  "
 id="m45eb3d0242"
 style="stroke:#000000;stroke-width:0.8;" />
</defs>
<g
 id="g3397">
<use
 style="stroke:#000000;stroke-width:0.8;"
 x="57.6"
 xlink:href="#m45eb3d0242"
 y="290.048859"
 id="use3395" />
</g>
</g>
<g
 id="text_8">
<!-- −2 -->
<defs
 id="defs3401">
<path
 d="M 10.59375 35.5  L 73.1875 35.5  L 73.1875 27.203125  L 10.59375 27.203125  z "
 id="DejaVuSans-2212" />
</defs>
<g
 transform="translate(35.857813 293.848078)scale(0.1 -0.1)"
 id="g3407">
<use
 xlink:href="#DejaVuSans-2212"
 id="use3403" />
<use
 x="83.789062"
 xlink:href="#DejaVuSans-32"
 id="use3405" />
</g>
</g>
</g>
<g
 id="ytick_2">
<g
 id="line2d_8">
<g
 id="g3413">
<use
 style="stroke:#000000;stroke-width:0.8;"
 x="57.6"
 xlink:href="#m45eb3d0242"
 y="258.225826"
 id="use3411" />
</g>
</g>
<g
 id="text_9">
<!-- 0 -->
<g
 transform="translate(44.2375 262.025044)scale(0.1 -0.1)"
 id="g3418">
<use
 xlink:href="#DejaVuSans-30"
 id="use3416" />
</g>
</g>
</g>
<g
 id="ytick_3">
<g
 id="line2d_9">
<g
 id="g3424">
<use
 style="stroke:#000000;stroke-width:0.8;"
 x="57.6"
 xlink:href="#m45eb3d0242"
 y="226.402792"
 id="use3422" />
</g>
</g>
<g
 id="text_10">
<!-- 2 -->
<g
 transform="translate(44.2375 230.202011)scale(0.1 -0.1)"
 id="g3429">
<use
 xlink:href="#DejaVuSans-32"
 id="use3427" />
</g>
</g>
</g>
<g
 id="ytick_4">
<g
 id="line2d_10">
<g
 id="g3435">
<use
 style="stroke:#000000;stroke-width:0.8;"
 x="57.6"
 xlink:href="#m45eb3d0242"
 y="194.579758"
 id="use3433" />
</g>
</g>
<g
 id="text_11">
<!-- 4 -->
<g
 transform="translate(44.2375 198.378977)scale(0.1 -0.1)"
 id="g3440">
<use
 xlink:href="#DejaVuSans-34"
 id="use3438" />
</g>
</g>
</g>
<g
 id="ytick_5">
<g
 id="line2d_11">
<g
 id="g3446">
<use
 style="stroke:#000000;stroke-width:0.8;"
 x="57.6"
 xlink:href="#m45eb3d0242"
 y="162.756725"
 id="use3444" />
</g>
</g>
<g
 id="text_12">
<!-- 6 -->
<defs
 id="defs3450">
<path
 d="M 33.015625 40.375  Q 26.375 40.375 22.484375 35.828125  Q 18.609375 31.296875 18.609375 23.390625  Q 18.609375 15.53125 22.484375 10.953125  Q 26.375 6.390625 33.015625 6.390625  Q 39.65625 6.390625 43.53125 10.953125  Q 47.40625 15.53125 47.40625 23.390625  Q 47.40625 31.296875 43.53125 35.828125  Q 39.65625 40.375 33.015625 40.375  M 52.59375 71.296875  L 52.59375 62.3125  Q 48.875 64.0625 45.09375 64.984375  Q 41.3125 65.921875 37.59375 65.921875  Q 27.828125 65.921875 22.671875 59.328125  Q 17.53125 52.734375 16.796875 39.40625  Q 19.671875 43.65625 24.015625 45.921875  Q 28.375 48.1875 33.59375 48.1875  Q 44.578125 48.1875 50.953125 41.515625  Q 57.328125 34.859375 57.328125 23.390625  Q 57.328125 12.15625 50.6875 5.359375  Q 44.046875 -1.421875 33.015625 -1.421875  Q 20.359375 -1.421875 13.671875 8.265625  Q 6.984375 17.96875 6.984375 36.375  Q 6.984375 53.65625 15.1875 63.9375  Q 23.390625 74.21875 37.203125 74.21875  Q 40.921875 74.21875 44.703125 73.484375  Q 48.484375 72.75 52.59375 71.296875  "
 id="DejaVuSans-36" />
</defs>
<g
 transform="translate(44.2375 166.555944)scale(0.1 -0.1)"
 id="g3454">
<use
 xlink:href="#DejaVuSans-36"
 id="use3452" />
</g>
</g>
</g>
<g
 id="ytick_6">
<g
 id="line2d_12">
<g
 id="g3460">
<use
 style="stroke:#000000;stroke-width:0.8;"
 x="57.6"
 xlink:href="#m45eb3d0242"
 y="130.933691"
 id="use3458" />
</g>
</g>
<g
 id="text_13">
<!-- 8 -->
<defs
 id="defs3464">
<path
 d="M 31.78125 34.625  Q 24.75 34.625 20.71875 30.859375  Q 16.703125 27.09375 16.703125 20.515625  Q 16.703125 13.921875 20.71875 10.15625  Q 24.75 6.390625 31.78125 6.390625  Q 38.8125 6.390625 42.859375 10.171875  Q 46.921875 13.96875 46.921875 20.515625  Q 46.921875 27.09375 42.890625 30.859375  Q 38.875 34.625 31.78125 34.625  M 21.921875 38.8125  Q 15.578125 40.375 12.03125 44.71875  Q 8.5 49.078125 8.5 55.328125  Q 8.5 64.0625 14.71875 69.140625  Q 20.953125 74.21875 31.78125 74.21875  Q 42.671875 74.21875 48.875 69.140625  Q 55.078125 64.0625 55.078125 55.328125  Q 55.078125 49.078125 51.53125 44.71875  Q 48 40.375 41.703125 38.8125  Q 48.828125 37.15625 52.796875 32.3125  Q 56.78125 27.484375 56.78125 20.515625  Q 56.78125 9.90625 50.3125 4.234375  Q 43.84375 -1.421875 31.78125 -1.421875  Q 19.734375 -1.421875 13.25 4.234375  Q 6.78125 9.90625 6.78125 20.515625  Q 6.78125 27.484375 10.78125 32.3125  Q 14.796875 37.15625 21.921875 38.8125  M 18.3125 54.390625  Q 18.3125 48.734375 21.84375 45.5625  Q 25.390625 42.390625 31.78125 42.390625  Q 38.140625 42.390625 41.71875 45.5625  Q 45.3125 48.734375 45.3125 54.390625  Q 45.3125 60.0625 41.71875 63.234375  Q 38.140625 66.40625 31.78125 66.40625  Q 25.390625 66.40625 21.84375 63.234375  Q 18.3125 60.0625 18.3125 54.390625  "
 id="DejaVuSans-38" />
</defs>
<g
 transform="translate(44.2375 134.73291)scale(0.1 -0.1)"
 id="g3468">
<use
 xlink:href="#DejaVuSans-38"
 id="use3466" />
</g>
</g>
</g>
<g
 id="ytick_7">
<g
 id="line2d_13">
<g
 id="g3474">
<use
 style="stroke:#000000;stroke-width:0.8;"
 x="57.6"
 xlink:href="#m45eb3d0242"
 y="99.110658"
 id="use3472" />
</g>
</g>
<g
 id="text_14">
<!-- 10 -->
<g
 transform="translate(37.875 102.909876)scale(0.1 -0.1)"
 id="g3481">
<use
 xlink:href="#DejaVuSans-31"
 id="use3477" />
<use
 x="63.623047"
 xlink:href="#DejaVuSans-30"
 id="use3479" />
</g>
</g>
</g>
<g
 id="ytick_8">
<g
 id="line2d_14">
<g
 id="g3487">
<use
 style="stroke:#000000;stroke-width:0.8;"
 x="57.6"
 xlink:href="#m45eb3d0242"
 y="67.287624"
 id="use3485" />
</g>
</g>
<g
 id="text_15">
<!-- 12 -->
<g
 transform="translate(37.875 71.086843)scale(0.1 -0.1)"
 id="g3494">
<use
 xlink:href="#DejaVuSans-31"
 id="use3490" />
<use
 x="63.623047"
 xlink:href="#DejaVuSans-32"
 id="use3492" />
</g>
</g>
</g>
<g
 id="text_16">
<!-- J / [mA cm$^{-2}$] -->
<defs
 id="defs3502">
<path
 d="M 9.8125 72.90625  L 19.671875 72.90625  L 19.671875 5.078125  Q 19.671875 -8.109375 14.671875 -14.0625  Q 9.671875 -20.015625 -1.421875 -20.015625  L -5.171875 -20.015625  L -5.171875 -11.71875  L -2.09375 -11.71875  Q 4.4375 -11.71875 7.125 -8.046875  Q 9.8125 -4.390625 9.8125 5.078125  z "
 id="DejaVuSans-4a" />
<path
 d="M 52 44.1875  Q 55.375 50.25 60.0625 53.125  Q 64.75 56 71.09375 56  Q 79.640625 56 84.28125 50.015625  Q 88.921875 44.046875 88.921875 33.015625  L 88.921875 0  L 79.890625 0  L 79.890625 32.71875  Q 79.890625 40.578125 77.09375 44.375  Q 74.3125 48.1875 68.609375 48.1875  Q 61.625 48.1875 57.5625 43.546875  Q 53.515625 38.921875 53.515625 30.90625  L 53.515625 0  L 44.484375 0  L 44.484375 32.71875  Q 44.484375 40.625 41.703125 44.40625  Q 38.921875 48.1875 33.109375 48.1875  Q 26.21875 48.1875 22.15625 43.53125  Q 18.109375 38.875 18.109375 30.90625  L 18.109375 0  L 9.078125 0  L 9.078125 54.6875  L 18.109375 54.6875  L 18.109375 46.1875  Q 21.1875 51.21875 25.484375 53.609375  Q 29.78125 56 35.6875 56  Q 41.65625 56 45.828125 52.96875  Q 50 49.953125 52 44.1875  "
 id="DejaVuSans-6d" />
<path
 d="M 34.1875 63.1875  L 20.796875 26.90625  L 47.609375 26.90625  z M 28.609375 72.90625  L 39.796875 72.90625  L 67.578125 0  L 57.328125 0  L 50.6875 18.703125  L 17.828125 18.703125  L 11.1875 0  L 0.78125 0  z "
 id="DejaVuSans-41" />
<path
 d="M 48.78125 52.59375  L 48.78125 44.1875  Q 44.96875 46.296875 41.140625 47.34375  Q 37.3125 48.390625 33.40625 48.390625  Q 24.65625 48.390625 19.8125 42.84375  Q 14.984375 37.3125 14.984375 27.296875  Q 14.984375 17.28125 19.8125 11.734375  Q 24.65625 6.203125 33.40625 6.203125  Q 37.3125 6.203125 41.140625 7.25  Q 44.96875 8.296875 48.78125 10.40625  L 48.78125 2.09375  Q 45.015625 0.34375 40.984375 -0.53125  Q 36.96875 -1.421875 32.421875 -1.421875  Q 20.0625 -1.421875 12.78125 6.34375  Q 5.515625 14.109375 5.515625 27.296875  Q 5.515625 40.671875 12.859375 48.328125  Q 20.21875 56 33.015625 56  Q 37.15625 56 41.109375 55.140625  Q 45.0625 54.296875 48.78125 52.59375  "
 id="DejaVuSans-63" />
</defs>
<g
 transform="translate(29.757812 207.628)rotate(-90)scale(0.1 -0.1)"
 id="g3530">
<use
 transform="translate(0 0.765625)"
 xlink:href="#DejaVuSans-4a"
 id="use3504" />
<use
 transform="translate(29.492188 0.765625)"
 xlink:href="#DejaVuSans-20"
 id="use3506" />
<use
 transform="translate(61.279297 0.765625)"
 xlink:href="#DejaVuSans-2f"
 id="use3508" />
<use
 transform="translate(94.970703 0.765625)"
 xlink:href="#DejaVuSans-20"
 id="use3510" />
<use
 transform="translate(126.757812 0.765625)"
 xlink:href="#DejaVuSans-5b"
 id="use3512" />
<use
 transform="translate(165.771484 0.765625)"
 xlink:href="#DejaVuSans-6d"
 id="use3514" />
<use
 transform="translate(263.183594 0.765625)"
 xlink:href="#DejaVuSans-41"
 id="use3516" />
<use
 transform="translate(331.591797 0.765625)"
 xlink:href="#DejaVuSans-20"
 id="use3518" />
<use
 transform="translate(363.378906 0.765625)"
 xlink:href="#DejaVuSans-63"
 id="use3520" />
<use
 transform="translate(418.359375 0.765625)"
 xlink:href="#DejaVuSans-6d"
 id="use3522" />
<use
 transform="translate(516.728516 39.046875)scale(0.7)"
 xlink:href="#DejaVuSans-2212"
 id="use3524" />
<use
 transform="translate(575.380859 39.046875)scale(0.7)"
 xlink:href="#DejaVuSans-32"
 id="use3526" />
<use
 transform="translate(622.651367 0.765625)"
 xlink:href="#DejaVuSans-5d"
 id="use3528" />
</g>
</g>
</g>
<g
 id="line2d_15">
<path
 clip-path="url(#p32f7489f89)"
 d="M 73.832727 254.919315  L 77.214545 254.896584  L 81.16 254.82758  L 83.414545 254.816215  L 86.796364 254.753705  L 96.941818 254.533704  L 102.014545 254.365659  L 104.832727 254.262559  L 112.16 253.951635  L 118.923636 253.535987  L 122.305455 253.294067  L 133.578182 252.147788  L 136.396364 251.760554  L 142.596364 250.746601  L 146.541818 249.977815  L 156.687273 247.23389  L 162.887273 244.936462  L 170.214545 241.478142  L 175.287273 238.466319  L 180.36 235.056709  L 182.614545 233.400612  L 188.814545 228.278078  L 193.323636 224.145954  L 201.214545 216.271377  L 205.16 212.139254  L 214.741818 202.064666  L 220.941818 195.935485  L 226.578182 190.861659  L 231.087273 187.208505  L 236.16 183.612177  L 239.541818 181.542056  L 241.796364 180.27563  L 247.432727 177.629122  L 251.941818 175.908081  L 259.832727 173.716188  L 262.087273 173.310282  L 263.778182 172.904376  L 273.923636 171.524295  L 275.050909 171.443114  L 277.305455 171.19957  L 278.996364 171.118389  L 281.250909 170.874846  L 282.941818 170.793664  L 285.196364 170.550121  L 286.887273 170.46894  L 288.578182 170.306577  L 290.269091 170.225396  L 292.523636 169.981852  L 294.214545 169.900671  L 296.469091 169.657128  L 298.16 169.575946  L 301.541818 169.17004  L 302.669091 169.088859  L 306.614545 168.601772  L 307.178182 168.601772  L 308.305455 168.358228  L 313.378182 167.546416  L 314.505455 167.302872  L 316.196364 166.978148  L 324.650909 164.46153  L 329.723636 162.188456  L 334.232727 159.509477  L 337.050909 157.398765  L 340.432727 154.39506  L 345.505455 148.468832  L 348.887273 143.435597  L 350.578182 140.594255  L 352.269091 137.509369  L 353.96 134.18094  L 356.214545 129.391248  L 357.905455 125.575732  L 366.36 104.63098  L 368.050909 100.247195  L 368.614545 99.110658  L 369.178182 98.461208  L 369.741818 97.487034  L 371.432727 93.752698  L 372.56 92.372617  L 373.123636 92.291436  L 373.687273 91.479624  L 374.814545 89.20655  L 379.323636 77.678819  L 380.450909 75.486926  L 381.014545 75.568107  L 381.578182 77.597638  L 382.141818 78.40945  L 382.705455 77.76  L 383.269091 76.055195  L 384.396364 73.70094  L 384.96 73.295034  L 387.214545 67.368805  L 389.469091 62.254389  L 390.032727 61.442577  L 391.723636 57.464698  L 392.287273 56.24698  L 392.850909 55.435168  L 393.414545 54.298631  L 393.978182 53.568  L 394.541818 53.649181  L 395.105455 54.379812  L 395.669091 55.59753  L 396.232727 57.302336  L 396.796364 56.571705  L 397.36 56.328161  L 397.923636 56.815248  L 398.487273 60.143678  L 395.669091 106.092242  L 394.541818 116.889342  L 391.16 143.679141  L 387.778182 167.465235  L 386.087273 177.133917  L 382.705455 195.334744  L 378.196364 212.569514  L 375.941818 219.810878  L 373.687273 226.216075  L 371.996364 230.494325  L 369.741818 235.503205  L 367.487273 239.903227  L 365.232727 243.767452  L 362.978182 247.209536  L 360.16 251.045348  L 357.905455 253.839605  L 352.832727 259.513359  L 342.687273 270.662787  L 331.414545 284.025213  L 328.596364 286.915264  L 326.341818 288.969149  L 324.087273 290.755136  L 321.832727 292.273224  L 319.014545 293.734486  L 316.196364 294.765487  L 314.505455 295.147039  L 311.687273 295.479882  L 309.432727 295.406819  L 307.178182 295.171393  L 304.36 294.586889  L 300.978182 293.58836  L 281.250909 286.566185  L 271.105455 283.757315  L 267.16 282.783141  L 258.705455 280.915973  L 256.450909 280.550658  L 244.050909 278.318174  L 238.978182 277.571307  L 235.596364 277.08422  L 222.069091 275.428123  L 216.996364 274.884209  L 210.232727 274.194169  L 198.396364 273.236231  L 194.450909 272.651726  L 187.687273 271.969804  L 171.905455 270.898212  L 170.214545 270.841385  L 168.523636 270.679023  L 165.141818 270.459834  L 164.578182 269.047281  L 165.141818 263.140536  L 165.705455 258.824375  L 166.269091 256.331056  L 166.832727 254.905514  L 167.396364 254.100197  L 167.96 253.611486  L 169.087273 253.100856  L 170.778182 252.651924  L 173.596364 252.09015  L 177.541818 251.488597  L 187.687273 250.534718  L 191.069091 250.29361  L 202.341818 249.588145  L 227.141818 248.605852  L 231.087273 248.557144  L 244.050909 248.451608  L 260.96 248.102529  L 272.796364 247.672268  L 276.178182 247.526142  L 280.123636 247.306953  L 286.887273 246.925401  L 300.978182 246.008054  L 306.614545 245.602148  L 308.869091 245.439785  L 313.941818 245.033879  L 319.014545 244.571146  L 326.905455 243.467082  L 332.541818 242.225009  L 335.36 241.364489  L 338.741818 239.927581  L 339.305455 239.513557  L 342.687273 237.784397  L 344.378182 236.834577  L 347.76 234.480322  L 350.014545 232.580682  L 352.832727 229.723103  L 354.523636 227.888408  L 359.032727 221.96218  L 363.541818 215.816762  L 365.796364 212.407152  L 368.614545 207.70676  L 370.869091 203.436628  L 372.56 199.872773  L 374.250909 195.886776  L 375.941818 191.478636  L 377.632727 186.575291  L 379.887273 179.122856  L 381.578182 172.823195  L 383.269091 166.003973  L 386.087273 153.339705  L 389.469091 136.454013  L 392.287273 121.597852  L 392.850909 119.000054  L 393.414545 116.970523  L 393.978182 114.210362  L 396.796364 103.900349  L 397.923636 100.166013  L 398.487273 100.166013  L 397.923636 106.822872  L 396.796364 125.088644  L 395.669091 136.535195  L 393.978182 151.553718  L 391.723636 168.195866  L 388.905455 187.038024  L 387.778182 193.914072  L 386.087273 202.965777  L 382.141818 219.762169  L 380.450909 226.094303  L 378.76 231.817579  L 377.069091 236.185128  L 375.378182 239.878872  L 373.687273 243.142357  L 371.996364 246.016172  L 370.305455 248.57338  L 368.050909 251.522693  L 365.796364 254.085584  L 363.541818 256.289654  L 361.287273 258.217334  L 358.469091 260.355209  L 355.087273 262.664814  L 346.069091 268.535839  L 342.123636 271.328472  L 328.032727 282.158046  L 324.087273 284.47171  L 321.832727 285.543302  L 318.450909 286.712311  L 316.196364 287.256226  L 314.505455 287.516005  L 311.123636 287.678368  L 308.305455 287.58095  L 303.796364 286.980209  L 302.105455 286.744784  L 299.287273 286.127807  L 289.705455 283.676134  L 284.632727 282.401589  L 274.487273 280.160988  L 267.723636 278.894561  L 264.341818 278.277584  L 253.632727 276.515952  L 237.287273 274.49454  L 217.56 272.887152  L 177.541818 270.679023  L 177.541818 270.679023  "
 style="fill:none;stroke:#000000;stroke-linecap:square;stroke-width:1.5;"
 id="path3534" />
</g>
<g
 id="patch_3">
<path
 d="M 57.6 307.584  L 57.6 41.472  "
 style="fill:none;stroke:#000000;stroke-linecap:square;stroke-linejoin:miter;stroke-width:0.8;"
 id="path3537" />
</g>
<g
 id="patch_4">
<path
 d="M 414.72 307.584  L 414.72 41.472  "
 style="fill:none;stroke:#000000;stroke-linecap:square;stroke-linejoin:miter;stroke-width:0.8;"
 id="path3540" />
</g>
<g
 id="patch_5">
<path
 d="M 57.6 307.584  L 414.72 307.584  "
 style="fill:none;stroke:#000000;stroke-linecap:square;stroke-linejoin:miter;stroke-width:0.8;"
 id="path3543" />
</g>
<g
 id="patch_6">
<path
 d="M 57.6 41.472  L 414.72 41.472  "
 style="fill:none;stroke:#000000;stroke-linecap:square;stroke-linejoin:miter;stroke-width:0.8;"
 id="path3546" />
</g>
</g>
</g>
<defs
 id="defs3554">
<clipPath
 id="p32f7489f89">
<rect
 height="266.112"
 width="357.12"
 x="57.6"
 y="41.472"
 id="rect3551" />
</clipPath>
</defs>
<flowRoot
 xml:space="preserve"
 id="flowRoot3562"
 style="font-style:normal;font-weight:normal;font-size:7.33333349px;line-height:1.25;font-family:sans-serif;letter-spacing:0px;word-spacing:0px;fill:#000000;fill-opacity:1;stroke:none;stroke-linecap:butt;stroke-linejoin:round"
 transform="matrix(1.8156,0,0,1.8156,-205.30769,-129.70628)"><flowRegion
 id="flowRegion3564"
 style="stroke-linecap:butt;stroke-linejoin:round"><rect
 id="rect3566"
 width="79.46727"
 height="16.634922"
 x="192.0312"
 y="120.80468"
 style="stroke-linecap:butt;stroke-linejoin:round" /></flowRegion><flowPara
 id="flowPara3568"
 style="stroke-linecap:butt;stroke-linejoin:round">Ultra-low onset O<flowSpan
 style="font-size:64.99999762%;baseline-shift:sub;stroke-linecap:butt;stroke-linejoin:round"
 id="flowSpan3574">2</flowSpan>?</flowPara></flowRoot><path
 style="fill:none;stroke:#000000;stroke-width:0.75px;stroke-linecap:butt;stroke-linejoin:miter;stroke-opacity:1"
 d="m 224.78421,110.1207 22.88222,55.85955"
 id="path3576"
 inkscape:connector-curvature="0" />
</svg>
