<?xml version="1.0" encoding="UTF-8" standalone="no"?>
<!-- Created with matplotlib (http://matplotlib.org/) -->

<svg
 xmlns:dc="http://purl.org/dc/elements/1.1/"
 xmlns:cc="http://creativecommons.org/ns#"
 xmlns:rdf="http://www.w3.org/1999/02/22-rdf-syntax-ns#"
 xmlns:svg="http://www.w3.org/2000/svg"
 xmlns="http://www.w3.org/2000/svg"
 xmlns:xlink="http://www.w3.org/1999/xlink"
 xmlns:sodipodi="http://sodipodi.sourceforge.net/DTD/sodipodi-0.dtd"
 xmlns:inkscape="http://www.inkscape.org/namespaces/inkscape"
 height="345pt"
 version="1.1"
 viewBox="0 0 460 345"
 width="460pt"
 id="svg17310"
 sodipodi:docname="Ru_TOF_zoomout.svg"
 inkscape:version="0.92.4 (unknown)">
<metadata
 id="metadata17314">
<rdf:RDF>
<cc:Work
 rdf:about="">
<dc:format>image/svg+xml</dc:format>
<dc:type
 rdf:resource="http://purl.org/dc/dcmitype/StillImage" />
<dc:title></dc:title>
</cc:Work>
</rdf:RDF>
</metadata>
<sodipodi:namedview
 pagecolor="#ffffff"
 bordercolor="#666666"
 borderopacity="1"
 objecttolerance="10"
 gridtolerance="10"
 guidetolerance="10"
 inkscape:pageopacity="0"
 inkscape:pageshadow="2"
 inkscape:window-width="1173"
 inkscape:window-height="837"
 id="namedview17312"
 showgrid="false"
 inkscape:zoom="1.026087"
 inkscape:cx="311.77981"
 inkscape:cy="234.43408"
 inkscape:window-x="719"
 inkscape:window-y="75"
 inkscape:window-maximized="0"
 inkscape:current-layer="svg17310" />
<defs
 id="defs16707">
<marker
 inkscape:isstock="true"
 style="overflow:visible;"
 id="marker19293"
 refX="0.0"
 refY="0.0"
 orient="auto"
 inkscape:stockid="Arrow1Mend">
<path
 transform="scale(0.4) rotate(180) translate(10,0)"
 style="fill-rule:evenodd;stroke:#c70000;stroke-width:1pt;stroke-opacity:1;fill:#c70000;fill-opacity:1"
 d="M 0.0,0.0 L 5.0,-5.0 L -12.5,0.0 L 5.0,5.0 L 0.0,0.0 z "
 id="path19291" />
</marker>
<marker
 inkscape:stockid="Arrow1Mend"
 orient="auto"
 refY="0.0"
 refX="0.0"
 id="Arrow1Mend"
 style="overflow:visible;"
 inkscape:isstock="true"
 inkscape:collect="always">
<path
 id="path18976"
 d="M 0.0,0.0 L 5.0,-5.0 L -12.5,0.0 L 5.0,5.0 L 0.0,0.0 z "
 style="fill-rule:evenodd;stroke:#004a00;stroke-width:1pt;stroke-opacity:1;fill:#004a00;fill-opacity:1"
 transform="scale(0.4) rotate(180) translate(10,0)" />
</marker>
<style
 type="text/css"
 id="style16705">
*{stroke-linecap:butt;stroke-linejoin:round;}
  </style>
</defs>
<g
 id="figure_1">
<g
 id="patch_1">
<path
 d="M 0 345.6  L 460.8 345.6  L 460.8 0  L 0 0  z "
 style="fill:#ffffff;"
 id="path16709" />
</g>
<g
 id="axes_1">
<g
 id="patch_2">
<path
 d="M 78.373364 296.44  L 447.48 296.44  L 447.48 13.32  L 78.373364 13.32  z "
 style="fill:#ffffff;"
 id="path16712" />
</g>
<g
 id="matplotlib.axis_1">
<g
 id="xtick_1">
<g
 id="line2d_1">
<defs
 id="defs16716">
<path
 d="M 0 0  L 0 3.5  "
 id="m7ae741e3e8"
 style="stroke:#000000;stroke-width:0.8;" />
</defs>
<g
 id="g16720">
<use
 style="stroke:#000000;stroke-width:0.8;"
 x="78.373364"
 xlink:href="#m7ae741e3e8"
 y="296.44"
 id="use16718" />
</g>
</g>
<g
 id="text_1">
<!-- 0.9 -->
<defs
 id="defs16726">
<path
 d="M 31.78125 66.40625  Q 24.171875 66.40625 20.328125 58.90625  Q 16.5 51.421875 16.5 36.375  Q 16.5 21.390625 20.328125 13.890625  Q 24.171875 6.390625 31.78125 6.390625  Q 39.453125 6.390625 43.28125 13.890625  Q 47.125 21.390625 47.125 36.375  Q 47.125 51.421875 43.28125 58.90625  Q 39.453125 66.40625 31.78125 66.40625  M 31.78125 74.21875  Q 44.046875 74.21875 50.515625 64.515625  Q 56.984375 54.828125 56.984375 36.375  Q 56.984375 17.96875 50.515625 8.265625  Q 44.046875 -1.421875 31.78125 -1.421875  Q 19.53125 -1.421875 13.0625 8.265625  Q 6.59375 17.96875 6.59375 36.375  Q 6.59375 54.828125 13.0625 64.515625  Q 19.53125 74.21875 31.78125 74.21875  "
 id="DejaVuSans-30" />
<path
 d="M 10.6875 12.40625  L 21 12.40625  L 21 0  L 10.6875 0  z "
 id="DejaVuSans-2e" />
<path
 d="M 10.984375 1.515625  L 10.984375 10.5  Q 14.703125 8.734375 18.5 7.8125  Q 22.3125 6.890625 25.984375 6.890625  Q 35.75 6.890625 40.890625 13.453125  Q 46.046875 20.015625 46.78125 33.40625  Q 43.953125 29.203125 39.59375 26.953125  Q 35.25 24.703125 29.984375 24.703125  Q 19.046875 24.703125 12.671875 31.3125  Q 6.296875 37.9375 6.296875 49.421875  Q 6.296875 60.640625 12.9375 67.421875  Q 19.578125 74.21875 30.609375 74.21875  Q 43.265625 74.21875 49.921875 64.515625  Q 56.59375 54.828125 56.59375 36.375  Q 56.59375 19.140625 48.40625 8.859375  Q 40.234375 -1.421875 26.421875 -1.421875  Q 22.703125 -1.421875 18.890625 -0.6875  Q 15.09375 0.046875 10.984375 1.515625  M 30.609375 32.421875  Q 37.25 32.421875 41.125 36.953125  Q 45.015625 41.5 45.015625 49.421875  Q 45.015625 57.28125 41.125 61.84375  Q 37.25 66.40625 30.609375 66.40625  Q 23.96875 66.40625 20.09375 61.84375  Q 16.21875 57.28125 16.21875 49.421875  Q 16.21875 41.5 20.09375 36.953125  Q 23.96875 32.421875 30.609375 32.421875  "
 id="DejaVuSans-39" />
</defs>
<g
 transform="translate(67.241176 314.077812)scale(0.14 -0.14)"
 id="g16734">
<use
 xlink:href="#DejaVuSans-30"
 id="use16728" />
<use
 x="63.623047"
 xlink:href="#DejaVuSans-2e"
 id="use16730" />
<use
 x="95.410156"
 xlink:href="#DejaVuSans-39"
 id="use16732" />
</g>
</g>
</g>
<g
 id="xtick_2">
<g
 id="line2d_2">
<g
 id="g16740">
<use
 style="stroke:#000000;stroke-width:0.8;"
 x="135.159"
 xlink:href="#m7ae741e3e8"
 y="296.44"
 id="use16738" />
</g>
</g>
<g
 id="text_2">
<!-- 1.0 -->
<defs
 id="defs16744">
<path
 d="M 12.40625 8.296875  L 28.515625 8.296875  L 28.515625 63.921875  L 10.984375 60.40625  L 10.984375 69.390625  L 28.421875 72.90625  L 38.28125 72.90625  L 38.28125 8.296875  L 54.390625 8.296875  L 54.390625 0  L 12.40625 0  z "
 id="DejaVuSans-31" />
</defs>
<g
 transform="translate(124.026813 314.077812)scale(0.14 -0.14)"
 id="g16752">
<use
 xlink:href="#DejaVuSans-31"
 id="use16746" />
<use
 x="63.623047"
 xlink:href="#DejaVuSans-2e"
 id="use16748" />
<use
 x="95.410156"
 xlink:href="#DejaVuSans-30"
 id="use16750" />
</g>
</g>
</g>
<g
 id="xtick_3">
<g
 id="line2d_3">
<g
 id="g16758">
<use
 style="stroke:#000000;stroke-width:0.8;"
 x="191.944636"
 xlink:href="#m7ae741e3e8"
 y="296.44"
 id="use16756" />
</g>
</g>
<g
 id="text_3">
<!-- 1.1 -->
<g
 transform="translate(180.812449 314.077812)scale(0.14 -0.14)"
 id="g16767">
<use
 xlink:href="#DejaVuSans-31"
 id="use16761" />
<use
 x="63.623047"
 xlink:href="#DejaVuSans-2e"
 id="use16763" />
<use
 x="95.410156"
 xlink:href="#DejaVuSans-31"
 id="use16765" />
</g>
</g>
</g>
<g
 id="xtick_4">
<g
 id="line2d_4">
<g
 id="g16773">
<use
 style="stroke:#000000;stroke-width:0.8;"
 x="248.730273"
 xlink:href="#m7ae741e3e8"
 y="296.44"
 id="use16771" />
</g>
</g>
<g
 id="text_4">
<!-- 1.2 -->
<defs
 id="defs16777">
<path
 d="M 19.1875 8.296875  L 53.609375 8.296875  L 53.609375 0  L 7.328125 0  L 7.328125 8.296875  Q 12.9375 14.109375 22.625 23.890625  Q 32.328125 33.6875 34.8125 36.53125  Q 39.546875 41.84375 41.421875 45.53125  Q 43.3125 49.21875 43.3125 52.78125  Q 43.3125 58.59375 39.234375 62.25  Q 35.15625 65.921875 28.609375 65.921875  Q 23.96875 65.921875 18.8125 64.3125  Q 13.671875 62.703125 7.8125 59.421875  L 7.8125 69.390625  Q 13.765625 71.78125 18.9375 73  Q 24.125 74.21875 28.421875 74.21875  Q 39.75 74.21875 46.484375 68.546875  Q 53.21875 62.890625 53.21875 53.421875  Q 53.21875 48.921875 51.53125 44.890625  Q 49.859375 40.875 45.40625 35.40625  Q 44.1875 33.984375 37.640625 27.21875  Q 31.109375 20.453125 19.1875 8.296875  "
 id="DejaVuSans-32" />
</defs>
<g
 transform="translate(237.598085 314.077812)scale(0.14 -0.14)"
 id="g16785">
<use
 xlink:href="#DejaVuSans-31"
 id="use16779" />
<use
 x="63.623047"
 xlink:href="#DejaVuSans-2e"
 id="use16781" />
<use
 x="95.410156"
 xlink:href="#DejaVuSans-32"
 id="use16783" />
</g>
</g>
</g>
<g
 id="xtick_5">
<g
 id="line2d_5">
<g
 id="g16791">
<use
 style="stroke:#000000;stroke-width:0.8;"
 x="305.515909"
 xlink:href="#m7ae741e3e8"
 y="296.44"
 id="use16789" />
</g>
</g>
<g
 id="text_5">
<!-- 1.3 -->
<defs
 id="defs16795">
<path
 d="M 40.578125 39.3125  Q 47.65625 37.796875 51.625 33  Q 55.609375 28.21875 55.609375 21.1875  Q 55.609375 10.40625 48.1875 4.484375  Q 40.765625 -1.421875 27.09375 -1.421875  Q 22.515625 -1.421875 17.65625 -0.515625  Q 12.796875 0.390625 7.625 2.203125  L 7.625 11.71875  Q 11.71875 9.328125 16.59375 8.109375  Q 21.484375 6.890625 26.8125 6.890625  Q 36.078125 6.890625 40.9375 10.546875  Q 45.796875 14.203125 45.796875 21.1875  Q 45.796875 27.640625 41.28125 31.265625  Q 36.765625 34.90625 28.71875 34.90625  L 20.21875 34.90625  L 20.21875 43.015625  L 29.109375 43.015625  Q 36.375 43.015625 40.234375 45.921875  Q 44.09375 48.828125 44.09375 54.296875  Q 44.09375 59.90625 40.109375 62.90625  Q 36.140625 65.921875 28.71875 65.921875  Q 24.65625 65.921875 20.015625 65.03125  Q 15.375 64.15625 9.8125 62.3125  L 9.8125 71.09375  Q 15.4375 72.65625 20.34375 73.4375  Q 25.25 74.21875 29.59375 74.21875  Q 40.828125 74.21875 47.359375 69.109375  Q 53.90625 64.015625 53.90625 55.328125  Q 53.90625 49.265625 50.4375 45.09375  Q 46.96875 40.921875 40.578125 39.3125  "
 id="DejaVuSans-33" />
</defs>
<g
 transform="translate(294.383722 314.077812)scale(0.14 -0.14)"
 id="g16803">
<use
 xlink:href="#DejaVuSans-31"
 id="use16797" />
<use
 x="63.623047"
 xlink:href="#DejaVuSans-2e"
 id="use16799" />
<use
 x="95.410156"
 xlink:href="#DejaVuSans-33"
 id="use16801" />
</g>
</g>
</g>
<g
 id="xtick_6">
<g
 id="line2d_6">
<g
 id="g16809">
<use
 style="stroke:#000000;stroke-width:0.8;"
 x="362.301545"
 xlink:href="#m7ae741e3e8"
 y="296.44"
 id="use16807" />
</g>
</g>
<g
 id="text_6">
<!-- 1.4 -->
<defs
 id="defs16813">
<path
 d="M 37.796875 64.3125  L 12.890625 25.390625  L 37.796875 25.390625  z M 35.203125 72.90625  L 47.609375 72.90625  L 47.609375 25.390625  L 58.015625 25.390625  L 58.015625 17.1875  L 47.609375 17.1875  L 47.609375 0  L 37.796875 0  L 37.796875 17.1875  L 4.890625 17.1875  L 4.890625 26.703125  z "
 id="DejaVuSans-34" />
</defs>
<g
 transform="translate(351.169358 314.077812)scale(0.14 -0.14)"
 id="g16821">
<use
 xlink:href="#DejaVuSans-31"
 id="use16815" />
<use
 x="63.623047"
 xlink:href="#DejaVuSans-2e"
 id="use16817" />
<use
 x="95.410156"
 xlink:href="#DejaVuSans-34"
 id="use16819" />
</g>
</g>
</g>
<g
 id="xtick_7">
<g
 id="line2d_7">
<g
 id="g16827">
<use
 style="stroke:#000000;stroke-width:0.8;"
 x="419.087182"
 xlink:href="#m7ae741e3e8"
 y="296.44"
 id="use16825" />
</g>
</g>
<g
 id="text_7">
<!-- 1.5 -->
<defs
 id="defs16831">
<path
 d="M 10.796875 72.90625  L 49.515625 72.90625  L 49.515625 64.59375  L 19.828125 64.59375  L 19.828125 46.734375  Q 21.96875 47.46875 24.109375 47.828125  Q 26.265625 48.1875 28.421875 48.1875  Q 40.625 48.1875 47.75 41.5  Q 54.890625 34.8125 54.890625 23.390625  Q 54.890625 11.625 47.5625 5.09375  Q 40.234375 -1.421875 26.90625 -1.421875  Q 22.3125 -1.421875 17.546875 -0.640625  Q 12.796875 0.140625 7.71875 1.703125  L 7.71875 11.625  Q 12.109375 9.234375 16.796875 8.0625  Q 21.484375 6.890625 26.703125 6.890625  Q 35.15625 6.890625 40.078125 11.328125  Q 45.015625 15.765625 45.015625 23.390625  Q 45.015625 31 40.078125 35.4375  Q 35.15625 39.890625 26.703125 39.890625  Q 22.75 39.890625 18.8125 39.015625  Q 14.890625 38.140625 10.796875 36.28125  z "
 id="DejaVuSans-35" />
</defs>
<g
 transform="translate(407.954994 314.077812)scale(0.14 -0.14)"
 id="g16839">
<use
 xlink:href="#DejaVuSans-31"
 id="use16833" />
<use
 x="63.623047"
 xlink:href="#DejaVuSans-2e"
 id="use16835" />
<use
 x="95.410156"
 xlink:href="#DejaVuSans-35"
 id="use16837" />
</g>
</g>
</g>
<g
 id="text_8">
<!-- U vs RHE / [V] -->
<defs
 id="defs16854">
<path
 d="M 8.6875 72.90625  L 18.609375 72.90625  L 18.609375 28.609375  Q 18.609375 16.890625 22.84375 11.734375  Q 27.09375 6.59375 36.625 6.59375  Q 46.09375 6.59375 50.34375 11.734375  Q 54.59375 16.890625 54.59375 28.609375  L 54.59375 72.90625  L 64.5 72.90625  L 64.5 27.390625  Q 64.5 13.140625 57.4375 5.859375  Q 50.390625 -1.421875 36.625 -1.421875  Q 22.796875 -1.421875 15.734375 5.859375  Q 8.6875 13.140625 8.6875 27.390625  z "
 id="DejaVuSans-55" />
<path
 id="DejaVuSans-20" />
<path
 d="M 2.984375 54.6875  L 12.5 54.6875  L 29.59375 8.796875  L 46.6875 54.6875  L 56.203125 54.6875  L 35.6875 0  L 23.484375 0  z "
 id="DejaVuSans-76" />
<path
 d="M 44.28125 53.078125  L 44.28125 44.578125  Q 40.484375 46.53125 36.375 47.5  Q 32.28125 48.484375 27.875 48.484375  Q 21.1875 48.484375 17.84375 46.4375  Q 14.5 44.390625 14.5 40.28125  Q 14.5 37.15625 16.890625 35.375  Q 19.28125 33.59375 26.515625 31.984375  L 29.59375 31.296875  Q 39.15625 29.25 43.1875 25.515625  Q 47.21875 21.78125 47.21875 15.09375  Q 47.21875 7.46875 41.1875 3.015625  Q 35.15625 -1.421875 24.609375 -1.421875  Q 20.21875 -1.421875 15.453125 -0.5625  Q 10.6875 0.296875 5.421875 2  L 5.421875 11.28125  Q 10.40625 8.6875 15.234375 7.390625  Q 20.0625 6.109375 24.8125 6.109375  Q 31.15625 6.109375 34.5625 8.28125  Q 37.984375 10.453125 37.984375 14.40625  Q 37.984375 18.0625 35.515625 20.015625  Q 33.0625 21.96875 24.703125 23.78125  L 21.578125 24.515625  Q 13.234375 26.265625 9.515625 29.90625  Q 5.8125 33.546875 5.8125 39.890625  Q 5.8125 47.609375 11.28125 51.796875  Q 16.75 56 26.8125 56  Q 31.78125 56 36.171875 55.265625  Q 40.578125 54.546875 44.28125 53.078125  "
 id="DejaVuSans-73" />
<path
 d="M 44.390625 34.1875  Q 47.5625 33.109375 50.5625 29.59375  Q 53.5625 26.078125 56.59375 19.921875  L 66.609375 0  L 56 0  L 46.6875 18.703125  Q 43.0625 26.03125 39.671875 28.421875  Q 36.28125 30.8125 30.421875 30.8125  L 19.671875 30.8125  L 19.671875 0  L 9.8125 0  L 9.8125 72.90625  L 32.078125 72.90625  Q 44.578125 72.90625 50.734375 67.671875  Q 56.890625 62.453125 56.890625 51.90625  Q 56.890625 45.015625 53.6875 40.46875  Q 50.484375 35.9375 44.390625 34.1875  M 19.671875 64.796875  L 19.671875 38.921875  L 32.078125 38.921875  Q 39.203125 38.921875 42.84375 42.21875  Q 46.484375 45.515625 46.484375 51.90625  Q 46.484375 58.296875 42.84375 61.546875  Q 39.203125 64.796875 32.078125 64.796875  z "
 id="DejaVuSans-52" />
<path
 d="M 9.8125 72.90625  L 19.671875 72.90625  L 19.671875 43.015625  L 55.515625 43.015625  L 55.515625 72.90625  L 65.375 72.90625  L 65.375 0  L 55.515625 0  L 55.515625 34.71875  L 19.671875 34.71875  L 19.671875 0  L 9.8125 0  z "
 id="DejaVuSans-48" />
<path
 d="M 9.8125 72.90625  L 55.90625 72.90625  L 55.90625 64.59375  L 19.671875 64.59375  L 19.671875 43.015625  L 54.390625 43.015625  L 54.390625 34.71875  L 19.671875 34.71875  L 19.671875 8.296875  L 56.78125 8.296875  L 56.78125 0  L 9.8125 0  z "
 id="DejaVuSans-45" />
<path
 d="M 25.390625 72.90625  L 33.6875 72.90625  L 8.296875 -9.28125  L 0 -9.28125  z "
 id="DejaVuSans-2f" />
<path
 d="M 8.59375 75.984375  L 29.296875 75.984375  L 29.296875 69  L 17.578125 69  L 17.578125 -6.203125  L 29.296875 -6.203125  L 29.296875 -13.1875  L 8.59375 -13.1875  z "
 id="DejaVuSans-5b" />
<path
 d="M 28.609375 0  L 0.78125 72.90625  L 11.078125 72.90625  L 34.1875 11.53125  L 57.328125 72.90625  L 67.578125 72.90625  L 39.796875 0  z "
 id="DejaVuSans-56" />
<path
 d="M 30.421875 75.984375  L 30.421875 -13.1875  L 9.71875 -13.1875  L 9.71875 -6.203125  L 21.390625 -6.203125  L 21.390625 69  L 9.71875 69  L 9.71875 75.984375  z "
 id="DejaVuSans-5d" />
</defs>
<g
 transform="translate(213.955119 331.627187)scale(0.14 -0.14)"
 id="g16884">
<use
 xlink:href="#DejaVuSans-55"
 id="use16856" />
<use
 x="73.193359"
 xlink:href="#DejaVuSans-20"
 id="use16858" />
<use
 x="104.980469"
 xlink:href="#DejaVuSans-76"
 id="use16860" />
<use
 x="164.160156"
 xlink:href="#DejaVuSans-73"
 id="use16862" />
<use
 x="216.259766"
 xlink:href="#DejaVuSans-20"
 id="use16864" />
<use
 x="248.046875"
 xlink:href="#DejaVuSans-52"
 id="use16866" />
<use
 x="317.529297"
 xlink:href="#DejaVuSans-48"
 id="use16868" />
<use
 x="392.724609"
 xlink:href="#DejaVuSans-45"
 id="use16870" />
<use
 x="455.908203"
 xlink:href="#DejaVuSans-20"
 id="use16872" />
<use
 x="487.695312"
 xlink:href="#DejaVuSans-2f"
 id="use16874" />
<use
 x="521.386719"
 xlink:href="#DejaVuSans-20"
 id="use16876" />
<use
 x="553.173828"
 xlink:href="#DejaVuSans-5b"
 id="use16878" />
<use
 x="592.1875"
 xlink:href="#DejaVuSans-56"
 id="use16880" />
<use
 x="660.595703"
 xlink:href="#DejaVuSans-5d"
 id="use16882" />
</g>
</g>
</g>
<g
 id="matplotlib.axis_2">
<g
 id="ytick_1">
<g
 id="line2d_8">
<defs
 id="defs16889">
<path
 d="M 0 0  L -3.5 0  "
 id="maaa9ccf38b"
 style="stroke:#000000;stroke-width:0.8;" />
</defs>
<g
 id="g16893">
<use
 style="stroke:#000000;stroke-width:0.8;"
 x="78.373364"
 xlink:href="#maaa9ccf38b"
 y="272.486809"
 id="use16891" />
</g>
</g>
<g
 id="text_9">
<!-- ${10^{-15}}$ -->
<defs
 id="defs16897">
<path
 d="M 10.59375 35.5  L 73.1875 35.5  L 73.1875 27.203125  L 10.59375 27.203125  z "
 id="DejaVuSans-2212" />
</defs>
<g
 transform="translate(32.313364 277.805716)scale(0.14 -0.14)"
 id="g16909">
<use
 transform="translate(0 0.684375)"
 xlink:href="#DejaVuSans-31"
 id="use16899" />
<use
 transform="translate(63.623047 0.684375)"
 xlink:href="#DejaVuSans-30"
 id="use16901" />
<use
 transform="translate(128.203125 38.965625)scale(0.7)"
 xlink:href="#DejaVuSans-2212"
 id="use16903" />
<use
 transform="translate(186.855469 38.965625)scale(0.7)"
 xlink:href="#DejaVuSans-31"
 id="use16905" />
<use
 transform="translate(231.391602 38.965625)scale(0.7)"
 xlink:href="#DejaVuSans-35"
 id="use16907" />
</g>
</g>
</g>
<g
 id="ytick_2">
<g
 id="line2d_9">
<g
 id="g16915">
<use
 style="stroke:#000000;stroke-width:0.8;"
 x="78.373364"
 xlink:href="#maaa9ccf38b"
 y="241.029032"
 id="use16913" />
</g>
</g>
<g
 id="text_10">
<!-- ${10^{-13}}$ -->
<g
 transform="translate(32.313364 246.347938)scale(0.14 -0.14)"
 id="g16928">
<use
 transform="translate(0 0.765625)"
 xlink:href="#DejaVuSans-31"
 id="use16918" />
<use
 transform="translate(63.623047 0.765625)"
 xlink:href="#DejaVuSans-30"
 id="use16920" />
<use
 transform="translate(128.203125 39.046875)scale(0.7)"
 xlink:href="#DejaVuSans-2212"
 id="use16922" />
<use
 transform="translate(186.855469 39.046875)scale(0.7)"
 xlink:href="#DejaVuSans-31"
 id="use16924" />
<use
 transform="translate(231.391602 39.046875)scale(0.7)"
 xlink:href="#DejaVuSans-33"
 id="use16926" />
</g>
</g>
</g>
<g
 id="ytick_3">
<g
 id="line2d_10">
<g
 id="g16934">
<use
 style="stroke:#000000;stroke-width:0.8;"
 x="78.373364"
 xlink:href="#maaa9ccf38b"
 y="209.571254"
 id="use16932" />
</g>
</g>
<g
 id="text_11">
<!-- ${10^{-11}}$ -->
<g
 transform="translate(32.313364 214.89016)scale(0.14 -0.14)"
 id="g16947">
<use
 transform="translate(0 0.684375)"
 xlink:href="#DejaVuSans-31"
 id="use16937" />
<use
 transform="translate(63.623047 0.684375)"
 xlink:href="#DejaVuSans-30"
 id="use16939" />
<use
 transform="translate(128.203125 38.965625)scale(0.7)"
 xlink:href="#DejaVuSans-2212"
 id="use16941" />
<use
 transform="translate(186.855469 38.965625)scale(0.7)"
 xlink:href="#DejaVuSans-31"
 id="use16943" />
<use
 transform="translate(231.391602 38.965625)scale(0.7)"
 xlink:href="#DejaVuSans-31"
 id="use16945" />
</g>
</g>
</g>
<g
 id="ytick_4">
<g
 id="line2d_11">
<g
 id="g16953">
<use
 style="stroke:#000000;stroke-width:0.8;"
 x="78.373364"
 xlink:href="#maaa9ccf38b"
 y="178.113476"
 id="use16951" />
</g>
</g>
<g
 id="text_12">
<!-- ${10^{-9}}$ -->
<g
 transform="translate(38.473364 183.432382)scale(0.14 -0.14)"
 id="g16964">
<use
 transform="translate(0 0.765625)"
 xlink:href="#DejaVuSans-31"
 id="use16956" />
<use
 transform="translate(63.623047 0.765625)"
 xlink:href="#DejaVuSans-30"
 id="use16958" />
<use
 transform="translate(128.203125 39.046875)scale(0.7)"
 xlink:href="#DejaVuSans-2212"
 id="use16960" />
<use
 transform="translate(186.855469 39.046875)scale(0.7)"
 xlink:href="#DejaVuSans-39"
 id="use16962" />
</g>
</g>
</g>
<g
 id="ytick_5">
<g
 id="line2d_12">
<g
 id="g16970">
<use
 style="stroke:#000000;stroke-width:0.8;"
 x="78.373364"
 xlink:href="#maaa9ccf38b"
 y="146.655698"
 id="use16968" />
</g>
</g>
<g
 id="text_13">
<!-- ${10^{-7}}$ -->
<defs
 id="defs16974">
<path
 d="M 8.203125 72.90625  L 55.078125 72.90625  L 55.078125 68.703125  L 28.609375 0  L 18.3125 0  L 43.21875 64.59375  L 8.203125 64.59375  z "
 id="DejaVuSans-37" />
</defs>
<g
 transform="translate(38.473364 151.974605)scale(0.14 -0.14)"
 id="g16984">
<use
 transform="translate(0 0.684375)"
 xlink:href="#DejaVuSans-31"
 id="use16976" />
<use
 transform="translate(63.623047 0.684375)"
 xlink:href="#DejaVuSans-30"
 id="use16978" />
<use
 transform="translate(128.203125 38.965625)scale(0.7)"
 xlink:href="#DejaVuSans-2212"
 id="use16980" />
<use
 transform="translate(186.855469 38.965625)scale(0.7)"
 xlink:href="#DejaVuSans-37"
 id="use16982" />
</g>
</g>
</g>
<g
 id="ytick_6">
<g
 id="line2d_13">
<g
 id="g16990">
<use
 style="stroke:#000000;stroke-width:0.8;"
 x="78.373364"
 xlink:href="#maaa9ccf38b"
 y="115.197921"
 id="use16988" />
</g>
</g>
<g
 id="text_14">
<!-- ${10^{-5}}$ -->
<g
 transform="translate(38.473364 120.516827)scale(0.14 -0.14)"
 id="g17001">
<use
 transform="translate(0 0.684375)"
 xlink:href="#DejaVuSans-31"
 id="use16993" />
<use
 transform="translate(63.623047 0.684375)"
 xlink:href="#DejaVuSans-30"
 id="use16995" />
<use
 transform="translate(128.203125 38.965625)scale(0.7)"
 xlink:href="#DejaVuSans-2212"
 id="use16997" />
<use
 transform="translate(186.855469 38.965625)scale(0.7)"
 xlink:href="#DejaVuSans-35"
 id="use16999" />
</g>
</g>
</g>
<g
 id="ytick_7">
<g
 id="line2d_14">
<g
 id="g17007">
<use
 style="stroke:#000000;stroke-width:0.8;"
 x="78.373364"
 xlink:href="#maaa9ccf38b"
 y="83.740143"
 id="use17005" />
</g>
</g>
<g
 id="text_15">
<!-- ${10^{-3}}$ -->
<g
 transform="translate(38.473364 89.059049)scale(0.14 -0.14)"
 id="g17018">
<use
 transform="translate(0 0.765625)"
 xlink:href="#DejaVuSans-31"
 id="use17010" />
<use
 transform="translate(63.623047 0.765625)"
 xlink:href="#DejaVuSans-30"
 id="use17012" />
<use
 transform="translate(128.203125 39.046875)scale(0.7)"
 xlink:href="#DejaVuSans-2212"
 id="use17014" />
<use
 transform="translate(186.855469 39.046875)scale(0.7)"
 xlink:href="#DejaVuSans-33"
 id="use17016" />
</g>
</g>
</g>
<g
 id="ytick_8">
<g
 id="line2d_15">
<g
 id="g17024">
<use
 style="stroke:#000000;stroke-width:0.8;"
 x="78.373364"
 xlink:href="#maaa9ccf38b"
 y="52.282365"
 id="use17022" />
</g>
</g>
<g
 id="text_16">
<!-- ${10^{-1}}$ -->
<g
 transform="translate(38.473364 57.601271)scale(0.14 -0.14)"
 id="g17035">
<use
 transform="translate(0 0.684375)"
 xlink:href="#DejaVuSans-31"
 id="use17027" />
<use
 transform="translate(63.623047 0.684375)"
 xlink:href="#DejaVuSans-30"
 id="use17029" />
<use
 transform="translate(128.203125 38.965625)scale(0.7)"
 xlink:href="#DejaVuSans-2212"
 id="use17031" />
<use
 transform="translate(186.855469 38.965625)scale(0.7)"
 xlink:href="#DejaVuSans-31"
 id="use17033" />
</g>
</g>
</g>
<g
 id="ytick_9">
<g
 id="line2d_16">
<g
 id="g17041">
<use
 style="stroke:#000000;stroke-width:0.8;"
 x="78.373364"
 xlink:href="#maaa9ccf38b"
 y="20.824587"
 id="use17039" />
</g>
</g>
<g
 id="text_17">
<!-- ${10^{1}}$ -->
<g
 transform="translate(46.733364 26.143493)scale(0.14 -0.14)"
 id="g17050">
<use
 transform="translate(0 0.684375)"
 xlink:href="#DejaVuSans-31"
 id="use17044" />
<use
 transform="translate(63.623047 0.684375)"
 xlink:href="#DejaVuSans-30"
 id="use17046" />
<use
 transform="translate(128.203125 38.965625)scale(0.7)"
 xlink:href="#DejaVuSans-31"
 id="use17048" />
</g>
</g>
</g>
<g
 id="text_18">
<!-- TOF / s$^{-1}$ -->
<defs
 id="defs17057">
<path
 d="M -0.296875 72.90625  L 61.375 72.90625  L 61.375 64.59375  L 35.5 64.59375  L 35.5 0  L 25.59375 0  L 25.59375 64.59375  L -0.296875 64.59375  z "
 id="DejaVuSans-54" />
<path
 d="M 39.40625 66.21875  Q 28.65625 66.21875 22.328125 58.203125  Q 16.015625 50.203125 16.015625 36.375  Q 16.015625 22.609375 22.328125 14.59375  Q 28.65625 6.59375 39.40625 6.59375  Q 50.140625 6.59375 56.421875 14.59375  Q 62.703125 22.609375 62.703125 36.375  Q 62.703125 50.203125 56.421875 58.203125  Q 50.140625 66.21875 39.40625 66.21875  M 39.40625 74.21875  Q 54.734375 74.21875 63.90625 63.9375  Q 73.09375 53.65625 73.09375 36.375  Q 73.09375 19.140625 63.90625 8.859375  Q 54.734375 -1.421875 39.40625 -1.421875  Q 24.03125 -1.421875 14.8125 8.828125  Q 5.609375 19.09375 5.609375 36.375  Q 5.609375 53.65625 14.8125 63.9375  Q 24.03125 74.21875 39.40625 74.21875  "
 id="DejaVuSans-4f" />
<path
 d="M 9.8125 72.90625  L 51.703125 72.90625  L 51.703125 64.59375  L 19.671875 64.59375  L 19.671875 43.109375  L 48.578125 43.109375  L 48.578125 34.8125  L 19.671875 34.8125  L 19.671875 0  L 9.8125 0  z "
 id="DejaVuSans-46" />
</defs>
<g
 transform="translate(25.401801 186.66)rotate(-90)scale(0.14 -0.14)"
 id="g17077">
<use
 transform="translate(0 0.684375)"
 xlink:href="#DejaVuSans-54"
 id="use17059" />
<use
 transform="translate(61.083984 0.684375)"
 xlink:href="#DejaVuSans-4f"
 id="use17061" />
<use
 transform="translate(139.794922 0.684375)"
 xlink:href="#DejaVuSans-46"
 id="use17063" />
<use
 transform="translate(197.314453 0.684375)"
 xlink:href="#DejaVuSans-20"
 id="use17065" />
<use
 transform="translate(229.101562 0.684375)"
 xlink:href="#DejaVuSans-2f"
 id="use17067" />
<use
 transform="translate(262.792969 0.684375)"
 xlink:href="#DejaVuSans-20"
 id="use17069" />
<use
 transform="translate(294.580078 0.684375)"
 xlink:href="#DejaVuSans-73"
 id="use17071" />
<use
 transform="translate(347.636719 38.965625)scale(0.7)"
 xlink:href="#DejaVuSans-2212"
 id="use17073" />
<use
 transform="translate(406.289062 38.965625)scale(0.7)"
 xlink:href="#DejaVuSans-31"
 id="use17075" />
</g>
</g>
</g>
<g
 id="line2d_17">
<path
 clip-path="url(#pdfb2df0c29)"
 d="M 331.021796 91.892711  L 335.922356 85.523246  L 340.678882 80.090509  L 345.646031 75.08422  L 350.155824 70.816973  L 354.987437 66.82304  L 364.247079 60.274743  L 368.635282 57.913698  "
 style="fill:none;stroke:#ff0000;stroke-linecap:square;stroke-width:1.5;"
 id="path17081" />
<defs
 id="defs17084">
<path
 d="M 0 3  C 0.795609 3 1.55874 2.683901 2.12132 2.12132  C 2.683901 1.55874 3 0.795609 3 0  C 3 -0.795609 2.683901 -1.55874 2.12132 -2.12132  C 1.55874 -2.683901 0.795609 -3 0 -3  C -0.795609 -3 -1.55874 -2.683901 -2.12132 -2.12132  C -2.683901 -1.55874 -3 -0.795609 -3 0  C -3 0.795609 -2.683901 1.55874 -2.12132 2.12132  C -1.55874 2.683901 -0.795609 3 0 3  z "
 id="m0a9ed06cb0"
 style="stroke:#ff0000;" />
</defs>
<g
 clip-path="url(#pdfb2df0c29)"
 id="g17102">
<use
 style="fill:#ff0000;stroke:#ff0000;"
 x="331.021796"
 xlink:href="#m0a9ed06cb0"
 y="91.892711"
 id="use17086" />
<use
 style="fill:#ff0000;stroke:#ff0000;"
 x="335.922356"
 xlink:href="#m0a9ed06cb0"
 y="85.523246"
 id="use17088" />
<use
 style="fill:#ff0000;stroke:#ff0000;"
 x="340.678882"
 xlink:href="#m0a9ed06cb0"
 y="80.090509"
 id="use17090" />
<use
 style="fill:#ff0000;stroke:#ff0000;"
 x="345.646031"
 xlink:href="#m0a9ed06cb0"
 y="75.08422"
 id="use17092" />
<use
 style="fill:#ff0000;stroke:#ff0000;"
 x="350.155824"
 xlink:href="#m0a9ed06cb0"
 y="70.816973"
 id="use17094" />
<use
 style="fill:#ff0000;stroke:#ff0000;"
 x="354.987437"
 xlink:href="#m0a9ed06cb0"
 y="66.82304"
 id="use17096" />
<use
 style="fill:#ff0000;stroke:#ff0000;"
 x="364.247079"
 xlink:href="#m0a9ed06cb0"
 y="60.274743"
 id="use17098" />
<use
 style="fill:#ff0000;stroke:#ff0000;"
 x="368.635282"
 xlink:href="#m0a9ed06cb0"
 y="57.913698"
 id="use17100" />
</g>
</g>
<g
 id="line2d_18">
<path
 clip-path="url(#pdfb2df0c29)"
 d="M 319.325825 116.549558  L 324.414444 105.477767  L 333.996996 94.321406  L 342.471968 82.982108  L 349.339471 74.191212  L 353.799546 66.381415  L 358.577472 58.846697  L 360.322229 57.096125  "
 style="fill:none;stroke:#000000;stroke-linecap:square;stroke-width:1.5;"
 id="path17105" />
<defs
 id="defs17108">
<path
 d="M -3 3  L 3 3  L 3 -3  L -3 -3  z "
 id="m0328e568e7"
 style="stroke:#000000;stroke-linejoin:miter;" />
</defs>
<g
 clip-path="url(#pdfb2df0c29)"
 id="g17126">
<use
 style="stroke:#000000;stroke-linejoin:miter;"
 x="319.325825"
 xlink:href="#m0328e568e7"
 y="116.549558"
 id="use17110" />
<use
 style="stroke:#000000;stroke-linejoin:miter;"
 x="324.414444"
 xlink:href="#m0328e568e7"
 y="105.477767"
 id="use17112" />
<use
 style="stroke:#000000;stroke-linejoin:miter;"
 x="333.996996"
 xlink:href="#m0328e568e7"
 y="94.321406"
 id="use17114" />
<use
 style="stroke:#000000;stroke-linejoin:miter;"
 x="342.471968"
 xlink:href="#m0328e568e7"
 y="82.982108"
 id="use17116" />
<use
 style="stroke:#000000;stroke-linejoin:miter;"
 x="349.339471"
 xlink:href="#m0328e568e7"
 y="74.191212"
 id="use17118" />
<use
 style="stroke:#000000;stroke-linejoin:miter;"
 x="353.799546"
 xlink:href="#m0328e568e7"
 y="66.381415"
 id="use17120" />
<use
 style="stroke:#000000;stroke-linejoin:miter;"
 x="358.577472"
 xlink:href="#m0328e568e7"
 y="58.846697"
 id="use17122" />
<use
 style="stroke:#000000;stroke-linejoin:miter;"
 x="360.322229"
 xlink:href="#m0328e568e7"
 y="57.096125"
 id="use17124" />
</g>
</g>
<g
 id="line2d_19">
<path
 clip-path="url(#pdfb2df0c29)"
 d="M 315.288195 115.807145  L 320.700517 113.126379  L 326.328544 101.280546  L 331.237369 95.18852  L 337.104839 88.886083  L 341.477743 83.477462  L 346.422776 78.152322  L 350.405977 73.819986  L 354.004051 70.100958  L 358.623431 64.857998  L 362.007888 61.371261  "
 style="fill:none;stroke:#0000ff;stroke-linecap:square;stroke-width:1.5;"
 id="path17129" />
<defs
 id="defs17132">
<path
 d="M -3 3  L 3 3  L 3 -3  L -3 -3  z "
 id="m470ddc8996"
 style="stroke:#0000ff;stroke-linejoin:miter;" />
</defs>
<g
 clip-path="url(#pdfb2df0c29)"
 id="g17156">
<use
 style="fill:#0000ff;stroke:#0000ff;stroke-linejoin:miter;"
 x="315.288195"
 xlink:href="#m470ddc8996"
 y="115.807145"
 id="use17134" />
<use
 style="fill:#0000ff;stroke:#0000ff;stroke-linejoin:miter;"
 x="320.700517"
 xlink:href="#m470ddc8996"
 y="113.126379"
 id="use17136" />
<use
 style="fill:#0000ff;stroke:#0000ff;stroke-linejoin:miter;"
 x="326.328544"
 xlink:href="#m470ddc8996"
 y="101.280546"
 id="use17138" />
<use
 style="fill:#0000ff;stroke:#0000ff;stroke-linejoin:miter;"
 x="331.237369"
 xlink:href="#m470ddc8996"
 y="95.18852"
 id="use17140" />
<use
 style="fill:#0000ff;stroke:#0000ff;stroke-linejoin:miter;"
 x="337.104839"
 xlink:href="#m470ddc8996"
 y="88.886083"
 id="use17142" />
<use
 style="fill:#0000ff;stroke:#0000ff;stroke-linejoin:miter;"
 x="341.477743"
 xlink:href="#m470ddc8996"
 y="83.477462"
 id="use17144" />
<use
 style="fill:#0000ff;stroke:#0000ff;stroke-linejoin:miter;"
 x="346.422776"
 xlink:href="#m470ddc8996"
 y="78.152322"
 id="use17146" />
<use
 style="fill:#0000ff;stroke:#0000ff;stroke-linejoin:miter;"
 x="350.405977"
 xlink:href="#m470ddc8996"
 y="73.819986"
 id="use17148" />
<use
 style="fill:#0000ff;stroke:#0000ff;stroke-linejoin:miter;"
 x="354.004051"
 xlink:href="#m470ddc8996"
 y="70.100958"
 id="use17150" />
<use
 style="fill:#0000ff;stroke:#0000ff;stroke-linejoin:miter;"
 x="358.623431"
 xlink:href="#m470ddc8996"
 y="64.857998"
 id="use17152" />
<use
 style="fill:#0000ff;stroke:#0000ff;stroke-linejoin:miter;"
 x="362.007888"
 xlink:href="#m470ddc8996"
 y="61.371261"
 id="use17154" />
</g>
</g>
<g
 id="line2d_20">
<path
 clip-path="url(#pdfb2df0c29)"
 d="M 319.352664 106.855271  L 324.364759 100.24125  L 334.251759 88.635508  L 343.495794 78.681783  L 350.981552 70.351308  L 358.753066 61.787894  L 366.184989 52.658403  L 368.472508 50.702267  "
 style="fill:none;stroke:#008000;stroke-linecap:square;stroke-width:1.5;"
 id="path17159" />
<defs
 id="defs17162">
<path
 d="M -3 3  L 3 3  L 3 -3  L -3 -3  z "
 id="m46201748b6"
 style="stroke:#008000;stroke-linejoin:miter;" />
</defs>
<g
 clip-path="url(#pdfb2df0c29)"
 id="g17180">
<use
 style="fill:#008000;stroke:#008000;stroke-linejoin:miter;"
 x="319.352664"
 xlink:href="#m46201748b6"
 y="106.855271"
 id="use17164" />
<use
 style="fill:#008000;stroke:#008000;stroke-linejoin:miter;"
 x="324.364759"
 xlink:href="#m46201748b6"
 y="100.24125"
 id="use17166" />
<use
 style="fill:#008000;stroke:#008000;stroke-linejoin:miter;"
 x="334.251759"
 xlink:href="#m46201748b6"
 y="88.635508"
 id="use17168" />
<use
 style="fill:#008000;stroke:#008000;stroke-linejoin:miter;"
 x="343.495794"
 xlink:href="#m46201748b6"
 y="78.681783"
 id="use17170" />
<use
 style="fill:#008000;stroke:#008000;stroke-linejoin:miter;"
 x="350.981552"
 xlink:href="#m46201748b6"
 y="70.351308"
 id="use17172" />
<use
 style="fill:#008000;stroke:#008000;stroke-linejoin:miter;"
 x="358.753066"
 xlink:href="#m46201748b6"
 y="61.787894"
 id="use17174" />
<use
 style="fill:#008000;stroke:#008000;stroke-linejoin:miter;"
 x="366.184989"
 xlink:href="#m46201748b6"
 y="52.658403"
 id="use17176" />
<use
 style="fill:#008000;stroke:#008000;stroke-linejoin:miter;"
 x="368.472508"
 xlink:href="#m46201748b6"
 y="50.702267"
 id="use17178" />
</g>
</g>
<g
 id="line2d_21">
<path
 clip-path="url(#pdfb2df0c29)"
 d="M 324.603823 103.434627  L 334.369854 89.238291  L 343.38513 79.191428  L 352.160387 70.40211  L 362.740123 60.293847  L 374.24296 48.621797  L 376.967439 46.24973  "
 style="fill:none;stroke:#ff0000;stroke-linecap:square;stroke-width:1.5;"
 id="path17183" />
<defs
 id="defs17186">
<path
 d="M -3 3  L 3 3  L 3 -3  L -3 -3  z "
 id="m075243a09f"
 style="stroke:#ff0000;stroke-linejoin:miter;" />
</defs>
<g
 clip-path="url(#pdfb2df0c29)"
 id="g17202">
<use
 style="fill:#ff0000;stroke:#ff0000;stroke-linejoin:miter;"
 x="324.603823"
 xlink:href="#m075243a09f"
 y="103.434627"
 id="use17188" />
<use
 style="fill:#ff0000;stroke:#ff0000;stroke-linejoin:miter;"
 x="334.369854"
 xlink:href="#m075243a09f"
 y="89.238291"
 id="use17190" />
<use
 style="fill:#ff0000;stroke:#ff0000;stroke-linejoin:miter;"
 x="343.38513"
 xlink:href="#m075243a09f"
 y="79.191428"
 id="use17192" />
<use
 style="fill:#ff0000;stroke:#ff0000;stroke-linejoin:miter;"
 x="352.160387"
 xlink:href="#m075243a09f"
 y="70.40211"
 id="use17194" />
<use
 style="fill:#ff0000;stroke:#ff0000;stroke-linejoin:miter;"
 x="362.740123"
 xlink:href="#m075243a09f"
 y="60.293847"
 id="use17196" />
<use
 style="fill:#ff0000;stroke:#ff0000;stroke-linejoin:miter;"
 x="374.24296"
 xlink:href="#m075243a09f"
 y="48.621797"
 id="use17198" />
<use
 style="fill:#ff0000;stroke:#ff0000;stroke-linejoin:miter;"
 x="376.967439"
 xlink:href="#m075243a09f"
 y="46.24973"
 id="use17200" />
</g>
</g>
<g
 id="line2d_22">
<path
 clip-path="url(#pdfb2df0c29)"
 d="M 327.62335 92.551661  L 324.137248 98.21556  L 319.650085 104.619765  L 314.744079 111.140496  L 309.4039 119.018008  "
 style="fill:none;stroke:#bf00bf;stroke-linecap:square;stroke-width:1.5;"
 id="path17205" />
<defs
 id="defs17208">
<path
 d="M 0 3  C 0.795609 3 1.55874 2.683901 2.12132 2.12132  C 2.683901 1.55874 3 0.795609 3 0  C 3 -0.795609 2.683901 -1.55874 2.12132 -2.12132  C 1.55874 -2.683901 0.795609 -3 0 -3  C -0.795609 -3 -1.55874 -2.683901 -2.12132 -2.12132  C -2.683901 -1.55874 -3 -0.795609 -3 0  C -3 0.795609 -2.683901 1.55874 -2.12132 2.12132  C -1.55874 2.683901 -0.795609 3 0 3  z "
 id="m98394ec7fd"
 style="stroke:#bf00bf;" />
</defs>
<g
 clip-path="url(#pdfb2df0c29)"
 id="g17220">
<use
 style="fill:#bf00bf;stroke:#bf00bf;"
 x="327.62335"
 xlink:href="#m98394ec7fd"
 y="92.551661"
 id="use17210" />
<use
 style="fill:#bf00bf;stroke:#bf00bf;"
 x="324.137248"
 xlink:href="#m98394ec7fd"
 y="98.21556"
 id="use17212" />
<use
 style="fill:#bf00bf;stroke:#bf00bf;"
 x="319.650085"
 xlink:href="#m98394ec7fd"
 y="104.619765"
 id="use17214" />
<use
 style="fill:#bf00bf;stroke:#bf00bf;"
 x="314.744079"
 xlink:href="#m98394ec7fd"
 y="111.140496"
 id="use17216" />
<use
 style="fill:#bf00bf;stroke:#bf00bf;"
 x="309.4039"
 xlink:href="#m98394ec7fd"
 y="119.018008"
 id="use17218" />
</g>
</g>
<g
 id="line2d_23">
<path
 clip-path="url(#pdfb2df0c29)"
 d="M 324.102501 112.567064  L 329.122361 107.291003  L 324.470082 113.63865  L 319.56235 119.933674  L 314.475531 126.556318  L 309.030155 133.897585  L 303.692089 142.115707  L 298.309279 150.431376  "
 style="fill:none;stroke:#00bfbf;stroke-linecap:square;stroke-width:1.5;"
 id="path17223" />
<defs
 id="defs17226">
<path
 d="M -3 3  L 3 3  L 3 -3  L -3 -3  z "
 id="mab8d5260cd"
 style="stroke:#00bfbf;stroke-linejoin:miter;" />
</defs>
<g
 clip-path="url(#pdfb2df0c29)"
 id="g17244">
<use
 style="fill:#00bfbf;stroke:#00bfbf;stroke-linejoin:miter;"
 x="324.102501"
 xlink:href="#mab8d5260cd"
 y="112.567064"
 id="use17228" />
<use
 style="fill:#00bfbf;stroke:#00bfbf;stroke-linejoin:miter;"
 x="329.122361"
 xlink:href="#mab8d5260cd"
 y="107.291003"
 id="use17230" />
<use
 style="fill:#00bfbf;stroke:#00bfbf;stroke-linejoin:miter;"
 x="324.470082"
 xlink:href="#mab8d5260cd"
 y="113.63865"
 id="use17232" />
<use
 style="fill:#00bfbf;stroke:#00bfbf;stroke-linejoin:miter;"
 x="319.56235"
 xlink:href="#mab8d5260cd"
 y="119.933674"
 id="use17234" />
<use
 style="fill:#00bfbf;stroke:#00bfbf;stroke-linejoin:miter;"
 x="314.475531"
 xlink:href="#mab8d5260cd"
 y="126.556318"
 id="use17236" />
<use
 style="fill:#00bfbf;stroke:#00bfbf;stroke-linejoin:miter;"
 x="309.030155"
 xlink:href="#mab8d5260cd"
 y="133.897585"
 id="use17238" />
<use
 style="fill:#00bfbf;stroke:#00bfbf;stroke-linejoin:miter;"
 x="303.692089"
 xlink:href="#mab8d5260cd"
 y="142.115707"
 id="use17240" />
<use
 style="fill:#00bfbf;stroke:#00bfbf;stroke-linejoin:miter;"
 x="298.309279"
 xlink:href="#mab8d5260cd"
 y="150.431376"
 id="use17242" />
</g>
</g>
<g
 id="line2d_24">
<path
 clip-path="url(#pdfb2df0c29)"
 d="M 390.829513 54.30919  L 396.688655 52.098494  L 402.772668 49.888066  L 408.405804 47.335913  L 410.208748 46.143914  L 413.814068 44.442285  L 417.870266 42.400014  "
 style="fill:none;stroke:#808080;stroke-linecap:square;stroke-width:1.5;"
 id="path17247" />
<defs
 id="defs17250">
<path
 d="M 0 3  C 0.795609 3 1.55874 2.683901 2.12132 2.12132  C 2.683901 1.55874 3 0.795609 3 0  C 3 -0.795609 2.683901 -1.55874 2.12132 -2.12132  C 1.55874 -2.683901 0.795609 -3 0 -3  C -0.795609 -3 -1.55874 -2.683901 -2.12132 -2.12132  C -2.683901 -1.55874 -3 -0.795609 -3 0  C -3 0.795609 -2.683901 1.55874 -2.12132 2.12132  C -1.55874 2.683901 -0.795609 3 0 3  z "
 id="m6b1046ed79"
 style="stroke:#808080;" />
</defs>
<g
 clip-path="url(#pdfb2df0c29)"
 id="g17266">
<use
 style="fill:#808080;stroke:#808080;"
 x="390.829513"
 xlink:href="#m6b1046ed79"
 y="54.30919"
 id="use17252" />
<use
 style="fill:#808080;stroke:#808080;"
 x="396.688655"
 xlink:href="#m6b1046ed79"
 y="52.098494"
 id="use17254" />
<use
 style="fill:#808080;stroke:#808080;"
 x="402.772668"
 xlink:href="#m6b1046ed79"
 y="49.888066"
 id="use17256" />
<use
 style="fill:#808080;stroke:#808080;"
 x="408.405804"
 xlink:href="#m6b1046ed79"
 y="47.335913"
 id="use17258" />
<use
 style="fill:#808080;stroke:#808080;"
 x="410.208748"
 xlink:href="#m6b1046ed79"
 y="46.143914"
 id="use17260" />
<use
 style="fill:#808080;stroke:#808080;"
 x="413.814068"
 xlink:href="#m6b1046ed79"
 y="44.442285"
 id="use17262" />
<use
 style="fill:#808080;stroke:#808080;"
 x="417.870266"
 xlink:href="#m6b1046ed79"
 y="42.400014"
 id="use17264" />
</g>
</g>
<g
 id="line2d_25">
<path
 clip-path="url(#pdfb2df0c29)"
 d="M 390.829513 46.461811  L 396.688655 44.08052  L 402.321791 42.040153  L 408.405804 39.317938  L 410.434187 38.467399  L 413.588629 36.935827  L 417.870266 34.723231  "
 style="fill:none;stroke:#808080;stroke-linecap:square;stroke-width:1.5;"
 id="path17269" />
<g
 clip-path="url(#pdfb2df0c29)"
 id="g17285">
<use
 style="fill:#808080;stroke:#808080;"
 x="390.829513"
 xlink:href="#m6b1046ed79"
 y="46.461811"
 id="use17271" />
<use
 style="fill:#808080;stroke:#808080;"
 x="396.688655"
 xlink:href="#m6b1046ed79"
 y="44.08052"
 id="use17273" />
<use
 style="fill:#808080;stroke:#808080;"
 x="402.321791"
 xlink:href="#m6b1046ed79"
 y="42.040153"
 id="use17275" />
<use
 style="fill:#808080;stroke:#808080;"
 x="408.405804"
 xlink:href="#m6b1046ed79"
 y="39.317938"
 id="use17277" />
<use
 style="fill:#808080;stroke:#808080;"
 x="410.434187"
 xlink:href="#m6b1046ed79"
 y="38.467399"
 id="use17279" />
<use
 style="fill:#808080;stroke:#808080;"
 x="413.588629"
 xlink:href="#m6b1046ed79"
 y="36.935827"
 id="use17281" />
<use
 style="fill:#808080;stroke:#808080;"
 x="417.870266"
 xlink:href="#m6b1046ed79"
 y="34.723231"
 id="use17283" />
</g>
</g>
<g
 id="line2d_26">
<path
 clip-path="url(#pdfb2df0c29)"
 d="M 265.765964 296.44  L 265.765964 13.32  "
 style="fill:none;stroke:#000000;stroke-dasharray:5.6,2.4;stroke-dashoffset:0;stroke-width:1.5;"
 id="path17288" />
</g>
<g
 id="patch_3">
<path
 d="M 78.373364 296.44  L 78.373364 13.32  "
 style="fill:none;stroke:#000000;stroke-linecap:square;stroke-linejoin:miter;stroke-width:0.8;"
 id="path17291" />
</g>
<g
 id="patch_4">
<path
 d="M 447.48 296.44  L 447.48 13.32  "
 style="fill:none;stroke:#000000;stroke-linecap:square;stroke-linejoin:miter;stroke-width:0.8;"
 id="path17294" />
</g>
<g
 id="patch_5">
<path
 d="M 78.373364 296.44  L 447.48 296.44  "
 style="fill:none;stroke:#000000;stroke-linecap:square;stroke-linejoin:miter;stroke-width:0.8;"
 id="path17297" />
</g>
<g
 id="patch_6">
<path
 d="M 78.373364 13.32  L 447.48 13.32  "
 style="fill:none;stroke:#000000;stroke-linecap:square;stroke-linejoin:miter;stroke-width:0.8;"
 id="path17300" />
</g>
</g>
</g>
<defs
 id="defs17308">
<clipPath
 id="pdfb2df0c29">
<rect
 height="283.12"
 width="369.106636"
 x="78.373364"
 y="13.32"
 id="rect17305" />
</clipPath>
</defs>
<path
 style="fill:none;stroke:#004a00;stroke-width:1.5;stroke-linecap:butt;stroke-linejoin:miter;stroke-miterlimit:4;stroke-dasharray:6.0000001, 6.0000001;stroke-dashoffset:0;stroke-opacity:1;marker-end:url(#Arrow1Mend)"
 d="M 299.77133,135.57584 228.96327,251.3496"
 id="path18965"
 inkscape:connector-curvature="0" />
<flowRoot
 xml:space="preserve"
 id="flowRoot19267"
 style="font-style:normal;font-weight:normal;font-size:7.33333349px;line-height:1.25;font-family:sans-serif;letter-spacing:0px;word-spacing:0px;fill:#000000;fill-opacity:1;stroke:none;stroke-linecap:butt;stroke-linejoin:round"
 transform="matrix(2.1388988,0,0,2.1388988,-626.11978,-277.06392)"><flowRegion
 id="flowRegion19269"
 style="stroke-linecap:butt;stroke-linejoin:round"><rect
 id="rect19271"
 width="93.721611"
 height="44.104286"
 x="438.28635"
 y="197.44167"
 style="stroke-linecap:butt;stroke-linejoin:round" /></flowRegion><flowPara
 id="flowPara19273"
 style="stroke-linecap:butt;stroke-linejoin:round">OER</flowPara></flowRoot><flowRoot
 transform="matrix(2.1388988,0,0,2.1388988,-757.50545,-277.06392)"
 style="font-style:normal;font-weight:normal;font-size:7.33333349px;line-height:1.25;font-family:sans-serif;letter-spacing:0px;word-spacing:0px;fill:#000000;fill-opacity:1;stroke:none;stroke-linecap:butt;stroke-linejoin:round"
 id="flowRoot19281"
 xml:space="preserve"><flowRegion
 style="stroke-linecap:butt;stroke-linejoin:round"
 id="flowRegion19277"><rect
 style="stroke-linecap:butt;stroke-linejoin:round"
 y="197.44167"
 x="438.28635"
 height="44.104286"
 width="93.721611"
 id="rect19275" /></flowRegion><flowPara
 style="stroke-linecap:butt;stroke-linejoin:round"
 id="flowPara19279">ORR?</flowPara></flowRoot><path
 inkscape:connector-curvature="0"
 id="path19289"
 d="m 189.65696,107.84585 c 36.78185,29.17756 63.22579,61.18503 115.56413,143.32944"
 style="fill:none;stroke:#c70000;stroke-width:1.5;stroke-linecap:butt;stroke-linejoin:miter;stroke-miterlimit:4;stroke-dasharray:6.0000001, 6.0000001;stroke-dashoffset:0;stroke-opacity:1;marker-end:url(#marker19293)"
 sodipodi:nodetypes="cc" />
</svg>
