<?xml version="1.0" encoding="utf-8" standalone="no"?>
<!DOCTYPE svg PUBLIC "-//W3C//DTD SVG 1.1//EN"
  "http://www.w3.org/Graphics/SVG/1.1/DTD/svg11.dtd">
<!-- Created with matplotlib (http://matplotlib.org/) -->
<svg height="345pt" version="1.1" viewBox="0 0 460 345" width="460pt" xmlns="http://www.w3.org/2000/svg" xmlns:xlink="http://www.w3.org/1999/xlink">
 <defs>
  <style type="text/css">
*{stroke-linecap:butt;stroke-linejoin:round;}
  </style>
 </defs>
 <g id="figure_1">
  <g id="patch_1">
   <path d="M 0 345.6 
L 460.8 345.6 
L 460.8 0 
L 0 0 
z
" style="fill:#ffffff;"/>
  </g>
  <g id="axes_1">
   <g id="patch_2">
    <path d="M 57.6 307.584 
L 414.72 307.584 
L 414.72 41.472 
L 57.6 41.472 
z
" style="fill:#ffffff;"/>
   </g>
   <g id="matplotlib.axis_1">
    <g id="xtick_1">
     <g id="line2d_1">
      <defs>
       <path d="M 0 0 
L 0 3.5 
" id="m5e08ff2865" style="stroke:#000000;stroke-width:0.8;"/>
      </defs>
      <g>
       <use style="stroke:#000000;stroke-width:0.8;" x="89.157531" xlink:href="#m5e08ff2865" y="307.584"/>
      </g>
     </g>
     <g id="text_1">
      <!-- 2525 -->
      <defs>
       <path d="M 19.1875 8.296875 
L 53.609375 8.296875 
L 53.609375 0 
L 7.328125 0 
L 7.328125 8.296875 
Q 12.9375 14.109375 22.625 23.890625 
Q 32.328125 33.6875 34.8125 36.53125 
Q 39.546875 41.84375 41.421875 45.53125 
Q 43.3125 49.21875 43.3125 52.78125 
Q 43.3125 58.59375 39.234375 62.25 
Q 35.15625 65.921875 28.609375 65.921875 
Q 23.96875 65.921875 18.8125 64.3125 
Q 13.671875 62.703125 7.8125 59.421875 
L 7.8125 69.390625 
Q 13.765625 71.78125 18.9375 73 
Q 24.125 74.21875 28.421875 74.21875 
Q 39.75 74.21875 46.484375 68.546875 
Q 53.21875 62.890625 53.21875 53.421875 
Q 53.21875 48.921875 51.53125 44.890625 
Q 49.859375 40.875 45.40625 35.40625 
Q 44.1875 33.984375 37.640625 27.21875 
Q 31.109375 20.453125 19.1875 8.296875 
" id="DejaVuSans-32"/>
       <path d="M 10.796875 72.90625 
L 49.515625 72.90625 
L 49.515625 64.59375 
L 19.828125 64.59375 
L 19.828125 46.734375 
Q 21.96875 47.46875 24.109375 47.828125 
Q 26.265625 48.1875 28.421875 48.1875 
Q 40.625 48.1875 47.75 41.5 
Q 54.890625 34.8125 54.890625 23.390625 
Q 54.890625 11.625 47.5625 5.09375 
Q 40.234375 -1.421875 26.90625 -1.421875 
Q 22.3125 -1.421875 17.546875 -0.640625 
Q 12.796875 0.140625 7.71875 1.703125 
L 7.71875 11.625 
Q 12.109375 9.234375 16.796875 8.0625 
Q 21.484375 6.890625 26.703125 6.890625 
Q 35.15625 6.890625 40.078125 11.328125 
Q 45.015625 15.765625 45.015625 23.390625 
Q 45.015625 31 40.078125 35.4375 
Q 35.15625 39.890625 26.703125 39.890625 
Q 22.75 39.890625 18.8125 39.015625 
Q 14.890625 38.140625 10.796875 36.28125 
z
" id="DejaVuSans-35"/>
      </defs>
      <g transform="translate(76.432531 322.182437)scale(0.1 -0.1)">
       <use xlink:href="#DejaVuSans-32"/>
       <use x="63.623047" xlink:href="#DejaVuSans-35"/>
       <use x="127.246094" xlink:href="#DejaVuSans-32"/>
       <use x="190.869141" xlink:href="#DejaVuSans-35"/>
      </g>
     </g>
    </g>
    <g id="xtick_2">
     <g id="line2d_2">
      <g>
       <use style="stroke:#000000;stroke-width:0.8;" x="132.051738" xlink:href="#m5e08ff2865" y="307.584"/>
      </g>
     </g>
     <g id="text_2">
      <!-- 2550 -->
      <defs>
       <path d="M 31.78125 66.40625 
Q 24.171875 66.40625 20.328125 58.90625 
Q 16.5 51.421875 16.5 36.375 
Q 16.5 21.390625 20.328125 13.890625 
Q 24.171875 6.390625 31.78125 6.390625 
Q 39.453125 6.390625 43.28125 13.890625 
Q 47.125 21.390625 47.125 36.375 
Q 47.125 51.421875 43.28125 58.90625 
Q 39.453125 66.40625 31.78125 66.40625 
M 31.78125 74.21875 
Q 44.046875 74.21875 50.515625 64.515625 
Q 56.984375 54.828125 56.984375 36.375 
Q 56.984375 17.96875 50.515625 8.265625 
Q 44.046875 -1.421875 31.78125 -1.421875 
Q 19.53125 -1.421875 13.0625 8.265625 
Q 6.59375 17.96875 6.59375 36.375 
Q 6.59375 54.828125 13.0625 64.515625 
Q 19.53125 74.21875 31.78125 74.21875 
" id="DejaVuSans-30"/>
      </defs>
      <g transform="translate(119.326738 322.182437)scale(0.1 -0.1)">
       <use xlink:href="#DejaVuSans-32"/>
       <use x="63.623047" xlink:href="#DejaVuSans-35"/>
       <use x="127.246094" xlink:href="#DejaVuSans-35"/>
       <use x="190.869141" xlink:href="#DejaVuSans-30"/>
      </g>
     </g>
    </g>
    <g id="xtick_3">
     <g id="line2d_3">
      <g>
       <use style="stroke:#000000;stroke-width:0.8;" x="174.945944" xlink:href="#m5e08ff2865" y="307.584"/>
      </g>
     </g>
     <g id="text_3">
      <!-- 2575 -->
      <defs>
       <path d="M 8.203125 72.90625 
L 55.078125 72.90625 
L 55.078125 68.703125 
L 28.609375 0 
L 18.3125 0 
L 43.21875 64.59375 
L 8.203125 64.59375 
z
" id="DejaVuSans-37"/>
      </defs>
      <g transform="translate(162.220944 322.182437)scale(0.1 -0.1)">
       <use xlink:href="#DejaVuSans-32"/>
       <use x="63.623047" xlink:href="#DejaVuSans-35"/>
       <use x="127.246094" xlink:href="#DejaVuSans-37"/>
       <use x="190.869141" xlink:href="#DejaVuSans-35"/>
      </g>
     </g>
    </g>
    <g id="xtick_4">
     <g id="line2d_4">
      <g>
       <use style="stroke:#000000;stroke-width:0.8;" x="217.84015" xlink:href="#m5e08ff2865" y="307.584"/>
      </g>
     </g>
     <g id="text_4">
      <!-- 2600 -->
      <defs>
       <path d="M 33.015625 40.375 
Q 26.375 40.375 22.484375 35.828125 
Q 18.609375 31.296875 18.609375 23.390625 
Q 18.609375 15.53125 22.484375 10.953125 
Q 26.375 6.390625 33.015625 6.390625 
Q 39.65625 6.390625 43.53125 10.953125 
Q 47.40625 15.53125 47.40625 23.390625 
Q 47.40625 31.296875 43.53125 35.828125 
Q 39.65625 40.375 33.015625 40.375 
M 52.59375 71.296875 
L 52.59375 62.3125 
Q 48.875 64.0625 45.09375 64.984375 
Q 41.3125 65.921875 37.59375 65.921875 
Q 27.828125 65.921875 22.671875 59.328125 
Q 17.53125 52.734375 16.796875 39.40625 
Q 19.671875 43.65625 24.015625 45.921875 
Q 28.375 48.1875 33.59375 48.1875 
Q 44.578125 48.1875 50.953125 41.515625 
Q 57.328125 34.859375 57.328125 23.390625 
Q 57.328125 12.15625 50.6875 5.359375 
Q 44.046875 -1.421875 33.015625 -1.421875 
Q 20.359375 -1.421875 13.671875 8.265625 
Q 6.984375 17.96875 6.984375 36.375 
Q 6.984375 53.65625 15.1875 63.9375 
Q 23.390625 74.21875 37.203125 74.21875 
Q 40.921875 74.21875 44.703125 73.484375 
Q 48.484375 72.75 52.59375 71.296875 
" id="DejaVuSans-36"/>
      </defs>
      <g transform="translate(205.11515 322.182437)scale(0.1 -0.1)">
       <use xlink:href="#DejaVuSans-32"/>
       <use x="63.623047" xlink:href="#DejaVuSans-36"/>
       <use x="127.246094" xlink:href="#DejaVuSans-30"/>
       <use x="190.869141" xlink:href="#DejaVuSans-30"/>
      </g>
     </g>
    </g>
    <g id="xtick_5">
     <g id="line2d_5">
      <g>
       <use style="stroke:#000000;stroke-width:0.8;" x="260.734356" xlink:href="#m5e08ff2865" y="307.584"/>
      </g>
     </g>
     <g id="text_5">
      <!-- 2625 -->
      <g transform="translate(248.009356 322.182437)scale(0.1 -0.1)">
       <use xlink:href="#DejaVuSans-32"/>
       <use x="63.623047" xlink:href="#DejaVuSans-36"/>
       <use x="127.246094" xlink:href="#DejaVuSans-32"/>
       <use x="190.869141" xlink:href="#DejaVuSans-35"/>
      </g>
     </g>
    </g>
    <g id="xtick_6">
     <g id="line2d_6">
      <g>
       <use style="stroke:#000000;stroke-width:0.8;" x="303.628562" xlink:href="#m5e08ff2865" y="307.584"/>
      </g>
     </g>
     <g id="text_6">
      <!-- 2650 -->
      <g transform="translate(290.903562 322.182437)scale(0.1 -0.1)">
       <use xlink:href="#DejaVuSans-32"/>
       <use x="63.623047" xlink:href="#DejaVuSans-36"/>
       <use x="127.246094" xlink:href="#DejaVuSans-35"/>
       <use x="190.869141" xlink:href="#DejaVuSans-30"/>
      </g>
     </g>
    </g>
    <g id="xtick_7">
     <g id="line2d_7">
      <g>
       <use style="stroke:#000000;stroke-width:0.8;" x="346.522768" xlink:href="#m5e08ff2865" y="307.584"/>
      </g>
     </g>
     <g id="text_7">
      <!-- 2675 -->
      <g transform="translate(333.797768 322.182437)scale(0.1 -0.1)">
       <use xlink:href="#DejaVuSans-32"/>
       <use x="63.623047" xlink:href="#DejaVuSans-36"/>
       <use x="127.246094" xlink:href="#DejaVuSans-37"/>
       <use x="190.869141" xlink:href="#DejaVuSans-35"/>
      </g>
     </g>
    </g>
    <g id="xtick_8">
     <g id="line2d_8">
      <g>
       <use style="stroke:#000000;stroke-width:0.8;" x="389.416974" xlink:href="#m5e08ff2865" y="307.584"/>
      </g>
     </g>
     <g id="text_8">
      <!-- 2700 -->
      <g transform="translate(376.691974 322.182437)scale(0.1 -0.1)">
       <use xlink:href="#DejaVuSans-32"/>
       <use x="63.623047" xlink:href="#DejaVuSans-37"/>
       <use x="127.246094" xlink:href="#DejaVuSans-30"/>
       <use x="190.869141" xlink:href="#DejaVuSans-30"/>
      </g>
     </g>
    </g>
    <g id="text_9">
     <!-- time/s -->
     <defs>
      <path d="M 18.3125 70.21875 
L 18.3125 54.6875 
L 36.8125 54.6875 
L 36.8125 47.703125 
L 18.3125 47.703125 
L 18.3125 18.015625 
Q 18.3125 11.328125 20.140625 9.421875 
Q 21.96875 7.515625 27.59375 7.515625 
L 36.8125 7.515625 
L 36.8125 0 
L 27.59375 0 
Q 17.1875 0 13.234375 3.875 
Q 9.28125 7.765625 9.28125 18.015625 
L 9.28125 47.703125 
L 2.6875 47.703125 
L 2.6875 54.6875 
L 9.28125 54.6875 
L 9.28125 70.21875 
z
" id="DejaVuSans-74"/>
      <path d="M 9.421875 54.6875 
L 18.40625 54.6875 
L 18.40625 0 
L 9.421875 0 
z
M 9.421875 75.984375 
L 18.40625 75.984375 
L 18.40625 64.59375 
L 9.421875 64.59375 
z
" id="DejaVuSans-69"/>
      <path d="M 52 44.1875 
Q 55.375 50.25 60.0625 53.125 
Q 64.75 56 71.09375 56 
Q 79.640625 56 84.28125 50.015625 
Q 88.921875 44.046875 88.921875 33.015625 
L 88.921875 0 
L 79.890625 0 
L 79.890625 32.71875 
Q 79.890625 40.578125 77.09375 44.375 
Q 74.3125 48.1875 68.609375 48.1875 
Q 61.625 48.1875 57.5625 43.546875 
Q 53.515625 38.921875 53.515625 30.90625 
L 53.515625 0 
L 44.484375 0 
L 44.484375 32.71875 
Q 44.484375 40.625 41.703125 44.40625 
Q 38.921875 48.1875 33.109375 48.1875 
Q 26.21875 48.1875 22.15625 43.53125 
Q 18.109375 38.875 18.109375 30.90625 
L 18.109375 0 
L 9.078125 0 
L 9.078125 54.6875 
L 18.109375 54.6875 
L 18.109375 46.1875 
Q 21.1875 51.21875 25.484375 53.609375 
Q 29.78125 56 35.6875 56 
Q 41.65625 56 45.828125 52.96875 
Q 50 49.953125 52 44.1875 
" id="DejaVuSans-6d"/>
      <path d="M 56.203125 29.59375 
L 56.203125 25.203125 
L 14.890625 25.203125 
Q 15.484375 15.921875 20.484375 11.0625 
Q 25.484375 6.203125 34.421875 6.203125 
Q 39.59375 6.203125 44.453125 7.46875 
Q 49.3125 8.734375 54.109375 11.28125 
L 54.109375 2.78125 
Q 49.265625 0.734375 44.1875 -0.34375 
Q 39.109375 -1.421875 33.890625 -1.421875 
Q 20.796875 -1.421875 13.15625 6.1875 
Q 5.515625 13.8125 5.515625 26.8125 
Q 5.515625 40.234375 12.765625 48.109375 
Q 20.015625 56 32.328125 56 
Q 43.359375 56 49.78125 48.890625 
Q 56.203125 41.796875 56.203125 29.59375 
M 47.21875 32.234375 
Q 47.125 39.59375 43.09375 43.984375 
Q 39.0625 48.390625 32.421875 48.390625 
Q 24.90625 48.390625 20.390625 44.140625 
Q 15.875 39.890625 15.1875 32.171875 
z
" id="DejaVuSans-65"/>
      <path d="M 25.390625 72.90625 
L 33.6875 72.90625 
L 8.296875 -9.28125 
L 0 -9.28125 
z
" id="DejaVuSans-2f"/>
      <path d="M 44.28125 53.078125 
L 44.28125 44.578125 
Q 40.484375 46.53125 36.375 47.5 
Q 32.28125 48.484375 27.875 48.484375 
Q 21.1875 48.484375 17.84375 46.4375 
Q 14.5 44.390625 14.5 40.28125 
Q 14.5 37.15625 16.890625 35.375 
Q 19.28125 33.59375 26.515625 31.984375 
L 29.59375 31.296875 
Q 39.15625 29.25 43.1875 25.515625 
Q 47.21875 21.78125 47.21875 15.09375 
Q 47.21875 7.46875 41.1875 3.015625 
Q 35.15625 -1.421875 24.609375 -1.421875 
Q 20.21875 -1.421875 15.453125 -0.5625 
Q 10.6875 0.296875 5.421875 2 
L 5.421875 11.28125 
Q 10.40625 8.6875 15.234375 7.390625 
Q 20.0625 6.109375 24.8125 6.109375 
Q 31.15625 6.109375 34.5625 8.28125 
Q 37.984375 10.453125 37.984375 14.40625 
Q 37.984375 18.0625 35.515625 20.015625 
Q 33.0625 21.96875 24.703125 23.78125 
L 21.578125 24.515625 
Q 13.234375 26.265625 9.515625 29.90625 
Q 5.8125 33.546875 5.8125 39.890625 
Q 5.8125 47.609375 11.28125 51.796875 
Q 16.75 56 26.8125 56 
Q 31.78125 56 36.171875 55.265625 
Q 40.578125 54.546875 44.28125 53.078125 
" id="DejaVuSans-73"/>
     </defs>
     <g transform="translate(217.457812 337.38025)scale(0.12 -0.12)">
      <use xlink:href="#DejaVuSans-74"/>
      <use x="39.208984" xlink:href="#DejaVuSans-69"/>
      <use x="66.992188" xlink:href="#DejaVuSans-6d"/>
      <use x="164.404297" xlink:href="#DejaVuSans-65"/>
      <use x="225.927734" xlink:href="#DejaVuSans-2f"/>
      <use x="259.619141" xlink:href="#DejaVuSans-73"/>
     </g>
    </g>
   </g>
   <g id="matplotlib.axis_2">
    <g id="ytick_1">
     <g id="line2d_9">
      <defs>
       <path d="M 0 0 
L -3.5 0 
" id="m2c0149a899" style="stroke:#000000;stroke-width:0.8;"/>
      </defs>
      <g>
       <use style="stroke:#000000;stroke-width:0.8;" x="57.6" xlink:href="#m2c0149a899" y="283.392"/>
      </g>
     </g>
     <g id="text_10">
      <!-- −10.0 -->
      <defs>
       <path d="M 10.59375 35.5 
L 73.1875 35.5 
L 73.1875 27.203125 
L 10.59375 27.203125 
z
" id="DejaVuSans-2212"/>
       <path d="M 12.40625 8.296875 
L 28.515625 8.296875 
L 28.515625 63.921875 
L 10.984375 60.40625 
L 10.984375 69.390625 
L 28.421875 72.90625 
L 38.28125 72.90625 
L 38.28125 8.296875 
L 54.390625 8.296875 
L 54.390625 0 
L 12.40625 0 
z
" id="DejaVuSans-31"/>
       <path d="M 10.6875 12.40625 
L 21 12.40625 
L 21 0 
L 10.6875 0 
z
" id="DejaVuSans-2e"/>
      </defs>
      <g transform="translate(19.954687 287.191219)scale(0.1 -0.1)">
       <use xlink:href="#DejaVuSans-2212"/>
       <use x="83.789062" xlink:href="#DejaVuSans-31"/>
       <use x="147.412109" xlink:href="#DejaVuSans-30"/>
       <use x="211.035156" xlink:href="#DejaVuSans-2e"/>
       <use x="242.822266" xlink:href="#DejaVuSans-30"/>
      </g>
     </g>
    </g>
    <g id="ytick_2">
     <g id="line2d_10">
      <g>
       <use style="stroke:#000000;stroke-width:0.8;" x="57.6" xlink:href="#m2c0149a899" y="253.152"/>
      </g>
     </g>
     <g id="text_11">
      <!-- −7.5 -->
      <g transform="translate(26.317187 256.951219)scale(0.1 -0.1)">
       <use xlink:href="#DejaVuSans-2212"/>
       <use x="83.789062" xlink:href="#DejaVuSans-37"/>
       <use x="147.412109" xlink:href="#DejaVuSans-2e"/>
       <use x="179.199219" xlink:href="#DejaVuSans-35"/>
      </g>
     </g>
    </g>
    <g id="ytick_3">
     <g id="line2d_11">
      <g>
       <use style="stroke:#000000;stroke-width:0.8;" x="57.6" xlink:href="#m2c0149a899" y="222.912"/>
      </g>
     </g>
     <g id="text_12">
      <!-- −5.0 -->
      <g transform="translate(26.317187 226.711219)scale(0.1 -0.1)">
       <use xlink:href="#DejaVuSans-2212"/>
       <use x="83.789062" xlink:href="#DejaVuSans-35"/>
       <use x="147.412109" xlink:href="#DejaVuSans-2e"/>
       <use x="179.199219" xlink:href="#DejaVuSans-30"/>
      </g>
     </g>
    </g>
    <g id="ytick_4">
     <g id="line2d_12">
      <g>
       <use style="stroke:#000000;stroke-width:0.8;" x="57.6" xlink:href="#m2c0149a899" y="192.672"/>
      </g>
     </g>
     <g id="text_13">
      <!-- −2.5 -->
      <g transform="translate(26.317187 196.471219)scale(0.1 -0.1)">
       <use xlink:href="#DejaVuSans-2212"/>
       <use x="83.789062" xlink:href="#DejaVuSans-32"/>
       <use x="147.412109" xlink:href="#DejaVuSans-2e"/>
       <use x="179.199219" xlink:href="#DejaVuSans-35"/>
      </g>
     </g>
    </g>
    <g id="ytick_5">
     <g id="line2d_13">
      <g>
       <use style="stroke:#000000;stroke-width:0.8;" x="57.6" xlink:href="#m2c0149a899" y="162.432"/>
      </g>
     </g>
     <g id="text_14">
      <!-- 0.0 -->
      <g transform="translate(34.696875 166.231219)scale(0.1 -0.1)">
       <use xlink:href="#DejaVuSans-30"/>
       <use x="63.623047" xlink:href="#DejaVuSans-2e"/>
       <use x="95.410156" xlink:href="#DejaVuSans-30"/>
      </g>
     </g>
    </g>
    <g id="ytick_6">
     <g id="line2d_14">
      <g>
       <use style="stroke:#000000;stroke-width:0.8;" x="57.6" xlink:href="#m2c0149a899" y="132.192"/>
      </g>
     </g>
     <g id="text_15">
      <!-- 2.5 -->
      <g transform="translate(34.696875 135.991219)scale(0.1 -0.1)">
       <use xlink:href="#DejaVuSans-32"/>
       <use x="63.623047" xlink:href="#DejaVuSans-2e"/>
       <use x="95.410156" xlink:href="#DejaVuSans-35"/>
      </g>
     </g>
    </g>
    <g id="ytick_7">
     <g id="line2d_15">
      <g>
       <use style="stroke:#000000;stroke-width:0.8;" x="57.6" xlink:href="#m2c0149a899" y="101.952"/>
      </g>
     </g>
     <g id="text_16">
      <!-- 5.0 -->
      <g transform="translate(34.696875 105.751219)scale(0.1 -0.1)">
       <use xlink:href="#DejaVuSans-35"/>
       <use x="63.623047" xlink:href="#DejaVuSans-2e"/>
       <use x="95.410156" xlink:href="#DejaVuSans-30"/>
      </g>
     </g>
    </g>
    <g id="ytick_8">
     <g id="line2d_16">
      <g>
       <use style="stroke:#000000;stroke-width:0.8;" x="57.6" xlink:href="#m2c0149a899" y="71.712"/>
      </g>
     </g>
     <g id="text_17">
      <!-- 7.5 -->
      <g transform="translate(34.696875 75.511219)scale(0.1 -0.1)">
       <use xlink:href="#DejaVuSans-37"/>
       <use x="63.623047" xlink:href="#DejaVuSans-2e"/>
       <use x="95.410156" xlink:href="#DejaVuSans-35"/>
      </g>
     </g>
    </g>
    <g id="ytick_9">
     <g id="line2d_17">
      <g>
       <use style="stroke:#000000;stroke-width:0.8;" x="57.6" xlink:href="#m2c0149a899" y="41.472"/>
      </g>
     </g>
     <g id="text_18">
      <!-- 10.0 -->
      <g transform="translate(28.334375 45.271219)scale(0.1 -0.1)">
       <use xlink:href="#DejaVuSans-31"/>
       <use x="63.623047" xlink:href="#DejaVuSans-30"/>
       <use x="127.246094" xlink:href="#DejaVuSans-2e"/>
       <use x="159.033203" xlink:href="#DejaVuSans-30"/>
      </g>
     </g>
    </g>
    <g id="text_19">
     <!-- (partial) current / [$\mu$A] -->
     <defs>
      <path d="M 31 75.875 
Q 24.46875 64.65625 21.28125 53.65625 
Q 18.109375 42.671875 18.109375 31.390625 
Q 18.109375 20.125 21.3125 9.0625 
Q 24.515625 -2 31 -13.1875 
L 23.1875 -13.1875 
Q 15.875 -1.703125 12.234375 9.375 
Q 8.59375 20.453125 8.59375 31.390625 
Q 8.59375 42.28125 12.203125 53.3125 
Q 15.828125 64.359375 23.1875 75.875 
z
" id="DejaVuSans-28"/>
      <path d="M 18.109375 8.203125 
L 18.109375 -20.796875 
L 9.078125 -20.796875 
L 9.078125 54.6875 
L 18.109375 54.6875 
L 18.109375 46.390625 
Q 20.953125 51.265625 25.265625 53.625 
Q 29.59375 56 35.59375 56 
Q 45.5625 56 51.78125 48.09375 
Q 58.015625 40.1875 58.015625 27.296875 
Q 58.015625 14.40625 51.78125 6.484375 
Q 45.5625 -1.421875 35.59375 -1.421875 
Q 29.59375 -1.421875 25.265625 0.953125 
Q 20.953125 3.328125 18.109375 8.203125 
M 48.6875 27.296875 
Q 48.6875 37.203125 44.609375 42.84375 
Q 40.53125 48.484375 33.40625 48.484375 
Q 26.265625 48.484375 22.1875 42.84375 
Q 18.109375 37.203125 18.109375 27.296875 
Q 18.109375 17.390625 22.1875 11.75 
Q 26.265625 6.109375 33.40625 6.109375 
Q 40.53125 6.109375 44.609375 11.75 
Q 48.6875 17.390625 48.6875 27.296875 
" id="DejaVuSans-70"/>
      <path d="M 34.28125 27.484375 
Q 23.390625 27.484375 19.1875 25 
Q 14.984375 22.515625 14.984375 16.5 
Q 14.984375 11.71875 18.140625 8.90625 
Q 21.296875 6.109375 26.703125 6.109375 
Q 34.1875 6.109375 38.703125 11.40625 
Q 43.21875 16.703125 43.21875 25.484375 
L 43.21875 27.484375 
z
M 52.203125 31.203125 
L 52.203125 0 
L 43.21875 0 
L 43.21875 8.296875 
Q 40.140625 3.328125 35.546875 0.953125 
Q 30.953125 -1.421875 24.3125 -1.421875 
Q 15.921875 -1.421875 10.953125 3.296875 
Q 6 8.015625 6 15.921875 
Q 6 25.140625 12.171875 29.828125 
Q 18.359375 34.515625 30.609375 34.515625 
L 43.21875 34.515625 
L 43.21875 35.40625 
Q 43.21875 41.609375 39.140625 45 
Q 35.0625 48.390625 27.6875 48.390625 
Q 23 48.390625 18.546875 47.265625 
Q 14.109375 46.140625 10.015625 43.890625 
L 10.015625 52.203125 
Q 14.9375 54.109375 19.578125 55.046875 
Q 24.21875 56 28.609375 56 
Q 40.484375 56 46.34375 49.84375 
Q 52.203125 43.703125 52.203125 31.203125 
" id="DejaVuSans-61"/>
      <path d="M 41.109375 46.296875 
Q 39.59375 47.171875 37.8125 47.578125 
Q 36.03125 48 33.890625 48 
Q 26.265625 48 22.1875 43.046875 
Q 18.109375 38.09375 18.109375 28.8125 
L 18.109375 0 
L 9.078125 0 
L 9.078125 54.6875 
L 18.109375 54.6875 
L 18.109375 46.1875 
Q 20.953125 51.171875 25.484375 53.578125 
Q 30.03125 56 36.53125 56 
Q 37.453125 56 38.578125 55.875 
Q 39.703125 55.765625 41.0625 55.515625 
z
" id="DejaVuSans-72"/>
      <path d="M 9.421875 75.984375 
L 18.40625 75.984375 
L 18.40625 0 
L 9.421875 0 
z
" id="DejaVuSans-6c"/>
      <path d="M 8.015625 75.875 
L 15.828125 75.875 
Q 23.140625 64.359375 26.78125 53.3125 
Q 30.421875 42.28125 30.421875 31.390625 
Q 30.421875 20.453125 26.78125 9.375 
Q 23.140625 -1.703125 15.828125 -13.1875 
L 8.015625 -13.1875 
Q 14.5 -2 17.703125 9.0625 
Q 20.90625 20.125 20.90625 31.390625 
Q 20.90625 42.671875 17.703125 53.65625 
Q 14.5 64.65625 8.015625 75.875 
" id="DejaVuSans-29"/>
      <path id="DejaVuSans-20"/>
      <path d="M 48.78125 52.59375 
L 48.78125 44.1875 
Q 44.96875 46.296875 41.140625 47.34375 
Q 37.3125 48.390625 33.40625 48.390625 
Q 24.65625 48.390625 19.8125 42.84375 
Q 14.984375 37.3125 14.984375 27.296875 
Q 14.984375 17.28125 19.8125 11.734375 
Q 24.65625 6.203125 33.40625 6.203125 
Q 37.3125 6.203125 41.140625 7.25 
Q 44.96875 8.296875 48.78125 10.40625 
L 48.78125 2.09375 
Q 45.015625 0.34375 40.984375 -0.53125 
Q 36.96875 -1.421875 32.421875 -1.421875 
Q 20.0625 -1.421875 12.78125 6.34375 
Q 5.515625 14.109375 5.515625 27.296875 
Q 5.515625 40.671875 12.859375 48.328125 
Q 20.21875 56 33.015625 56 
Q 37.15625 56 41.109375 55.140625 
Q 45.0625 54.296875 48.78125 52.59375 
" id="DejaVuSans-63"/>
      <path d="M 8.5 21.578125 
L 8.5 54.6875 
L 17.484375 54.6875 
L 17.484375 21.921875 
Q 17.484375 14.15625 20.5 10.265625 
Q 23.53125 6.390625 29.59375 6.390625 
Q 36.859375 6.390625 41.078125 11.03125 
Q 45.3125 15.671875 45.3125 23.6875 
L 45.3125 54.6875 
L 54.296875 54.6875 
L 54.296875 0 
L 45.3125 0 
L 45.3125 8.40625 
Q 42.046875 3.421875 37.71875 1 
Q 33.40625 -1.421875 27.6875 -1.421875 
Q 18.265625 -1.421875 13.375 4.4375 
Q 8.5 10.296875 8.5 21.578125 
M 31.109375 56 
z
" id="DejaVuSans-75"/>
      <path d="M 54.890625 33.015625 
L 54.890625 0 
L 45.90625 0 
L 45.90625 32.71875 
Q 45.90625 40.484375 42.875 44.328125 
Q 39.84375 48.1875 33.796875 48.1875 
Q 26.515625 48.1875 22.3125 43.546875 
Q 18.109375 38.921875 18.109375 30.90625 
L 18.109375 0 
L 9.078125 0 
L 9.078125 54.6875 
L 18.109375 54.6875 
L 18.109375 46.1875 
Q 21.34375 51.125 25.703125 53.5625 
Q 30.078125 56 35.796875 56 
Q 45.21875 56 50.046875 50.171875 
Q 54.890625 44.34375 54.890625 33.015625 
" id="DejaVuSans-6e"/>
      <path d="M 8.59375 75.984375 
L 29.296875 75.984375 
L 29.296875 69 
L 17.578125 69 
L 17.578125 -6.203125 
L 29.296875 -6.203125 
L 29.296875 -13.1875 
L 8.59375 -13.1875 
z
" id="DejaVuSans-5b"/>
      <path d="M -1.3125 -20.796875 
L 13.375 54.6875 
L 22.40625 54.6875 
L 15.765625 20.65625 
Q 15.578125 19.625 15.421875 18.359375 
Q 15.28125 17.09375 15.28125 15.828125 
Q 15.28125 11.28125 18.140625 8.828125 
Q 21 6.390625 26.3125 6.390625 
Q 33.546875 6.390625 37.984375 10.484375 
Q 42.4375 14.59375 44 22.796875 
L 50.203125 54.6875 
L 59.1875 54.6875 
L 51.03125 12.640625 
Q 50.828125 11.71875 50.75 11.03125 
Q 50.6875 10.359375 50.6875 9.8125 
Q 50.6875 8.296875 51.296875 7.59375 
Q 51.90625 6.890625 53.21875 6.890625 
Q 53.71875 6.890625 54.5625 7.125 
Q 55.421875 7.375 56.984375 8.015625 
L 55.609375 0.78125 
Q 53.46875 -0.296875 51.515625 -0.859375 
Q 49.5625 -1.421875 47.703125 -1.421875 
Q 44.484375 -1.421875 42.65625 0.625 
Q 40.828125 2.6875 40.828125 6.296875 
Q 38.09375 2.390625 34.296875 0.484375 
Q 30.515625 -1.421875 25.390625 -1.421875 
Q 20.84375 -1.421875 17.453125 0.671875 
Q 14.0625 2.78125 12.984375 6.203125 
L 7.71875 -20.796875 
z
" id="DejaVuSans-Oblique-3bc"/>
      <path d="M 34.1875 63.1875 
L 20.796875 26.90625 
L 47.609375 26.90625 
z
M 28.609375 72.90625 
L 39.796875 72.90625 
L 67.578125 0 
L 57.328125 0 
L 50.6875 18.703125 
L 17.828125 18.703125 
L 11.1875 0 
L 0.78125 0 
z
" id="DejaVuSans-41"/>
      <path d="M 30.421875 75.984375 
L 30.421875 -13.1875 
L 9.71875 -13.1875 
L 9.71875 -6.203125 
L 21.390625 -6.203125 
L 21.390625 69 
L 9.71875 69 
L 9.71875 75.984375 
z
" id="DejaVuSans-5d"/>
     </defs>
     <g transform="translate(13.434687 240.768)rotate(-90)scale(0.12 -0.12)">
      <use transform="translate(0 0.015625)" xlink:href="#DejaVuSans-28"/>
      <use transform="translate(39.013672 0.015625)" xlink:href="#DejaVuSans-70"/>
      <use transform="translate(102.490234 0.015625)" xlink:href="#DejaVuSans-61"/>
      <use transform="translate(163.769531 0.015625)" xlink:href="#DejaVuSans-72"/>
      <use transform="translate(204.882812 0.015625)" xlink:href="#DejaVuSans-74"/>
      <use transform="translate(244.091797 0.015625)" xlink:href="#DejaVuSans-69"/>
      <use transform="translate(271.875 0.015625)" xlink:href="#DejaVuSans-61"/>
      <use transform="translate(333.154297 0.015625)" xlink:href="#DejaVuSans-6c"/>
      <use transform="translate(360.9375 0.015625)" xlink:href="#DejaVuSans-29"/>
      <use transform="translate(399.951172 0.015625)" xlink:href="#DejaVuSans-20"/>
      <use transform="translate(431.738281 0.015625)" xlink:href="#DejaVuSans-63"/>
      <use transform="translate(486.71875 0.015625)" xlink:href="#DejaVuSans-75"/>
      <use transform="translate(550.097656 0.015625)" xlink:href="#DejaVuSans-72"/>
      <use transform="translate(591.210938 0.015625)" xlink:href="#DejaVuSans-72"/>
      <use transform="translate(632.324219 0.015625)" xlink:href="#DejaVuSans-65"/>
      <use transform="translate(693.847656 0.015625)" xlink:href="#DejaVuSans-6e"/>
      <use transform="translate(757.226562 0.015625)" xlink:href="#DejaVuSans-74"/>
      <use transform="translate(796.435547 0.015625)" xlink:href="#DejaVuSans-20"/>
      <use transform="translate(828.222656 0.015625)" xlink:href="#DejaVuSans-2f"/>
      <use transform="translate(861.914062 0.015625)" xlink:href="#DejaVuSans-20"/>
      <use transform="translate(893.701172 0.015625)" xlink:href="#DejaVuSans-5b"/>
      <use transform="translate(932.714844 0.015625)" xlink:href="#DejaVuSans-Oblique-3bc"/>
      <use transform="translate(996.337891 0.015625)" xlink:href="#DejaVuSans-41"/>
      <use transform="translate(1064.746094 0.015625)" xlink:href="#DejaVuSans-5d"/>
     </g>
    </g>
   </g>
   <g id="line2d_18">
    <path clip-path="url(#p6f5d60ec3e)" d="M 73.832727 160.712577 
L 76.217516 160.193441 
L 80.987083 160.730107 
L 83.372415 161.319582 
L 85.756573 160.126521 
L 88.141374 159.492039 
L 92.996681 160.818256 
L 95.416358 160.819158 
L 97.852001 159.72211 
L 100.261712 160.739245 
L 105.212172 160.062119 
L 107.579845 159.96564 
L 110.067529 159.11352 
L 112.555151 158.052155 
L 114.922808 154.962207 
L 117.273905 152.312042 
L 122.162822 134.937692 
L 124.547705 128.650066 
L 126.932396 128.204969 
L 129.317924 125.082136 
L 131.684856 123.810873 
L 134.070174 125.203357 
L 136.437208 125.455434 
L 138.804783 123.840711 
L 141.174835 124.996971 
L 143.557227 123.923079 
L 145.94193 125.84707 
L 148.292457 123.576202 
L 153.250638 122.750347 
L 155.755499 123.876767 
L 158.226029 123.978095 
L 162.961308 123.53766 
L 167.696579 123.912201 
L 170.201364 123.349923 
L 172.586156 125.520396 
L 175.056765 122.996829 
L 177.424342 123.161565 
L 179.826164 124.526386 
L 182.210956 123.589256 
L 184.595841 123.198242 
L 186.980537 124.744272 
L 189.348194 125.619237 
L 191.732985 124.283323 
L 194.134814 124.796801 
L 196.520225 123.985866 
L 198.990128 122.795105 
L 201.374922 123.397168 
L 203.742479 122.581259 
L 206.195884 122.744441 
L 208.666493 124.489398 
L 211.154236 122.920366 
L 213.573288 125.099231 
L 216.065983 123.346193 
L 218.428623 124.032489 
L 220.81337 123.703017 
L 223.215293 125.991292 
L 225.582878 124.714744 
L 227.933317 122.96699 
L 230.404591 124.824464 
L 232.874444 123.118049 
L 235.399713 125.462272 
L 237.746975 124.9059 
L 240.269602 125.334835 
L 242.653682 124.699203 
L 245.038477 124.289228 
L 247.526205 124.64916 
L 249.979601 123.841644 
L 252.381527 122.762779 
L 254.757973 124.109573 
L 257.236833 121.914234 
L 259.621621 123.620028 
L 262.006413 123.90816 
L 264.391114 123.782898 
L 269.280766 124.887561 
L 271.666199 124.006691 
L 274.016011 125.088663 
L 276.486623 122.902339 
L 278.957154 122.40378 
L 281.462022 124.24851 
L 283.949677 123.844131 
L 286.317364 124.874196 
L 288.710628 123.948256 
L 291.174969 123.568431 
L 293.65138 124.367245 
L 296.130829 124.506493 
L 298.498494 123.746221 
L 303.250935 124.812653 
L 305.636251 123.793466 
L 307.986076 126.213219 
L 310.45669 123.866821 
L 312.961564 124.537886 
L 315.432082 124.516129 
L 317.817402 125.260859 
L 320.287404 124.933252 
L 322.672108 123.926809 
L 325.142732 123.783209 
L 327.647738 126.248031 
L 330.100985 135.79867 
L 332.486304 142.196017 
L 334.88826 150.114217 
L 337.282856 153.865843 
L 339.746876 155.602128 
L 342.110666 157.725574 
L 344.495436 157.835667 
L 346.845906 158.690335 
L 349.316416 160.010025 
L 351.804172 159.608163 
L 354.343292 160.419658 
L 356.728086 160.736448 
L 359.232944 160.627971 
L 361.703481 161.561029 
L 364.156861 160.946129 
L 366.610272 160.776762 
L 369.098632 160.234656 
L 371.568515 161.578031 
L 374.021939 160.373066 
L 376.389584 161.024301 
L 378.808633 160.857638 
L 381.31344 162.197717 
L 383.78456 159.109013 
L 386.220291 161.248341 
L 388.725168 161.066231 
L 391.178543 159.597097 
L 393.631861 160.793857 
L 396.016773 161.501071 
L 398.487273 160.982713 
L 398.487273 160.982713 
" style="fill:none;stroke:#000000;stroke-linecap:square;stroke-width:1.5;"/>
   </g>
   <g id="line2d_19">
    <path clip-path="url(#p6f5d60ec3e)" d="M 73.894563 57.204924 
L 74.083298 57.262913 
L 74.769605 57.131133 
L 76.829213 57.514805 
L 77.172367 57.44283 
L 78.202171 57.56756 
L 79.575129 57.294483 
L 80.261779 57.335195 
L 81.977891 57.121274 
L 82.321387 57.136868 
L 84.037499 56.654294 
L 84.380652 56.71568 
L 86.440261 56.4947 
L 87.126911 56.470715 
L 87.813218 56.181202 
L 88.156543 56.114163 
L 89.186348 56.150094 
L 90.21598 56.118339 
L 91.245784 55.973603 
L 91.589109 56.014935 
L 92.275588 55.817627 
L 92.962067 56.001418 
L 93.305392 55.664041 
L 93.648546 55.075989 
L 93.991871 54.890372 
L 94.335196 54.952279 
L 94.67835 55.181575 
L 95.708154 55.215408 
L 99.14072 54.127689 
L 100.513678 53.594919 
L 101.200157 53.082134 
L 102.91644 52.209389 
L 103.946244 51.364056 
L 104.632723 50.635278 
L 106.692159 47.707545 
L 107.721963 45.752035 
L 109.094921 42.361511 
L 110.811376 36.39161 
L 111.841008 31.463909 
L 112.167176 30.826739 
L 112.338752 33.97109 
L 113.711367 74.620887 
L 114.226097 82.539684 
L 114.740828 87.728801 
L 115.427135 92.205816 
L 115.941866 94.534066 
L 116.628173 96.733123 
L 117.486057 98.553522 
L 118.515518 100.0111 
L 119.373402 100.919451 
L 120.231286 101.555425 
L 121.603901 102.342119 
L 122.461785 102.74354 
L 123.148092 103.074063 
L 124.520707 103.586221 
L 127.094359 104.339233 
L 130.525896 105.041029 
L 130.869049 105.059642 
L 132.756394 105.337716 
L 133.442702 105.302187 
L 133.785855 105.301881 
L 134.129009 105.320794 
L 134.643739 105.474446 
L 134.986893 105.650089 
L 135.330047 105.735448 
L 135.6732 105.904936 
L 136.187931 105.730373 
L 138.761583 106.144253 
L 139.276314 106.184395 
L 140.648928 106.263911 
L 141.335235 106.3605 
L 145.96781 106.607038 
L 146.48254 106.621039 
L 146.997271 106.699938 
L 149.056192 106.918031 
L 149.7425 106.967861 
L 151.115114 107.129815 
L 151.629845 107.118892 
L 152.830883 107.156113 
L 153.51719 107.191642 
L 156.433996 107.256084 
L 156.777149 107.283461 
L 157.29188 107.263312 
L 158.149764 107.285459 
L 161.409724 107.622905 
L 161.752877 107.54523 
L 162.267608 107.639052 
L 163.640222 107.701497 
L 166.900182 107.765783 
L 168.272797 107.762094 
L 170.674872 107.811462 
L 171.189603 107.807155 
L 171.704333 107.901128 
L 172.047487 107.893899 
L 173.076948 107.930046 
L 173.420101 108.0051 
L 174.449562 108.073543 
L 175.307446 108.098916 
L 175.822177 108.069386 
L 176.336907 108.164588 
L 177.023214 108.113991 
L 177.881099 108.093074 
L 178.395829 108.033089 
L 179.768444 108.063237 
L 181.827366 108.073387 
L 182.342096 108.080309 
L 183.028403 108.091226 
L 183.886287 108.118297 
L 184.401018 108.190891 
L 186.45994 108.331466 
L 186.97467 108.348844 
L 188.518862 108.411906 
L 189.376746 108.383756 
L 189.891476 108.411289 
L 190.406207 108.358226 
L 191.092514 108.393137 
L 192.636705 108.284096 
L 193.151436 108.306243 
L 194.00932 108.327621 
L 194.695627 108.362227 
L 196.239819 108.419285 
L 197.440856 108.510642 
L 198.813471 108.568318 
L 199.156625 108.624151 
L 200.529239 108.587855 
L 201.387123 108.570783 
L 203.274468 108.561089 
L 204.303929 108.503108 
L 206.019697 108.534174 
L 207.220735 108.576469 
L 207.563889 108.597698 
L 207.907043 108.616923 
L 208.250196 108.62907 
L 208.59335 108.663982 
L 209.10808 108.681209 
L 213.225924 108.776568 
L 214.083808 108.745963 
L 214.770115 108.682595 
L 217.686921 108.656754 
L 218.373229 108.677058 
L 219.40269 108.680597 
L 219.91742 108.770263 
L 222.491072 108.860697 
L 223.348957 108.925445 
L 226.437339 108.903148 
L 227.123647 108.884073 
L 229.010992 108.813171 
L 232.442528 108.940519 
L 233.300412 108.990966 
L 233.643566 108.96236 
L 235.702488 109.02619 
L 236.388795 109.052793 
L 238.27614 109.007732 
L 239.134024 109.029573 
L 239.648755 108.99189 
L 245.997097 109.051719 
L 246.511828 109.104626 
L 247.026558 109.109545 
L 247.712865 109.112316 
L 248.570749 109.108627 
L 250.801248 109.077711 
L 251.144402 109.105394 
L 251.659132 109.091555 
L 255.948553 109.08771 
L 256.806437 109.139693 
L 257.149591 109.089864 
L 257.835898 109.21813 
L 258.522205 109.191677 
L 260.924281 109.199217 
L 261.267434 109.210596 
L 261.953742 109.208286 
L 262.983203 109.131541 
L 264.012663 109.176297 
L 265.213701 109.094015 
L 266.071585 109.161534 
L 266.414739 109.100781 
L 267.101046 109.139232 
L 270.361006 109.279651 
L 270.532583 109.344867 
L 270.875736 109.279807 
L 271.390467 109.314568 
L 281.513499 109.283496 
L 282.54296 109.431611 
L 284.258729 109.412998 
L 284.601882 109.40454 
L 285.631343 109.414077 
L 285.974497 109.389621 
L 286.31765 109.402848 
L 287.690265 109.343325 
L 289.57761 109.288571 
L 289.920764 109.315948 
L 290.607071 109.326871 
L 293.009146 109.412386 
L 293.3523 109.432991 
L 294.553338 109.510666 
L 294.896492 109.529273 
L 295.582799 109.511122 
L 295.925952 109.519736 
L 296.61226 109.512814 
L 297.12699 109.617709 
L 297.470144 109.162764 
L 297.641721 109.259964 
L 297.984874 109.284114 
L 298.328028 109.402848 
L 298.671182 109.40992 
L 299.185912 109.435144 
L 300.043796 109.428996 
L 300.90168 109.433303 
L 303.646909 109.37778 
L 304.504794 109.478825 
L 305.877408 109.506509 
L 307.764753 109.574952 
L 309.137368 109.538961 
L 310.166829 109.503893 
L 310.509982 109.512813 
L 311.19629 109.485898 
L 312.912058 109.382855 
L 313.426788 109.447759 
L 314.113096 109.368399 
L 315.142557 109.437298 
L 316.686748 109.539884 
L 316.858325 109.502202 
L 317.201478 109.574184 
L 317.887786 109.574952 
L 317.934455 109.566041 
L 318.123361 114.097059 
L 319.49649 161.558662 
L 320.182797 175.722729 
L 321.212601 190.874382 
L 322.242406 201.805773 
L 323.27221 209.846055 
L 324.302014 215.763543 
L 325.331646 220.575473 
L 326.018125 223.170569 
L 327.734408 228.121056 
L 328.420887 229.776855 
L 329.794016 232.372628 
L 330.480495 233.406755 
L 332.883257 236.142491 
L 333.569736 237.114394 
L 334.942865 238.948766 
L 336.658976 240.91344 
L 338.375259 242.971775 
L 339.405063 244.397907 
L 340.778021 245.844361 
L 341.4645 246.415126 
L 342.494304 246.70734 
L 343.180783 247.082145 
L 343.867262 247.135307 
L 344.897066 247.237232 
L 346.956674 247.781381 
L 347.643153 248.174517 
L 350.732394 249.011402 
L 352.448677 249.940798 
L 353.821806 250.357695 
L 355.537917 251.031572 
L 356.567721 251.620712 
L 357.940679 251.864273 
L 359.313637 252.274283 
L 360.000287 252.514618 
L 360.686766 252.985029 
L 361.030091 253.16383 
L 361.716399 253.183272 
L 364.805811 254.503318 
L 365.835615 254.984648 
L 366.178769 255.007488 
L 366.865248 255.333238 
L 368.924684 256.138769 
L 369.954488 256.685839 
L 370.641139 256.790639 
L 372.014096 257.440207 
L 373.387054 258.033578 
L 374.416858 258.729991 
L 375.103337 259.004116 
L 377.128458 260.069662 
L 377.254053 260.442159 
L 377.442787 253.953069 
L 378.815745 156.633177 
L 379.502224 128.55085 
L 380.188703 110.46149 
L 380.875353 98.248464 
L 381.56166 89.425482 
L 382.248311 82.972567 
L 383.278115 76.205072 
L 384.307747 71.538748 
L 384.994226 69.384745 
L 386.02403 66.840823 
L 386.710509 65.578254 
L 387.396988 64.679368 
L 388.426792 63.56722 
L 388.770117 63.159794 
L 389.456596 62.639788 
L 391.859358 60.465375 
L 393.575641 59.4103 
L 394.26212 59.083477 
L 394.948599 58.477479 
L 397.351361 57.476637 
L 397.694686 57.396883 
L 398.346849 57.446144 
L 398.346849 57.446144 
" style="fill:none;stroke:#ff0000;stroke-dasharray:5.6,2.4;stroke-dashoffset:0;stroke-width:1.5;"/>
   </g>
   <g id="patch_3">
    <path d="M 57.6 307.584 
L 57.6 41.472 
" style="fill:none;stroke:#000000;stroke-linecap:square;stroke-linejoin:miter;stroke-width:0.8;"/>
   </g>
   <g id="patch_4">
    <path d="M 414.72 307.584 
L 414.72 41.472 
" style="fill:none;stroke:#000000;stroke-linecap:square;stroke-linejoin:miter;stroke-width:0.8;"/>
   </g>
   <g id="patch_5">
    <path d="M 57.6 307.584 
L 414.72 307.584 
" style="fill:none;stroke:#000000;stroke-linecap:square;stroke-linejoin:miter;stroke-width:0.8;"/>
   </g>
   <g id="patch_6">
    <path d="M 57.6 41.472 
L 414.72 41.472 
" style="fill:none;stroke:#000000;stroke-linecap:square;stroke-linejoin:miter;stroke-width:0.8;"/>
   </g>
  </g>
  <g id="axes_2">
   <g id="matplotlib.axis_3">
    <g id="ytick_10">
     <g id="line2d_20">
      <defs>
       <path d="M 0 0 
L 3.5 0 
" id="m1d30a7ba84" style="stroke:#0000ff;stroke-width:0.8;"/>
      </defs>
      <g>
       <use style="fill:#0000ff;stroke:#0000ff;stroke-width:0.8;" x="414.72" xlink:href="#m1d30a7ba84" y="283.392"/>
      </g>
     </g>
     <g id="text_20">
      <!-- 1.2 -->
      <g style="fill:#0000ff;" transform="translate(421.72 287.191219)scale(0.1 -0.1)">
       <use xlink:href="#DejaVuSans-31"/>
       <use x="63.623047" xlink:href="#DejaVuSans-2e"/>
       <use x="95.410156" xlink:href="#DejaVuSans-32"/>
      </g>
     </g>
    </g>
    <g id="ytick_11">
     <g id="line2d_21">
      <g>
       <use style="fill:#0000ff;stroke:#0000ff;stroke-width:0.8;" x="414.72" xlink:href="#m1d30a7ba84" y="259.2"/>
      </g>
     </g>
     <g id="text_21">
      <!-- 1.3 -->
      <defs>
       <path d="M 40.578125 39.3125 
Q 47.65625 37.796875 51.625 33 
Q 55.609375 28.21875 55.609375 21.1875 
Q 55.609375 10.40625 48.1875 4.484375 
Q 40.765625 -1.421875 27.09375 -1.421875 
Q 22.515625 -1.421875 17.65625 -0.515625 
Q 12.796875 0.390625 7.625 2.203125 
L 7.625 11.71875 
Q 11.71875 9.328125 16.59375 8.109375 
Q 21.484375 6.890625 26.8125 6.890625 
Q 36.078125 6.890625 40.9375 10.546875 
Q 45.796875 14.203125 45.796875 21.1875 
Q 45.796875 27.640625 41.28125 31.265625 
Q 36.765625 34.90625 28.71875 34.90625 
L 20.21875 34.90625 
L 20.21875 43.015625 
L 29.109375 43.015625 
Q 36.375 43.015625 40.234375 45.921875 
Q 44.09375 48.828125 44.09375 54.296875 
Q 44.09375 59.90625 40.109375 62.90625 
Q 36.140625 65.921875 28.71875 65.921875 
Q 24.65625 65.921875 20.015625 65.03125 
Q 15.375 64.15625 9.8125 62.3125 
L 9.8125 71.09375 
Q 15.4375 72.65625 20.34375 73.4375 
Q 25.25 74.21875 29.59375 74.21875 
Q 40.828125 74.21875 47.359375 69.109375 
Q 53.90625 64.015625 53.90625 55.328125 
Q 53.90625 49.265625 50.4375 45.09375 
Q 46.96875 40.921875 40.578125 39.3125 
" id="DejaVuSans-33"/>
      </defs>
      <g style="fill:#0000ff;" transform="translate(421.72 262.999219)scale(0.1 -0.1)">
       <use xlink:href="#DejaVuSans-31"/>
       <use x="63.623047" xlink:href="#DejaVuSans-2e"/>
       <use x="95.410156" xlink:href="#DejaVuSans-33"/>
      </g>
     </g>
    </g>
    <g id="ytick_12">
     <g id="line2d_22">
      <g>
       <use style="fill:#0000ff;stroke:#0000ff;stroke-width:0.8;" x="414.72" xlink:href="#m1d30a7ba84" y="235.008"/>
      </g>
     </g>
     <g id="text_22">
      <!-- 1.4 -->
      <defs>
       <path d="M 37.796875 64.3125 
L 12.890625 25.390625 
L 37.796875 25.390625 
z
M 35.203125 72.90625 
L 47.609375 72.90625 
L 47.609375 25.390625 
L 58.015625 25.390625 
L 58.015625 17.1875 
L 47.609375 17.1875 
L 47.609375 0 
L 37.796875 0 
L 37.796875 17.1875 
L 4.890625 17.1875 
L 4.890625 26.703125 
z
" id="DejaVuSans-34"/>
      </defs>
      <g style="fill:#0000ff;" transform="translate(421.72 238.807219)scale(0.1 -0.1)">
       <use xlink:href="#DejaVuSans-31"/>
       <use x="63.623047" xlink:href="#DejaVuSans-2e"/>
       <use x="95.410156" xlink:href="#DejaVuSans-34"/>
      </g>
     </g>
    </g>
    <g id="text_23">
     <!-- U vs RHE / [V] -->
     <defs>
      <path d="M 8.6875 72.90625 
L 18.609375 72.90625 
L 18.609375 28.609375 
Q 18.609375 16.890625 22.84375 11.734375 
Q 27.09375 6.59375 36.625 6.59375 
Q 46.09375 6.59375 50.34375 11.734375 
Q 54.59375 16.890625 54.59375 28.609375 
L 54.59375 72.90625 
L 64.5 72.90625 
L 64.5 27.390625 
Q 64.5 13.140625 57.4375 5.859375 
Q 50.390625 -1.421875 36.625 -1.421875 
Q 22.796875 -1.421875 15.734375 5.859375 
Q 8.6875 13.140625 8.6875 27.390625 
z
" id="DejaVuSans-55"/>
      <path d="M 2.984375 54.6875 
L 12.5 54.6875 
L 29.59375 8.796875 
L 46.6875 54.6875 
L 56.203125 54.6875 
L 35.6875 0 
L 23.484375 0 
z
" id="DejaVuSans-76"/>
      <path d="M 44.390625 34.1875 
Q 47.5625 33.109375 50.5625 29.59375 
Q 53.5625 26.078125 56.59375 19.921875 
L 66.609375 0 
L 56 0 
L 46.6875 18.703125 
Q 43.0625 26.03125 39.671875 28.421875 
Q 36.28125 30.8125 30.421875 30.8125 
L 19.671875 30.8125 
L 19.671875 0 
L 9.8125 0 
L 9.8125 72.90625 
L 32.078125 72.90625 
Q 44.578125 72.90625 50.734375 67.671875 
Q 56.890625 62.453125 56.890625 51.90625 
Q 56.890625 45.015625 53.6875 40.46875 
Q 50.484375 35.9375 44.390625 34.1875 
M 19.671875 64.796875 
L 19.671875 38.921875 
L 32.078125 38.921875 
Q 39.203125 38.921875 42.84375 42.21875 
Q 46.484375 45.515625 46.484375 51.90625 
Q 46.484375 58.296875 42.84375 61.546875 
Q 39.203125 64.796875 32.078125 64.796875 
z
" id="DejaVuSans-52"/>
      <path d="M 9.8125 72.90625 
L 19.671875 72.90625 
L 19.671875 43.015625 
L 55.515625 43.015625 
L 55.515625 72.90625 
L 65.375 72.90625 
L 65.375 0 
L 55.515625 0 
L 55.515625 34.71875 
L 19.671875 34.71875 
L 19.671875 0 
L 9.8125 0 
z
" id="DejaVuSans-48"/>
      <path d="M 9.8125 72.90625 
L 55.90625 72.90625 
L 55.90625 64.59375 
L 19.671875 64.59375 
L 19.671875 43.015625 
L 54.390625 43.015625 
L 54.390625 34.71875 
L 19.671875 34.71875 
L 19.671875 8.296875 
L 56.78125 8.296875 
L 56.78125 0 
L 9.8125 0 
z
" id="DejaVuSans-45"/>
      <path d="M 28.609375 0 
L 0.78125 72.90625 
L 11.078125 72.90625 
L 34.1875 11.53125 
L 57.328125 72.90625 
L 67.578125 72.90625 
L 39.796875 0 
z
" id="DejaVuSans-56"/>
     </defs>
     <g style="fill:#0000ff;" transform="translate(450.74125 216.503625)rotate(-90)scale(0.12 -0.12)">
      <use xlink:href="#DejaVuSans-55"/>
      <use x="73.193359" xlink:href="#DejaVuSans-20"/>
      <use x="104.980469" xlink:href="#DejaVuSans-76"/>
      <use x="164.160156" xlink:href="#DejaVuSans-73"/>
      <use x="216.259766" xlink:href="#DejaVuSans-20"/>
      <use x="248.046875" xlink:href="#DejaVuSans-52"/>
      <use x="317.529297" xlink:href="#DejaVuSans-48"/>
      <use x="392.724609" xlink:href="#DejaVuSans-45"/>
      <use x="455.908203" xlink:href="#DejaVuSans-20"/>
      <use x="487.695312" xlink:href="#DejaVuSans-2f"/>
      <use x="521.386719" xlink:href="#DejaVuSans-20"/>
      <use x="553.173828" xlink:href="#DejaVuSans-5b"/>
      <use x="592.1875" xlink:href="#DejaVuSans-56"/>
      <use x="660.595703" xlink:href="#DejaVuSans-5d"/>
     </g>
    </g>
   </g>
   <g id="line2d_23">
    <path clip-path="url(#p6f5d60ec3e)" d="M 73.894563 269.761316 
L 74.083298 269.45337 
L 75.799409 268.066003 
L 76.48606 267.522671 
L 76.829213 267.501239 
L 78.202171 266.75359 
L 78.545496 266.368448 
L 78.888821 266.174444 
L 80.261779 264.931941 
L 81.291583 264.22878 
L 85.410456 261.610773 
L 85.753782 261.22719 
L 86.097107 261.112677 
L 88.843022 258.81022 
L 89.186348 258.704424 
L 89.529673 258.342489 
L 90.559305 257.866732 
L 90.902631 257.685271 
L 91.245784 257.650692 
L 95.021675 254.501535 
L 95.365001 254.267836 
L 96.051308 254.030037 
L 96.737958 253.742849 
L 97.424437 253.42587 
L 98.45407 252.570095 
L 99.483874 251.448167 
L 100.856831 250.333648 
L 101.200157 250.199418 
L 101.543482 249.927926 
L 102.229961 249.685401 
L 104.289397 248.318865 
L 104.976048 247.757374 
L 107.721963 245.885035 
L 109.438246 244.73348 
L 112.338752 242.649476 
L 113.02506 242.692135 
L 113.196637 242.903111 
L 113.368213 242.6542 
L 113.53979 242.743792 
L 114.054521 242.652657 
L 114.226097 242.782203 
L 115.255558 242.076017 
L 115.427135 242.214799 
L 115.770289 241.787487 
L 116.113443 242.000422 
L 116.456596 241.76373 
L 117.142903 242.088808 
L 117.31448 242.061884 
L 117.486057 242.308236 
L 117.829211 242.321417 
L 118.000788 242.577347 
L 118.343941 242.438623 
L 118.515518 242.649031 
L 118.687095 242.517712 
L 119.201825 242.83968 
L 119.373402 242.709161 
L 119.544979 242.730735 
L 119.716556 242.618284 
L 119.888133 242.668313 
L 120.231286 242.416672 
L 120.402863 242.44322 
L 120.746017 242.177811 
L 120.917594 242.163193 
L 121.08917 242.014347 
L 121.432324 242.022005 
L 121.603901 241.864236 
L 121.775478 242.052803 
L 121.947054 241.871535 
L 122.290208 242.21641 
L 122.461785 241.966365 
L 122.804939 242.061521 
L 122.976515 242.323946 
L 123.148092 242.092274 
L 123.491246 242.219904 
L 123.662823 242.126925 
L 123.8344 242.370797 
L 124.005976 242.305755 
L 124.34913 242.683094 
L 124.520707 242.354837 
L 124.692284 242.603461 
L 124.86386 242.455244 
L 125.721745 242.618235 
L 125.893321 242.183903 
L 126.064898 242.289666 
L 126.236475 242.123265 
L 126.751206 242.131338 
L 127.437513 241.778601 
L 128.466974 242.067427 
L 128.638551 242.325695 
L 129.153281 242.481337 
L 129.324858 242.753622 
L 129.496435 242.596044 
L 129.668011 242.798216 
L 130.869049 242.690845 
L 131.212203 242.552032 
L 131.38378 242.69904 
L 131.555357 242.675103 
L 132.070087 242.292315 
L 132.241664 242.587441 
L 132.413241 242.218312 
L 132.584817 242.203141 
L 132.756394 242.365007 
L 132.927971 242.070008 
L 133.099548 242.227199 
L 133.271125 242.107557 
L 133.442702 242.333049 
L 133.614278 242.060474 
L 133.957432 242.462553 
L 134.300586 242.138834 
L 134.643739 242.455939 
L 134.986893 242.315727 
L 135.501623 242.577057 
L 135.6732 242.183964 
L 135.844777 242.424927 
L 136.187931 242.448767 
L 136.359508 242.39304 
L 136.531084 242.466951 
L 136.874238 242.415403 
L 137.045815 242.00897 
L 137.217392 242.179408 
L 137.903699 242.007281 
L 138.075276 242.145882 
L 138.246853 241.928284 
L 138.418429 242.329436 
L 138.590006 242.01099 
L 139.104737 242.163003 
L 139.276314 242.278083 
L 139.44789 242.134803 
L 139.619467 242.21277 
L 139.791044 242.521751 
L 139.962621 242.39249 
L 140.134198 242.526196 
L 140.477351 242.503427 
L 140.648928 242.618801 
L 140.992082 242.571937 
L 141.163659 242.632014 
L 141.506812 242.594707 
L 141.678389 242.557483 
L 142.021543 242.312963 
L 142.19312 242.349861 
L 142.364696 242.164814 
L 142.536273 242.243462 
L 142.70785 242.031446 
L 142.879427 242.099981 
L 143.22258 241.961132 
L 143.394157 242.164936 
L 143.908888 241.956577 
L 144.252041 242.330287 
L 144.423618 242.131672 
L 144.766772 242.607127 
L 145.109926 242.385313 
L 145.453079 242.662167 
L 145.624656 242.592741 
L 145.96781 242.892269 
L 146.310963 242.615476 
L 146.48254 242.712143 
L 146.997271 242.651356 
L 147.168847 242.222049 
L 147.340424 242.350948 
L 147.512001 242.26339 
L 147.855155 242.290503 
L 148.026731 242.281094 
L 148.198308 242.105564 
L 148.541462 242.16102 
L 148.713039 241.763469 
L 149.227769 242.048816 
L 149.399346 241.845713 
L 149.914077 242.071507 
L 150.085653 242.025107 
L 150.25723 242.163122 
L 150.428807 242.14952 
L 150.943537 242.587394 
L 151.115114 242.365544 
L 151.801422 242.522396 
L 151.972998 242.674717 
L 152.144575 242.425531 
L 152.487729 242.609792 
L 152.659306 242.356264 
L 152.830883 242.582194 
L 153.345613 242.369832 
L 153.51719 242.567982 
L 153.860343 242.231247 
L 154.203497 242.235518 
L 154.375074 242.286543 
L 154.546651 241.746116 
L 154.718228 241.736725 
L 154.889804 241.995257 
L 155.061381 241.778682 
L 155.404535 242.050669 
L 155.576112 241.935539 
L 155.747689 242.217011 
L 155.919265 241.953422 
L 157.29188 242.724179 
L 157.463457 242.414718 
L 157.635034 242.410342 
L 157.80661 242.658979 
L 158.321341 242.672987 
L 158.492918 242.492828 
L 159.179225 242.450528 
L 159.350802 242.580364 
L 159.693955 242.325748 
L 159.865532 242.334895 
L 160.380263 241.942295 
L 160.723416 242.140205 
L 160.894993 241.728927 
L 161.06657 242.278164 
L 161.409724 242.056014 
L 162.096031 242.023558 
L 162.267608 242.369679 
L 162.439185 242.157189 
L 162.953915 242.152405 
L 163.640222 242.595196 
L 163.811799 242.456655 
L 163.983376 242.576691 
L 165.012837 242.285366 
L 165.184414 242.562596 
L 165.527567 242.050372 
L 165.699144 241.976578 
L 165.870721 242.115049 
L 166.042298 241.920979 
L 166.213875 242.179462 
L 166.385451 241.920862 
L 166.557028 242.230124 
L 166.900182 242.091515 
L 167.071759 241.985502 
L 167.758066 242.119586 
L 167.929643 242.493884 
L 168.10122 242.262426 
L 168.444373 242.36374 
L 168.61595 242.548677 
L 168.787527 242.474945 
L 168.959104 242.266879 
L 169.473834 242.68697 
L 169.816988 242.465538 
L 169.988565 242.516123 
L 170.160142 242.40956 
L 170.503295 242.686269 
L 171.018026 242.340471 
L 171.189603 242.344928 
L 171.361179 242.127621 
L 171.532756 242.210446 
L 171.87591 242.030746 
L 172.39064 241.947262 
L 173.076948 241.974486 
L 173.248524 241.742764 
L 173.763255 242.07578 
L 173.934832 242.06619 
L 174.106409 242.227151 
L 174.277985 242.102314 
L 174.621139 242.337432 
L 174.964293 242.360519 
L 175.307446 242.632753 
L 175.479023 242.559337 
L 175.6506 242.660474 
L 175.822177 242.466905 
L 175.993754 242.743326 
L 176.16533 242.452551 
L 176.336907 242.549023 
L 176.508484 242.387826 
L 176.680061 242.466303 
L 177.023214 242.143418 
L 177.366368 242.309691 
L 177.537945 241.8899 
L 177.709522 241.995839 
L 177.881099 241.852871 
L 178.052675 241.936429 
L 178.395829 241.696556 
L 178.567406 242.005592 
L 178.738983 241.862467 
L 179.253713 242.16698 
L 179.42529 241.705281 
L 179.596867 241.958996 
L 179.768444 241.867012 
L 179.94002 241.977693 
L 180.111597 242.29612 
L 180.454751 242.194437 
L 180.626328 242.337662 
L 180.797905 242.282147 
L 180.969481 242.499119 
L 181.141058 242.476254 
L 181.312635 242.25937 
L 181.484212 242.549657 
L 181.655789 242.23144 
L 181.827366 242.688393 
L 182.170519 242.332912 
L 182.68525 242.263472 
L 183.371557 242.07877 
L 183.714711 242.244728 
L 183.886287 242.032602 
L 184.057864 241.999699 
L 184.229441 242.248996 
L 184.572595 242.290138 
L 184.744172 242.294819 
L 185.087325 242.003785 
L 185.602056 242.220222 
L 185.945209 242.081614 
L 186.116786 242.25229 
L 186.288363 241.998184 
L 186.45994 242.312 
L 186.631517 242.104582 
L 186.803093 242.371992 
L 186.97467 242.182597 
L 187.146247 242.196275 
L 187.317824 242.062231 
L 187.489401 242.242407 
L 187.660977 242.052744 
L 187.832554 242.03014 
L 188.175708 242.228199 
L 188.862015 241.993014 
L 189.033592 242.228176 
L 189.205169 241.766799 
L 189.376746 242.011491 
L 189.548323 241.964983 
L 189.719899 242.140554 
L 190.74936 242.103889 
L 190.920937 242.002005 
L 191.092514 242.357525 
L 191.264091 242.127 
L 191.607244 242.459087 
L 191.950398 242.408581 
L 192.121975 242.519641 
L 192.293552 242.178313 
L 192.808282 242.482843 
L 193.151436 242.173794 
L 193.323013 242.450809 
L 193.837743 242.099834 
L 194.00932 242.178196 
L 194.180897 242.408664 
L 194.52405 242.099691 
L 194.867204 242.140985 
L 195.210358 241.946668 
L 195.553511 242.260135 
L 196.068242 242.025171 
L 196.411395 242.200058 
L 196.754549 241.969174 
L 196.926126 242.338044 
L 197.097703 242.181067 
L 197.440856 242.397892 
L 197.612433 242.153302 
L 197.78401 242.143693 
L 197.955587 242.374618 
L 198.127164 242.199159 
L 198.29874 242.184962 
L 198.470317 241.986858 
L 198.813471 242.34193 
L 198.985048 242.059605 
L 199.156625 242.3183 
L 199.328201 242.096708 
L 199.842932 242.27686 
L 200.014509 241.963078 
L 200.186086 241.930709 
L 200.529239 242.092521 
L 201.04397 242.203182 
L 201.215546 241.894445 
L 201.5587 242.258757 
L 201.730277 242.341633 
L 201.901854 242.06033 
L 202.416584 242.06522 
L 202.759738 242.425291 
L 202.931315 242.056022 
L 203.102892 242.166452 
L 203.274468 242.028174 
L 203.617622 242.332887 
L 203.960776 242.185611 
L 204.132352 242.3562 
L 204.303929 242.03337 
L 204.475506 242.351891 
L 204.647083 242.392939 
L 204.81866 242.171978 
L 204.990237 242.346905 
L 205.161813 242.217709 
L 205.33339 242.411632 
L 205.676544 242.356059 
L 206.019697 242.111516 
L 206.191274 242.38359 
L 206.877582 242.271973 
L 207.049158 242.397297 
L 207.392312 242.24998 
L 207.563889 242.032424 
L 207.907043 242.138389 
L 208.078619 241.737055 
L 208.59335 242.188675 
L 208.936503 241.791806 
L 209.279657 242.0546 
L 209.622811 242.008505 
L 209.794388 241.878531 
L 209.965964 242.082293 
L 210.137541 242.100743 
L 210.309118 242.321922 
L 210.480695 242.021377 
L 210.652272 242.307549 
L 210.823849 242.215667 
L 210.995425 242.400341 
L 211.167002 242.312939 
L 211.338579 242.50639 
L 211.853309 242.533735 
L 212.024886 242.43232 
L 212.196463 242.524464 
L 212.36804 242.381516 
L 212.539617 242.413976 
L 212.88277 242.233507 
L 213.054347 242.307387 
L 213.225924 242.196776 
L 213.397501 241.8832 
L 213.740655 242.02177 
L 214.255385 242.035467 
L 214.426962 241.897307 
L 214.598539 242.275996 
L 214.770115 241.897747 
L 214.941692 242.207019 
L 215.284846 242.063398 
L 215.456423 242.276253 
L 215.799576 242.008315 
L 215.971153 242.344832 
L 216.314307 242.142521 
L 216.485884 242.215899 
L 216.65746 242.446658 
L 217.000614 242.37324 
L 217.172191 242.470178 
L 217.343768 242.401108 
L 217.858498 242.714561 
L 218.030075 243.005808 
L 218.201652 242.645454 
L 218.544806 242.557886 
L 218.716382 242.765493 
L 218.887959 242.728772 
L 219.231113 242.419075 
L 219.40269 242.405422 
L 219.574266 242.206442 
L 219.745843 242.400341 
L 220.088997 242.219923 
L 220.260574 242.215541 
L 220.603727 241.965661 
L 220.775304 241.984084 
L 220.946881 241.785896 
L 221.290035 241.813288 
L 221.461612 242.094702 
L 221.633188 241.734703 
L 222.319496 241.974728 
L 222.491072 241.979037 
L 222.662649 242.250972 
L 222.834226 242.121537 
L 223.005803 242.223247 
L 223.17738 242.46762 
L 223.863687 242.357472 
L 224.035264 242.477151 
L 224.206841 242.343374 
L 224.378417 242.60614 
L 224.549994 242.490842 
L 224.721571 242.597232 
L 225.236302 242.60196 
L 225.407878 242.684789 
L 225.751032 242.569757 
L 226.265763 242.444986 
L 226.780493 242.334341 
L 226.95207 242.491157 
L 227.123647 242.14956 
L 227.295223 242.29277 
L 227.638377 242.274586 
L 227.809954 241.951205 
L 228.153108 242.067052 
L 228.496261 242.011795 
L 228.667838 242.320822 
L 228.839415 241.859551 
L 229.010992 242.293326 
L 229.182569 242.057955 
L 229.354145 242.390121 
L 229.868876 242.279828 
L 230.040453 242.468924 
L 231.24149 242.597842 
L 231.413067 242.36725 
L 231.584644 242.611667 
L 231.756221 242.293318 
L 231.927798 242.25134 
L 232.099375 242.547087 
L 232.270951 242.375772 
L 232.442528 242.384364 
L 232.614105 242.218069 
L 232.785682 242.486101 
L 232.957259 242.343008 
L 233.128835 242.48138 
L 233.300412 242.286932 
L 233.643566 242.296447 
L 233.815143 242.490166 
L 234.158296 242.19927 
L 234.329873 242.342408 
L 234.50145 242.282263 
L 234.673027 242.415975 
L 235.187757 242.222207 
L 235.359334 241.811641 
L 235.702488 242.106596 
L 236.045641 241.885071 
L 236.388795 242.064802 
L 236.560372 242.037222 
L 237.075102 242.300394 
L 237.246679 242.212594 
L 238.104563 242.568891 
L 238.27614 242.282151 
L 238.962447 242.752906 
L 239.305601 242.730033 
L 239.648755 242.411538 
L 239.991908 242.568385 
L 240.163485 242.310046 
L 240.335062 242.439377 
L 240.506639 242.337901 
L 240.678216 242.407076 
L 241.192946 242.121186 
L 241.364523 242.342866 
L 241.5361 242.05219 
L 241.707677 242.162676 
L 242.05083 241.881341 
L 242.222407 242.126104 
L 242.565561 242.190492 
L 242.737138 241.978054 
L 242.908714 242.240938 
L 243.080291 242.278256 
L 243.251868 242.051859 
L 243.423445 242.332981 
L 244.109752 242.475929 
L 244.281329 242.688292 
L 244.452906 242.521734 
L 244.967636 242.711531 
L 245.139213 242.415941 
L 245.482367 242.51695 
L 245.653943 242.710859 
L 245.997097 242.650924 
L 246.168674 242.271956 
L 246.511828 242.456552 
L 246.683404 242.046092 
L 247.026558 242.114989 
L 247.198135 242.17477 
L 247.369712 242.105349 
L 247.541289 242.331623 
L 247.712865 241.907293 
L 247.884442 242.110556 
L 248.056019 242.008665 
L 248.227596 242.119793 
L 248.399173 241.994824 
L 248.570749 242.304228 
L 248.742326 242.133544 
L 249.08548 242.226168 
L 249.428634 242.313349 
L 249.60021 242.553544 
L 249.943364 242.133635 
L 250.114941 242.581042 
L 250.286518 242.327198 
L 250.458095 242.336321 
L 250.629671 241.999763 
L 251.144402 242.493474 
L 251.487555 242.286178 
L 252.002286 242.309089 
L 252.173863 242.165926 
L 252.517016 242.305171 
L 252.688593 242.180203 
L 252.86017 242.392937 
L 253.203324 242.300269 
L 253.546477 242.438587 
L 253.718054 242.295661 
L 254.232785 242.623408 
L 254.575938 242.346559 
L 254.747515 242.632588 
L 254.919092 242.567667 
L 255.090669 242.728959 
L 255.605399 242.687738 
L 256.291706 242.696461 
L 256.63486 242.369 
L 256.806437 242.516202 
L 256.978014 242.4335 
L 257.149591 242.152115 
L 257.321167 242.133044 
L 257.492744 242.243706 
L 257.835898 241.966233 
L 258.007475 242.118851 
L 258.179052 241.851109 
L 258.350628 241.998971 
L 258.522205 241.915726 
L 258.693782 242.100245 
L 258.865359 241.817856 
L 259.036936 242.113488 
L 259.208512 241.924263 
L 259.380089 242.196396 
L 259.551666 242.127249 
L 259.89482 242.357932 
L 260.066397 242.274818 
L 260.40955 242.542897 
L 260.581127 242.460132 
L 261.267434 242.598564 
L 261.782165 242.317265 
L 262.296895 242.192562 
L 263.497933 241.883842 
L 263.66951 241.915515 
L 263.841087 241.795865 
L 264.18424 242.086852 
L 264.355817 241.957496 
L 264.870548 242.424255 
L 265.213701 242.410517 
L 265.556855 242.507281 
L 265.728432 242.723944 
L 265.900009 242.580899 
L 266.071585 242.742126 
L 266.414739 242.659661 
L 266.586316 242.816243 
L 266.757893 242.69634 
L 266.929469 242.756058 
L 267.101046 242.571592 
L 267.272623 242.756153 
L 267.615777 242.37734 
L 267.95893 242.391269 
L 268.302084 242.257121 
L 268.473661 242.271113 
L 268.816815 241.874302 
L 268.988391 242.22447 
L 269.503122 241.901486 
L 269.674699 241.9431 
L 269.846275 242.141022 
L 270.017852 242.011935 
L 270.189429 242.182454 
L 270.361006 242.131761 
L 270.532583 242.204936 
L 270.70416 242.136388 
L 271.047313 242.4359 
L 271.390467 242.163711 
L 271.562044 242.422171 
L 271.733621 242.316218 
L 272.076774 242.375791 
L 272.248351 242.329907 
L 272.419928 242.754535 
L 272.763081 242.44027 
L 272.934658 242.43572 
L 273.106235 242.283591 
L 273.449389 242.389547 
L 273.792542 242.468368 
L 273.964119 242.163715 
L 274.135696 242.247034 
L 274.47885 242.04385 
L 274.822003 242.2053 
L 274.99358 241.951485 
L 275.336734 242.334849 
L 275.679887 242.020864 
L 276.194618 242.261261 
L 276.366195 242.01652 
L 276.537772 242.219807 
L 276.709348 242.131826 
L 276.880925 242.515457 
L 277.052502 242.519973 
L 277.224079 242.257124 
L 277.567232 242.51041 
L 277.738809 242.409439 
L 278.25354 242.667827 
L 278.76827 242.533513 
L 279.283001 242.459858 
L 279.797731 242.178192 
L 279.969308 242.293099 
L 280.312462 242.002308 
L 280.484038 241.891361 
L 280.655615 242.05317 
L 280.827192 241.969723 
L 280.998769 241.757702 
L 281.341923 241.947436 
L 281.513499 241.679439 
L 281.856653 241.951301 
L 282.02823 241.979153 
L 282.371383 242.167179 
L 282.54296 242.116384 
L 282.886114 242.37518 
L 283.229268 242.421151 
L 283.400844 242.531809 
L 283.572421 242.38435 
L 283.743998 242.688724 
L 284.430305 242.398698 
L 284.773459 242.462663 
L 284.945036 242.398305 
L 285.116613 242.038109 
L 285.288189 242.190206 
L 285.459766 241.968694 
L 285.631343 242.125787 
L 285.80292 241.960276 
L 285.974497 242.269103 
L 286.31765 241.835159 
L 286.489227 242.075333 
L 286.660804 242.107526 
L 286.832381 241.895467 
L 287.175535 242.177195 
L 287.347111 242.039059 
L 287.518688 242.06687 
L 287.690265 242.246494 
L 287.861842 241.964955 
L 288.204995 242.062538 
L 288.548149 242.385892 
L 288.891303 242.2935 
L 289.06288 242.459575 
L 289.234456 242.154632 
L 289.406033 242.21033 
L 289.57761 242.002443 
L 289.749187 241.993506 
L 289.920764 242.274455 
L 290.092341 242.158784 
L 290.263917 242.311586 
L 290.607071 241.978988 
L 290.778648 242.223584 
L 290.950225 241.900496 
L 291.121801 242.375527 
L 291.464955 242.094146 
L 291.636532 241.918739 
L 291.979686 242.098807 
L 292.151262 241.849379 
L 292.494416 242.195171 
L 292.665993 242.056722 
L 292.83757 242.268878 
L 293.180723 242.065238 
L 293.3523 242.448655 
L 293.523877 242.167173 
L 293.695454 242.300472 
L 293.867031 242.282553 
L 294.038607 242.637561 
L 294.210184 242.38821 
L 294.381761 242.554104 
L 294.553338 242.286351 
L 294.724915 242.396509 
L 294.896492 242.24925 
L 295.068068 242.392505 
L 295.239645 242.203081 
L 295.411222 242.276826 
L 295.582799 242.120203 
L 295.754376 242.115028 
L 296.097529 241.94954 
L 296.269106 241.834398 
L 296.440683 242.018997 
L 296.783837 241.639614 
L 296.955413 241.62506 
L 297.298567 241.752065 
L 297.641721 241.767358 
L 297.813298 241.809354 
L 298.328028 242.292042 
L 299.014335 242.379287 
L 299.185912 242.545547 
L 299.357489 242.541167 
L 299.529066 242.403025 
L 299.872219 242.818601 
L 300.043796 242.651765 
L 300.215373 242.670421 
L 300.730104 242.310145 
L 300.90168 242.370195 
L 301.416411 242.010311 
L 301.587988 241.959981 
L 301.759564 241.756896 
L 302.617449 241.729335 
L 302.789025 241.969551 
L 302.960602 241.752462 
L 303.132179 241.992613 
L 303.303756 241.738496 
L 303.475333 241.849491 
L 303.646909 242.269221 
L 303.818486 242.070382 
L 303.990063 242.356257 
L 304.333217 242.296197 
L 304.504794 242.425125 
L 304.67637 242.28188 
L 305.019524 242.568349 
L 305.191101 242.706417 
L 305.362678 242.526355 
L 305.705831 242.549044 
L 305.877408 242.572533 
L 306.048985 242.447781 
L 306.220562 242.530772 
L 306.392139 242.42958 
L 306.735292 242.521547 
L 307.078446 241.926278 
L 307.250023 242.120017 
L 307.4216 241.865771 
L 308.107907 241.884402 
L 308.279484 241.86119 
L 308.451061 242.064771 
L 309.308945 241.921422 
L 309.480521 242.138269 
L 309.823675 242.226154 
L 310.166829 242.434103 
L 310.338406 242.282332 
L 310.509982 242.286329 
L 311.024713 242.826603 
L 311.19629 242.586582 
L 311.539443 242.540426 
L 311.71102 242.766941 
L 311.882597 242.535754 
L 312.054174 242.591586 
L 312.568904 242.139172 
L 312.740481 242.249927 
L 313.769942 242.134621 
L 313.941519 242.19938 
L 314.113096 242.033946 
L 314.284672 242.21827 
L 314.456249 242.08921 
L 314.627826 242.384335 
L 314.799403 242.07963 
L 315.314133 242.453033 
L 315.657287 242.203622 
L 315.828864 242.447904 
L 316.172018 242.189537 
L 316.515171 242.359951 
L 316.686748 242.309143 
L 316.858325 242.489505 
L 317.201478 242.133429 
L 317.716209 242.304015 
L 317.887786 242.193408 
L 317.934455 242.475024 
L 318.123361 242.512395 
L 318.80984 242.33478 
L 319.49649 242.365607 
L 320.182797 242.571393 
L 321.212601 243.2521 
L 323.615363 245.57495 
L 324.302014 245.874042 
L 326.704776 246.94438 
L 328.077733 248.208408 
L 329.107537 249.192313 
L 329.794016 249.687516 
L 330.137341 249.777413 
L 330.480495 249.985753 
L 331.166974 250.119439 
L 332.196778 250.569389 
L 332.540103 250.728643 
L 333.913061 252.091159 
L 335.286019 253.544642 
L 335.972498 253.901915 
L 337.345627 254.37885 
L 338.375259 254.787979 
L 339.061738 255.396604 
L 341.121346 257.541267 
L 342.494304 258.312153 
L 344.210587 258.970508 
L 346.270024 260.526052 
L 347.643153 261.852638 
L 348.329632 262.29734 
L 349.359436 263.230892 
L 350.045915 263.912398 
L 351.075547 264.344704 
L 351.762198 264.584035 
L 353.821806 265.883552 
L 354.508113 266.374276 
L 355.881071 268.006046 
L 357.597526 268.993134 
L 358.970483 269.715817 
L 360.686766 270.944585 
L 361.373245 271.576998 
L 361.716399 271.803088 
L 362.059724 271.866407 
L 363.089528 272.670445 
L 364.119161 273.69914 
L 364.805811 274.132532 
L 365.49229 274.484778 
L 366.865248 275.26498 
L 367.895052 275.539926 
L 368.581531 275.989608 
L 369.611335 277.066998 
L 370.297814 277.76755 
L 372.35725 279.495657 
L 373.043901 279.885876 
L 374.416858 280.491604 
L 374.760012 280.611857 
L 376.476466 281.921442 
L 377.128458 282.476483 
L 377.254053 282.289436 
L 378.129266 282.773175 
L 379.158899 282.694855 
L 380.188703 282.309377 
L 381.218507 281.771806 
L 381.904986 281.179588 
L 382.248311 280.928239 
L 382.93479 280.263639 
L 383.621269 279.770948 
L 386.02403 278.931756 
L 386.367184 278.787498 
L 388.083639 277.08421 
L 388.770117 276.280992 
L 389.113443 275.90913 
L 390.4864 275.199931 
L 391.516204 274.924178 
L 393.232316 273.670706 
L 395.635078 271.414537 
L 397.008035 270.844147 
L 398.037839 270.476024 
L 398.346849 270.270062 
L 398.346849 270.270062 
" style="fill:none;stroke:#0000ff;stroke-linecap:square;stroke-width:1.5;"/>
   </g>
   <g id="patch_7">
    <path d="M 57.6 307.584 
L 57.6 41.472 
" style="fill:none;stroke:#000000;stroke-linecap:square;stroke-linejoin:miter;stroke-width:0.8;"/>
   </g>
   <g id="patch_8">
    <path d="M 414.72 307.584 
L 414.72 41.472 
" style="fill:none;stroke:#0000ff;stroke-linecap:square;stroke-linejoin:miter;stroke-width:0.8;"/>
   </g>
   <g id="patch_9">
    <path d="M 57.6 307.584 
L 414.72 307.584 
" style="fill:none;stroke:#000000;stroke-linecap:square;stroke-linejoin:miter;stroke-width:0.8;"/>
   </g>
   <g id="patch_10">
    <path d="M 57.6 41.472 
L 414.72 41.472 
" style="fill:none;stroke:#000000;stroke-linecap:square;stroke-linejoin:miter;stroke-width:0.8;"/>
   </g>
  </g>
 </g>
 <defs>
  <clipPath id="p6f5d60ec3e">
   <rect height="266.112" width="357.12" x="57.6" y="41.472"/>
  </clipPath>
 </defs>
</svg>
