<?xml version="1.0" encoding="UTF-8" standalone="no"?>
<!-- Created with matplotlib (http://matplotlib.org/) -->

<svg
 xmlns:dc="http://purl.org/dc/elements/1.1/"
 xmlns:cc="http://creativecommons.org/ns#"
 xmlns:rdf="http://www.w3.org/1999/02/22-rdf-syntax-ns#"
 xmlns:svg="http://www.w3.org/2000/svg"
 xmlns="http://www.w3.org/2000/svg"
 xmlns:xlink="http://www.w3.org/1999/xlink"
 xmlns:sodipodi="http://sodipodi.sourceforge.net/DTD/sodipodi-0.dtd"
 xmlns:inkscape="http://www.inkscape.org/namespaces/inkscape"
 height="345pt"
 version="1.1"
 viewBox="0 0 691 345"
 width="691pt"
 id="svg60311"
 sodipodi:docname="mass_spectra.svg"
 inkscape:version="0.92.4 (unknown)"
 inkscape:export-filename="/home/scott/Dropbox/PhD_thesis/TeX/02_Tools/fig/mass_spectra.png"
 inkscape:export-xdpi="300"
 inkscape:export-ydpi="300">
<metadata
 id="metadata60315">
<rdf:RDF>
<cc:Work
 rdf:about="">
<dc:format>image/svg+xml</dc:format>
<dc:type
 rdf:resource="http://purl.org/dc/dcmitype/StillImage" />
<dc:title></dc:title>
</cc:Work>
</rdf:RDF>
</metadata>
<sodipodi:namedview
 pagecolor="#ffffff"
 bordercolor="#666666"
 borderopacity="1"
 objecttolerance="10"
 gridtolerance="10"
 guidetolerance="10"
 inkscape:pageopacity="0"
 inkscape:pageshadow="2"
 inkscape:window-width="1803"
 inkscape:window-height="980"
 id="namedview60313"
 showgrid="false"
 inkscape:zoom="1.0038665"
 inkscape:cx="419.0271"
 inkscape:cy="218.14593"
 inkscape:window-x="81"
 inkscape:window-y="30"
 inkscape:window-maximized="0"
 inkscape:current-layer="svg60311" />
<defs
 id="defs59496">
<style
 type="text/css"
 id="style59494">
*{stroke-linecap:butt;stroke-linejoin:round;}
  </style>
</defs>
<g
 id="figure_1">
<g
 id="patch_1">
<path
 d="M 0 345.6  L 691.2 345.6  L 691.2 0  L 0 0  z "
 style="fill:#ffffff;"
 id="path59498" />
</g>
<g
 id="axes_1">
<g
 id="patch_2">
<path
 d="M 86.4 307.584  L 622.08 307.584  L 622.08 41.472  L 86.4 41.472  z "
 style="fill:#ffffff;"
 id="path59501" />
</g>
<g
 id="patch_3">
<path
 clip-path="url(#p3bd398fffc)"
 d="M -315.256985 307.584  L -308.457969 307.584  L -308.457969 299.473109  L -315.256985 299.473109  z "
 style="fill:#ff0000;"
 id="path59504" />
</g>
<g
 id="patch_4">
<path
 clip-path="url(#p3bd398fffc)"
 d="M -294.653908 307.584  L -287.854892 307.584  L -287.854892 306.570139  L -294.653908 306.570139  z "
 style="fill:#ff0000;"
 id="path59507" />
</g>
<g
 id="patch_5">
<path
 clip-path="url(#p3bd398fffc)"
 d="M -88.623138 307.584  L -81.824123 307.584  L -81.824123 305.302812  L -88.623138 305.302812  z "
 style="fill:#ff0000;"
 id="path59510" />
</g>
<g
 id="patch_6">
<path
 clip-path="url(#p3bd398fffc)"
 d="M -68.020062 307.584  L -61.221046 307.584  L -61.221046 304.035485  L -68.020062 304.035485  z "
 style="fill:#ff0000;"
 id="path59513" />
</g>
<g
 id="patch_7">
<path
 clip-path="url(#p3bd398fffc)"
 d="M -47.416985 307.584  L -40.617969 307.584  L -40.617969 298.966178  L -47.416985 298.966178  z "
 style="fill:#ff0000;"
 id="path59516" />
</g>
<g
 id="patch_8">
<path
 clip-path="url(#p3bd398fffc)"
 d="M -26.813908 307.584  L -20.014892 307.584  L -20.014892 293.643406  L -26.813908 293.643406  z "
 style="fill:#ff0000;"
 id="path59519" />
</g>
<g
 id="patch_9">
<path
 clip-path="url(#p3bd398fffc)"
 d="M -6.210831 307.584  L 0.588185 307.584  L 0.588185 307.077069  L -6.210831 307.077069  z "
 style="fill:#ff0000;"
 id="path59522" />
</g>
<g
 id="patch_10">
<path
 clip-path="url(#p3bd398fffc)"
 d="M 55.5984 307.584  L 62.397415 307.584  L 62.397415 302.007762  L 55.5984 302.007762  z "
 style="fill:#ff0000;"
 id="path59525" />
</g>
<g
 id="patch_11">
<path
 clip-path="url(#p3bd398fffc)"
 d="M 76.201477 307.584  L 83.000492 307.584  L 83.000492 303.021624  L 76.201477 303.021624  z "
 style="fill:#ff0000;"
 id="path59528" />
</g>
<g
 id="patch_12">
<path
 clip-path="url(#p3bd398fffc)"
 d="M 96.804554 307.584  L 103.603569 307.584  L 103.603569 307.330535  L 96.804554 307.330535  z "
 style="fill:#ff0000;"
 id="path59531" />
</g>
<g
 id="patch_13">
<path
 clip-path="url(#p3bd398fffc)"
 d="M 158.613785 307.584  L 165.4128 307.584  L 165.4128 306.823604  L 158.613785 306.823604  z "
 style="fill:#ff0000;"
 id="path59534" />
</g>
<g
 id="patch_14">
<path
 clip-path="url(#p3bd398fffc)"
 d="M 179.216862 307.584  L 186.015877 307.584  L 186.015877 303.021624  L 179.216862 303.021624  z "
 style="fill:#ff0000;"
 id="path59537" />
</g>
<g
 id="patch_15">
<path
 clip-path="url(#p3bd398fffc)"
 d="M 199.819938 307.584  L 206.618954 307.584  L 206.618954 280.944792  L 199.819938 280.944792  z "
 style="fill:#ff0000;"
 id="path59540" />
</g>
<g
 id="patch_16">
<path
 clip-path="url(#p3bd398fffc)"
 d="M 220.423015 307.584  L 227.222031 307.584  L 227.222031 209.416871  L 220.423015 209.416871  z "
 style="fill:#ff0000;"
 id="path59543" />
</g>
<g
 id="patch_17">
<path
 clip-path="url(#p3bd398fffc)"
 d="M 241.026092 307.584  L 247.825108 307.584  L 247.825108 304.035485  L 241.026092 304.035485  z "
 style="fill:#ff0000;"
 id="path59546" />
</g>
<g
 id="patch_18">
<path
 clip-path="url(#p3bd398fffc)"
 d="M 405.850708 307.584  L 412.649723 307.584  L 412.649723 303.021624  L 405.850708 303.021624  z "
 style="fill:#ff0000;"
 id="path59549" />
</g>
<g
 id="patch_19">
<path
 clip-path="url(#p3bd398fffc)"
 d="M 426.453785 307.584  L 433.2528 307.584  L 433.2528 275.368554  L 426.453785 275.368554  z "
 style="fill:#ff0000;"
 id="path59552" />
</g>
<g
 id="patch_20">
<path
 clip-path="url(#p3bd398fffc)"
 d="M 447.056862 307.584  L 453.855877 307.584  L 453.855877 258.36103  L 447.056862 258.36103  z "
 style="fill:#ff0000;"
 id="path59555" />
</g>
<g
 id="patch_21">
<path
 clip-path="url(#p3bd398fffc)"
 d="M 467.659938 307.584  L 474.458954 307.584  L 474.458954 123.644198  L 467.659938 123.644198  z "
 style="fill:#ff0000;"
 id="path59558" />
</g>
<g
 id="patch_22">
<path
 clip-path="url(#p3bd398fffc)"
 d="M 488.263015 307.584  L 495.062031 307.584  L 495.062031 233.749545  L 488.263015 233.749545  z "
 style="fill:#ff0000;"
 id="path59561" />
</g>
<g
 id="patch_23">
<path
 clip-path="url(#p3bd398fffc)"
 d="M 508.866092 307.584  L 515.665108 307.584  L 515.665108 54.144  L 508.866092 54.144  z "
 style="fill:#ff0000;"
 id="path59564" />
</g>
<g
 id="patch_24">
<path
 clip-path="url(#p3bd398fffc)"
 d="M 529.469169 307.584  L 536.268185 307.584  L 536.268185 129.245782  L 529.469169 129.245782  z "
 style="fill:#ff0000;"
 id="path59567" />
</g>
<g
 id="patch_25">
<path
 clip-path="url(#p3bd398fffc)"
 d="M 550.072246 307.584  L 556.871262 307.584  L 556.871262 301.754297  L 550.072246 301.754297  z "
 style="fill:#ff0000;"
 id="path59570" />
</g>
<g
 id="patch_26">
<path
 clip-path="url(#p3bd398fffc)"
 d="M 570.675323 307.584  L 577.474338 307.584  L 577.474338 307.330535  L 570.675323 307.330535  z "
 style="fill:#ff0000;"
 id="path59573" />
</g>
<g
 id="patch_27">
<path
 clip-path="url(#p3bd398fffc)"
 d="M -81.824123 307.584  L -75.025108 307.584  L -75.025108 306.823604  L -81.824123 306.823604  z "
 style="fill:url(#hec980322e0);"
 id="path59576" />
</g>
<g
 id="patch_28">
<path
 clip-path="url(#p3bd398fffc)"
 d="M -61.221046 307.584  L -54.422031 307.584  L -54.422031 306.063208  L -61.221046 306.063208  z "
 style="fill:url(#hec980322e0);"
 id="path59579" />
</g>
<g
 id="patch_29">
<path
 clip-path="url(#p3bd398fffc)"
 d="M -40.617969 307.584  L -33.818954 307.584  L -33.818954 302.007762  L -40.617969 302.007762  z "
 style="fill:url(#hec980322e0);"
 id="path59582" />
</g>
<g
 id="patch_30">
<path
 clip-path="url(#p3bd398fffc)"
 d="M -20.014892 307.584  L -13.215877 307.584  L -13.215877 289.309149  L -20.014892 289.309149  z "
 style="fill:url(#hec980322e0);"
 id="path59585" />
</g>
<g
 id="patch_31">
<path
 clip-path="url(#p3bd398fffc)"
 d="M 0.588185 307.584  L 7.3872 307.584  L 7.3872 306.570139  L 0.588185 306.570139  z "
 style="fill:url(#hec980322e0);"
 id="path59588" />
</g>
<g
 id="patch_32">
<path
 clip-path="url(#p3bd398fffc)"
 d="M 62.397415 307.584  L 69.196431 307.584  L 69.196431 305.809743  L 62.397415 305.809743  z "
 style="fill:url(#hec980322e0);"
 id="path59591" />
</g>
<g
 id="patch_33">
<path
 clip-path="url(#p3bd398fffc)"
 d="M 83.000492 307.584  L 89.799508 307.584  L 89.799508 305.556277  L 83.000492 305.556277  z "
 style="fill:url(#hec980322e0);"
 id="path59594" />
</g>
<g
 id="patch_34">
<path
 clip-path="url(#p3bd398fffc)"
 d="M 103.603569 307.584  L 110.402585 307.584  L 110.402585 307.330535  L 103.603569 307.330535  z "
 style="fill:url(#hec980322e0);"
 id="path59597" />
</g>
<g
 id="patch_35">
<path
 clip-path="url(#p3bd398fffc)"
 d="M 165.4128 307.584  L 172.211815 307.584  L 172.211815 307.330535  L 165.4128 307.330535  z "
 style="fill:url(#hec980322e0);"
 id="path59600" />
</g>
<g
 id="patch_36">
<path
 clip-path="url(#p3bd398fffc)"
 d="M 186.015877 307.584  L 192.814892 307.584  L 192.814892 306.316673  L 186.015877 306.316673  z "
 style="fill:url(#hec980322e0);"
 id="path59603" />
</g>
<g
 id="patch_37">
<path
 clip-path="url(#p3bd398fffc)"
 d="M 206.618954 307.584  L 213.417969 307.584  L 213.417969 284.493307  L 206.618954 284.493307  z "
 style="fill:url(#hec980322e0);"
 id="path59606" />
</g>
<g
 id="patch_38">
<path
 clip-path="url(#p3bd398fffc)"
 d="M 227.222031 307.584  L 234.021046 307.584  L 234.021046 201.280634  L 227.222031 201.280634  z "
 style="fill:url(#hec980322e0);"
 id="path59609" />
</g>
<g
 id="patch_39">
<path
 clip-path="url(#p3bd398fffc)"
 d="M 247.825108 307.584  L 254.624123 307.584  L 254.624123 158.673109  L 247.825108 158.673109  z "
 style="fill:url(#hec980322e0);"
 id="path59612" />
</g>
<g
 id="patch_40">
<path
 clip-path="url(#p3bd398fffc)"
 d="M 268.428185 307.584  L 275.2272 307.584  L 275.2272 54.144  L 268.428185 54.144  z "
 style="fill:url(#hec980322e0);"
 id="path59615" />
</g>
<g
 id="patch_41">
<path
 clip-path="url(#p3bd398fffc)"
 d="M 289.031262 307.584  L 295.830277 307.584  L 295.830277 302.007762  L 289.031262 302.007762  z "
 style="fill:url(#hec980322e0);"
 id="path59618" />
</g>
<g
 id="patch_42">
<path
 clip-path="url(#p3bd398fffc)"
 d="M 412.649723 307.584  L 419.448738 307.584  L 419.448738 306.823604  L 412.649723 306.823604  z "
 style="fill:url(#hec980322e0);"
 id="path59621" />
</g>
<g
 id="patch_43">
<path
 clip-path="url(#p3bd398fffc)"
 d="M 433.2528 307.584  L 440.051815 307.584  L 440.051815 299.98004  L 433.2528 299.98004  z "
 style="fill:url(#hec980322e0);"
 id="path59624" />
</g>
<g
 id="patch_44">
<path
 clip-path="url(#p3bd398fffc)"
 d="M 453.855877 307.584  L 460.654892 307.584  L 460.654892 294.150337  L 453.855877 294.150337  z "
 style="fill:url(#hec980322e0);"
 id="path59627" />
</g>
<g
 id="patch_45">
<path
 clip-path="url(#p3bd398fffc)"
 d="M 474.458954 307.584  L 481.257969 307.584  L 481.257969 259.628356  L 474.458954 259.628356  z "
 style="fill:url(#hec980322e0);"
 id="path59630" />
</g>
<g
 id="patch_46">
<path
 clip-path="url(#p3bd398fffc)"
 d="M 495.062031 307.584  L 501.861046 307.584  L 501.861046 300.48697  L 495.062031 300.48697  z "
 style="fill:url(#hec980322e0);"
 id="path59633" />
</g>
<g
 id="patch_47">
<path
 clip-path="url(#p3bd398fffc)"
 d="M 515.665108 307.584  L 522.464123 307.584  L 522.464123 273.594297  L 515.665108 273.594297  z "
 style="fill:url(#hec980322e0);"
 id="path59636" />
</g>
<g
 id="patch_48">
<path
 clip-path="url(#p3bd398fffc)"
 d="M 536.268185 307.584  L 543.0672 307.584  L 543.0672 292.350733  L 536.268185 292.350733  z "
 style="fill:url(#hec980322e0);"
 id="path59639" />
</g>
<g
 id="patch_49">
<path
 clip-path="url(#p3bd398fffc)"
 d="M 556.871262 307.584  L 563.670277 307.584  L 563.670277 248.982812  L 556.871262 248.982812  z "
 style="fill:url(#hec980322e0);"
 id="path59642" />
</g>
<g
 id="patch_50">
<path
 clip-path="url(#p3bd398fffc)"
 d="M 577.474338 307.584  L 584.273354 307.584  L 584.273354 238.083802  L 577.474338 238.083802  z "
 style="fill:url(#hec980322e0);"
 id="path59645" />
</g>
<g
 id="patch_51">
<path
 clip-path="url(#p3bd398fffc)"
 d="M 598.077415 307.584  L 604.876431 307.584  L 604.876431 305.302812  L 598.077415 305.302812  z "
 style="fill:url(#hec980322e0);"
 id="path59648" />
</g>
<g
 id="patch_52">
<path
 clip-path="url(#p3bd398fffc)"
 d="M -75.025108 307.584  L -68.226092 307.584  L -68.226092 285.507168  L -75.025108 285.507168  z "
 style="fill:#a52a2a;"
 id="path59651" />
</g>
<g
 id="patch_53">
<path
 clip-path="url(#p3bd398fffc)"
 d="M 7.3872 307.584  L 14.186215 307.584  L 14.186215 283.22598  L 7.3872 283.22598  z "
 style="fill:#a52a2a;"
 id="path59654" />
</g>
<g
 id="patch_54">
<path
 clip-path="url(#p3bd398fffc)"
 d="M 131.005662 307.584  L 137.804677 307.584  L 137.804677 302.768158  L 131.005662 302.768158  z "
 style="fill:#a52a2a;"
 id="path59657" />
</g>
<g
 id="patch_55">
<path
 clip-path="url(#p3bd398fffc)"
 d="M 254.624123 307.584  L 261.423138 307.584  L 261.423138 282.71905  L 254.624123 282.71905  z "
 style="fill:#a52a2a;"
 id="path59660" />
</g>
<g
 id="patch_56">
<path
 clip-path="url(#p3bd398fffc)"
 d="M 275.2272 307.584  L 282.026215 307.584  L 282.026215 307.330535  L 275.2272 307.330535  z "
 style="fill:#a52a2a;"
 id="path59663" />
</g>
<g
 id="patch_57">
<path
 clip-path="url(#p3bd398fffc)"
 d="M 584.273354 307.584  L 591.072369 307.584  L 591.072369 54.144  L 584.273354 54.144  z "
 style="fill:#a52a2a;"
 id="path59666" />
</g>
<g
 id="patch_58">
<path
 clip-path="url(#p3bd398fffc)"
 d="M 604.876431 307.584  L 611.675446 307.584  L 611.675446 304.542416  L 604.876431 304.542416  z "
 style="fill:#a52a2a;"
 id="path59669" />
</g>
<g
 id="patch_59">
<path
 clip-path="url(#p3bd398fffc)"
 d="M 625.479508 307.584  L 632.278523 307.584  L 632.278523 306.570139  L 625.479508 306.570139  z "
 style="fill:#a52a2a;"
 id="path59672" />
</g>
<g
 id="matplotlib.axis_1">
<g
 id="xtick_1">
<g
 id="line2d_1">
<defs
 id="defs59676">
<path
 d="M 0 0  L 0 3.5  "
 id="m9804320089"
 style="stroke:#000000;stroke-width:0.8;" />
</defs>
<g
 id="g59680">
<use
 style="stroke:#000000;stroke-width:0.8;"
 x="86.4"
 xlink:href="#m9804320089"
 y="307.584"
 id="use59678" />
</g>
</g>
<g
 id="text_1">
<!-- 20 -->
<defs
 id="defs59685">
<path
 d="M 19.1875 8.296875  L 53.609375 8.296875  L 53.609375 0  L 7.328125 0  L 7.328125 8.296875  Q 12.9375 14.109375 22.625 23.890625  Q 32.328125 33.6875 34.8125 36.53125  Q 39.546875 41.84375 41.421875 45.53125  Q 43.3125 49.21875 43.3125 52.78125  Q 43.3125 58.59375 39.234375 62.25  Q 35.15625 65.921875 28.609375 65.921875  Q 23.96875 65.921875 18.8125 64.3125  Q 13.671875 62.703125 7.8125 59.421875  L 7.8125 69.390625  Q 13.765625 71.78125 18.9375 73  Q 24.125 74.21875 28.421875 74.21875  Q 39.75 74.21875 46.484375 68.546875  Q 53.21875 62.890625 53.21875 53.421875  Q 53.21875 48.921875 51.53125 44.890625  Q 49.859375 40.875 45.40625 35.40625  Q 44.1875 33.984375 37.640625 27.21875  Q 31.109375 20.453125 19.1875 8.296875  "
 id="DejaVuSans-32" />
<path
 d="M 31.78125 66.40625  Q 24.171875 66.40625 20.328125 58.90625  Q 16.5 51.421875 16.5 36.375  Q 16.5 21.390625 20.328125 13.890625  Q 24.171875 6.390625 31.78125 6.390625  Q 39.453125 6.390625 43.28125 13.890625  Q 47.125 21.390625 47.125 36.375  Q 47.125 51.421875 43.28125 58.90625  Q 39.453125 66.40625 31.78125 66.40625  M 31.78125 74.21875  Q 44.046875 74.21875 50.515625 64.515625  Q 56.984375 54.828125 56.984375 36.375  Q 56.984375 17.96875 50.515625 8.265625  Q 44.046875 -1.421875 31.78125 -1.421875  Q 19.53125 -1.421875 13.0625 8.265625  Q 6.59375 17.96875 6.59375 36.375  Q 6.59375 54.828125 13.0625 64.515625  Q 19.53125 74.21875 31.78125 74.21875  "
 id="DejaVuSans-30" />
</defs>
<g
 transform="translate(80.0375 322.182437)scale(0.1 -0.1)"
 id="g59691">
<use
 xlink:href="#DejaVuSans-32"
 id="use59687" />
<use
 x="63.623047"
 xlink:href="#DejaVuSans-30"
 id="use59689" />
</g>
</g>
</g>
<g
 id="xtick_2">
<g
 id="line2d_2">
<g
 id="g59697">
<use
 style="stroke:#000000;stroke-width:0.8;"
 x="107.003077"
 xlink:href="#m9804320089"
 y="307.584"
 id="use59695" />
</g>
</g>
<g
 id="text_2">
<!-- 21 -->
<defs
 id="defs59701">
<path
 d="M 12.40625 8.296875  L 28.515625 8.296875  L 28.515625 63.921875  L 10.984375 60.40625  L 10.984375 69.390625  L 28.421875 72.90625  L 38.28125 72.90625  L 38.28125 8.296875  L 54.390625 8.296875  L 54.390625 0  L 12.40625 0  z "
 id="DejaVuSans-31" />
</defs>
<g
 transform="translate(100.640577 322.182437)scale(0.1 -0.1)"
 id="g59707">
<use
 xlink:href="#DejaVuSans-32"
 id="use59703" />
<use
 x="63.623047"
 xlink:href="#DejaVuSans-31"
 id="use59705" />
</g>
</g>
</g>
<g
 id="xtick_3">
<g
 id="line2d_3">
<g
 id="g59713">
<use
 style="stroke:#000000;stroke-width:0.8;"
 x="127.606154"
 xlink:href="#m9804320089"
 y="307.584"
 id="use59711" />
</g>
</g>
<g
 id="text_3">
<!-- 22 -->
<g
 transform="translate(121.243654 322.182437)scale(0.1 -0.1)"
 id="g59720">
<use
 xlink:href="#DejaVuSans-32"
 id="use59716" />
<use
 x="63.623047"
 xlink:href="#DejaVuSans-32"
 id="use59718" />
</g>
</g>
</g>
<g
 id="xtick_4">
<g
 id="line2d_4">
<g
 id="g59726">
<use
 style="stroke:#000000;stroke-width:0.8;"
 x="148.209231"
 xlink:href="#m9804320089"
 y="307.584"
 id="use59724" />
</g>
</g>
<g
 id="text_4">
<!-- 23 -->
<defs
 id="defs59730">
<path
 d="M 40.578125 39.3125  Q 47.65625 37.796875 51.625 33  Q 55.609375 28.21875 55.609375 21.1875  Q 55.609375 10.40625 48.1875 4.484375  Q 40.765625 -1.421875 27.09375 -1.421875  Q 22.515625 -1.421875 17.65625 -0.515625  Q 12.796875 0.390625 7.625 2.203125  L 7.625 11.71875  Q 11.71875 9.328125 16.59375 8.109375  Q 21.484375 6.890625 26.8125 6.890625  Q 36.078125 6.890625 40.9375 10.546875  Q 45.796875 14.203125 45.796875 21.1875  Q 45.796875 27.640625 41.28125 31.265625  Q 36.765625 34.90625 28.71875 34.90625  L 20.21875 34.90625  L 20.21875 43.015625  L 29.109375 43.015625  Q 36.375 43.015625 40.234375 45.921875  Q 44.09375 48.828125 44.09375 54.296875  Q 44.09375 59.90625 40.109375 62.90625  Q 36.140625 65.921875 28.71875 65.921875  Q 24.65625 65.921875 20.015625 65.03125  Q 15.375 64.15625 9.8125 62.3125  L 9.8125 71.09375  Q 15.4375 72.65625 20.34375 73.4375  Q 25.25 74.21875 29.59375 74.21875  Q 40.828125 74.21875 47.359375 69.109375  Q 53.90625 64.015625 53.90625 55.328125  Q 53.90625 49.265625 50.4375 45.09375  Q 46.96875 40.921875 40.578125 39.3125  "
 id="DejaVuSans-33" />
</defs>
<g
 transform="translate(141.846731 322.182437)scale(0.1 -0.1)"
 id="g59736">
<use
 xlink:href="#DejaVuSans-32"
 id="use59732" />
<use
 x="63.623047"
 xlink:href="#DejaVuSans-33"
 id="use59734" />
</g>
</g>
</g>
<g
 id="xtick_5">
<g
 id="line2d_5">
<g
 id="g59742">
<use
 style="stroke:#000000;stroke-width:0.8;"
 x="168.812308"
 xlink:href="#m9804320089"
 y="307.584"
 id="use59740" />
</g>
</g>
<g
 id="text_5">
<!-- 24 -->
<defs
 id="defs59746">
<path
 d="M 37.796875 64.3125  L 12.890625 25.390625  L 37.796875 25.390625  z M 35.203125 72.90625  L 47.609375 72.90625  L 47.609375 25.390625  L 58.015625 25.390625  L 58.015625 17.1875  L 47.609375 17.1875  L 47.609375 0  L 37.796875 0  L 37.796875 17.1875  L 4.890625 17.1875  L 4.890625 26.703125  z "
 id="DejaVuSans-34" />
</defs>
<g
 transform="translate(162.449808 322.182437)scale(0.1 -0.1)"
 id="g59752">
<use
 xlink:href="#DejaVuSans-32"
 id="use59748" />
<use
 x="63.623047"
 xlink:href="#DejaVuSans-34"
 id="use59750" />
</g>
</g>
</g>
<g
 id="xtick_6">
<g
 id="line2d_6">
<g
 id="g59758">
<use
 style="stroke:#000000;stroke-width:0.8;"
 x="189.415385"
 xlink:href="#m9804320089"
 y="307.584"
 id="use59756" />
</g>
</g>
<g
 id="text_6">
<!-- 25 -->
<defs
 id="defs59762">
<path
 d="M 10.796875 72.90625  L 49.515625 72.90625  L 49.515625 64.59375  L 19.828125 64.59375  L 19.828125 46.734375  Q 21.96875 47.46875 24.109375 47.828125  Q 26.265625 48.1875 28.421875 48.1875  Q 40.625 48.1875 47.75 41.5  Q 54.890625 34.8125 54.890625 23.390625  Q 54.890625 11.625 47.5625 5.09375  Q 40.234375 -1.421875 26.90625 -1.421875  Q 22.3125 -1.421875 17.546875 -0.640625  Q 12.796875 0.140625 7.71875 1.703125  L 7.71875 11.625  Q 12.109375 9.234375 16.796875 8.0625  Q 21.484375 6.890625 26.703125 6.890625  Q 35.15625 6.890625 40.078125 11.328125  Q 45.015625 15.765625 45.015625 23.390625  Q 45.015625 31 40.078125 35.4375  Q 35.15625 39.890625 26.703125 39.890625  Q 22.75 39.890625 18.8125 39.015625  Q 14.890625 38.140625 10.796875 36.28125  z "
 id="DejaVuSans-35" />
</defs>
<g
 transform="translate(183.052885 322.182437)scale(0.1 -0.1)"
 id="g59768">
<use
 xlink:href="#DejaVuSans-32"
 id="use59764" />
<use
 x="63.623047"
 xlink:href="#DejaVuSans-35"
 id="use59766" />
</g>
</g>
</g>
<g
 id="xtick_7">
<g
 id="line2d_7">
<g
 id="g59774">
<use
 style="stroke:#000000;stroke-width:0.8;"
 x="210.018462"
 xlink:href="#m9804320089"
 y="307.584"
 id="use59772" />
</g>
</g>
<g
 id="text_7">
<!-- 26 -->
<defs
 id="defs59778">
<path
 d="M 33.015625 40.375  Q 26.375 40.375 22.484375 35.828125  Q 18.609375 31.296875 18.609375 23.390625  Q 18.609375 15.53125 22.484375 10.953125  Q 26.375 6.390625 33.015625 6.390625  Q 39.65625 6.390625 43.53125 10.953125  Q 47.40625 15.53125 47.40625 23.390625  Q 47.40625 31.296875 43.53125 35.828125  Q 39.65625 40.375 33.015625 40.375  M 52.59375 71.296875  L 52.59375 62.3125  Q 48.875 64.0625 45.09375 64.984375  Q 41.3125 65.921875 37.59375 65.921875  Q 27.828125 65.921875 22.671875 59.328125  Q 17.53125 52.734375 16.796875 39.40625  Q 19.671875 43.65625 24.015625 45.921875  Q 28.375 48.1875 33.59375 48.1875  Q 44.578125 48.1875 50.953125 41.515625  Q 57.328125 34.859375 57.328125 23.390625  Q 57.328125 12.15625 50.6875 5.359375  Q 44.046875 -1.421875 33.015625 -1.421875  Q 20.359375 -1.421875 13.671875 8.265625  Q 6.984375 17.96875 6.984375 36.375  Q 6.984375 53.65625 15.1875 63.9375  Q 23.390625 74.21875 37.203125 74.21875  Q 40.921875 74.21875 44.703125 73.484375  Q 48.484375 72.75 52.59375 71.296875  "
 id="DejaVuSans-36" />
</defs>
<g
 transform="translate(203.655962 322.182437)scale(0.1 -0.1)"
 id="g59784">
<use
 xlink:href="#DejaVuSans-32"
 id="use59780" />
<use
 x="63.623047"
 xlink:href="#DejaVuSans-36"
 id="use59782" />
</g>
</g>
</g>
<g
 id="xtick_8">
<g
 id="line2d_8">
<g
 id="g59790">
<use
 style="stroke:#000000;stroke-width:0.8;"
 x="230.621538"
 xlink:href="#m9804320089"
 y="307.584"
 id="use59788" />
</g>
</g>
<g
 id="text_8">
<!-- 27 -->
<defs
 id="defs59794">
<path
 d="M 8.203125 72.90625  L 55.078125 72.90625  L 55.078125 68.703125  L 28.609375 0  L 18.3125 0  L 43.21875 64.59375  L 8.203125 64.59375  z "
 id="DejaVuSans-37" />
</defs>
<g
 transform="translate(224.259038 322.182437)scale(0.1 -0.1)"
 id="g59800">
<use
 xlink:href="#DejaVuSans-32"
 id="use59796" />
<use
 x="63.623047"
 xlink:href="#DejaVuSans-37"
 id="use59798" />
</g>
</g>
</g>
<g
 id="xtick_9">
<g
 id="line2d_9">
<g
 id="g59806">
<use
 style="stroke:#000000;stroke-width:0.8;"
 x="251.224615"
 xlink:href="#m9804320089"
 y="307.584"
 id="use59804" />
</g>
</g>
<g
 id="text_9">
<!-- 28 -->
<defs
 id="defs59810">
<path
 d="M 31.78125 34.625  Q 24.75 34.625 20.71875 30.859375  Q 16.703125 27.09375 16.703125 20.515625  Q 16.703125 13.921875 20.71875 10.15625  Q 24.75 6.390625 31.78125 6.390625  Q 38.8125 6.390625 42.859375 10.171875  Q 46.921875 13.96875 46.921875 20.515625  Q 46.921875 27.09375 42.890625 30.859375  Q 38.875 34.625 31.78125 34.625  M 21.921875 38.8125  Q 15.578125 40.375 12.03125 44.71875  Q 8.5 49.078125 8.5 55.328125  Q 8.5 64.0625 14.71875 69.140625  Q 20.953125 74.21875 31.78125 74.21875  Q 42.671875 74.21875 48.875 69.140625  Q 55.078125 64.0625 55.078125 55.328125  Q 55.078125 49.078125 51.53125 44.71875  Q 48 40.375 41.703125 38.8125  Q 48.828125 37.15625 52.796875 32.3125  Q 56.78125 27.484375 56.78125 20.515625  Q 56.78125 9.90625 50.3125 4.234375  Q 43.84375 -1.421875 31.78125 -1.421875  Q 19.734375 -1.421875 13.25 4.234375  Q 6.78125 9.90625 6.78125 20.515625  Q 6.78125 27.484375 10.78125 32.3125  Q 14.796875 37.15625 21.921875 38.8125  M 18.3125 54.390625  Q 18.3125 48.734375 21.84375 45.5625  Q 25.390625 42.390625 31.78125 42.390625  Q 38.140625 42.390625 41.71875 45.5625  Q 45.3125 48.734375 45.3125 54.390625  Q 45.3125 60.0625 41.71875 63.234375  Q 38.140625 66.40625 31.78125 66.40625  Q 25.390625 66.40625 21.84375 63.234375  Q 18.3125 60.0625 18.3125 54.390625  "
 id="DejaVuSans-38" />
</defs>
<g
 transform="translate(244.862115 322.182437)scale(0.1 -0.1)"
 id="g59816">
<use
 xlink:href="#DejaVuSans-32"
 id="use59812" />
<use
 x="63.623047"
 xlink:href="#DejaVuSans-38"
 id="use59814" />
</g>
</g>
</g>
<g
 id="xtick_10">
<g
 id="line2d_10">
<g
 id="g59822">
<use
 style="stroke:#000000;stroke-width:0.8;"
 x="271.827692"
 xlink:href="#m9804320089"
 y="307.584"
 id="use59820" />
</g>
</g>
<g
 id="text_10">
<!-- 29 -->
<defs
 id="defs59826">
<path
 d="M 10.984375 1.515625  L 10.984375 10.5  Q 14.703125 8.734375 18.5 7.8125  Q 22.3125 6.890625 25.984375 6.890625  Q 35.75 6.890625 40.890625 13.453125  Q 46.046875 20.015625 46.78125 33.40625  Q 43.953125 29.203125 39.59375 26.953125  Q 35.25 24.703125 29.984375 24.703125  Q 19.046875 24.703125 12.671875 31.3125  Q 6.296875 37.9375 6.296875 49.421875  Q 6.296875 60.640625 12.9375 67.421875  Q 19.578125 74.21875 30.609375 74.21875  Q 43.265625 74.21875 49.921875 64.515625  Q 56.59375 54.828125 56.59375 36.375  Q 56.59375 19.140625 48.40625 8.859375  Q 40.234375 -1.421875 26.421875 -1.421875  Q 22.703125 -1.421875 18.890625 -0.6875  Q 15.09375 0.046875 10.984375 1.515625  M 30.609375 32.421875  Q 37.25 32.421875 41.125 36.953125  Q 45.015625 41.5 45.015625 49.421875  Q 45.015625 57.28125 41.125 61.84375  Q 37.25 66.40625 30.609375 66.40625  Q 23.96875 66.40625 20.09375 61.84375  Q 16.21875 57.28125 16.21875 49.421875  Q 16.21875 41.5 20.09375 36.953125  Q 23.96875 32.421875 30.609375 32.421875  "
 id="DejaVuSans-39" />
</defs>
<g
 transform="translate(265.465192 322.182437)scale(0.1 -0.1)"
 id="g59832">
<use
 xlink:href="#DejaVuSans-32"
 id="use59828" />
<use
 x="63.623047"
 xlink:href="#DejaVuSans-39"
 id="use59830" />
</g>
</g>
</g>
<g
 id="xtick_11">
<g
 id="line2d_11">
<g
 id="g59838">
<use
 style="stroke:#000000;stroke-width:0.8;"
 x="292.430769"
 xlink:href="#m9804320089"
 y="307.584"
 id="use59836" />
</g>
</g>
<g
 id="text_11">
<!-- 30 -->
<g
 transform="translate(286.068269 322.182437)scale(0.1 -0.1)"
 id="g59845">
<use
 xlink:href="#DejaVuSans-33"
 id="use59841" />
<use
 x="63.623047"
 xlink:href="#DejaVuSans-30"
 id="use59843" />
</g>
</g>
</g>
<g
 id="xtick_12">
<g
 id="line2d_12">
<g
 id="g59851">
<use
 style="stroke:#000000;stroke-width:0.8;"
 x="313.033846"
 xlink:href="#m9804320089"
 y="307.584"
 id="use59849" />
</g>
</g>
<g
 id="text_12">
<!-- 31 -->
<g
 transform="translate(306.671346 322.182437)scale(0.1 -0.1)"
 id="g59858">
<use
 xlink:href="#DejaVuSans-33"
 id="use59854" />
<use
 x="63.623047"
 xlink:href="#DejaVuSans-31"
 id="use59856" />
</g>
</g>
</g>
<g
 id="xtick_13">
<g
 id="line2d_13">
<g
 id="g59864">
<use
 style="stroke:#000000;stroke-width:0.8;"
 x="333.636923"
 xlink:href="#m9804320089"
 y="307.584"
 id="use59862" />
</g>
</g>
<g
 id="text_13">
<!-- 32 -->
<g
 transform="translate(327.274423 322.182437)scale(0.1 -0.1)"
 id="g59871">
<use
 xlink:href="#DejaVuSans-33"
 id="use59867" />
<use
 x="63.623047"
 xlink:href="#DejaVuSans-32"
 id="use59869" />
</g>
</g>
</g>
<g
 id="xtick_14">
<g
 id="line2d_14">
<g
 id="g59877">
<use
 style="stroke:#000000;stroke-width:0.8;"
 x="354.24"
 xlink:href="#m9804320089"
 y="307.584"
 id="use59875" />
</g>
</g>
<g
 id="text_14">
<!-- 33 -->
<g
 transform="translate(347.8775 322.182437)scale(0.1 -0.1)"
 id="g59884">
<use
 xlink:href="#DejaVuSans-33"
 id="use59880" />
<use
 x="63.623047"
 xlink:href="#DejaVuSans-33"
 id="use59882" />
</g>
</g>
</g>
<g
 id="xtick_15">
<g
 id="line2d_15">
<g
 id="g59890">
<use
 style="stroke:#000000;stroke-width:0.8;"
 x="374.843077"
 xlink:href="#m9804320089"
 y="307.584"
 id="use59888" />
</g>
</g>
<g
 id="text_15">
<!-- 34 -->
<g
 transform="translate(368.480577 322.182437)scale(0.1 -0.1)"
 id="g59897">
<use
 xlink:href="#DejaVuSans-33"
 id="use59893" />
<use
 x="63.623047"
 xlink:href="#DejaVuSans-34"
 id="use59895" />
</g>
</g>
</g>
<g
 id="xtick_16">
<g
 id="line2d_16">
<g
 id="g59903">
<use
 style="stroke:#000000;stroke-width:0.8;"
 x="395.446154"
 xlink:href="#m9804320089"
 y="307.584"
 id="use59901" />
</g>
</g>
<g
 id="text_16">
<!-- 35 -->
<g
 transform="translate(389.083654 322.182437)scale(0.1 -0.1)"
 id="g59910">
<use
 xlink:href="#DejaVuSans-33"
 id="use59906" />
<use
 x="63.623047"
 xlink:href="#DejaVuSans-35"
 id="use59908" />
</g>
</g>
</g>
<g
 id="xtick_17">
<g
 id="line2d_17">
<g
 id="g59916">
<use
 style="stroke:#000000;stroke-width:0.8;"
 x="416.049231"
 xlink:href="#m9804320089"
 y="307.584"
 id="use59914" />
</g>
</g>
<g
 id="text_17">
<!-- 36 -->
<g
 transform="translate(409.686731 322.182437)scale(0.1 -0.1)"
 id="g59923">
<use
 xlink:href="#DejaVuSans-33"
 id="use59919" />
<use
 x="63.623047"
 xlink:href="#DejaVuSans-36"
 id="use59921" />
</g>
</g>
</g>
<g
 id="xtick_18">
<g
 id="line2d_18">
<g
 id="g59929">
<use
 style="stroke:#000000;stroke-width:0.8;"
 x="436.652308"
 xlink:href="#m9804320089"
 y="307.584"
 id="use59927" />
</g>
</g>
<g
 id="text_18">
<!-- 37 -->
<g
 transform="translate(430.289808 322.182437)scale(0.1 -0.1)"
 id="g59936">
<use
 xlink:href="#DejaVuSans-33"
 id="use59932" />
<use
 x="63.623047"
 xlink:href="#DejaVuSans-37"
 id="use59934" />
</g>
</g>
</g>
<g
 id="xtick_19">
<g
 id="line2d_19">
<g
 id="g59942">
<use
 style="stroke:#000000;stroke-width:0.8;"
 x="457.255385"
 xlink:href="#m9804320089"
 y="307.584"
 id="use59940" />
</g>
</g>
<g
 id="text_19">
<!-- 38 -->
<g
 transform="translate(450.892885 322.182437)scale(0.1 -0.1)"
 id="g59949">
<use
 xlink:href="#DejaVuSans-33"
 id="use59945" />
<use
 x="63.623047"
 xlink:href="#DejaVuSans-38"
 id="use59947" />
</g>
</g>
</g>
<g
 id="xtick_20">
<g
 id="line2d_20">
<g
 id="g59955">
<use
 style="stroke:#000000;stroke-width:0.8;"
 x="477.858462"
 xlink:href="#m9804320089"
 y="307.584"
 id="use59953" />
</g>
</g>
<g
 id="text_20">
<!-- 39 -->
<g
 transform="translate(471.495962 322.182437)scale(0.1 -0.1)"
 id="g59962">
<use
 xlink:href="#DejaVuSans-33"
 id="use59958" />
<use
 x="63.623047"
 xlink:href="#DejaVuSans-39"
 id="use59960" />
</g>
</g>
</g>
<g
 id="xtick_21">
<g
 id="line2d_21">
<g
 id="g59968">
<use
 style="stroke:#000000;stroke-width:0.8;"
 x="498.461538"
 xlink:href="#m9804320089"
 y="307.584"
 id="use59966" />
</g>
</g>
<g
 id="text_21">
<!-- 40 -->
<g
 transform="translate(492.099038 322.182437)scale(0.1 -0.1)"
 id="g59975">
<use
 xlink:href="#DejaVuSans-34"
 id="use59971" />
<use
 x="63.623047"
 xlink:href="#DejaVuSans-30"
 id="use59973" />
</g>
</g>
</g>
<g
 id="xtick_22">
<g
 id="line2d_22">
<g
 id="g59981">
<use
 style="stroke:#000000;stroke-width:0.8;"
 x="519.064615"
 xlink:href="#m9804320089"
 y="307.584"
 id="use59979" />
</g>
</g>
<g
 id="text_22">
<!-- 41 -->
<g
 transform="translate(512.702115 322.182437)scale(0.1 -0.1)"
 id="g59988">
<use
 xlink:href="#DejaVuSans-34"
 id="use59984" />
<use
 x="63.623047"
 xlink:href="#DejaVuSans-31"
 id="use59986" />
</g>
</g>
</g>
<g
 id="xtick_23">
<g
 id="line2d_23">
<g
 id="g59994">
<use
 style="stroke:#000000;stroke-width:0.8;"
 x="539.667692"
 xlink:href="#m9804320089"
 y="307.584"
 id="use59992" />
</g>
</g>
<g
 id="text_23">
<!-- 42 -->
<g
 transform="translate(533.305192 322.182437)scale(0.1 -0.1)"
 id="g60001">
<use
 xlink:href="#DejaVuSans-34"
 id="use59997" />
<use
 x="63.623047"
 xlink:href="#DejaVuSans-32"
 id="use59999" />
</g>
</g>
</g>
<g
 id="xtick_24">
<g
 id="line2d_24">
<g
 id="g60007">
<use
 style="stroke:#000000;stroke-width:0.8;"
 x="560.270769"
 xlink:href="#m9804320089"
 y="307.584"
 id="use60005" />
</g>
</g>
<g
 id="text_24">
<!-- 43 -->
<g
 transform="translate(553.908269 322.182437)scale(0.1 -0.1)"
 id="g60014">
<use
 xlink:href="#DejaVuSans-34"
 id="use60010" />
<use
 x="63.623047"
 xlink:href="#DejaVuSans-33"
 id="use60012" />
</g>
</g>
</g>
<g
 id="xtick_25">
<g
 id="line2d_25">
<g
 id="g60020">
<use
 style="stroke:#000000;stroke-width:0.8;"
 x="580.873846"
 xlink:href="#m9804320089"
 y="307.584"
 id="use60018" />
</g>
</g>
<g
 id="text_25">
<!-- 44 -->
<g
 transform="translate(574.511346 322.182437)scale(0.1 -0.1)"
 id="g60027">
<use
 xlink:href="#DejaVuSans-34"
 id="use60023" />
<use
 x="63.623047"
 xlink:href="#DejaVuSans-34"
 id="use60025" />
</g>
</g>
</g>
<g
 id="xtick_26">
<g
 id="line2d_26">
<g
 id="g60033">
<use
 style="stroke:#000000;stroke-width:0.8;"
 x="601.476923"
 xlink:href="#m9804320089"
 y="307.584"
 id="use60031" />
</g>
</g>
<g
 id="text_26">
<!-- 45 -->
<g
 transform="translate(595.114423 322.182437)scale(0.1 -0.1)"
 id="g60040">
<use
 xlink:href="#DejaVuSans-34"
 id="use60036" />
<use
 x="63.623047"
 xlink:href="#DejaVuSans-35"
 id="use60038" />
</g>
</g>
</g>
<g
 id="text_27">
<!-- m/z -->
<defs
 id="defs60047">
<path
 d="M 52 44.1875  Q 55.375 50.25 60.0625 53.125  Q 64.75 56 71.09375 56  Q 79.640625 56 84.28125 50.015625  Q 88.921875 44.046875 88.921875 33.015625  L 88.921875 0  L 79.890625 0  L 79.890625 32.71875  Q 79.890625 40.578125 77.09375 44.375  Q 74.3125 48.1875 68.609375 48.1875  Q 61.625 48.1875 57.5625 43.546875  Q 53.515625 38.921875 53.515625 30.90625  L 53.515625 0  L 44.484375 0  L 44.484375 32.71875  Q 44.484375 40.625 41.703125 44.40625  Q 38.921875 48.1875 33.109375 48.1875  Q 26.21875 48.1875 22.15625 43.53125  Q 18.109375 38.875 18.109375 30.90625  L 18.109375 0  L 9.078125 0  L 9.078125 54.6875  L 18.109375 54.6875  L 18.109375 46.1875  Q 21.1875 51.21875 25.484375 53.609375  Q 29.78125 56 35.6875 56  Q 41.65625 56 45.828125 52.96875  Q 50 49.953125 52 44.1875  "
 id="DejaVuSans-6d" />
<path
 d="M 25.390625 72.90625  L 33.6875 72.90625  L 8.296875 -9.28125  L 0 -9.28125  z "
 id="DejaVuSans-2f" />
<path
 d="M 5.515625 54.6875  L 48.1875 54.6875  L 48.1875 46.484375  L 14.40625 7.171875  L 48.1875 7.171875  L 48.1875 0  L 4.296875 0  L 4.296875 8.203125  L 38.09375 47.515625  L 5.515625 47.515625  z "
 id="DejaVuSans-7a" />
</defs>
<g
 transform="translate(345.061094 335.860562)scale(0.1 -0.1)"
 id="g60055">
<use
 xlink:href="#DejaVuSans-6d"
 id="use60049" />
<use
 x="97.412109"
 xlink:href="#DejaVuSans-2f"
 id="use60051" />
<use
 x="131.103516"
 xlink:href="#DejaVuSans-7a"
 id="use60053" />
</g>
</g>
</g>
<g
 id="matplotlib.axis_2">
<g
 id="ytick_1">
<g
 id="line2d_27">
<defs
 id="defs60060">
<path
 d="M 0 0  L -3.5 0  "
 id="mc77e659288"
 style="stroke:#000000;stroke-width:0.8;" />
</defs>
<g
 id="g60064">
<use
 style="stroke:#000000;stroke-width:0.8;"
 x="86.4"
 xlink:href="#mc77e659288"
 y="307.584"
 id="use60062" />
</g>
</g>
<g
 id="text_28">
<!-- 0 -->
<g
 transform="translate(73.0375 311.383219)scale(0.1 -0.1)"
 id="g60069">
<use
 xlink:href="#DejaVuSans-30"
 id="use60067" />
</g>
</g>
</g>
<g
 id="ytick_2">
<g
 id="line2d_28">
<g
 id="g60075">
<use
 style="stroke:#000000;stroke-width:0.8;"
 x="86.4"
 xlink:href="#mc77e659288"
 y="256.896"
 id="use60073" />
</g>
</g>
<g
 id="text_29">
<!-- 20 -->
<g
 transform="translate(66.675 260.695219)scale(0.1 -0.1)"
 id="g60082">
<use
 xlink:href="#DejaVuSans-32"
 id="use60078" />
<use
 x="63.623047"
 xlink:href="#DejaVuSans-30"
 id="use60080" />
</g>
</g>
</g>
<g
 id="ytick_3">
<g
 id="line2d_29">
<g
 id="g60088">
<use
 style="stroke:#000000;stroke-width:0.8;"
 x="86.4"
 xlink:href="#mc77e659288"
 y="206.208"
 id="use60086" />
</g>
</g>
<g
 id="text_30">
<!-- 40 -->
<g
 transform="translate(66.675 210.007219)scale(0.1 -0.1)"
 id="g60095">
<use
 xlink:href="#DejaVuSans-34"
 id="use60091" />
<use
 x="63.623047"
 xlink:href="#DejaVuSans-30"
 id="use60093" />
</g>
</g>
</g>
<g
 id="ytick_4">
<g
 id="line2d_30">
<g
 id="g60101">
<use
 style="stroke:#000000;stroke-width:0.8;"
 x="86.4"
 xlink:href="#mc77e659288"
 y="155.52"
 id="use60099" />
</g>
</g>
<g
 id="text_31">
<!-- 60 -->
<g
 transform="translate(66.675 159.319219)scale(0.1 -0.1)"
 id="g60108">
<use
 xlink:href="#DejaVuSans-36"
 id="use60104" />
<use
 x="63.623047"
 xlink:href="#DejaVuSans-30"
 id="use60106" />
</g>
</g>
</g>
<g
 id="ytick_5">
<g
 id="line2d_31">
<g
 id="g60114">
<use
 style="stroke:#000000;stroke-width:0.8;"
 x="86.4"
 xlink:href="#mc77e659288"
 y="104.832"
 id="use60112" />
</g>
</g>
<g
 id="text_32">
<!-- 80 -->
<g
 transform="translate(66.675 108.631219)scale(0.1 -0.1)"
 id="g60121">
<use
 xlink:href="#DejaVuSans-38"
 id="use60117" />
<use
 x="63.623047"
 xlink:href="#DejaVuSans-30"
 id="use60119" />
</g>
</g>
</g>
<g
 id="ytick_6">
<g
 id="line2d_32">
<g
 id="g60127">
<use
 style="stroke:#000000;stroke-width:0.8;"
 x="86.4"
 xlink:href="#mc77e659288"
 y="54.144"
 id="use60125" />
</g>
</g>
<g
 id="text_33">
<!-- 100 -->
<g
 transform="translate(60.3125 57.943219)scale(0.1 -0.1)"
 id="g60136">
<use
 xlink:href="#DejaVuSans-31"
 id="use60130" />
<use
 x="63.623047"
 xlink:href="#DejaVuSans-30"
 id="use60132" />
<use
 x="127.246094"
 xlink:href="#DejaVuSans-30"
 id="use60134" />
</g>
</g>
</g>
<g
 id="text_34">
<!-- relative intensity -->
<defs
 id="defs60151">
<path
 d="M 41.109375 46.296875  Q 39.59375 47.171875 37.8125 47.578125  Q 36.03125 48 33.890625 48  Q 26.265625 48 22.1875 43.046875  Q 18.109375 38.09375 18.109375 28.8125  L 18.109375 0  L 9.078125 0  L 9.078125 54.6875  L 18.109375 54.6875  L 18.109375 46.1875  Q 20.953125 51.171875 25.484375 53.578125  Q 30.03125 56 36.53125 56  Q 37.453125 56 38.578125 55.875  Q 39.703125 55.765625 41.0625 55.515625  z "
 id="DejaVuSans-72" />
<path
 d="M 56.203125 29.59375  L 56.203125 25.203125  L 14.890625 25.203125  Q 15.484375 15.921875 20.484375 11.0625  Q 25.484375 6.203125 34.421875 6.203125  Q 39.59375 6.203125 44.453125 7.46875  Q 49.3125 8.734375 54.109375 11.28125  L 54.109375 2.78125  Q 49.265625 0.734375 44.1875 -0.34375  Q 39.109375 -1.421875 33.890625 -1.421875  Q 20.796875 -1.421875 13.15625 6.1875  Q 5.515625 13.8125 5.515625 26.8125  Q 5.515625 40.234375 12.765625 48.109375  Q 20.015625 56 32.328125 56  Q 43.359375 56 49.78125 48.890625  Q 56.203125 41.796875 56.203125 29.59375  M 47.21875 32.234375  Q 47.125 39.59375 43.09375 43.984375  Q 39.0625 48.390625 32.421875 48.390625  Q 24.90625 48.390625 20.390625 44.140625  Q 15.875 39.890625 15.1875 32.171875  z "
 id="DejaVuSans-65" />
<path
 d="M 9.421875 75.984375  L 18.40625 75.984375  L 18.40625 0  L 9.421875 0  z "
 id="DejaVuSans-6c" />
<path
 d="M 34.28125 27.484375  Q 23.390625 27.484375 19.1875 25  Q 14.984375 22.515625 14.984375 16.5  Q 14.984375 11.71875 18.140625 8.90625  Q 21.296875 6.109375 26.703125 6.109375  Q 34.1875 6.109375 38.703125 11.40625  Q 43.21875 16.703125 43.21875 25.484375  L 43.21875 27.484375  z M 52.203125 31.203125  L 52.203125 0  L 43.21875 0  L 43.21875 8.296875  Q 40.140625 3.328125 35.546875 0.953125  Q 30.953125 -1.421875 24.3125 -1.421875  Q 15.921875 -1.421875 10.953125 3.296875  Q 6 8.015625 6 15.921875  Q 6 25.140625 12.171875 29.828125  Q 18.359375 34.515625 30.609375 34.515625  L 43.21875 34.515625  L 43.21875 35.40625  Q 43.21875 41.609375 39.140625 45  Q 35.0625 48.390625 27.6875 48.390625  Q 23 48.390625 18.546875 47.265625  Q 14.109375 46.140625 10.015625 43.890625  L 10.015625 52.203125  Q 14.9375 54.109375 19.578125 55.046875  Q 24.21875 56 28.609375 56  Q 40.484375 56 46.34375 49.84375  Q 52.203125 43.703125 52.203125 31.203125  "
 id="DejaVuSans-61" />
<path
 d="M 18.3125 70.21875  L 18.3125 54.6875  L 36.8125 54.6875  L 36.8125 47.703125  L 18.3125 47.703125  L 18.3125 18.015625  Q 18.3125 11.328125 20.140625 9.421875  Q 21.96875 7.515625 27.59375 7.515625  L 36.8125 7.515625  L 36.8125 0  L 27.59375 0  Q 17.1875 0 13.234375 3.875  Q 9.28125 7.765625 9.28125 18.015625  L 9.28125 47.703125  L 2.6875 47.703125  L 2.6875 54.6875  L 9.28125 54.6875  L 9.28125 70.21875  z "
 id="DejaVuSans-74" />
<path
 d="M 9.421875 54.6875  L 18.40625 54.6875  L 18.40625 0  L 9.421875 0  z M 9.421875 75.984375  L 18.40625 75.984375  L 18.40625 64.59375  L 9.421875 64.59375  z "
 id="DejaVuSans-69" />
<path
 d="M 2.984375 54.6875  L 12.5 54.6875  L 29.59375 8.796875  L 46.6875 54.6875  L 56.203125 54.6875  L 35.6875 0  L 23.484375 0  z "
 id="DejaVuSans-76" />
<path
 id="DejaVuSans-20" />
<path
 d="M 54.890625 33.015625  L 54.890625 0  L 45.90625 0  L 45.90625 32.71875  Q 45.90625 40.484375 42.875 44.328125  Q 39.84375 48.1875 33.796875 48.1875  Q 26.515625 48.1875 22.3125 43.546875  Q 18.109375 38.921875 18.109375 30.90625  L 18.109375 0  L 9.078125 0  L 9.078125 54.6875  L 18.109375 54.6875  L 18.109375 46.1875  Q 21.34375 51.125 25.703125 53.5625  Q 30.078125 56 35.796875 56  Q 45.21875 56 50.046875 50.171875  Q 54.890625 44.34375 54.890625 33.015625  "
 id="DejaVuSans-6e" />
<path
 d="M 44.28125 53.078125  L 44.28125 44.578125  Q 40.484375 46.53125 36.375 47.5  Q 32.28125 48.484375 27.875 48.484375  Q 21.1875 48.484375 17.84375 46.4375  Q 14.5 44.390625 14.5 40.28125  Q 14.5 37.15625 16.890625 35.375  Q 19.28125 33.59375 26.515625 31.984375  L 29.59375 31.296875  Q 39.15625 29.25 43.1875 25.515625  Q 47.21875 21.78125 47.21875 15.09375  Q 47.21875 7.46875 41.1875 3.015625  Q 35.15625 -1.421875 24.609375 -1.421875  Q 20.21875 -1.421875 15.453125 -0.5625  Q 10.6875 0.296875 5.421875 2  L 5.421875 11.28125  Q 10.40625 8.6875 15.234375 7.390625  Q 20.0625 6.109375 24.8125 6.109375  Q 31.15625 6.109375 34.5625 8.28125  Q 37.984375 10.453125 37.984375 14.40625  Q 37.984375 18.0625 35.515625 20.015625  Q 33.0625 21.96875 24.703125 23.78125  L 21.578125 24.515625  Q 13.234375 26.265625 9.515625 29.90625  Q 5.8125 33.546875 5.8125 39.890625  Q 5.8125 47.609375 11.28125 51.796875  Q 16.75 56 26.8125 56  Q 31.78125 56 36.171875 55.265625  Q 40.578125 54.546875 44.28125 53.078125  "
 id="DejaVuSans-73" />
<path
 d="M 32.171875 -5.078125  Q 28.375 -14.84375 24.75 -17.8125  Q 21.140625 -20.796875 15.09375 -20.796875  L 7.90625 -20.796875  L 7.90625 -13.28125  L 13.1875 -13.28125  Q 16.890625 -13.28125 18.9375 -11.515625  Q 21 -9.765625 23.484375 -3.21875  L 25.09375 0.875  L 2.984375 54.6875  L 12.5 54.6875  L 29.59375 11.921875  L 46.6875 54.6875  L 56.203125 54.6875  z "
 id="DejaVuSans-79" />
</defs>
<g
 transform="translate(54.232812 216.762375)rotate(-90)scale(0.1 -0.1)"
 id="g60189">
<use
 xlink:href="#DejaVuSans-72"
 id="use60153" />
<use
 x="41.082031"
 xlink:href="#DejaVuSans-65"
 id="use60155" />
<use
 x="102.605469"
 xlink:href="#DejaVuSans-6c"
 id="use60157" />
<use
 x="130.388672"
 xlink:href="#DejaVuSans-61"
 id="use60159" />
<use
 x="191.667969"
 xlink:href="#DejaVuSans-74"
 id="use60161" />
<use
 x="230.876953"
 xlink:href="#DejaVuSans-69"
 id="use60163" />
<use
 x="258.660156"
 xlink:href="#DejaVuSans-76"
 id="use60165" />
<use
 x="317.839844"
 xlink:href="#DejaVuSans-65"
 id="use60167" />
<use
 x="379.363281"
 xlink:href="#DejaVuSans-20"
 id="use60169" />
<use
 x="411.150391"
 xlink:href="#DejaVuSans-69"
 id="use60171" />
<use
 x="438.933594"
 xlink:href="#DejaVuSans-6e"
 id="use60173" />
<use
 x="502.3125"
 xlink:href="#DejaVuSans-74"
 id="use60175" />
<use
 x="541.521484"
 xlink:href="#DejaVuSans-65"
 id="use60177" />
<use
 x="603.044922"
 xlink:href="#DejaVuSans-6e"
 id="use60179" />
<use
 x="666.423828"
 xlink:href="#DejaVuSans-73"
 id="use60181" />
<use
 x="718.523438"
 xlink:href="#DejaVuSans-69"
 id="use60183" />
<use
 x="746.306641"
 xlink:href="#DejaVuSans-74"
 id="use60185" />
<use
 x="785.515625"
 xlink:href="#DejaVuSans-79"
 id="use60187" />
</g>
</g>
</g>
<g
 id="patch_60">
<path
 d="M 86.4 307.584  L 86.4 41.472  "
 style="fill:none;stroke:#000000;stroke-linecap:square;stroke-linejoin:miter;stroke-width:0.8;"
 id="path60193" />
</g>
<g
 id="patch_61">
<path
 d="M 622.08 307.584  L 622.08 41.472  "
 style="fill:none;stroke:#000000;stroke-linecap:square;stroke-linejoin:miter;stroke-width:0.8;"
 id="path60196" />
</g>
<g
 id="patch_62">
<path
 d="M 86.4 307.584  L 622.08 307.584  "
 style="fill:none;stroke:#000000;stroke-linecap:square;stroke-linejoin:miter;stroke-width:0.8;"
 id="path60199" />
</g>
<g
 id="patch_63">
<path
 d="M 86.4 41.472  L 622.08 41.472  "
 style="fill:none;stroke:#000000;stroke-linecap:square;stroke-linejoin:miter;stroke-width:0.8;"
 id="path60202" />
</g>
<g
 id="text_35">
<!-- NIST mass spectra (electron ionization) -->
<defs
 id="defs60214">
<path
 d="M 9.8125 72.90625  L 23.09375 72.90625  L 55.421875 11.921875  L 55.421875 72.90625  L 64.984375 72.90625  L 64.984375 0  L 51.703125 0  L 19.390625 60.984375  L 19.390625 0  L 9.8125 0  z "
 id="DejaVuSans-4e" />
<path
 d="M 9.8125 72.90625  L 19.671875 72.90625  L 19.671875 0  L 9.8125 0  z "
 id="DejaVuSans-49" />
<path
 d="M 53.515625 70.515625  L 53.515625 60.890625  Q 47.90625 63.578125 42.921875 64.890625  Q 37.9375 66.21875 33.296875 66.21875  Q 25.25 66.21875 20.875 63.09375  Q 16.5 59.96875 16.5 54.203125  Q 16.5 49.359375 19.40625 46.890625  Q 22.3125 44.4375 30.421875 42.921875  L 36.375 41.703125  Q 47.40625 39.59375 52.65625 34.296875  Q 57.90625 29 57.90625 20.125  Q 57.90625 9.515625 50.796875 4.046875  Q 43.703125 -1.421875 29.984375 -1.421875  Q 24.8125 -1.421875 18.96875 -0.25  Q 13.140625 0.921875 6.890625 3.21875  L 6.890625 13.375  Q 12.890625 10.015625 18.65625 8.296875  Q 24.421875 6.59375 29.984375 6.59375  Q 38.421875 6.59375 43.015625 9.90625  Q 47.609375 13.234375 47.609375 19.390625  Q 47.609375 24.75 44.3125 27.78125  Q 41.015625 30.8125 33.5 32.328125  L 27.484375 33.5  Q 16.453125 35.6875 11.515625 40.375  Q 6.59375 45.0625 6.59375 53.421875  Q 6.59375 63.09375 13.40625 68.65625  Q 20.21875 74.21875 32.171875 74.21875  Q 37.3125 74.21875 42.625 73.28125  Q 47.953125 72.359375 53.515625 70.515625  "
 id="DejaVuSans-53" />
<path
 d="M -0.296875 72.90625  L 61.375 72.90625  L 61.375 64.59375  L 35.5 64.59375  L 35.5 0  L 25.59375 0  L 25.59375 64.59375  L -0.296875 64.59375  z "
 id="DejaVuSans-54" />
<path
 d="M 18.109375 8.203125  L 18.109375 -20.796875  L 9.078125 -20.796875  L 9.078125 54.6875  L 18.109375 54.6875  L 18.109375 46.390625  Q 20.953125 51.265625 25.265625 53.625  Q 29.59375 56 35.59375 56  Q 45.5625 56 51.78125 48.09375  Q 58.015625 40.1875 58.015625 27.296875  Q 58.015625 14.40625 51.78125 6.484375  Q 45.5625 -1.421875 35.59375 -1.421875  Q 29.59375 -1.421875 25.265625 0.953125  Q 20.953125 3.328125 18.109375 8.203125  M 48.6875 27.296875  Q 48.6875 37.203125 44.609375 42.84375  Q 40.53125 48.484375 33.40625 48.484375  Q 26.265625 48.484375 22.1875 42.84375  Q 18.109375 37.203125 18.109375 27.296875  Q 18.109375 17.390625 22.1875 11.75  Q 26.265625 6.109375 33.40625 6.109375  Q 40.53125 6.109375 44.609375 11.75  Q 48.6875 17.390625 48.6875 27.296875  "
 id="DejaVuSans-70" />
<path
 d="M 48.78125 52.59375  L 48.78125 44.1875  Q 44.96875 46.296875 41.140625 47.34375  Q 37.3125 48.390625 33.40625 48.390625  Q 24.65625 48.390625 19.8125 42.84375  Q 14.984375 37.3125 14.984375 27.296875  Q 14.984375 17.28125 19.8125 11.734375  Q 24.65625 6.203125 33.40625 6.203125  Q 37.3125 6.203125 41.140625 7.25  Q 44.96875 8.296875 48.78125 10.40625  L 48.78125 2.09375  Q 45.015625 0.34375 40.984375 -0.53125  Q 36.96875 -1.421875 32.421875 -1.421875  Q 20.0625 -1.421875 12.78125 6.34375  Q 5.515625 14.109375 5.515625 27.296875  Q 5.515625 40.671875 12.859375 48.328125  Q 20.21875 56 33.015625 56  Q 37.15625 56 41.109375 55.140625  Q 45.0625 54.296875 48.78125 52.59375  "
 id="DejaVuSans-63" />
<path
 d="M 31 75.875  Q 24.46875 64.65625 21.28125 53.65625  Q 18.109375 42.671875 18.109375 31.390625  Q 18.109375 20.125 21.3125 9.0625  Q 24.515625 -2 31 -13.1875  L 23.1875 -13.1875  Q 15.875 -1.703125 12.234375 9.375  Q 8.59375 20.453125 8.59375 31.390625  Q 8.59375 42.28125 12.203125 53.3125  Q 15.828125 64.359375 23.1875 75.875  z "
 id="DejaVuSans-28" />
<path
 d="M 30.609375 48.390625  Q 23.390625 48.390625 19.1875 42.75  Q 14.984375 37.109375 14.984375 27.296875  Q 14.984375 17.484375 19.15625 11.84375  Q 23.34375 6.203125 30.609375 6.203125  Q 37.796875 6.203125 41.984375 11.859375  Q 46.1875 17.53125 46.1875 27.296875  Q 46.1875 37.015625 41.984375 42.703125  Q 37.796875 48.390625 30.609375 48.390625  M 30.609375 56  Q 42.328125 56 49.015625 48.375  Q 55.71875 40.765625 55.71875 27.296875  Q 55.71875 13.875 49.015625 6.21875  Q 42.328125 -1.421875 30.609375 -1.421875  Q 18.84375 -1.421875 12.171875 6.21875  Q 5.515625 13.875 5.515625 27.296875  Q 5.515625 40.765625 12.171875 48.375  Q 18.84375 56 30.609375 56  "
 id="DejaVuSans-6f" />
<path
 d="M 8.015625 75.875  L 15.828125 75.875  Q 23.140625 64.359375 26.78125 53.3125  Q 30.421875 42.28125 30.421875 31.390625  Q 30.421875 20.453125 26.78125 9.375  Q 23.140625 -1.703125 15.828125 -13.1875  L 8.015625 -13.1875  Q 14.5 -2 17.703125 9.0625  Q 20.90625 20.125 20.90625 31.390625  Q 20.90625 42.671875 17.703125 53.65625  Q 14.5 64.65625 8.015625 75.875  "
 id="DejaVuSans-29" />
</defs>
<g
 transform="translate(236.237812 35.472)scale(0.12 -0.12)"
 id="g60294">
<use
 xlink:href="#DejaVuSans-4e"
 id="use60216" />
<use
 x="74.804688"
 xlink:href="#DejaVuSans-49"
 id="use60218" />
<use
 x="104.296875"
 xlink:href="#DejaVuSans-53"
 id="use60220" />
<use
 x="167.773438"
 xlink:href="#DejaVuSans-54"
 id="use60222" />
<use
 x="228.857422"
 xlink:href="#DejaVuSans-20"
 id="use60224" />
<use
 x="260.644531"
 xlink:href="#DejaVuSans-6d"
 id="use60226" />
<use
 x="358.056641"
 xlink:href="#DejaVuSans-61"
 id="use60228" />
<use
 x="419.335938"
 xlink:href="#DejaVuSans-73"
 id="use60230" />
<use
 x="471.435547"
 xlink:href="#DejaVuSans-73"
 id="use60232" />
<use
 x="523.535156"
 xlink:href="#DejaVuSans-20"
 id="use60234" />
<use
 x="555.322266"
 xlink:href="#DejaVuSans-73"
 id="use60236" />
<use
 x="607.421875"
 xlink:href="#DejaVuSans-70"
 id="use60238" />
<use
 x="670.898438"
 xlink:href="#DejaVuSans-65"
 id="use60240" />
<use
 x="732.421875"
 xlink:href="#DejaVuSans-63"
 id="use60242" />
<use
 x="787.402344"
 xlink:href="#DejaVuSans-74"
 id="use60244" />
<use
 x="826.611328"
 xlink:href="#DejaVuSans-72"
 id="use60246" />
<use
 x="867.724609"
 xlink:href="#DejaVuSans-61"
 id="use60248" />
<use
 x="929.003906"
 xlink:href="#DejaVuSans-20"
 id="use60250" />
<use
 x="960.791016"
 xlink:href="#DejaVuSans-28"
 id="use60252" />
<use
 x="999.804688"
 xlink:href="#DejaVuSans-65"
 id="use60254" />
<use
 x="1061.328125"
 xlink:href="#DejaVuSans-6c"
 id="use60256" />
<use
 x="1089.111328"
 xlink:href="#DejaVuSans-65"
 id="use60258" />
<use
 x="1150.634766"
 xlink:href="#DejaVuSans-63"
 id="use60260" />
<use
 x="1205.615234"
 xlink:href="#DejaVuSans-74"
 id="use60262" />
<use
 x="1244.824219"
 xlink:href="#DejaVuSans-72"
 id="use60264" />
<use
 x="1285.90625"
 xlink:href="#DejaVuSans-6f"
 id="use60266" />
<use
 x="1347.087891"
 xlink:href="#DejaVuSans-6e"
 id="use60268" />
<use
 x="1410.466797"
 xlink:href="#DejaVuSans-20"
 id="use60270" />
<use
 x="1442.253906"
 xlink:href="#DejaVuSans-69"
 id="use60272" />
<use
 x="1470.037109"
 xlink:href="#DejaVuSans-6f"
 id="use60274" />
<use
 x="1531.21875"
 xlink:href="#DejaVuSans-6e"
 id="use60276" />
<use
 x="1594.597656"
 xlink:href="#DejaVuSans-69"
 id="use60278" />
<use
 x="1622.380859"
 xlink:href="#DejaVuSans-7a"
 id="use60280" />
<use
 x="1674.871094"
 xlink:href="#DejaVuSans-61"
 id="use60282" />
<use
 x="1736.150391"
 xlink:href="#DejaVuSans-74"
 id="use60284" />
<use
 x="1775.359375"
 xlink:href="#DejaVuSans-69"
 id="use60286" />
<use
 x="1803.142578"
 xlink:href="#DejaVuSans-6f"
 id="use60288" />
<use
 x="1864.324219"
 xlink:href="#DejaVuSans-6e"
 id="use60290" />
<use
 x="1927.703125"
 xlink:href="#DejaVuSans-29"
 id="use60292" />
</g>
</g>
</g>
</g>
<defs
 id="defs60302">
<clipPath
 id="p3bd398fffc">
<rect
 height="266.112"
 width="535.68"
 x="86.4"
 y="41.472"
 id="rect60299" />
</clipPath>
</defs>
<defs
 id="defs60309">
<pattern
 height="72"
 id="hec980322e0"
 patternUnits="userSpaceOnUse"
 width="72"
 x="0"
 y="0">
<rect
 fill="#008000"
 height="73"
 width="73"
 x="0"
 y="0"
 id="rect60304" />
<path
 d="M -36 36  L 36 -36  M -30 42  L 42 -30  M -24 48  L 48 -24  M -18 54  L 54 -18  M -12 60  L 60 -12  M -6 66  L 66 -6  M 0 72  L 72 0  M 6 78  L 78 6  M 12 84  L 84 12  M 18 90  L 90 18  M 24 96  L 96 24  M 30 102  L 102 30  M 36 108  L 108 36  "
 style="fill:#000000;stroke:#000000;stroke-linecap:butt;stroke-linejoin:miter;stroke-width:1.0;"
 id="path60306" />
</pattern>
</defs>
<flowRoot
 xml:space="preserve"
 id="flowRoot60860"
 style="font-style:normal;font-weight:normal;font-size:7.33333349px;line-height:1.25;font-family:sans-serif;letter-spacing:0px;word-spacing:0px;fill:#a52a2a;fill-opacity:1;stroke:none;stroke-linecap:butt;stroke-linejoin:round"
 transform="matrix(1.9077183,0,0,1.9077183,-815.93387,-86.968244)"><flowRegion
 id="flowRegion60862"
 style="fill:#a52a2a;fill-opacity:1;stroke-linecap:butt;stroke-linejoin:round"><rect
 id="rect60864"
 width="66.243866"
 height="63.753498"
 x="719.71722"
 y="72.996353"
 style="fill:#a52a2a;fill-opacity:1;stroke-linecap:butt;stroke-linejoin:round" /></flowRegion><flowPara
 id="flowPara60866"
 style="fill:#a52a2a;fill-opacity:1;stroke-linecap:butt;stroke-linejoin:round">CO<flowSpan
 style="font-size:64.99999762%;baseline-shift:sub;fill:#a52a2a;fill-opacity:1;stroke-linecap:butt;stroke-linejoin:round"
 id="flowSpan60868">2</flowSpan></flowPara></flowRoot><flowRoot
 transform="matrix(1.9077183,0,0,1.9077183,-899.23969,-86.968244)"
 style="font-style:normal;font-weight:normal;font-size:7.33333349px;line-height:1.25;font-family:sans-serif;letter-spacing:0px;word-spacing:0px;fill:#ff0000;fill-opacity:1;stroke:none;stroke-linecap:butt;stroke-linejoin:round"
 id="flowRoot60878"
 xml:space="preserve"><flowRegion
 style="fill:#ff0000;fill-opacity:1;stroke-linecap:butt;stroke-linejoin:round"
 id="flowRegion60872"><rect
 style="fill:#ff0000;fill-opacity:1;stroke-linecap:butt;stroke-linejoin:round"
 y="72.996353"
 x="719.71722"
 height="63.753498"
 width="66.243866"
 id="rect60870" /></flowRegion><flowPara
 style="fill:#ff0000;fill-opacity:1;stroke-linecap:butt;stroke-linejoin:round"
 id="flowPara60876">C<flowSpan
 style="font-size:64.99999762%;baseline-shift:sub;fill:#ff0000;fill-opacity:1;stroke-linecap:butt;stroke-linejoin:round"
 id="flowSpan60882">3</flowSpan>H<flowSpan
 style="font-size:64.99999762%;baseline-shift:sub;fill:#ff0000;fill-opacity:1;stroke-linecap:butt;stroke-linejoin:round"
 id="flowSpan60880">6</flowSpan></flowPara></flowRoot><flowRoot
 xml:space="preserve"
 id="flowRoot60894"
 style="font-style:normal;font-weight:normal;font-size:7.33333349px;line-height:1.25;font-family:sans-serif;letter-spacing:0px;word-spacing:0px;fill:#008000;fill-opacity:1;stroke:none;stroke-linecap:butt;stroke-linejoin:round"
 transform="matrix(1.9077183,0,0,1.9077183,-1140.0141,-86.968244)"><flowRegion
 id="flowRegion60886"
 style="fill:#008000;fill-opacity:1;stroke-linecap:butt;stroke-linejoin:round"><rect
 id="rect60884"
 width="66.243866"
 height="63.753498"
 x="719.71722"
 y="72.996353"
 style="fill:#008000;fill-opacity:1;stroke-linecap:butt;stroke-linejoin:round" /></flowRegion><flowPara
 id="flowPara60892"
 style="fill:#008000;fill-opacity:1;stroke-linecap:butt;stroke-linejoin:round">C<flowSpan
 id="flowSpan60888"
 style="font-size:64.99999762%;baseline-shift:sub;fill:#008000;fill-opacity:1;stroke-linecap:butt;stroke-linejoin:round">3</flowSpan>H<flowSpan
 style="font-size:65%;baseline-shift:sub"
 id="flowSpan60896">8</flowSpan></flowPara></flowRoot></svg>
