<?xml version="1.0" encoding="UTF-8" standalone="no"?>
<!-- Created with matplotlib (http://matplotlib.org/) -->

<svg
 xmlns:dc="http://purl.org/dc/elements/1.1/"
 xmlns:cc="http://creativecommons.org/ns#"
 xmlns:rdf="http://www.w3.org/1999/02/22-rdf-syntax-ns#"
 xmlns:svg="http://www.w3.org/2000/svg"
 xmlns="http://www.w3.org/2000/svg"
 xmlns:xlink="http://www.w3.org/1999/xlink"
 xmlns:sodipodi="http://sodipodi.sourceforge.net/DTD/sodipodi-0.dtd"
 xmlns:inkscape="http://www.inkscape.org/namespaces/inkscape"
 height="345pt"
 version="1.1"
 viewBox="0 0 864 345"
 width="864pt"
 id="svg160136"
 sodipodi:docname="O16_drop.svg"
 inkscape:version="0.92.4 (unknown)">
<metadata
 id="metadata160140">
<rdf:RDF>
<cc:Work
 rdf:about="">
<dc:format>image/svg+xml</dc:format>
<dc:type
 rdf:resource="http://purl.org/dc/dcmitype/StillImage" />
<dc:title></dc:title>
</cc:Work>
</rdf:RDF>
</metadata>
<sodipodi:namedview
 pagecolor="#ffffff"
 bordercolor="#666666"
 borderopacity="1"
 objecttolerance="10"
 gridtolerance="10"
 guidetolerance="10"
 inkscape:pageopacity="0"
 inkscape:pageshadow="2"
 inkscape:window-width="1839"
 inkscape:window-height="1050"
 id="namedview160138"
 showgrid="false"
 showguides="false"
 inkscape:zoom="1.21875"
 inkscape:cx="561.32169"
 inkscape:cy="135.53875"
 inkscape:window-x="81"
 inkscape:window-y="30"
 inkscape:window-maximized="1"
 inkscape:current-layer="svg160136" />
<defs
 id="defs159609">
<style
 type="text/css"
 id="style159607">
*{stroke-linecap:butt;stroke-linejoin:round;}
  </style>
</defs>
<g
 id="figure_1">
<g
 id="patch_1">
<path
 d="M 0 345.6  L 864 345.6  L 864 0  L 0 0  z "
 style="fill:#ffffff;"
 id="path159611" />
</g>
<g
 id="axes_1">
<g
 id="patch_2">
<path
 d="M 108 307.584  L 777.6 307.584  L 777.6 41.472  L 108 41.472  z "
 style="fill:#ffffff;"
 id="path159614" />
</g>
<g
 id="matplotlib.axis_1">
<g
 id="xtick_1">
<g
 id="line2d_1">
<defs
 id="defs159618">
<path
 d="M 0 0  L 0 3.5  "
 id="m3fcabf602e"
 style="stroke:#000000;stroke-width:0.8;" />
</defs>
<g
 id="g159622">
<use
 style="stroke:#000000;stroke-width:0.8;"
 x="137.674502"
 xlink:href="#m3fcabf602e"
 y="307.584"
 id="use159620" />
</g>
</g>
<g
 id="text_1">
<!-- 0 -->
<defs
 id="defs159626">
<path
 d="M 31.78125 66.40625  Q 24.171875 66.40625 20.328125 58.90625  Q 16.5 51.421875 16.5 36.375  Q 16.5 21.390625 20.328125 13.890625  Q 24.171875 6.390625 31.78125 6.390625  Q 39.453125 6.390625 43.28125 13.890625  Q 47.125 21.390625 47.125 36.375  Q 47.125 51.421875 43.28125 58.90625  Q 39.453125 66.40625 31.78125 66.40625  M 31.78125 74.21875  Q 44.046875 74.21875 50.515625 64.515625  Q 56.984375 54.828125 56.984375 36.375  Q 56.984375 17.96875 50.515625 8.265625  Q 44.046875 -1.421875 31.78125 -1.421875  Q 19.53125 -1.421875 13.0625 8.265625  Q 6.59375 17.96875 6.59375 36.375  Q 6.59375 54.828125 13.0625 64.515625  Q 19.53125 74.21875 31.78125 74.21875  "
 id="DejaVuSans-30" />
</defs>
<g
 transform="translate(134.493252 322.182437)scale(0.1 -0.1)"
 id="g159630">
<use
 xlink:href="#DejaVuSans-30"
 id="use159628" />
</g>
</g>
</g>
<g
 id="xtick_2">
<g
 id="line2d_2">
<g
 id="g159636">
<use
 style="stroke:#000000;stroke-width:0.8;"
 x="259.572329"
 xlink:href="#m3fcabf602e"
 y="307.584"
 id="use159634" />
</g>
</g>
<g
 id="text_2">
<!-- 10 -->
<defs
 id="defs159640">
<path
 d="M 12.40625 8.296875  L 28.515625 8.296875  L 28.515625 63.921875  L 10.984375 60.40625  L 10.984375 69.390625  L 28.421875 72.90625  L 38.28125 72.90625  L 38.28125 8.296875  L 54.390625 8.296875  L 54.390625 0  L 12.40625 0  z "
 id="DejaVuSans-31" />
</defs>
<g
 transform="translate(253.209829 322.182437)scale(0.1 -0.1)"
 id="g159646">
<use
 xlink:href="#DejaVuSans-31"
 id="use159642" />
<use
 x="63.623047"
 xlink:href="#DejaVuSans-30"
 id="use159644" />
</g>
</g>
</g>
<g
 id="xtick_3">
<g
 id="line2d_3">
<g
 id="g159652">
<use
 style="stroke:#000000;stroke-width:0.8;"
 x="381.470156"
 xlink:href="#m3fcabf602e"
 y="307.584"
 id="use159650" />
</g>
</g>
<g
 id="text_3">
<!-- 20 -->
<defs
 id="defs159656">
<path
 d="M 19.1875 8.296875  L 53.609375 8.296875  L 53.609375 0  L 7.328125 0  L 7.328125 8.296875  Q 12.9375 14.109375 22.625 23.890625  Q 32.328125 33.6875 34.8125 36.53125  Q 39.546875 41.84375 41.421875 45.53125  Q 43.3125 49.21875 43.3125 52.78125  Q 43.3125 58.59375 39.234375 62.25  Q 35.15625 65.921875 28.609375 65.921875  Q 23.96875 65.921875 18.8125 64.3125  Q 13.671875 62.703125 7.8125 59.421875  L 7.8125 69.390625  Q 13.765625 71.78125 18.9375 73  Q 24.125 74.21875 28.421875 74.21875  Q 39.75 74.21875 46.484375 68.546875  Q 53.21875 62.890625 53.21875 53.421875  Q 53.21875 48.921875 51.53125 44.890625  Q 49.859375 40.875 45.40625 35.40625  Q 44.1875 33.984375 37.640625 27.21875  Q 31.109375 20.453125 19.1875 8.296875  "
 id="DejaVuSans-32" />
</defs>
<g
 transform="translate(375.107656 322.182437)scale(0.1 -0.1)"
 id="g159662">
<use
 xlink:href="#DejaVuSans-32"
 id="use159658" />
<use
 x="63.623047"
 xlink:href="#DejaVuSans-30"
 id="use159660" />
</g>
</g>
</g>
<g
 id="xtick_4">
<g
 id="line2d_4">
<g
 id="g159668">
<use
 style="stroke:#000000;stroke-width:0.8;"
 x="503.367983"
 xlink:href="#m3fcabf602e"
 y="307.584"
 id="use159666" />
</g>
</g>
<g
 id="text_4">
<!-- 30 -->
<defs
 id="defs159672">
<path
 d="M 40.578125 39.3125  Q 47.65625 37.796875 51.625 33  Q 55.609375 28.21875 55.609375 21.1875  Q 55.609375 10.40625 48.1875 4.484375  Q 40.765625 -1.421875 27.09375 -1.421875  Q 22.515625 -1.421875 17.65625 -0.515625  Q 12.796875 0.390625 7.625 2.203125  L 7.625 11.71875  Q 11.71875 9.328125 16.59375 8.109375  Q 21.484375 6.890625 26.8125 6.890625  Q 36.078125 6.890625 40.9375 10.546875  Q 45.796875 14.203125 45.796875 21.1875  Q 45.796875 27.640625 41.28125 31.265625  Q 36.765625 34.90625 28.71875 34.90625  L 20.21875 34.90625  L 20.21875 43.015625  L 29.109375 43.015625  Q 36.375 43.015625 40.234375 45.921875  Q 44.09375 48.828125 44.09375 54.296875  Q 44.09375 59.90625 40.109375 62.90625  Q 36.140625 65.921875 28.71875 65.921875  Q 24.65625 65.921875 20.015625 65.03125  Q 15.375 64.15625 9.8125 62.3125  L 9.8125 71.09375  Q 15.4375 72.65625 20.34375 73.4375  Q 25.25 74.21875 29.59375 74.21875  Q 40.828125 74.21875 47.359375 69.109375  Q 53.90625 64.015625 53.90625 55.328125  Q 53.90625 49.265625 50.4375 45.09375  Q 46.96875 40.921875 40.578125 39.3125  "
 id="DejaVuSans-33" />
</defs>
<g
 transform="translate(497.005483 322.182437)scale(0.1 -0.1)"
 id="g159678">
<use
 xlink:href="#DejaVuSans-33"
 id="use159674" />
<use
 x="63.623047"
 xlink:href="#DejaVuSans-30"
 id="use159676" />
</g>
</g>
</g>
<g
 id="xtick_5">
<g
 id="line2d_5">
<g
 id="g159684">
<use
 style="stroke:#000000;stroke-width:0.8;"
 x="625.26581"
 xlink:href="#m3fcabf602e"
 y="307.584"
 id="use159682" />
</g>
</g>
<g
 id="text_5">
<!-- 40 -->
<defs
 id="defs159688">
<path
 d="M 37.796875 64.3125  L 12.890625 25.390625  L 37.796875 25.390625  z M 35.203125 72.90625  L 47.609375 72.90625  L 47.609375 25.390625  L 58.015625 25.390625  L 58.015625 17.1875  L 47.609375 17.1875  L 47.609375 0  L 37.796875 0  L 37.796875 17.1875  L 4.890625 17.1875  L 4.890625 26.703125  z "
 id="DejaVuSans-34" />
</defs>
<g
 transform="translate(618.90331 322.182437)scale(0.1 -0.1)"
 id="g159694">
<use
 xlink:href="#DejaVuSans-34"
 id="use159690" />
<use
 x="63.623047"
 xlink:href="#DejaVuSans-30"
 id="use159692" />
</g>
</g>
</g>
<g
 id="xtick_6">
<g
 id="line2d_6">
<g
 id="g159700">
<use
 style="stroke:#000000;stroke-width:0.8;"
 x="747.163636"
 xlink:href="#m3fcabf602e"
 y="307.584"
 id="use159698" />
</g>
</g>
<g
 id="text_6">
<!-- 50 -->
<defs
 id="defs159704">
<path
 d="M 10.796875 72.90625  L 49.515625 72.90625  L 49.515625 64.59375  L 19.828125 64.59375  L 19.828125 46.734375  Q 21.96875 47.46875 24.109375 47.828125  Q 26.265625 48.1875 28.421875 48.1875  Q 40.625 48.1875 47.75 41.5  Q 54.890625 34.8125 54.890625 23.390625  Q 54.890625 11.625 47.5625 5.09375  Q 40.234375 -1.421875 26.90625 -1.421875  Q 22.3125 -1.421875 17.546875 -0.640625  Q 12.796875 0.140625 7.71875 1.703125  L 7.71875 11.625  Q 12.109375 9.234375 16.796875 8.0625  Q 21.484375 6.890625 26.703125 6.890625  Q 35.15625 6.890625 40.078125 11.328125  Q 45.015625 15.765625 45.015625 23.390625  Q 45.015625 31 40.078125 35.4375  Q 35.15625 39.890625 26.703125 39.890625  Q 22.75 39.890625 18.8125 39.015625  Q 14.890625 38.140625 10.796875 36.28125  z "
 id="DejaVuSans-35" />
</defs>
<g
 transform="translate(740.801136 322.182437)scale(0.1 -0.1)"
 id="g159710">
<use
 xlink:href="#DejaVuSans-35"
 id="use159706" />
<use
 x="63.623047"
 xlink:href="#DejaVuSans-30"
 id="use159708" />
</g>
</g>
</g>
</g>
<g
 id="matplotlib.axis_2">
<g
 id="ytick_1">
<g
 id="line2d_7">
<defs
 id="defs159716">
<path
 d="M 0 0  L -3.5 0  "
 id="mf071f61bfa"
 style="stroke:#000000;stroke-width:0.8;" />
</defs>
<g
 id="g159720">
<use
 style="stroke:#000000;stroke-width:0.8;"
 x="108"
 xlink:href="#mf071f61bfa"
 y="292.892754"
 id="use159718" />
</g>
</g>
<g
 id="text_7">
<!-- ${10^{-13}}$ -->
<defs
 id="defs159724">
<path
 d="M 10.59375 35.5  L 73.1875 35.5  L 73.1875 27.203125  L 10.59375 27.203125  z "
 id="DejaVuSans-2212" />
</defs>
<g
 transform="translate(73.1 296.691973)scale(0.1 -0.1)"
 id="g159736">
<use
 transform="translate(0 0.765625)"
 xlink:href="#DejaVuSans-31"
 id="use159726" />
<use
 transform="translate(63.623047 0.765625)"
 xlink:href="#DejaVuSans-30"
 id="use159728" />
<use
 transform="translate(128.203125 39.046875)scale(0.7)"
 xlink:href="#DejaVuSans-2212"
 id="use159730" />
<use
 transform="translate(186.855469 39.046875)scale(0.7)"
 xlink:href="#DejaVuSans-31"
 id="use159732" />
<use
 transform="translate(231.391602 39.046875)scale(0.7)"
 xlink:href="#DejaVuSans-33"
 id="use159734" />
</g>
</g>
</g>
<g
 id="ytick_2">
<g
 id="line2d_8">
<g
 id="g159742">
<use
 style="stroke:#000000;stroke-width:0.8;"
 x="108"
 xlink:href="#mf071f61bfa"
 y="244.089492"
 id="use159740" />
</g>
</g>
<g
 id="text_8">
<!-- ${10^{-12}}$ -->
<g
 transform="translate(73.1 247.888711)scale(0.1 -0.1)"
 id="g159755">
<use
 transform="translate(0 0.765625)"
 xlink:href="#DejaVuSans-31"
 id="use159745" />
<use
 transform="translate(63.623047 0.765625)"
 xlink:href="#DejaVuSans-30"
 id="use159747" />
<use
 transform="translate(128.203125 39.046875)scale(0.7)"
 xlink:href="#DejaVuSans-2212"
 id="use159749" />
<use
 transform="translate(186.855469 39.046875)scale(0.7)"
 xlink:href="#DejaVuSans-31"
 id="use159751" />
<use
 transform="translate(231.391602 39.046875)scale(0.7)"
 xlink:href="#DejaVuSans-32"
 id="use159753" />
</g>
</g>
</g>
<g
 id="ytick_3">
<g
 id="line2d_9">
<g
 id="g159761">
<use
 style="stroke:#000000;stroke-width:0.8;"
 x="108"
 xlink:href="#mf071f61bfa"
 y="195.286231"
 id="use159759" />
</g>
</g>
<g
 id="text_9">
<!-- ${10^{-11}}$ -->
<g
 transform="translate(73.1 199.085449)scale(0.1 -0.1)"
 id="g159774">
<use
 transform="translate(0 0.684375)"
 xlink:href="#DejaVuSans-31"
 id="use159764" />
<use
 transform="translate(63.623047 0.684375)"
 xlink:href="#DejaVuSans-30"
 id="use159766" />
<use
 transform="translate(128.203125 38.965625)scale(0.7)"
 xlink:href="#DejaVuSans-2212"
 id="use159768" />
<use
 transform="translate(186.855469 38.965625)scale(0.7)"
 xlink:href="#DejaVuSans-31"
 id="use159770" />
<use
 transform="translate(231.391602 38.965625)scale(0.7)"
 xlink:href="#DejaVuSans-31"
 id="use159772" />
</g>
</g>
</g>
<g
 id="ytick_4">
<g
 id="line2d_10">
<g
 id="g159780">
<use
 style="stroke:#000000;stroke-width:0.8;"
 x="108"
 xlink:href="#mf071f61bfa"
 y="146.482969"
 id="use159778" />
</g>
</g>
<g
 id="text_10">
<!-- ${10^{-10}}$ -->
<g
 transform="translate(73.1 150.282187)scale(0.1 -0.1)"
 id="g159793">
<use
 transform="translate(0 0.765625)"
 xlink:href="#DejaVuSans-31"
 id="use159783" />
<use
 transform="translate(63.623047 0.765625)"
 xlink:href="#DejaVuSans-30"
 id="use159785" />
<use
 transform="translate(128.203125 39.046875)scale(0.7)"
 xlink:href="#DejaVuSans-2212"
 id="use159787" />
<use
 transform="translate(186.855469 39.046875)scale(0.7)"
 xlink:href="#DejaVuSans-31"
 id="use159789" />
<use
 transform="translate(231.391602 39.046875)scale(0.7)"
 xlink:href="#DejaVuSans-30"
 id="use159791" />
</g>
</g>
</g>
<g
 id="ytick_5">
<g
 id="line2d_11">
<g
 id="g159799">
<use
 style="stroke:#000000;stroke-width:0.8;"
 x="108"
 xlink:href="#mf071f61bfa"
 y="97.679707"
 id="use159797" />
</g>
</g>
<g
 id="text_11">
<!-- ${10^{-9}}$ -->
<defs
 id="defs159803">
<path
 d="M 10.984375 1.515625  L 10.984375 10.5  Q 14.703125 8.734375 18.5 7.8125  Q 22.3125 6.890625 25.984375 6.890625  Q 35.75 6.890625 40.890625 13.453125  Q 46.046875 20.015625 46.78125 33.40625  Q 43.953125 29.203125 39.59375 26.953125  Q 35.25 24.703125 29.984375 24.703125  Q 19.046875 24.703125 12.671875 31.3125  Q 6.296875 37.9375 6.296875 49.421875  Q 6.296875 60.640625 12.9375 67.421875  Q 19.578125 74.21875 30.609375 74.21875  Q 43.265625 74.21875 49.921875 64.515625  Q 56.59375 54.828125 56.59375 36.375  Q 56.59375 19.140625 48.40625 8.859375  Q 40.234375 -1.421875 26.421875 -1.421875  Q 22.703125 -1.421875 18.890625 -0.6875  Q 15.09375 0.046875 10.984375 1.515625  M 30.609375 32.421875  Q 37.25 32.421875 41.125 36.953125  Q 45.015625 41.5 45.015625 49.421875  Q 45.015625 57.28125 41.125 61.84375  Q 37.25 66.40625 30.609375 66.40625  Q 23.96875 66.40625 20.09375 61.84375  Q 16.21875 57.28125 16.21875 49.421875  Q 16.21875 41.5 20.09375 36.953125  Q 23.96875 32.421875 30.609375 32.421875  "
 id="DejaVuSans-39" />
</defs>
<g
 transform="translate(77.5 101.478925)scale(0.1 -0.1)"
 id="g159813">
<use
 transform="translate(0 0.765625)"
 xlink:href="#DejaVuSans-31"
 id="use159805" />
<use
 transform="translate(63.623047 0.765625)"
 xlink:href="#DejaVuSans-30"
 id="use159807" />
<use
 transform="translate(128.203125 39.046875)scale(0.7)"
 xlink:href="#DejaVuSans-2212"
 id="use159809" />
<use
 transform="translate(186.855469 39.046875)scale(0.7)"
 xlink:href="#DejaVuSans-39"
 id="use159811" />
</g>
</g>
</g>
<g
 id="ytick_6">
<g
 id="line2d_12">
<g
 id="g159819">
<use
 style="stroke:#000000;stroke-width:0.8;"
 x="108"
 xlink:href="#mf071f61bfa"
 y="48.876445"
 id="use159817" />
</g>
</g>
<g
 id="text_12">
<!-- ${10^{-8}}$ -->
<defs
 id="defs159823">
<path
 d="M 31.78125 34.625  Q 24.75 34.625 20.71875 30.859375  Q 16.703125 27.09375 16.703125 20.515625  Q 16.703125 13.921875 20.71875 10.15625  Q 24.75 6.390625 31.78125 6.390625  Q 38.8125 6.390625 42.859375 10.171875  Q 46.921875 13.96875 46.921875 20.515625  Q 46.921875 27.09375 42.890625 30.859375  Q 38.875 34.625 31.78125 34.625  M 21.921875 38.8125  Q 15.578125 40.375 12.03125 44.71875  Q 8.5 49.078125 8.5 55.328125  Q 8.5 64.0625 14.71875 69.140625  Q 20.953125 74.21875 31.78125 74.21875  Q 42.671875 74.21875 48.875 69.140625  Q 55.078125 64.0625 55.078125 55.328125  Q 55.078125 49.078125 51.53125 44.71875  Q 48 40.375 41.703125 38.8125  Q 48.828125 37.15625 52.796875 32.3125  Q 56.78125 27.484375 56.78125 20.515625  Q 56.78125 9.90625 50.3125 4.234375  Q 43.84375 -1.421875 31.78125 -1.421875  Q 19.734375 -1.421875 13.25 4.234375  Q 6.78125 9.90625 6.78125 20.515625  Q 6.78125 27.484375 10.78125 32.3125  Q 14.796875 37.15625 21.921875 38.8125  M 18.3125 54.390625  Q 18.3125 48.734375 21.84375 45.5625  Q 25.390625 42.390625 31.78125 42.390625  Q 38.140625 42.390625 41.71875 45.5625  Q 45.3125 48.734375 45.3125 54.390625  Q 45.3125 60.0625 41.71875 63.234375  Q 38.140625 66.40625 31.78125 66.40625  Q 25.390625 66.40625 21.84375 63.234375  Q 18.3125 60.0625 18.3125 54.390625  "
 id="DejaVuSans-38" />
</defs>
<g
 transform="translate(77.5 52.675664)scale(0.1 -0.1)"
 id="g159833">
<use
 transform="translate(0 0.765625)"
 xlink:href="#DejaVuSans-31"
 id="use159825" />
<use
 transform="translate(63.623047 0.765625)"
 xlink:href="#DejaVuSans-30"
 id="use159827" />
<use
 transform="translate(128.203125 39.046875)scale(0.7)"
 xlink:href="#DejaVuSans-2212"
 id="use159829" />
<use
 transform="translate(186.855469 39.046875)scale(0.7)"
 xlink:href="#DejaVuSans-38"
 id="use159831" />
</g>
</g>
</g>
<g
 id="ytick_7">
<g
 id="line2d_13">
<defs
 id="defs159838">
<path
 d="M 0 0  L -2 0  "
 id="mbda7fb3ff1"
 style="stroke:#000000;stroke-width:0.6;" />
</defs>
<g
 id="g159842">
<use
 style="stroke:#000000;stroke-width:0.6;"
 x="108"
 xlink:href="#mbda7fb3ff1"
 y="307.584"
 id="use159840" />
</g>
</g>
</g>
<g
 id="ytick_8">
<g
 id="line2d_14">
<g
 id="g159848">
<use
 style="stroke:#000000;stroke-width:0.6;"
 x="108"
 xlink:href="#mbda7fb3ff1"
 y="303.719697"
 id="use159846" />
</g>
</g>
</g>
<g
 id="ytick_9">
<g
 id="line2d_15">
<g
 id="g159854">
<use
 style="stroke:#000000;stroke-width:0.6;"
 x="108"
 xlink:href="#mbda7fb3ff1"
 y="300.452475"
 id="use159852" />
</g>
</g>
</g>
<g
 id="ytick_10">
<g
 id="line2d_16">
<g
 id="g159860">
<use
 style="stroke:#000000;stroke-width:0.6;"
 x="108"
 xlink:href="#mbda7fb3ff1"
 y="297.622279"
 id="use159858" />
</g>
</g>
</g>
<g
 id="ytick_11">
<g
 id="line2d_17">
<g
 id="g159866">
<use
 style="stroke:#000000;stroke-width:0.6;"
 x="108"
 xlink:href="#mbda7fb3ff1"
 y="295.125869"
 id="use159864" />
</g>
</g>
</g>
<g
 id="ytick_12">
<g
 id="line2d_18">
<g
 id="g159872">
<use
 style="stroke:#000000;stroke-width:0.6;"
 x="108"
 xlink:href="#mbda7fb3ff1"
 y="278.201509"
 id="use159870" />
</g>
</g>
</g>
<g
 id="ytick_13">
<g
 id="line2d_19">
<g
 id="g159878">
<use
 style="stroke:#000000;stroke-width:0.6;"
 x="108"
 xlink:href="#mbda7fb3ff1"
 y="269.607681"
 id="use159876" />
</g>
</g>
</g>
<g
 id="ytick_14">
<g
 id="line2d_20">
<g
 id="g159884">
<use
 style="stroke:#000000;stroke-width:0.6;"
 x="108"
 xlink:href="#mbda7fb3ff1"
 y="263.510263"
 id="use159882" />
</g>
</g>
</g>
<g
 id="ytick_15">
<g
 id="line2d_21">
<g
 id="g159890">
<use
 style="stroke:#000000;stroke-width:0.6;"
 x="108"
 xlink:href="#mbda7fb3ff1"
 y="258.780738"
 id="use159888" />
</g>
</g>
</g>
<g
 id="ytick_16">
<g
 id="line2d_22">
<g
 id="g159896">
<use
 style="stroke:#000000;stroke-width:0.6;"
 x="108"
 xlink:href="#mbda7fb3ff1"
 y="254.916435"
 id="use159894" />
</g>
</g>
</g>
<g
 id="ytick_17">
<g
 id="line2d_23">
<g
 id="g159902">
<use
 style="stroke:#000000;stroke-width:0.6;"
 x="108"
 xlink:href="#mbda7fb3ff1"
 y="251.649213"
 id="use159900" />
</g>
</g>
</g>
<g
 id="ytick_18">
<g
 id="line2d_24">
<g
 id="g159908">
<use
 style="stroke:#000000;stroke-width:0.6;"
 x="108"
 xlink:href="#mbda7fb3ff1"
 y="248.819017"
 id="use159906" />
</g>
</g>
</g>
<g
 id="ytick_19">
<g
 id="line2d_25">
<g
 id="g159914">
<use
 style="stroke:#000000;stroke-width:0.6;"
 x="108"
 xlink:href="#mbda7fb3ff1"
 y="246.322607"
 id="use159912" />
</g>
</g>
</g>
<g
 id="ytick_20">
<g
 id="line2d_26">
<g
 id="g159920">
<use
 style="stroke:#000000;stroke-width:0.6;"
 x="108"
 xlink:href="#mbda7fb3ff1"
 y="229.398247"
 id="use159918" />
</g>
</g>
</g>
<g
 id="ytick_21">
<g
 id="line2d_27">
<g
 id="g159926">
<use
 style="stroke:#000000;stroke-width:0.6;"
 x="108"
 xlink:href="#mbda7fb3ff1"
 y="220.804419"
 id="use159924" />
</g>
</g>
</g>
<g
 id="ytick_22">
<g
 id="line2d_28">
<g
 id="g159932">
<use
 style="stroke:#000000;stroke-width:0.6;"
 x="108"
 xlink:href="#mbda7fb3ff1"
 y="214.707001"
 id="use159930" />
</g>
</g>
</g>
<g
 id="ytick_23">
<g
 id="line2d_29">
<g
 id="g159938">
<use
 style="stroke:#000000;stroke-width:0.6;"
 x="108"
 xlink:href="#mbda7fb3ff1"
 y="209.977476"
 id="use159936" />
</g>
</g>
</g>
<g
 id="ytick_24">
<g
 id="line2d_30">
<g
 id="g159944">
<use
 style="stroke:#000000;stroke-width:0.6;"
 x="108"
 xlink:href="#mbda7fb3ff1"
 y="206.113173"
 id="use159942" />
</g>
</g>
</g>
<g
 id="ytick_25">
<g
 id="line2d_31">
<g
 id="g159950">
<use
 style="stroke:#000000;stroke-width:0.6;"
 x="108"
 xlink:href="#mbda7fb3ff1"
 y="202.845951"
 id="use159948" />
</g>
</g>
</g>
<g
 id="ytick_26">
<g
 id="line2d_32">
<g
 id="g159956">
<use
 style="stroke:#000000;stroke-width:0.6;"
 x="108"
 xlink:href="#mbda7fb3ff1"
 y="200.015755"
 id="use159954" />
</g>
</g>
</g>
<g
 id="ytick_27">
<g
 id="line2d_33">
<g
 id="g159962">
<use
 style="stroke:#000000;stroke-width:0.6;"
 x="108"
 xlink:href="#mbda7fb3ff1"
 y="197.519345"
 id="use159960" />
</g>
</g>
</g>
<g
 id="ytick_28">
<g
 id="line2d_34">
<g
 id="g159968">
<use
 style="stroke:#000000;stroke-width:0.6;"
 x="108"
 xlink:href="#mbda7fb3ff1"
 y="180.594985"
 id="use159966" />
</g>
</g>
</g>
<g
 id="ytick_29">
<g
 id="line2d_35">
<g
 id="g159974">
<use
 style="stroke:#000000;stroke-width:0.6;"
 x="108"
 xlink:href="#mbda7fb3ff1"
 y="172.001157"
 id="use159972" />
</g>
</g>
</g>
<g
 id="ytick_30">
<g
 id="line2d_36">
<g
 id="g159980">
<use
 style="stroke:#000000;stroke-width:0.6;"
 x="108"
 xlink:href="#mbda7fb3ff1"
 y="165.903739"
 id="use159978" />
</g>
</g>
</g>
<g
 id="ytick_31">
<g
 id="line2d_37">
<g
 id="g159986">
<use
 style="stroke:#000000;stroke-width:0.6;"
 x="108"
 xlink:href="#mbda7fb3ff1"
 y="161.174214"
 id="use159984" />
</g>
</g>
</g>
<g
 id="ytick_32">
<g
 id="line2d_38">
<g
 id="g159992">
<use
 style="stroke:#000000;stroke-width:0.6;"
 x="108"
 xlink:href="#mbda7fb3ff1"
 y="157.309911"
 id="use159990" />
</g>
</g>
</g>
<g
 id="ytick_33">
<g
 id="line2d_39">
<g
 id="g159998">
<use
 style="stroke:#000000;stroke-width:0.6;"
 x="108"
 xlink:href="#mbda7fb3ff1"
 y="154.04269"
 id="use159996" />
</g>
</g>
</g>
<g
 id="ytick_34">
<g
 id="line2d_40">
<g
 id="g160004">
<use
 style="stroke:#000000;stroke-width:0.6;"
 x="108"
 xlink:href="#mbda7fb3ff1"
 y="151.212493"
 id="use160002" />
</g>
</g>
</g>
<g
 id="ytick_35">
<g
 id="line2d_41">
<g
 id="g160010">
<use
 style="stroke:#000000;stroke-width:0.6;"
 x="108"
 xlink:href="#mbda7fb3ff1"
 y="148.716083"
 id="use160008" />
</g>
</g>
</g>
<g
 id="ytick_36">
<g
 id="line2d_42">
<g
 id="g160016">
<use
 style="stroke:#000000;stroke-width:0.6;"
 x="108"
 xlink:href="#mbda7fb3ff1"
 y="131.791723"
 id="use160014" />
</g>
</g>
</g>
<g
 id="ytick_37">
<g
 id="line2d_43">
<g
 id="g160022">
<use
 style="stroke:#000000;stroke-width:0.6;"
 x="108"
 xlink:href="#mbda7fb3ff1"
 y="123.197895"
 id="use160020" />
</g>
</g>
</g>
<g
 id="ytick_38">
<g
 id="line2d_44">
<g
 id="g160028">
<use
 style="stroke:#000000;stroke-width:0.6;"
 x="108"
 xlink:href="#mbda7fb3ff1"
 y="117.100477"
 id="use160026" />
</g>
</g>
</g>
<g
 id="ytick_39">
<g
 id="line2d_45">
<g
 id="g160034">
<use
 style="stroke:#000000;stroke-width:0.6;"
 x="108"
 xlink:href="#mbda7fb3ff1"
 y="112.370952"
 id="use160032" />
</g>
</g>
</g>
<g
 id="ytick_40">
<g
 id="line2d_46">
<g
 id="g160040">
<use
 style="stroke:#000000;stroke-width:0.6;"
 x="108"
 xlink:href="#mbda7fb3ff1"
 y="108.506649"
 id="use160038" />
</g>
</g>
</g>
<g
 id="ytick_41">
<g
 id="line2d_47">
<g
 id="g160046">
<use
 style="stroke:#000000;stroke-width:0.6;"
 x="108"
 xlink:href="#mbda7fb3ff1"
 y="105.239428"
 id="use160044" />
</g>
</g>
</g>
<g
 id="ytick_42">
<g
 id="line2d_48">
<g
 id="g160052">
<use
 style="stroke:#000000;stroke-width:0.6;"
 x="108"
 xlink:href="#mbda7fb3ff1"
 y="102.409231"
 id="use160050" />
</g>
</g>
</g>
<g
 id="ytick_43">
<g
 id="line2d_49">
<g
 id="g160058">
<use
 style="stroke:#000000;stroke-width:0.6;"
 x="108"
 xlink:href="#mbda7fb3ff1"
 y="99.912822"
 id="use160056" />
</g>
</g>
</g>
<g
 id="ytick_44">
<g
 id="line2d_50">
<g
 id="g160064">
<use
 style="stroke:#000000;stroke-width:0.6;"
 x="108"
 xlink:href="#mbda7fb3ff1"
 y="82.988461"
 id="use160062" />
</g>
</g>
</g>
<g
 id="ytick_45">
<g
 id="line2d_51">
<g
 id="g160070">
<use
 style="stroke:#000000;stroke-width:0.6;"
 x="108"
 xlink:href="#mbda7fb3ff1"
 y="74.394633"
 id="use160068" />
</g>
</g>
</g>
<g
 id="ytick_46">
<g
 id="line2d_52">
<g
 id="g160076">
<use
 style="stroke:#000000;stroke-width:0.6;"
 x="108"
 xlink:href="#mbda7fb3ff1"
 y="68.297215"
 id="use160074" />
</g>
</g>
</g>
<g
 id="ytick_47">
<g
 id="line2d_53">
<g
 id="g160082">
<use
 style="stroke:#000000;stroke-width:0.6;"
 x="108"
 xlink:href="#mbda7fb3ff1"
 y="63.567691"
 id="use160080" />
</g>
</g>
</g>
<g
 id="ytick_48">
<g
 id="line2d_54">
<g
 id="g160088">
<use
 style="stroke:#000000;stroke-width:0.6;"
 x="108"
 xlink:href="#mbda7fb3ff1"
 y="59.703387"
 id="use160086" />
</g>
</g>
</g>
<g
 id="ytick_49">
<g
 id="line2d_55">
<g
 id="g160094">
<use
 style="stroke:#000000;stroke-width:0.6;"
 x="108"
 xlink:href="#mbda7fb3ff1"
 y="56.436166"
 id="use160092" />
</g>
</g>
</g>
<g
 id="ytick_50">
<g
 id="line2d_56">
<g
 id="g160100">
<use
 style="stroke:#000000;stroke-width:0.6;"
 x="108"
 xlink:href="#mbda7fb3ff1"
 y="53.60597"
 id="use160098" />
</g>
</g>
</g>
<g
 id="ytick_51">
<g
 id="line2d_57">
<g
 id="g160106">
<use
 style="stroke:#000000;stroke-width:0.6;"
 x="108"
 xlink:href="#mbda7fb3ff1"
 y="51.10956"
 id="use160104" />
</g>
</g>
</g>
</g>
<g
 id="line2d_58">
<path
 clip-path="url(#pc727df024e)"
 d="M 138.436364 238.349127  L 139.198225 245.2196  L 139.960086 242.483832  L 140.721948 242.70068  L 142.245671 251.876059  L 143.007532 245.493272  L 143.769394 242.028585  L 144.531255 243.047111  L 145.293116 242.126891  L 146.054978 251.105983  L 146.816839 242.428691  L 147.578701 248.187812  L 148.340562 240.158706  L 149.102423 223.964582  L 149.864285 167.695676  L 150.626146 158.784329  L 151.388008 158.114909  L 152.149869 163.810596  L 152.911731 196.917257  L 153.673592 243.782492  L 154.435453 258.794986  L 155.197315 259.149757  L 155.959176 264.4931  L 156.721038 268.597878  L 157.482899 268.866737  L 158.24476 272.564374  L 159.006622 252.894796  L 159.768483 229.507257  L 160.530345 214.473557  L 162.054068 200.006193  L 162.815929 203.504367  L 163.57779 201.698044  L 164.339652 204.297692  L 165.101513 216.2591  L 165.863375 279.785159  L 166.625236 287.43016  L 167.387098 279.509688  L 168.148959 282.177208  L 168.91082 295.465888  L 169.672682 282.359265  L 170.434543 288.479432  L 171.196405 306.108103  L 171.958266 276.78988  L 172.720127 280.866424  L 173.481989 288.990335  L 174.24385 285.525914  L 175.005712 267.750315  L 175.767573 299.030962  L 176.529435 287.839649  L 177.291296 297.24981  L 178.053157 304.921434  L 178.815019 287.249772  L 179.57688 285.41109  L 180.338742 300.063029  L 181.100603 283.306847  L 181.862464 285.57673  L 182.624326 285.74307  L 183.386187 272.632877  L 184.148049 286.467925  L 184.90991 284.126397  L 185.671772 285.010454  L 186.433633 273.889801  L 187.195494 287.996026  L 187.957356 278.110038  L 188.719217 271.398234  L 189.481079 286.169044  L 190.24294 285.486424  L 191.766663 295.210961  L 192.528524 282.278828  L 193.290386 297.501626  L 194.052247 280.777084  L 194.814109 279.393453  L 195.57597 297.686066  L 196.337831 287.775454  L 197.099693 287.481326  L 197.861554 298.374212  L 198.623416 284.139856  L 199.385277 286.024924  L 200.147138 309.536847  L 200.909 281.233592  L 201.670861 284.462617  L 202.432723 296.343825  L 203.194584 282.387135  L 203.956446 289.961487  L 204.718307 300.285723  L 205.480168 283.41418  L 206.24203 291.072831  L 207.003891 289.401029  L 207.765753 285.140758  L 208.527614 289.224704  L 209.289475 288.712365  L 210.051337 282.80082  L 210.813198 293.216186  L 211.57506 299.471119  L 212.336921 283.180879  L 213.098783 270.093846  L 213.860644 296.994777  L 215.384367 269.807285  L 216.146228 280.488504  L 216.90809 250.758389  L 218.431812 213.629489  L 219.193674 206.705943  L 219.955535 198.31533  L 220.717397 198.445024  L 221.479258 195.365351  L 223.002981 197.259958  L 223.764842 203.21987  L 224.526704 203.777606  L 225.288565 205.631037  L 226.050427 215.435833  L 226.812288 259.738492  L 227.57415 266.75945  L 228.336011 281.310151  L 229.097872 271.611797  L 229.859734 257.426852  L 230.621595 231.795313  L 231.383457 225.074265  L 232.145318 223.994948  L 232.907179 222.133612  L 233.669041 224.90273  L 234.430902 222.447268  L 235.192764 221.036641  L 235.954625 230.533765  L 236.716487 227.778346  L 237.478348 231.594538  L 238.240209 242.232062  L 239.002071 291.728045  L 239.763932 298.268899  L 240.525794 281.700149  L 242.049516 290.95161  L 242.811378 288.199886  L 243.573239 281.878137  L 244.335101 286.28806  L 245.096962 273.196635  L 245.858824 287.304574  L 247.382546 284.278589  L 248.144408 287.257569  L 248.906269 294.109017  L 249.668131 280.301982  L 250.429992 272.457264  L 251.953715 287.238082  L 252.715576 291.11021  L 253.477438 291.873186  L 254.239299 281.443223  L 255.001161 291.868339  L 255.763022 288.417392  L 256.524883 282.712399  L 257.286745 292.554024  L 258.048606 289.908397  L 258.810468 290.509876  L 259.572329 295.904232  L 260.33419 288.9057  L 261.096052 288.558232  L 261.857913 296.584539  L 262.619775 285.272016  L 263.381636 280.310409  L 264.057754 346.6  M 264.231236 346.6  L 264.905359 282.008874  L 265.66722 297.730836  L 266.429082 286.284336  L 267.190943 284.244596  L 267.952805 292.897842  L 268.714666 293.904951  L 269.476527 284.978915  L 270.238389 289.811224  L 271.00025 296.193951  L 271.762112 282.599292  L 272.523973 297.936669  L 273.285835 298.347849  L 274.047696 279.992062  L 274.809557 298.922344  L 275.571419 285.123123  L 276.33328 282.097458  L 277.095142 298.059831  L 277.857003 274.920424  L 278.618864 284.517368  L 280.142587 256.384189  L 280.904449 251.799686  L 281.66631 248.507343  L 282.428172 242.354741  L 283.190033 242.805951  L 283.951894 247.014807  L 284.713756 245.278791  L 285.475617 240.622949  L 286.237479 247.629597  L 286.99934 267.133954  L 288.523063 292.559031  L 289.284924 294.071272  L 290.046786 264.605457  L 290.808647 273.991906  L 291.570509 274.815926  L 292.33237 277.02236  L 293.094231 284.455783  L 293.856093 275.091316  L 294.617954 260.660179  L 295.379816 268.748971  L 296.141677 252.863927  L 296.903539 249.492587  L 297.6654 251.465134  L 298.427261 234.015998  L 299.189123 231.560477  L 299.950984 228.290791  L 300.712846 216.628903  L 302.236568 201.192234  L 302.99843 174.667194  L 303.760291 139.770836  L 304.522153 118.307449  L 305.284014 107.790144  L 306.045876 101.837901  L 306.807737 98.871696  L 307.569598 97.874983  L 308.33146 97.549335  L 309.855183 101.576522  L 310.617044 107.206357  L 311.378905 118.184682  L 312.140767 170.087881  L 312.902628 209.78035  L 313.66449 214.866936  L 314.426351 214.643141  L 315.188213 216.285456  L 316.711935 218.706172  L 317.473797 220.343461  L 318.235658 230.941624  L 318.99752 229.973043  L 319.759381 230.774054  L 320.521242 222.784475  L 321.283104 232.853683  L 322.044965 228.511705  L 322.806827 232.636134  L 323.568688 241.291351  L 324.33055 248.027691  L 325.092411 243.298396  L 325.854272 236.964478  L 326.616134 222.29346  L 327.377995 201.429479  L 328.139857 165.992467  L 328.901718 145.503838  L 329.663579 134.367777  L 330.425441 129.553861  L 331.187302 127.274187  L 331.949164 126.550008  L 332.711025 126.500495  L 333.472887 129.764208  L 334.234748 131.282326  L 334.996609 136.259261  L 335.758471 146.106726  L 337.282194 250.705413  L 338.044055 262.433758  L 338.805916 259.579168  L 339.567778 251.816556  L 340.329639 203.343097  L 341.091501 169.104434  L 341.853362 151.922441  L 342.615224 145.089988  L 343.377085 141.903184  L 344.138946 140.38306  L 344.900808 141.413337  L 345.662669 143.109132  L 346.424531 145.208007  L 347.186392 152.773516  L 347.948253 164.347208  L 348.710115 202.738553  L 349.471976 267.329744  L 350.233838 263.704769  L 350.995699 248.095281  L 351.757561 240.243036  L 352.519422 196.99872  L 353.281283 145.867379  L 354.043145 126.393024  L 354.805006 118.750637  L 355.566868 114.523257  L 356.328729 113.528911  L 357.090591 113.745493  L 357.852452 114.143109  L 358.614313 117.689651  L 359.376175 124.074821  L 360.138036 134.20814  L 360.899898 164.228  L 361.661759 298.460169  L 362.42362 273.763331  L 363.185482 281.381076  L 363.947343 272.625055  L 364.709205 258.435084  L 365.471066 227.252316  L 366.232928 206.300907  L 366.994789 199.530503  L 367.75665 196.513832  L 368.518512 192.598705  L 369.280373 193.281938  L 370.042235 195.508005  L 370.804096 198.881185  L 371.565957 201.380936  L 372.327819 214.949636  L 373.08968 241.343235  L 373.851542 277.184364  L 374.613403 278.60528  L 375.375265 281.920532  L 376.137126 263.13782  L 376.898987 236.301946  L 377.660849 192.741833  L 378.42271 175.367922  L 379.184572 166.413954  L 379.946433 160.226152  L 380.708294 158.722125  L 381.470156 160.43701  L 382.232017 161.838728  L 382.993879 163.91483  L 383.75574 169.858547  L 384.517602 178.724064  L 385.279463 203.182768  L 386.041324 292.489044  L 386.803186 278.514635  L 387.565047 276.957404  L 388.326909 286.318035  L 389.08877 288.913779  L 389.850631 282.091346  L 390.612493 286.069117  L 391.374354 278.961349  L 392.136216 285.073821  L 392.898077 295.1372  L 393.659939 291.57911  L 394.4218 279.978228  L 395.183661 301.88775  L 395.945523 280.299174  L 396.707384 277.514701  L 397.469246 300.046359  L 398.231107 282.867411  L 398.992968 289.583366  L 399.75483 298.610889  L 401.278553 284.37721  L 402.040414 283.931917  L 404.325998 262.638107  L 405.08786 259.484172  L 405.849721 267.407677  L 406.611583 257.548609  L 407.373444 258.562791  L 408.135305 265.244041  L 408.897167 275.214942  L 409.659028 283.515386  L 410.42089 278.262744  L 411.182751 297.348075  L 411.944613 283.407676  L 412.706474 288.708189  L 413.468335 300.326679  L 414.230197 286.600131  L 414.992058 294.788901  L 415.75392 291.317374  L 416.515781 283.828707  L 417.277643 296.355327  L 418.039504 286.958956  L 418.801365 284.005509  L 419.563227 290.180038  L 420.325088 289.640011  L 421.08695 282.699817  L 421.848811 296.247615  L 422.610672 290.242978  L 423.372534 285.713896  L 424.134395 297.38163  L 424.896257 286.886033  L 425.658118 285.540442  L 426.41998 295.757909  L 427.181841 286.239692  L 428.705564 297.975479  L 429.467425 282.511706  L 430.229287 287.01301  L 430.991148 297.769271  L 431.753009 281.565334  L 432.514871 289.934925  L 433.276732 289.332115  L 434.038594 287.4223  L 434.800455 293.283546  L 435.562317 295.012942  L 436.324178 283.610511  L 437.086039 283.895147  L 437.847901 297.243564  L 438.609762 285.612479  L 439.371624 285.74307  L 440.133485 291.322097  L 440.895346 277.675668  L 441.657208 280.533883  L 442.419069 287.249772  L 443.180931 281.443223  L 443.942792 289.297563  L 444.704654 287.20694  L 445.466515 283.27128  L 446.228376 282.966034  L 446.990238 298.626468  L 447.752099 277.988618  L 448.513961 286.919904  L 449.275822 271.507528  L 450.037683 277.700493  L 450.799545 275.9145  L 451.561406 274.796424  L 452.323268 279.420487  L 453.085129 276.125895  L 453.846991 282.596163  L 454.608852 281.127967  L 455.370713 268.811072  L 456.132575 272.821711  L 456.894436 285.393228  L 457.656298 277.499932  L 458.418159 275.793548  L 459.18002 258.330083  L 459.941882 256.320607  L 460.703743 260.04021  L 461.465605 263.131521  L 462.989328 250.579091  L 463.751189 252.122473  L 464.51305 250.49276  L 465.274912 253.887981  L 466.036773 242.681235  L 466.798635 249.541297  L 468.322357 236.264551  L 469.084219 234.563403  L 469.84608 229.935618  L 470.607942 226.564845  L 471.369803 212.291475  L 472.131665 211.55914  L 472.893526 196.771285  L 473.655387 186.232827  L 474.417249 171.665834  L 475.17911 120.799049  L 475.940972 88.007007  L 476.702833 69.183145  L 477.464695 61.614907  L 478.226556 57.370542  L 478.988417 56.717005  L 479.750279 56.559211  L 480.51214 60.202713  L 481.274002 63.005657  L 482.035863 69.924991  L 482.797724 83.108872  L 484.321447 234.651615  L 485.083309 253.126845  L 485.84517 261.493633  L 486.607032 257.674932  L 487.368893 228.411528  L 488.130754 191.892881  L 488.892616 175.259714  L 489.654477 167.560831  L 490.416339 162.905072  L 491.1782 163.514138  L 491.940061 162.546132  L 492.701923 165.918263  L 493.463784 168.078765  L 494.225646 177.040797  L 494.987507 187.632823  L 495.749369 250.710279  L 496.51123 268.932401  L 497.273091 279.92287  L 498.034953 276.837623  L 498.796814 275.635036  L 499.558676 285.587238  L 501.082398 246.024661  L 501.84426 241.596285  L 502.606121 240.036163  L 503.367983 237.232242  L 504.129844 247.655512  L 504.891706 242.656459  L 505.653567 246.826153  L 506.415428 249.054043  L 507.17729 265.320198  L 507.939151 272.792133  L 508.701013 274.935771  L 509.462874 279.170974  L 510.224735 279.53958  L 510.986597 270.743162  L 511.748458 269.183947  L 512.51032 264.095242  L 513.272181 272.177473  L 514.034043 282.873752  L 514.795904 265.306352  L 515.557765 270.675217  L 516.319627 266.826387  L 517.081488 253.99097  L 517.84335 251.408209  L 518.605211 257.981803  L 519.367072 243.679337  L 520.128934 248.272046  L 520.890795 240.435173  L 521.652657 223.969914  L 522.414518 217.532837  L 523.17638 205.200325  L 524.700102 124.354182  L 525.461964 105.586829  L 526.223825 94.785017  L 526.985687 91.211877  L 527.747548 89.805445  L 528.509409 89.759303  L 530.033132 95.725608  L 530.794994 103.040343  L 531.556855 115.23271  L 533.080578 256.122808  L 533.842439 257.526503  L 534.604301 267.641667  L 535.366162 268.76689  L 536.128024 276.47291  L 536.889885 269.361139  L 538.413608 239.195456  L 539.175469 236.696467  L 539.937331 237.360998  L 540.699192 240.624208  L 541.461054 240.219185  L 542.222915 241.261098  L 542.984776 253.641873  L 543.746638 260.411101  L 544.508499 276.880594  L 545.270361 299.14014  L 546.032222 289.798033  L 546.794084 277.795303  L 547.555945 282.652698  L 548.317806 270.29285  L 549.079668 240.305174  L 549.841529 219.311579  L 550.603391 205.580545  L 551.365252 203.910527  L 552.127113 203.757999  L 552.888975 200.256568  L 553.650836 201.482989  L 555.174559 212.900455  L 555.936421 220.572477  L 556.698282 282.978909  L 557.460143 293.392811  L 558.222005 282.011918  L 558.983866 288.79623  L 559.745728 292.499028  L 560.507589 280.607952  L 561.26945 294.967944  L 562.031312 282.98847  L 562.793173 279.504278  L 563.555035 284.052385  L 564.316896 290.932858  L 565.078758 277.517163  L 565.840619 277.247589  L 566.60248 279.396255  L 567.364342 277.179517  L 568.888065 295.863155  L 569.649926 282.103572  L 570.411787 290.028224  L 571.173649 288.9057  L 571.93551 279.612967  L 572.697372 305.269534  L 573.459233 265.444061  L 574.221095 273.271162  L 574.982956 262.313029  L 575.744817 248.125465  L 576.506679 246.238982  L 577.26854 250.089974  L 578.030402 247.732819  L 578.792263 250.508621  L 579.554124 267.442924  L 580.315986 264.321682  L 581.077847 283.499052  L 581.839709 296.93306  L 582.60157 287.735535  L 583.363432 286.794118  L 584.125293 296.188007  L 584.887154 293.59724  L 585.649016 286.943583  L 586.410877 299.554655  L 587.172739 278.191337  L 587.9346 290.509876  L 588.696461 288.890954  L 589.458323 283.928584  L 590.220184 290.633162  L 590.982046 284.989423  L 591.743907 284.452367  L 592.505769 301.976225  L 593.26763 289.444395  L 594.029491 286.729205  L 594.791353 294.82235  L 595.553214 294.622393  L 596.315076 284.452367  L 597.076937 305.674558  L 597.838798 284.363599  L 598.60066 283.074851  L 599.362521 287.398735  L 600.124383 274.546298  L 600.886244 281.62516  L 601.648106 279.439353  L 602.409967 271.315215  L 603.171828 277.47534  L 603.93369 293.39802  L 604.695551 270.060835  L 605.457413 278.863923  L 606.219274 297.988441  L 606.981136 299.429444  L 607.742997 283.19697  L 608.504858 299.408653  L 609.26672 278.52238  L 610.028581 285.761229  L 610.790443 309.022638  L 611.552304 283.001225  L 613.076027 291.805424  L 613.837888 282.807141  L 614.59975 284.183798  L 615.361611 294.672217  L 616.123473 282.934213  L 616.885334 284.686214  L 617.647195 296.246621  L 618.409057 284.866864  L 619.170918 286.221118  L 619.93278 271.223368  L 620.694641 265.506906  L 621.456502 263.903667  L 622.218364 204.819526  L 622.980225 182.955297  L 623.742087 167.267959  L 624.503948 161.519782  L 625.26581 159.713624  L 626.027671 159.128274  L 626.789532 162.281017  L 627.551394 164.928201  L 629.075117 181.77729  L 629.836978 242.936824  L 630.598839 275.795819  L 631.360701 275.03858  L 632.122562 290.678936  L 632.884424 286.314306  L 633.646285 283.775567  L 634.408147 297.994911  L 635.170008 299.596577  L 635.931869 283.71596  L 636.693731 300.503495  L 637.455592 293.413697  L 638.217454 291.124244  L 638.979315 303.001723  L 639.741176 284.089428  L 640.503038 287.406587  L 641.264899 292.705163  L 642.026761 280.915512  L 642.788622 290.91895  L 643.550484 295.416576  L 644.312345 287.33586  L 645.074206 292.156655  L 645.836068 309.491298  L 646.597929 284.933295  L 648.121652 295.359258  L 648.883513 281.769384  L 649.645375 287.171798  L 650.407236 290.928221  L 651.169098 282.30042  L 651.930959 282.091346  L 652.692821 298.499978  L 653.454682 283.580986  L 654.216543 301.619466  L 654.978405 298.653208  L 655.740266 286.562207  L 656.502128 291.364651  L 657.263989 288.994566  L 658.02585 284.099504  L 658.787712 294.53413  L 659.549573 285.735811  L 660.311435 286.759653  L 661.073296 301.238396  L 661.835158 288.28993  L 662.597019 290.711227  L 663.35888 308.320106  L 664.120742 277.665746  L 664.882603 289.151918  L 665.644465 287.265369  L 666.406326 279.623844  L 667.168188 283.440217  L 667.930049 303.100436  L 668.69191 285.447008  L 669.453772 285.193901  L 670.215633 291.931643  L 670.977495 275.714144  L 671.739356 245.997347  L 673.263079 213.555437  L 674.02494 203.674272  L 674.786802 202.756606  L 675.548663 202.669468  L 676.310525 208.867406  L 677.072386 211.251573  L 677.834247 217.294906  L 678.596109 234.267055  L 679.35797 292.439194  L 680.119832 285.236393  L 680.881693 289.679497  L 681.643554 300.436706  L 682.405416 283.531733  L 683.167277 285.119597  L 683.929139 281.805531  L 684.691 283.404425  L 685.452862 288.813008  L 686.214723 279.637448  L 686.976584 274.651622  L 687.738446 287.524882  L 688.500307 293.59724  L 689.262169 272.861295  L 690.02403 284.520794  L 690.785891 279.428571  L 692.309614 291.646151  L 693.071476 305.08759  L 693.833337 286.054376  L 694.595199 288.888848  L 695.35706 301.140396  L 696.118921 274.557003  L 696.880783 273.400804  L 697.642644 270.342016  L 698.404506 263.739503  L 699.166367 265.095284  L 699.928228 251.881201  L 700.69009 251.719941  L 701.451951 262.748436  L 702.213813 268.49285  L 702.975674 266.592354  L 703.737536 292.659625  L 704.499397 302.960716  L 705.261258 288.724898  L 706.02312 293.990649  L 706.784981 293.655253  L 707.546843 288.310409  L 708.308704 294.539627  L 709.070565 290.821849  L 709.832427 281.613206  L 710.594288 291.781075  L 711.35615 291.800592  L 712.118011 298.881762  L 712.879873 299.899301  L 713.641734 277.433498  L 714.403595 284.880801  L 715.165457 301.828121  L 715.927318 284.929801  L 716.68918 285.119597  L 717.451041 304.260076  L 718.212902 286.630394  L 719.736625 299.526783  L 720.498487 287.916101  L 721.260348 291.955964  L 722.02221 302.21083  L 722.784071 284.665502  L 723.545932 303.199646  L 724.307794 285.003442  L 725.069655 282.969219  L 725.831517 280.548084  L 726.593378 288.537339  L 727.35524 282.177208  L 728.117101 303.241118  L 728.878962 292.038862  L 729.640824 287.067042  L 730.402685 299.277423  L 731.164547 287.735535  L 731.926408 292.649565  L 732.688269 304.533319  L 733.450131 284.786754  L 734.211992 292.994906  L 734.973854 294.761058  L 735.735715 284.90885  L 736.497577 293.830272  L 737.259438 293.382375  L 738.021299 282.430691  L 738.783161 296.087078  L 739.545022 284.448951  L 740.306884 287.406587  L 741.068745 299.387881  L 741.830606 289.868482  L 742.592468 290.041559  L 743.354329 298.407233  L 744.116191 286.717799  L 744.878052 289.357932  L 745.639914 299.498918  L 746.401775 286.146831  L 747.163636 287.26927  L 747.163636 287.26927  "
 style="fill:none;stroke:#6a5acd;stroke-linecap:square;stroke-width:1.5;"
 id="path160111" />
</g>
<g
 id="line2d_59">
<path
 clip-path="url(#pc727df024e)"
 d="M 138.436364 236.645536  L 139.198225 246.138845  L 139.960086 244.570786  L 140.721948 252.445694  L 141.483809 242.837095  L 143.007532 239.325744  L 143.769394 242.347321  L 144.531255 251.800417  L 145.293116 241.475284  L 146.054978 243.873559  L 146.816839 238.022989  L 147.578701 240.944646  L 148.340562 240.660055  L 149.102423 224.663381  L 149.864285 174.792793  L 150.626146 166.063941  L 151.388008 164.970802  L 152.149869 171.517951  L 152.911731 201.926985  L 153.673592 252.451763  L 154.435453 255.52196  L 155.197315 260.209579  L 155.959176 266.077164  L 156.721038 253.759752  L 158.24476 269.016468  L 159.006622 254.191052  L 159.768483 231.002805  L 160.530345 216.967039  L 161.292206 206.109676  L 162.054068 200.527626  L 162.815929 196.336945  L 163.57779 201.419144  L 164.339652 204.59638  L 165.101513 219.673775  L 165.863375 267.498238  L 166.625236 276.084329  L 167.387098 276.241709  L 168.148959 280.248573  L 168.91082 273.647952  L 169.672682 280.745395  L 170.434543 274.526953  L 171.196405 280.078147  L 171.958266 280.645143  L 172.720127 290.202429  L 173.481989 278.313928  L 174.24385 304.109647  L 175.005712 294.006749  L 175.767573 279.793383  L 176.529435 295.816317  L 177.291296 295.980717  L 178.053157 284.099504  L 178.815019 291.454967  L 179.57688 283.653368  L 180.338742 282.772401  L 181.100603 289.828826  L 181.862464 285.353984  L 183.386187 264.965262  L 184.148049 265.350749  L 184.90991 268.228663  L 185.671772 260.591228  L 186.433633 263.231849  L 187.195494 268.134934  L 187.957356 264.443761  L 188.719217 273.82755  L 189.481079 276.477599  L 190.24294 293.777082  L 191.766663 287.755485  L 192.528524 297.833503  L 193.290386 289.855255  L 194.052247 291.507316  L 194.814109 304.462848  L 195.57597 290.76637  L 196.337831 290.081616  L 197.099693 302.781216  L 197.861554 287.086533  L 198.623416 289.019975  L 199.385277 297.910817  L 200.147138 293.092395  L 200.909 292.604354  L 201.670861 299.765008  L 202.432723 283.620362  L 203.194584 298.072844  L 203.956446 289.868482  L 204.718307 288.265381  L 205.480168 301.359592  L 206.24203 288.683152  L 207.003891 286.076491  L 207.765753 296.389345  L 208.527614 287.016865  L 209.289475 287.64384  L 210.051337 284.210797  L 210.813198 288.850807  L 211.57506 280.779956  L 212.336921 303.232831  L 213.098783 278.390881  L 213.860644 276.515148  L 214.622505 295.682223  L 215.384367 276.840008  L 216.146228 275.531448  L 216.90809 260.015348  L 217.669951 229.766511  L 218.431812 211.07459  L 219.193674 204.077313  L 219.955535 200.829157  L 220.717397 195.015401  L 221.479258 201.125043  L 222.24112 197.381649  L 223.002981 196.007047  L 223.764842 199.652061  L 224.526704 201.611485  L 226.050427 223.262527  L 226.812288 270.548766  L 227.57415 268.998337  L 228.336011 292.369395  L 229.097872 275.601169  L 229.859734 251.205525  L 230.621595 239.680645  L 231.383457 234.14142  L 232.145318 229.935618  L 232.907179 217.919222  L 233.669041 219.380896  L 235.192764 218.859794  L 235.954625 227.268891  L 236.716487 226.605214  L 237.478348 230.037494  L 238.240209 241.90873  L 239.002071 272.976434  L 239.763932 287.43016  L 240.525794 289.117835  L 241.287655 285.826884  L 242.811378 295.330657  L 243.573239 287.351521  L 244.335101 298.653208  L 245.096962 294.028228  L 245.858824 278.127772  L 246.620685 300.063029  L 247.382546 286.828479  L 248.144408 277.918127  L 248.906269 288.562378  L 249.668131 290.895791  L 250.429992 288.013024  L 251.191853 302.846338  L 251.953715 292.71525  L 252.715576 285.475667  L 253.477438 305.759332  L 254.239299 290.369232  L 255.001161 289.024213  L 255.763022 296.566332  L 256.524883 284.086071  L 257.286745 303.779232  L 258.048606 288.918347  L 258.810468 283.24545  L 259.572329 291.57433  L 260.33419 292.156655  L 261.096052 289.877488  L 261.857913 296.57846  L 262.619775 287.375033  L 263.381636 284.91234  L 264.143498 307.727124  L 264.905359 287.936222  L 265.66722 288.013024  L 266.429082 293.686981  L 267.952805 277.658307  L 268.714666 292.90293  L 269.476527 289.622565  L 270.238389 304.418917  L 271.00025 299.284299  L 271.762112 282.312768  L 272.523973 305.471462  L 273.285835 301.02794  L 274.047696 286.870553  L 274.809557 299.174378  L 275.571419 287.548587  L 276.33328 291.612604  L 277.095142 293.528878  L 277.857003 282.690384  L 278.618864 296.069318  L 279.380726 262.133215  L 280.142587 248.222455  L 280.904449 249.603312  L 281.66631 243.370596  L 282.428172 248.54314  L 283.190033 243.924603  L 283.951894 244.389652  L 284.713756 245.69348  L 286.237479 260.378119  L 286.99934 258.81438  L 287.761202 268.9489  L 288.523063 277.485174  L 289.284924 273.132378  L 290.046786 279.867655  L 290.808647 271.252744  L 291.570509 272.129593  L 292.33237 265.648742  L 293.094231 270.562951  L 293.856093 268.912701  L 294.617954 265.951043  L 295.379816 258.687178  L 296.141677 249.696717  L 296.903539 245.478037  L 297.6654 245.64954  L 298.427261 238.103375  L 299.189123 233.620314  L 299.950984 223.71997  L 300.712846 219.817599  L 301.474707 211.432726  L 302.236568 205.03316  L 303.760291 137.613708  L 304.522153 117.236028  L 305.284014 106.843627  L 306.045876 101.596579  L 306.807737 97.710844  L 307.569598 98.223101  L 308.33146 97.074208  L 309.093321 100.476864  L 309.855183 100.865038  L 310.617044 105.19563  L 311.378905 116.582184  L 312.140767 169.117009  L 312.902628 204.964219  L 313.66449 211.645274  L 314.426351 215.203813  L 315.188213 217.306583  L 315.950074 218.971468  L 316.711935 219.366103  L 317.473797 220.943418  L 318.235658 227.836547  L 318.99752 230.590527  L 319.759381 224.780928  L 320.521242 221.732361  L 321.283104 230.968426  L 322.044965 228.776893  L 322.806827 229.644259  L 324.33055 245.106514  L 325.092411 239.84395  L 325.854272 232.434977  L 327.377995 203.243551  L 328.139857 164.891494  L 328.901718 145.219586  L 329.663579 134.678798  L 330.425441 129.276481  L 331.187302 126.535613  L 331.949164 126.330685  L 332.711025 126.688496  L 333.472887 129.17995  L 334.234748 130.884154  L 334.996609 135.52199  L 335.758471 146.144239  L 337.282194 245.205096  L 338.044055 257.156145  L 338.805916 258.033874  L 339.567778 249.374576  L 340.329639 205.683554  L 341.091501 174.037992  L 341.853362 158.275679  L 342.615224 151.428534  L 343.377085 147.384297  L 344.138946 147.876424  L 344.900808 147.546538  L 345.662669 150.230606  L 346.424531 151.179402  L 347.186392 157.287315  L 347.948253 167.485049  L 348.710115 208.309778  L 349.471976 265.821354  L 350.233838 260.703626  L 350.995699 257.176925  L 351.757561 236.575241  L 352.519422 186.942132  L 353.281283 151.849993  L 354.043145 132.554749  L 354.805006 125.289009  L 355.566868 120.011732  L 356.328729 120.282508  L 357.090591 119.491849  L 357.852452 121.571875  L 358.614313 123.068366  L 359.376175 129.65748  L 360.138036 139.93142  L 360.899898 168.832996  L 361.661759 273.796449  L 362.42362 277.063298  L 363.185482 283.98197  L 363.947343 287.457696  L 364.709205 275.190563  L 365.471066 267.227833  L 366.232928 249.484684  L 366.994789 245.973937  L 367.75665 230.288984  L 368.518512 236.153195  L 369.280373 237.444174  L 370.042235 239.996288  L 370.804096 240.623308  L 371.565957 243.635933  L 372.327819 254.505205  L 373.08968 276.825603  L 373.851542 280.852008  L 374.613403 282.940573  L 375.375265 289.105068  L 376.137126 283.499052  L 376.898987 239.24127  L 377.660849 209.724357  L 378.42271 191.747462  L 379.946433 179.051998  L 380.708294 180.503198  L 381.470156 179.582286  L 382.232017 182.043175  L 382.993879 183.734574  L 383.75574 189.208904  L 384.517602 201.308385  L 385.279463 248.832401  L 386.041324 280.318839  L 386.803186 292.220828  L 387.565047 278.29593  L 388.326909 288.061568  L 389.08877 292.10758  L 389.850631 285.558428  L 390.612493 296.152333  L 392.136216 287.620028  L 392.898077 288.524917  L 393.659939 302.936157  L 394.4218 290.220358  L 395.183661 302.402799  L 395.945523 289.635648  L 396.707384 288.549941  L 397.469246 295.635782  L 398.231107 298.666563  L 398.992968 290.144263  L 399.75483 299.596577  L 400.516691 288.134763  L 401.278553 289.362237  L 402.040414 295.018588  L 402.802276 276.804162  L 403.564137 272.968484  L 404.325998 283.505584  L 405.08786 271.761659  L 405.849721 277.908091  L 406.611583 265.585476  L 407.373444 285.533251  L 408.135305 282.210985  L 408.897167 284.143222  L 409.659028 278.558561  L 411.182751 291.844119  L 411.944613 289.340717  L 412.706474 277.940726  L 413.468335 318.530181  L 414.230197 277.522191  L 414.992058 296.633108  L 416.515781 286.39667  L 417.277643 294.380537  L 418.039504 292.902952  L 418.801365 286.265723  L 419.563227 298.131463  L 420.325088 291.180474  L 421.08695 283.071651  L 421.848811 292.09288  L 422.610672 299.68061  L 423.372534 294.811187  L 424.134395 296.301415  L 424.896257 287.449825  L 425.658118 283.702767  L 426.41998 299.085481  L 427.181841 288.939443  L 427.943702 291.260585  L 428.705564 287.695691  L 429.467425 280.883736  L 430.229287 294.650053  L 430.991148 288.28993  L 431.753009 290.287915  L 432.514871 294.517624  L 433.276732 292.821447  L 434.038594 289.565968  L 434.800455 290.970185  L 435.562317 285.353984  L 436.324178 287.20694  L 437.086039 289.396716  L 437.847901 281.559373  L 438.609762 286.021245  L 439.371624 297.923739  L 440.133485 280.434623  L 440.895346 281.950992  L 441.657208 289.07938  L 442.419069 283.251905  L 443.180931 281.499733  L 443.942792 289.723254  L 444.704654 281.127967  L 446.228376 296.457545  L 446.990238 287.265369  L 447.752099 285.239938  L 448.513961 282.586776  L 449.275822 271.104605  L 450.037683 288.155092  L 450.799545 278.745946  L 451.561406 278.769446  L 452.323268 275.515757  L 453.085129 279.144366  L 453.846991 270.795178  L 454.608852 279.141707  L 455.370713 266.746113  L 456.132575 257.310535  L 456.894436 268.830678  L 457.656298 258.97933  L 458.418159 255.466093  L 459.18002 260.085694  L 459.941882 258.803174  L 460.703743 270.895993  L 461.465605 267.326698  L 462.227466 254.651465  L 462.989328 249.234484  L 463.751189 255.073256  L 464.51305 254.490209  L 465.274912 244.80873  L 466.036773 243.518008  L 466.798635 243.614989  L 467.560496 230.851317  L 468.322357 233.657595  L 469.084219 231.081482  L 470.607942 224.730107  L 471.369803 214.010756  L 472.131665 205.020977  L 472.893526 193.433461  L 473.655387 186.298607  L 474.417249 169.327204  L 475.17911 118.71201  L 475.940972 85.866066  L 476.702833 68.678747  L 477.464695 60.733844  L 478.226556 56.769844  L 478.988417 56.40222  L 479.750279 56.833118  L 480.51214 60.12697  L 481.274002 62.749333  L 482.035863 68.529991  L 482.797724 81.661275  L 483.559586 149.548165  L 484.321447 227.737543  L 485.083309 252.460821  L 485.84517 257.924973  L 486.607032 258.943375  L 488.130754 190.812584  L 488.892616 174.603914  L 489.654477 167.572121  L 490.416339 162.364477  L 491.1782 161.37486  L 491.940061 162.910362  L 492.701923 167.488474  L 493.463784 168.856006  L 494.225646 176.726885  L 494.987507 187.322259  L 495.749369 254.379811  L 496.51123 274.835537  L 497.273091 273.368298  L 498.034953 279.612967  L 498.796814 284.634471  L 499.558676 277.807782  L 501.082398 245.12736  L 501.84426 245.07767  L 502.606121 239.711826  L 503.367983 242.991493  L 504.129844 244.304565  L 504.891706 248.363487  L 505.653567 245.546149  L 507.17729 253.939834  L 507.939151 272.144877  L 508.701013 271.557739  L 509.462874 285.357549  L 510.224735 268.057502  L 510.986597 281.616194  L 511.748458 276.454067  L 512.51032 260.461793  L 513.272181 266.324478  L 514.034043 269.119158  L 514.795904 277.950777  L 515.557765 268.401218  L 516.319627 252.835441  L 517.081488 256.555047  L 517.84335 265.342429  L 518.605211 248.203273  L 519.367072 243.759316  L 520.128934 248.234229  L 520.890795 233.4099  L 521.652657 221.699541  L 522.414518 214.904341  L 523.17638 202.507221  L 523.938241 158.772933  L 524.700102 122.0771  L 525.461964 104.710249  L 526.223825 93.964112  L 526.985687 90.261574  L 527.747548 89.318173  L 528.509409 89.836897  L 529.271271 92.413923  L 530.033132 95.760041  L 530.794994 101.19  L 531.556855 113.426901  L 532.318717 179.640154  L 533.080578 264.614833  L 533.842439 258.027982  L 534.604301 270.173949  L 535.366162 272.29857  L 536.128024 271.563317  L 536.889885 265.876854  L 537.651747 250.108943  L 538.413608 243.89224  L 539.175469 235.302542  L 539.937331 233.652672  L 540.699192 236.017353  L 541.461054 243.559724  L 542.222915 248.511729  L 542.984776 251.641191  L 543.746638 252.955863  L 544.508499 289.78485  L 545.270361 279.55042  L 546.032222 289.088058  L 546.794084 289.961487  L 547.555945 277.855375  L 548.317806 272.271635  L 549.079668 245.217454  L 549.841529 222.668981  L 550.603391 209.442375  L 551.365252 209.063247  L 552.127113 203.451056  L 552.888975 208.635443  L 553.650836 207.295478  L 554.412698 210.728992  L 555.174559 216.564023  L 555.936421 221.043714  L 556.698282 277.418786  L 557.460143 283.27128  L 558.222005 291.100859  L 558.983866 292.1714  L 559.745728 280.125557  L 560.507589 294.661132  L 561.26945 282.440008  L 562.031312 284.367001  L 562.793173 291.058831  L 563.555035 279.774199  L 564.316896 285.932997  L 565.078758 294.627936  L 565.840619 282.214058  L 566.60248 283.515386  L 567.364342 297.019535  L 568.126203 289.859663  L 568.888065 298.854732  L 569.649926 291.016692  L 570.411787 287.140753  L 571.173649 295.176869  L 571.93551 285.158556  L 572.697372 288.004776  L 573.459233 298.908799  L 574.221095 272.811847  L 574.982956 270.921309  L 575.744817 260.741628  L 576.506679 264.796811  L 577.26854 260.693603  L 578.030402 264.374712  L 578.792263 269.965632  L 579.554124 272.597621  L 580.315986 283.702767  L 581.077847 283.941918  L 581.839709 292.857177  L 582.60157 288.42563  L 583.363432 291.834438  L 584.125293 291.483505  L 584.887154 298.506607  L 585.649016 301.704224  L 586.410877 296.451527  L 587.172739 289.820023  L 587.9346 291.622184  L 588.696461 305.731308  L 589.458323 282.753476  L 590.220184 282.155614  L 590.982046 303.646242  L 591.743907 285.428967  L 592.505769 288.749985  L 593.26763 298.026266  L 594.029491 285.918351  L 594.791353 290.135329  L 595.553214 282.589905  L 596.315076 290.633162  L 597.076937 295.468282  L 597.838798 293.118128  L 598.60066 274.178573  L 600.124383 298.301757  L 600.886244 282.440008  L 601.648106 282.514824  L 602.409967 283.888494  L 603.171828 280.967732  L 603.93369 286.032283  L 604.695551 296.618422  L 605.457413 286.706398  L 606.219274 289.837632  L 606.981136 289.570316  L 607.742997 282.533537  L 608.504858 288.417392  L 609.26672 292.780928  L 610.028581 283.567877  L 610.790443 291.364651  L 611.552304 285.357549  L 612.314165 285.779404  L 613.076027 289.653286  L 613.837888 298.767163  L 614.59975 280.505509  L 615.361611 290.162143  L 616.123473 287.759478  L 616.885334 282.715546  L 617.647195 274.662381  L 618.409057 278.832347  L 619.170918 271.289501  L 619.93278 275.021061  L 620.694641 271.973324  L 621.456502 256.492778  L 622.218364 202.713654  L 622.980225 180.734055  L 623.742087 164.763017  L 624.503948 160.848504  L 625.26581 158.954134  L 626.027671 158.683344  L 626.789532 162.384888  L 627.551394 165.240285  L 628.313255 170.810117  L 629.075117 178.992567  L 629.836978 233.721826  L 630.598839 278.869172  L 631.360701 283.013988  L 632.122562 279.856652  L 632.884424 286.050692  L 633.646285 293.692263  L 634.408147 289.105068  L 635.170008 295.142855  L 635.931869 290.610313  L 636.693731 291.785902  L 637.455592 301.963832  L 638.217454 296.970074  L 638.979315 286.664491  L 639.741176 297.476299  L 640.503038 290.418964  L 641.264899 289.203323  L 642.026761 308.110135  L 642.788622 291.805424  L 643.550484 288.208041  L 644.312345 292.004688  L 645.074206 280.915512  L 645.836068 289.635648  L 646.597929 294.827458  L 647.359791 286.882202  L 648.121652 291.756954  L 648.883513 293.83559  L 649.645375 285.518728  L 650.407236 301.389984  L 651.169098 290.437078  L 651.930959 289.207597  L 652.692821 302.773107  L 653.454682 290.974831  L 654.216543 290.592051  L 654.978405 292.634484  L 655.740266 284.384018  L 656.502128 293.692263  L 657.263989 291.535925  L 658.02585 283.326408  L 658.787712 288.318606  L 659.549573 289.310625  L 660.311435 284.008854  L 661.073296 301.552931  L 661.835158 293.830272  L 662.597019 289.070884  L 663.35888 296.933035  L 664.882603 287.71162  L 665.644465 302.386871  L 666.406326 286.083868  L 667.168188 284.572403  L 667.171559 346.6  M 668.68894 346.6  L 668.69191 291.990059  L 669.453772 289.820023  L 670.215633 310.742819  L 670.977495 268.502505  L 671.739356 246.546831  L 672.501217 229.233252  L 673.263079 208.991466  L 674.02494 205.766588  L 674.786802 206.925657  L 675.548663 208.97084  L 676.310525 210.208013  L 677.072386 212.951169  L 677.834247 223.926564  L 678.596109 229.501718  L 679.35797 289.151918  L 680.119832 300.249644  L 680.881693 288.775276  L 681.643554 297.666888  L 683.167277 278.026421  L 683.929139 290.238489  L 684.691 284.968266  L 685.452862 295.699661  L 686.214723 291.124244  L 686.976584 276.199916  L 687.738446 273.078216  L 688.500307 295.285929  L 689.262169 275.820904  L 690.02403 289.926079  L 690.785891 286.318035  L 691.547753 285.750332  L 692.309614 295.199591  L 693.071476 295.915962  L 693.833337 287.912079  L 694.595199 303.067492  L 695.35706 292.897842  L 696.118921 291.270006  L 696.880783 295.154195  L 697.642644 267.265818  L 698.404506 270.161689  L 699.166367 285.583635  L 699.928228 274.658077  L 700.69009 278.877047  L 701.451951 288.06967  L 702.213813 269.831333  L 702.975674 278.319042  L 703.737536 302.731191  L 704.499397 288.077774  L 705.261258 288.95211  L 706.02312 301.253484  L 706.784981 283.310084  L 707.546843 288.960559  L 708.308704 293.655253  L 709.070565 282.835738  L 709.832427 293.434583  L 710.594288 292.240549  L 711.35615 291.284147  L 712.118011 298.573116  L 712.879873 292.862255  L 713.641734 289.718875  L 714.403595 309.392089  L 715.165457 287.513039  L 715.927318 296.277481  L 716.68918 298.573116  L 717.451041 283.151946  L 718.212902 293.808971  L 718.974764 294.022862  L 719.736625 286.180159  L 720.498487 287.461632  L 721.260348 298.908799  L 722.02221 283.590823  L 722.784071 293.476437  L 723.545932 293.708138  L 724.307794 294.917444  L 725.069655 302.911626  L 725.831517 298.347849  L 726.593378 289.622565  L 727.35524 305.333555  L 728.117101 290.423491  L 728.878962 297.031925  L 729.640824 300.17767  L 730.402685 290.010456  L 731.164547 291.718418  L 731.926408 301.828121  L 732.688269 291.960831  L 733.450131 289.122092  L 734.211992 299.339474  L 734.973854 289.070884  L 735.735715 331.657998  L 736.497577 297.814192  L 737.259438 287.655757  L 738.021299 304.737252  L 738.783161 287.988626  L 739.545022 283.349094  L 740.306884 298.593104  L 741.068745 319.224564  L 741.830606 289.310625  L 742.592468 309.878528  L 743.354329 280.999755  L 744.878052 297.904372  L 745.639914 284.183798  L 746.401775 296.706157  L 747.163636 295.537443  L 747.163636 295.537443  "
 style="fill:none;stroke:#bfbf00;stroke-linecap:square;stroke-width:1.5;"
 id="path160114" />
</g>
<g
 id="patch_3">
<path
 d="M 108 307.584  L 108 41.472  "
 style="fill:none;stroke:#000000;stroke-linecap:square;stroke-linejoin:miter;stroke-width:0.8;"
 id="path160117" />
</g>
<g
 id="patch_4">
<path
 d="M 777.6 307.584  L 777.6 41.472  "
 style="fill:none;stroke:#000000;stroke-linecap:square;stroke-linejoin:miter;stroke-width:0.8;"
 id="path160120" />
</g>
<g
 id="patch_5">
<path
 d="M 108 307.584  L 777.6 307.584  "
 style="fill:none;stroke:#000000;stroke-linecap:square;stroke-linejoin:miter;stroke-width:0.8;"
 id="path160123" />
</g>
<g
 id="patch_6">
<path
 d="M 108 41.472  L 777.6 41.472  "
 style="fill:none;stroke:#000000;stroke-linecap:square;stroke-linejoin:miter;stroke-width:0.8;"
 id="path160126" />
</g>
</g>
</g>
<defs
 id="defs160134">
<clipPath
 id="pc727df024e">
<rect
 height="266.112"
 width="669.6"
 x="108"
 y="41.472"
 id="rect160131" />
</clipPath>
</defs>
<flowRoot
 xml:space="preserve"
 id="flowRoot160685"
 style="font-style:normal;font-weight:normal;font-size:7.33333349px;line-height:1.25;font-family:sans-serif;letter-spacing:0px;word-spacing:0px;fill:#000000;fill-opacity:1;stroke:none;stroke-linecap:butt;stroke-linejoin:round"
 transform="matrix(0,-1.2421941,1.2421941,0,272.68546,688.26043)"><flowRegion
 id="flowRegion160687"
 style="stroke-linecap:butt;stroke-linejoin:round"><rect
 id="rect160689"
 width="92.250237"
 height="31.330269"
 x="429.92093"
 y="82.876381"
 style="stroke-linecap:butt;stroke-linejoin:round" /></flowRegion><flowPara
 id="flowPara160691"
 style="stroke-linecap:butt;stroke-linejoin:round"><flowSpan
 style="font-weight:bold"
 id="flowSpan160765">H</flowSpan><flowSpan
 style="font-size:64.99999762%;baseline-shift:sub;stroke-linecap:butt;stroke-linejoin:round;font-weight:bold"
 id="flowSpan160693">2</flowSpan><flowSpan
 style="font-size:64.99999762%;baseline-shift:super;stroke-linecap:butt;stroke-linejoin:round;font-weight:bold"
 id="flowSpan160695">18</flowSpan><flowSpan
 style="font-weight:bold"
 id="flowSpan160767">O</flowSpan><flowSpan
 style="font-size:65%;baseline-shift:super;font-weight:bold"
 id="flowSpan160761">+</flowSpan> </flowPara></flowRoot><flowRoot
 transform="matrix(0,-1.2421941,1.2421941,0,248.47132,644.16171)"
 style="font-style:normal;font-weight:normal;font-size:7.33333349px;line-height:1.25;font-family:sans-serif;letter-spacing:0px;word-spacing:0px;fill:#000000;fill-opacity:1;stroke:none;stroke-linecap:butt;stroke-linejoin:round"
 id="flowRoot160707"
 xml:space="preserve"><flowRegion
 style="stroke-linecap:butt;stroke-linejoin:round"
 id="flowRegion160699"><rect
 style="stroke-linecap:butt;stroke-linejoin:round"
 y="82.876381"
 x="429.92093"
 height="31.330269"
 width="92.250237"
 id="rect160697" /></flowRegion><flowPara
 style="stroke-linecap:butt;stroke-linejoin:round"
 id="flowPara160705">H<flowSpan
 id="flowSpan160701"
 style="font-size:64.99999762%;baseline-shift:sub;stroke-linecap:butt;stroke-linejoin:round">2</flowSpan><flowSpan
 id="flowSpan160703"
 style="font-size:64.99999762%;baseline-shift:super;stroke-linecap:butt;stroke-linejoin:round">16</flowSpan>O<flowSpan
 style="font-size:65%;baseline-shift:super"
 id="flowSpan160757">+</flowSpan></flowPara></flowRoot><flowRoot
 xml:space="preserve"
 id="flowRoot160745"
 style="font-style:normal;font-weight:normal;font-size:7.33333349px;line-height:1.25;font-family:sans-serif;letter-spacing:0px;word-spacing:0px;fill:#000000;fill-opacity:1;stroke:none;stroke-linecap:butt;stroke-linejoin:round"
 transform="matrix(0,-1.2421941,1.2421941,0,236.16363,671.85402)"><flowRegion
 id="flowRegion160737"
 style="stroke-linecap:butt;stroke-linejoin:round"><rect
 id="rect160735"
 width="92.250237"
 height="31.330269"
 x="429.92093"
 y="82.876381"
 style="stroke-linecap:butt;stroke-linejoin:round" /></flowRegion><flowPara
 id="flowPara160743"
 style="stroke-linecap:butt;stroke-linejoin:round">H<flowSpan
 style="font-size:64.99999762%;baseline-shift:super;stroke-linecap:butt;stroke-linejoin:round"
 id="flowSpan160741">16</flowSpan>O<flowSpan
 style="font-size:65%;baseline-shift:super"
 id="flowSpan160759">+</flowSpan></flowPara></flowRoot><flowRoot
 transform="matrix(0,-1.2421941,1.2421941,0,261.3944,721.70017)"
 style="font-style:normal;font-weight:normal;font-size:7.33333349px;line-height:1.25;font-family:sans-serif;letter-spacing:0px;word-spacing:0px;fill:#000000;fill-opacity:1;stroke:none;stroke-linecap:butt;stroke-linejoin:round"
 id="flowRoot160755"
 xml:space="preserve"><flowRegion
 style="stroke-linecap:butt;stroke-linejoin:round"
 id="flowRegion160749"><rect
 style="stroke-linecap:butt;stroke-linejoin:round"
 y="82.876381"
 x="429.92093"
 height="31.330269"
 width="92.250237"
 id="rect160747" /></flowRegion><flowPara
 style="stroke-linecap:butt;stroke-linejoin:round;font-weight:bold"
 id="flowPara160753">H<flowSpan
 id="flowSpan160751"
 style="font-size:64.99999762%;baseline-shift:super;stroke-linecap:butt;stroke-linejoin:round;font-weight:bold">18</flowSpan>O<flowSpan
 style="font-size:64.99999762%;baseline-shift:super;stroke-linecap:butt;stroke-linejoin:round;font-weight:bold"
 id="flowSpan160763">+</flowSpan></flowPara></flowRoot><flowRoot
 xml:space="preserve"
 id="flowRoot160783"
 style="font-style:normal;font-weight:normal;font-size:7.33333349px;line-height:1.25;font-family:sans-serif;letter-spacing:0px;word-spacing:0px;fill:#000000;fill-opacity:1;stroke:none;stroke-linecap:butt;stroke-linejoin:round"
 transform="matrix(0,-1.2421941,1.2421941,0,298.97018,786.69791)"><flowRegion
 id="flowRegion160773"
 style="stroke-linecap:butt;stroke-linejoin:round"><rect
 id="rect160771"
 width="92.250237"
 height="31.330269"
 x="429.92093"
 y="82.876381"
 style="stroke-linecap:butt;stroke-linejoin:round" /></flowRegion><flowPara
 id="flowPara160781"
 style="stroke-linecap:butt;stroke-linejoin:round"><flowSpan
 style="font-size:64.99999762%;baseline-shift:super;stroke-linecap:butt;stroke-linejoin:round"
 id="flowSpan160949">12</flowSpan>C<flowSpan
 style="font-size:64.99999762%;baseline-shift:super;stroke-linecap:butt;stroke-linejoin:round"
 id="flowSpan160785">16</flowSpan>O<flowSpan
 style="font-size:64.99999762%;baseline-shift:sub;stroke-linecap:butt;stroke-linejoin:round"
 id="flowSpan160791">2</flowSpan><flowSpan
 style="font-size:64.99999762%;baseline-shift:super;stroke-linecap:butt;stroke-linejoin:round"
 id="flowSpan160789">++</flowSpan></flowPara></flowRoot><flowRoot
 transform="matrix(0,-1.2421941,1.2421941,0,370.04165,759.43229)"
 style="font-style:normal;font-weight:normal;font-size:7.33333349px;line-height:1.25;font-family:sans-serif;letter-spacing:0px;word-spacing:0px;fill:#000000;fill-opacity:1;stroke:none;stroke-linecap:butt;stroke-linejoin:round"
 id="flowRoot160805"
 xml:space="preserve"><flowRegion
 style="stroke-linecap:butt;stroke-linejoin:round"
 id="flowRegion160795"><rect
 style="stroke-linecap:butt;stroke-linejoin:round"
 y="82.876381"
 x="429.92093"
 height="31.330269"
 width="92.250237"
 id="rect160793" /></flowRegion><flowPara
 style="stroke-linecap:butt;stroke-linejoin:round"
 id="flowPara160803"><flowSpan
 style="font-size:64.99999762%;baseline-shift:super;stroke-linecap:butt;stroke-linejoin:round"
 id="flowSpan160819">14</flowSpan>N<flowSpan
 id="flowSpan160799"
 style="font-size:64.99999762%;baseline-shift:sub;stroke-linecap:butt;stroke-linejoin:round">2</flowSpan><flowSpan
 id="flowSpan160801"
 style="font-size:64.99999762%;baseline-shift:super;stroke-linecap:butt;stroke-linejoin:round">+</flowSpan></flowPara></flowRoot><flowRoot
 xml:space="preserve"
 id="flowRoot160833"
 style="font-style:normal;font-weight:normal;font-size:7.33333349px;line-height:1.25;font-family:sans-serif;letter-spacing:0px;word-spacing:0px;fill:#000000;fill-opacity:1;stroke:none;stroke-linecap:butt;stroke-linejoin:round"
 transform="matrix(0,-1.2421941,1.2421941,0,384.22111,691.22767)"><flowRegion
 id="flowRegion160823"
 style="stroke-linecap:butt;stroke-linejoin:round"><rect
 id="rect160821"
 width="92.250237"
 height="31.330269"
 x="429.92093"
 y="82.876381"
 style="stroke-linecap:butt;stroke-linejoin:round" /></flowRegion><flowPara
 id="flowPara160831"
 style="stroke-linecap:butt;stroke-linejoin:round"><flowSpan
 id="flowSpan160825"
 style="font-size:64.99999762%;baseline-shift:super;stroke-linecap:butt;stroke-linejoin:round">14</flowSpan>N<flowSpan
 style="font-size:65%;baseline-shift:super"
 id="flowSpan160835">15</flowSpan>N<flowSpan
 style="font-size:64.99999762%;baseline-shift:super;stroke-linecap:butt;stroke-linejoin:round"
 id="flowSpan160829">+</flowSpan></flowPara></flowRoot><flowRoot
 transform="matrix(0,-1.2421941,1.2421941,0,396.18753,767.5952)"
 style="font-style:normal;font-weight:normal;font-size:7.33333349px;line-height:1.25;font-family:sans-serif;letter-spacing:0px;word-spacing:0px;fill:#000000;fill-opacity:1;stroke:none;stroke-linecap:butt;stroke-linejoin:round"
 id="flowRoot160849"
 xml:space="preserve"><flowRegion
 style="stroke-linecap:butt;stroke-linejoin:round"
 id="flowRegion160839"><rect
 style="stroke-linecap:butt;stroke-linejoin:round"
 y="82.876381"
 x="429.92093"
 height="31.330269"
 width="92.250237"
 id="rect160837" /></flowRegion><flowPara
 style="stroke-linecap:butt;stroke-linejoin:round"
 id="flowPara160847"><flowSpan
 style="font-size:64.99999762%;baseline-shift:super;stroke-linecap:butt;stroke-linejoin:round"
 id="flowSpan160841">15</flowSpan>N<flowSpan
 style="font-size:64.99999762%;baseline-shift:sub;stroke-linecap:butt;stroke-linejoin:round"
 id="flowSpan160851">2</flowSpan><flowSpan
 id="flowSpan160845"
 style="font-size:64.99999762%;baseline-shift:super;stroke-linecap:butt;stroke-linejoin:round">+</flowSpan></flowPara></flowRoot><flowRoot
 transform="matrix(0,-1.2421941,1.2421941,0,420.33795,621.60485)"
 style="font-style:normal;font-weight:normal;font-size:7.33333349px;line-height:1.25;font-family:sans-serif;letter-spacing:0px;word-spacing:0px;fill:#000000;fill-opacity:1;stroke:none;stroke-linecap:butt;stroke-linejoin:round"
 id="flowRoot160865"
 xml:space="preserve"><flowRegion
 style="stroke-linecap:butt;stroke-linejoin:round"
 id="flowRegion160855"><rect
 style="stroke-linecap:butt;stroke-linejoin:round"
 y="82.876381"
 x="429.92093"
 height="31.330269"
 width="92.250237"
 id="rect160853" /></flowRegion><flowPara
 style="stroke-linecap:butt;stroke-linejoin:round"
 id="flowPara160863"><flowSpan
 style="font-size:64.99999762%;baseline-shift:super;stroke-linecap:butt;stroke-linejoin:round"
 id="flowSpan160869">16</flowSpan>O<flowSpan
 style="font-size:65%;baseline-shift:sub"
 id="flowSpan161001">2</flowSpan><flowSpan
 style="font-size:65%;baseline-shift:super"
 id="flowSpan161003">+</flowSpan></flowPara></flowRoot><flowRoot
 xml:space="preserve"
 id="flowRoot160881"
 style="font-style:normal;font-weight:normal;font-size:7.33333349px;line-height:1.25;font-family:sans-serif;letter-spacing:0px;word-spacing:0px;fill:#000000;fill-opacity:1;stroke:none;stroke-linecap:butt;stroke-linejoin:round"
 transform="matrix(0,-1.2421941,1.2421941,0,446.01137,731.26079)"><flowRegion
 id="flowRegion160873"
 style="stroke-linecap:butt;stroke-linejoin:round"><rect
 id="rect160871"
 width="92.250237"
 height="31.330269"
 x="429.92093"
 y="82.876381"
 style="stroke-linecap:butt;stroke-linejoin:round" /></flowRegion><flowPara
 id="flowPara160879"
 style="stroke-linecap:butt;stroke-linejoin:round"><flowSpan
 id="flowSpan160875"
 style="font-size:64.99999762%;baseline-shift:super;stroke-linecap:butt;stroke-linejoin:round">16</flowSpan>O<flowSpan
 style="font-size:64.99999762%;baseline-shift:super;stroke-linecap:butt;stroke-linejoin:round"
 id="flowSpan160883">18</flowSpan>O<flowSpan
 style="font-size:65%;baseline-shift:super"
 id="flowSpan161005">+</flowSpan></flowPara></flowRoot><flowRoot
 transform="matrix(0,-1.2421941,1.2421941,0,434.47291,765.41464)"
 style="font-style:normal;font-weight:normal;font-size:7.33333349px;line-height:1.25;font-family:sans-serif;letter-spacing:0px;word-spacing:0px;fill:#000000;fill-opacity:1;stroke:none;stroke-linecap:butt;stroke-linejoin:round"
 id="flowRoot160895"
 xml:space="preserve"><flowRegion
 style="stroke-linecap:butt;stroke-linejoin:round"
 id="flowRegion160887"><rect
 style="stroke-linecap:butt;stroke-linejoin:round"
 y="82.876381"
 x="429.92093"
 height="31.330269"
 width="92.250237"
 id="rect160885" /></flowRegion><flowPara
 style="stroke-linecap:butt;stroke-linejoin:round"
 id="flowPara160893"><flowSpan
 style="font-size:64.99999762%;baseline-shift:super;stroke-linecap:butt;stroke-linejoin:round"
 id="flowSpan160889">16</flowSpan>O<flowSpan
 id="flowSpan160891"
 style="font-size:64.99999762%;baseline-shift:super;stroke-linecap:butt;stroke-linejoin:round">17</flowSpan>O<flowSpan
 style="font-size:65%;baseline-shift:super"
 id="flowSpan161007">+</flowSpan></flowPara></flowRoot><flowRoot
 transform="matrix(0,-1.2421941,1.2421941,0,470.31907,778.03002)"
 style="font-style:normal;font-weight:normal;font-size:7.33333349px;line-height:1.25;font-family:sans-serif;letter-spacing:0px;word-spacing:0px;fill:#000000;fill-opacity:1;stroke:none;stroke-linecap:butt;stroke-linejoin:round"
 id="flowRoot160907"
 xml:space="preserve"><flowRegion
 style="stroke-linecap:butt;stroke-linejoin:round"
 id="flowRegion160899"><rect
 style="stroke-linecap:butt;stroke-linejoin:round"
 y="82.876381"
 x="429.92093"
 height="31.330269"
 width="92.250237"
 id="rect160897" /></flowRegion><flowPara
 style="stroke-linecap:butt;stroke-linejoin:round;font-weight:bold"
 id="flowPara160905"><flowSpan
 style="font-size:64.99999762%;baseline-shift:super;stroke-linecap:butt;stroke-linejoin:round;font-weight:bold"
 id="flowSpan160901">18</flowSpan>O<flowSpan
 style="font-size:65%;baseline-shift:sub;font-weight:bold"
 id="flowSpan161011">2</flowSpan><flowSpan
 style="font-size:65%;baseline-shift:super;font-weight:bold"
 id="flowSpan161009">+</flowSpan></flowPara></flowRoot><flowRoot
 xml:space="preserve"
 id="flowRoot160921"
 style="font-style:normal;font-weight:normal;font-size:7.33333349px;line-height:1.25;font-family:sans-serif;letter-spacing:0px;word-spacing:0px;fill:#000000;fill-opacity:1;stroke:none;stroke-linecap:butt;stroke-linejoin:round"
 transform="matrix(0,-1.2421941,1.2421941,0,518.23957,688.52934)"><flowRegion
 id="flowRegion160913"
 style="stroke-linecap:butt;stroke-linejoin:round"><rect
 id="rect160911"
 width="92.250237"
 height="31.330269"
 x="429.92093"
 y="82.876381"
 style="stroke-linecap:butt;stroke-linejoin:round" /></flowRegion><flowPara
 id="flowPara160919"
 style="stroke-linecap:butt;stroke-linejoin:round"><flowSpan
 style="font-size:65%;baseline-shift:super"
 id="flowSpan161135">40</flowSpan>Ar<flowSpan
 style="font-size:64.99999762%;baseline-shift:super;stroke-linecap:butt;stroke-linejoin:round"
 id="flowSpan160923">+</flowSpan></flowPara></flowRoot><flowRoot
 transform="matrix(0,-1.2421941,1.2421941,0,569.12403,732.23637)"
 style="font-style:normal;font-weight:normal;font-size:7.33333349px;line-height:1.25;font-family:sans-serif;letter-spacing:0px;word-spacing:0px;fill:#000000;fill-opacity:1;stroke:none;stroke-linecap:butt;stroke-linejoin:round"
 id="flowRoot160965"
 xml:space="preserve"><flowRegion
 style="stroke-linecap:butt;stroke-linejoin:round"
 id="flowRegion160953"><rect
 style="stroke-linecap:butt;stroke-linejoin:round"
 y="82.876381"
 x="429.92093"
 height="31.330269"
 width="92.250237"
 id="rect160951" /></flowRegion><flowPara
 style="stroke-linecap:butt;stroke-linejoin:round"
 id="flowPara160963"><flowSpan
 id="flowSpan160955"
 style="font-size:64.99999762%;baseline-shift:super;stroke-linecap:butt;stroke-linejoin:round">12</flowSpan>C<flowSpan
 id="flowSpan160957"
 style="font-size:64.99999762%;baseline-shift:super;stroke-linecap:butt;stroke-linejoin:round">16</flowSpan>O<flowSpan
 id="flowSpan160959"
 style="font-size:64.99999762%;baseline-shift:sub;stroke-linecap:butt;stroke-linejoin:round">2</flowSpan><flowSpan
 id="flowSpan160961"
 style="font-size:64.99999762%;baseline-shift:super;stroke-linecap:butt;stroke-linejoin:round">+</flowSpan></flowPara></flowRoot><flowRoot
 xml:space="preserve"
 id="flowRoot160981"
 style="font-style:normal;font-weight:normal;font-size:7.33333349px;line-height:1.25;font-family:sans-serif;letter-spacing:0px;word-spacing:0px;fill:#000000;fill-opacity:1;stroke:none;stroke-linecap:butt;stroke-linejoin:round"
 transform="matrix(0,-1.2421941,1.2421941,0,580.50865,801.62098)"><flowRegion
 id="flowRegion160969"
 style="stroke-linecap:butt;stroke-linejoin:round"><rect
 id="rect160967"
 width="92.250237"
 height="31.330269"
 x="429.92093"
 y="82.876381"
 style="stroke-linecap:butt;stroke-linejoin:round" /></flowRegion><flowPara
 id="flowPara160979"
 style="stroke-linecap:butt;stroke-linejoin:round"><flowSpan
 style="font-size:64.99999762%;baseline-shift:super;stroke-linecap:butt;stroke-linejoin:round"
 id="flowSpan160971">13</flowSpan>C<flowSpan
 style="font-size:64.99999762%;baseline-shift:super;stroke-linecap:butt;stroke-linejoin:round"
 id="flowSpan160973">16</flowSpan>O<flowSpan
 style="font-size:64.99999762%;baseline-shift:sub;stroke-linecap:butt;stroke-linejoin:round"
 id="flowSpan160975">2</flowSpan><flowSpan
 style="font-size:64.99999762%;baseline-shift:super;stroke-linecap:butt;stroke-linejoin:round"
 id="flowSpan160977">+</flowSpan></flowPara></flowRoot><flowRoot
 xml:space="preserve"
 id="flowRoot160997"
 style="font-style:normal;font-weight:normal;font-size:7.33333349px;line-height:1.25;font-family:sans-serif;letter-spacing:0px;word-spacing:0px;fill:#000000;fill-opacity:1;stroke:none;stroke-linecap:butt;stroke-linejoin:round"
 transform="matrix(0,-1.2421941,1.2421941,0,594.0471,779.77483)"><flowRegion
 id="flowRegion160985"
 style="stroke-linecap:butt;stroke-linejoin:round"><rect
 id="rect160983"
 width="92.250237"
 height="31.330269"
 x="429.92093"
 y="82.876381"
 style="stroke-linecap:butt;stroke-linejoin:round" /></flowRegion><flowPara
 id="flowPara160995"
 style="stroke-linecap:butt;stroke-linejoin:round;font-weight:bold"><flowSpan
 style="font-size:64.99999762%;baseline-shift:super;stroke-linecap:butt;stroke-linejoin:round;font-weight:bold"
 id="flowSpan160987">12</flowSpan>C<flowSpan
 style="font-size:64.99999762%;baseline-shift:super;stroke-linecap:butt;stroke-linejoin:round;font-weight:bold"
 id="flowSpan160989">16</flowSpan>O<flowSpan
 style="font-size:65%;baseline-shift:super;font-weight:bold"
 id="flowSpan160999">18</flowSpan>O<flowSpan
 style="font-size:64.99999762%;baseline-shift:super;stroke-linecap:butt;stroke-linejoin:round;font-weight:bold"
 id="flowSpan160993">+</flowSpan></flowPara></flowRoot><flowRoot
 transform="matrix(0,-1.2421941,1.2421941,0,225.24056,658.46941)"
 style="font-style:normal;font-weight:normal;font-size:7.33333349px;line-height:1.25;font-family:sans-serif;letter-spacing:0px;word-spacing:0px;fill:#000000;fill-opacity:1;stroke:none;stroke-linecap:butt;stroke-linejoin:round"
 id="flowRoot161023"
 xml:space="preserve"><flowRegion
 style="stroke-linecap:butt;stroke-linejoin:round"
 id="flowRegion161015"><rect
 style="stroke-linecap:butt;stroke-linejoin:round"
 y="82.876381"
 x="429.92093"
 height="31.330269"
 width="92.250237"
 id="rect161013" /></flowRegion><flowPara
 style="stroke-linecap:butt;stroke-linejoin:round"
 id="flowPara161021"><flowSpan
 id="flowSpan161017"
 style="font-size:64.99999762%;baseline-shift:super;stroke-linecap:butt;stroke-linejoin:round">16</flowSpan>O<flowSpan
 style="font-size:64.99999762%;baseline-shift:sub;stroke-linecap:butt;stroke-linejoin:round"
 id="flowSpan161041">2</flowSpan><flowSpan
 style="font-size:64.99999762%;baseline-shift:super;stroke-linecap:butt;stroke-linejoin:round"
 id="flowSpan161039">++</flowSpan></flowPara></flowRoot><flowRoot
 xml:space="preserve"
 id="flowRoot161037"
 style="font-style:normal;font-weight:normal;font-size:7.33333349px;line-height:1.25;font-family:sans-serif;letter-spacing:0px;word-spacing:0px;fill:#000000;fill-opacity:1;stroke:none;stroke-linecap:butt;stroke-linejoin:round"
 transform="matrix(0,-1.2421941,1.2421941,0,202.00752,629.12007)"><flowRegion
 id="flowRegion161027"
 style="stroke-linecap:butt;stroke-linejoin:round"><rect
 id="rect161025"
 width="92.250237"
 height="31.330269"
 x="429.92093"
 y="82.876381"
 style="stroke-linecap:butt;stroke-linejoin:round" /></flowRegion><flowPara
 id="flowPara161035"
 style="stroke-linecap:butt;stroke-linejoin:round"><flowSpan
 id="flowSpan161029"
 style="font-size:64.99999762%;baseline-shift:super;stroke-linecap:butt;stroke-linejoin:round">14</flowSpan>N<flowSpan
 style="font-size:64.99999762%;baseline-shift:sub;stroke-linecap:butt;stroke-linejoin:round"
 id="flowSpan161031">2</flowSpan><flowSpan
 style="font-size:64.99999762%;baseline-shift:super;stroke-linecap:butt;stroke-linejoin:round"
 id="flowSpan161033">++</flowSpan></flowPara></flowRoot><flowRoot
 transform="matrix(0,-1.2421941,1.2421941,0,175.27787,768.23637)"
 style="font-style:normal;font-weight:normal;font-size:7.33333349px;line-height:1.25;font-family:sans-serif;letter-spacing:0px;word-spacing:0px;fill:#000000;fill-opacity:1;stroke:none;stroke-linecap:butt;stroke-linejoin:round"
 id="flowRoot161057"
 xml:space="preserve"><flowRegion
 style="stroke-linecap:butt;stroke-linejoin:round"
 id="flowRegion161045"><rect
 style="stroke-linecap:butt;stroke-linejoin:round"
 y="82.876381"
 x="429.92093"
 height="31.330269"
 width="92.250237"
 id="rect161043" /></flowRegion><flowPara
 style="stroke-linecap:butt;stroke-linejoin:round"
 id="flowPara161055"><flowSpan
 id="flowSpan161047"
 style="font-size:64.99999762%;baseline-shift:super;stroke-linecap:butt;stroke-linejoin:round">12</flowSpan>C<flowSpan
 id="flowSpan161053"
 style="font-size:64.99999762%;baseline-shift:super;stroke-linecap:butt;stroke-linejoin:round">+</flowSpan></flowPara></flowRoot><flowRoot
 transform="matrix(0,-1.2421941,1.2421941,0,114.31521,725.73545)"
 style="font-style:normal;font-weight:normal;font-size:7.33333349px;line-height:1.25;font-family:sans-serif;letter-spacing:0px;word-spacing:0px;fill:#000000;fill-opacity:1;stroke:none;stroke-linecap:butt;stroke-linejoin:round"
 id="flowRoot161071"
 xml:space="preserve"><flowRegion
 style="stroke-linecap:butt;stroke-linejoin:round"
 id="flowRegion161061"><rect
 style="stroke-linecap:butt;stroke-linejoin:round"
 y="82.876381"
 x="429.92093"
 height="31.330269"
 width="92.250237"
 id="rect161059" /></flowRegion><flowPara
 style="stroke-linecap:butt;stroke-linejoin:round"
 id="flowPara161069"><flowSpan
 style="font-size:64.99999762%;baseline-shift:super;stroke-linecap:butt;stroke-linejoin:round"
 id="flowSpan161063">14</flowSpan>N<flowSpan
 id="flowSpan161067"
 style="font-size:64.99999762%;baseline-shift:super;stroke-linecap:butt;stroke-linejoin:round">++</flowSpan></flowPara></flowRoot><flowRoot
 xml:space="preserve"
 id="flowRoot161085"
 style="font-style:normal;font-weight:normal;font-size:7.33333349px;line-height:1.25;font-family:sans-serif;letter-spacing:0px;word-spacing:0px;fill:#000000;fill-opacity:1;stroke:none;stroke-linecap:butt;stroke-linejoin:round"
 transform="matrix(0,-1.2421941,1.2421941,0,128.00979,748.00787)"><flowRegion
 id="flowRegion161075"
 style="stroke-linecap:butt;stroke-linejoin:round"><rect
 id="rect161073"
 width="92.250237"
 height="31.330269"
 x="429.92093"
 y="82.876381"
 style="stroke-linecap:butt;stroke-linejoin:round" /></flowRegion><flowPara
 id="flowPara161083"
 style="stroke-linecap:butt;stroke-linejoin:round"><flowSpan
 style="font-size:64.99999762%;baseline-shift:super;stroke-linecap:butt;stroke-linejoin:round"
 id="flowSpan161077">16</flowSpan>O<flowSpan
 id="flowSpan161081"
 style="font-size:64.99999762%;baseline-shift:super;stroke-linecap:butt;stroke-linejoin:round">++</flowSpan></flowPara></flowRoot><flowRoot
 xml:space="preserve"
 id="flowRoot161097"
 style="font-style:normal;font-weight:normal;font-size:7.33333349px;line-height:1.25;font-family:sans-serif;letter-spacing:0px;word-spacing:0px;fill:#000000;fill-opacity:1;stroke:none;stroke-linecap:butt;stroke-linejoin:round"
 transform="matrix(0,-1.2421941,1.2421941,0,78.161364,792.35083)"><flowRegion
 id="flowRegion161089"
 style="stroke-linecap:butt;stroke-linejoin:round"><rect
 id="rect161087"
 width="92.250237"
 height="31.330269"
 x="429.92093"
 y="82.876381"
 style="stroke-linecap:butt;stroke-linejoin:round" /></flowRegion><flowPara
 id="flowPara161095"
 style="stroke-linecap:butt;stroke-linejoin:round">He<flowSpan
 style="font-size:64.99999762%;baseline-shift:super;stroke-linecap:butt;stroke-linejoin:round"
 id="flowSpan161093">+</flowSpan></flowPara></flowRoot><flowRoot
 transform="matrix(0,-1.2421941,1.2421941,0,55.482254,727.46055)"
 style="font-style:normal;font-weight:normal;font-size:7.33333349px;line-height:1.25;font-family:sans-serif;letter-spacing:0px;word-spacing:0px;fill:#000000;fill-opacity:1;stroke:none;stroke-linecap:butt;stroke-linejoin:round"
 id="flowRoot161107"
 xml:space="preserve"><flowRegion
 style="stroke-linecap:butt;stroke-linejoin:round"
 id="flowRegion161101"><rect
 style="stroke-linecap:butt;stroke-linejoin:round"
 y="82.876381"
 x="429.92093"
 height="31.330269"
 width="92.250237"
 id="rect161099" /></flowRegion><flowPara
 style="stroke-linecap:butt;stroke-linejoin:round"
 id="flowPara161105">H<flowSpan
 style="font-size:64.99999762%;baseline-shift:sub;stroke-linecap:butt;stroke-linejoin:round"
 id="flowSpan161109">2</flowSpan><flowSpan
 id="flowSpan161103"
 style="font-size:64.99999762%;baseline-shift:super;stroke-linecap:butt;stroke-linejoin:round">+</flowSpan></flowPara></flowRoot><flowRoot
 xml:space="preserve"
 id="flowRoot161121"
 style="font-style:normal;font-weight:normal;font-size:7.33333349px;line-height:1.25;font-family:sans-serif;letter-spacing:0px;word-spacing:0px;fill:#000000;fill-opacity:1;stroke:none;stroke-linecap:butt;stroke-linejoin:round"
 transform="matrix(0,-1.2421941,1.2421941,0,43.842188,688.84164)"><flowRegion
 id="flowRegion161113"
 style="stroke-linecap:butt;stroke-linejoin:round"><rect
 id="rect161111"
 width="92.250237"
 height="31.330269"
 x="429.92093"
 y="82.876381"
 style="stroke-linecap:butt;stroke-linejoin:round" /></flowRegion><flowPara
 id="flowPara161119"
 style="stroke-linecap:butt;stroke-linejoin:round">H<flowSpan
 style="font-size:64.99999762%;baseline-shift:super;stroke-linecap:butt;stroke-linejoin:round"
 id="flowSpan161117">+</flowSpan></flowPara></flowRoot></svg>
